<svg width="2500" height="811" viewBox="0 0 2500 811" fill="none" xmlns="http://www.w3.org/2000/svg">
<path d="M0.000366206 198.888C0.000366206 198.888 292.478 248.888 479.885 248.888C776.416 248.888 1126.55 0.522949 1457.58 0.522949C1728.57 0.522949 1919.67 134.763 1919.97 134.888L1919.97 612.164C1919.97 612.164 1627.49 562.164 1440.09 562.164C1143.56 562.164 793.426 810.529 462.394 810.529C191.185 810.529 0 732.164 0 732.164L0.000366206 198.888Z" fill="#F4F7FE"/>
<path fill-rule="evenodd" clip-rule="evenodd" d="M2500 810.435V248.397C2488.43 248.718 2477.13 248.888 2466.19 248.888C2322.01 248.888 2165.15 190.166 2003.97 129.829C1833.68 66.0774 1658.57 0.522949 1488.5 0.522949C1217.29 0.522949 1036.79 110.025 1036.79 110.025L1159.45 533.143C1159.45 533.143 1318.58 562.164 1505.99 562.164C1650.18 562.164 1807.04 620.886 1968.21 681.224C2138.5 744.975 2313.61 810.529 2483.68 810.529C2489.15 810.529 2494.59 810.497 2500 810.435Z" fill="#F4F7FE"/>
</svg>
