<svg width="2500" height="861" viewBox="0 0 2500 861" fill="none" xmlns="http://www.w3.org/2000/svg">
<path d="M0.000366206 198.365C0.000366206 198.365 292.478 248.365 479.885 248.365C776.416 248.365 1126.55 0 1457.58 0C1728.57 0 1919.67 134.24 1919.97 134.365L1919.97 661.641C1919.97 661.641 1627.49 611.641 1440.09 611.641C1143.56 611.641 793.426 860.006 462.394 860.006C191.185 860.006 0 781.641 0 781.641L0.000366206 198.365Z" fill="#F4F7FE"/>
<path fill-rule="evenodd" clip-rule="evenodd" d="M2500 859.912V247.874C2488.43 248.195 2477.13 248.365 2466.19 248.365C2322.01 248.365 2165.15 189.643 2003.97 129.306C1833.68 65.5545 1658.57 0 1488.5 0C1217.29 0 1036.79 109.503 1036.79 109.503L1159.45 582.62C1159.45 582.62 1318.58 611.641 1505.99 611.641C1650.18 611.641 1807.04 670.363 1968.21 730.701C2138.5 794.452 2313.61 860.006 2483.68 860.006C2489.15 860.006 2494.59 859.974 2500 859.912Z" fill="#F4F7FE"/>
</svg>
