<svg width="2500" height="741" viewBox="0 0 2500 741" fill="none" xmlns="http://www.w3.org/2000/svg">
<path d="M0.000366206 198.418C0.000366206 198.418 292.478 248.418 479.885 248.418C776.416 248.418 1126.55 0.0522461 1457.58 0.0522461C1728.57 0.0522461 1919.67 134.293 1919.97 134.418L1919.97 541.693C1919.97 541.693 1627.49 491.693 1440.09 491.693C1143.56 491.693 793.426 740.059 462.394 740.059C191.185 740.059 0 661.693 0 661.693L0.000366206 198.418Z" fill="#F4F7FE"/>
<path fill-rule="evenodd" clip-rule="evenodd" d="M2500 739.964V247.927C2488.43 248.247 2477.13 248.418 2466.19 248.418C2322.01 248.418 2165.15 189.695 2003.97 129.358C1833.68 65.6067 1658.57 0.0522461 1488.5 0.0522461C1217.29 0.0522461 1036.79 109.555 1036.79 109.555L1159.45 462.672C1159.45 462.672 1318.58 491.693 1505.99 491.693C1650.18 491.693 1807.04 550.415 1968.21 610.753C2138.5 674.504 2313.61 740.059 2483.68 740.059C2489.15 740.059 2494.59 740.027 2500 739.964Z" fill="#F4F7FE"/>
</svg>
