<svg width="2500" height="771" viewBox="0 0 2500 771" fill="none" xmlns="http://www.w3.org/2000/svg">
<path d="M0.000366206 198.366C0.000366206 198.366 292.478 248.366 479.885 248.366C776.416 248.366 1126.55 0.000976562 1457.58 0.000976562C1728.57 0.000976562 1919.67 134.241 1919.97 134.366L1919.97 571.642C1919.97 571.642 1627.49 521.642 1440.09 521.642C1143.56 521.642 793.426 770.007 462.394 770.007C191.185 770.007 0 691.642 0 691.642L0.000366206 198.366Z" fill="#F4F7FE"/>
<path fill-rule="evenodd" clip-rule="evenodd" d="M2500 769.913V247.875C2488.43 248.196 2477.13 248.366 2466.19 248.366C2322.01 248.366 2165.15 189.644 2003.97 129.307C1833.68 65.5554 1658.57 0.000976562 1488.5 0.000976562C1217.29 0.000976562 1036.79 109.503 1036.79 109.503L1159.45 492.621C1159.45 492.621 1318.58 521.642 1505.99 521.642C1650.18 521.642 1807.04 580.364 1968.21 640.702C2138.5 704.453 2313.61 770.007 2483.68 770.007C2489.15 770.007 2494.59 769.975 2500 769.913Z" fill="#F4F7FE"/>
</svg>
