<svg width="350" height="358" viewBox="0 0 350 358" fill="none" xmlns="http://www.w3.org/2000/svg">
<path d="M119.135 0H85.412C79.1969 0 73.2364 2.46884 68.8417 6.86356C64.447 11.2583 61.978 17.2189 61.978 23.434C61.978 29.649 64.447 35.6094 68.8417 40.0041C73.2364 44.3988 79.1969 46.8679 85.412 46.8679H119.135C125.35 46.8679 131.311 44.3988 135.705 40.0041C140.1 35.6094 142.569 29.649 142.569 23.434C142.569 17.2189 140.1 11.2583 135.705 6.86356C131.311 2.46884 125.35 0 119.135 0Z" fill="#04CD99"/>
<path d="M80.6531 20.0552C80.6024 19.9913 80.5653 19.9178 80.5437 19.8391C80.5222 19.7604 80.5167 19.6783 80.5278 19.5975C80.5381 19.5159 80.5647 19.4371 80.6059 19.366C80.6471 19.2948 80.7021 19.2327 80.7677 19.1832L85.7432 15.2648C85.8686 15.1722 85.9939 15.085 86.1247 15.0032C86.2497 14.9171 86.398 14.8716 86.5498 14.8726H88.3319C88.4957 14.874 88.6523 14.9401 88.7676 15.0564C88.8829 15.1728 88.9476 15.3298 88.9476 15.4937V30.3062C88.9476 30.3871 88.9317 30.4672 88.9008 30.542C88.8698 30.6167 88.8245 30.6844 88.7673 30.7415C88.7102 30.7987 88.6422 30.8442 88.5675 30.8751C88.4928 30.9061 88.4127 30.922 88.3319 30.922H86.4735C86.3924 30.9233 86.3118 30.9082 86.2369 30.8773C86.1619 30.8463 86.0941 30.8002 86.0375 30.7421C85.9792 30.6854 85.9327 30.6176 85.9009 30.5428C85.8691 30.4679 85.8525 30.3875 85.8522 30.3062V18.9817L82.5823 21.5267C82.5202 21.5768 82.4487 21.6137 82.3719 21.6353C82.295 21.6568 82.2145 21.6625 82.1354 21.652C81.9701 21.6241 81.8199 21.5393 81.7105 21.4123L80.6531 20.0552Z" fill="#F4F7FE"/>
<path d="M104.18 20.8618C104.18 21.1506 104.18 21.4723 104.18 21.8211V24.001C104.18 24.3498 104.18 24.6712 104.18 24.96C104.141 25.7957 104.006 26.6243 103.777 27.4289C103.573 28.1548 103.214 28.8277 102.725 29.4015C102.21 29.9789 101.566 30.4254 100.845 30.7041C99.0048 31.3377 97.0059 31.3377 95.166 30.7041C94.4495 30.4252 93.8104 29.9785 93.3022 29.4015C92.8115 28.828 92.4507 28.1551 92.2449 27.4289C92.0155 26.6243 91.8802 25.7957 91.8416 24.96C91.8144 24.3823 91.7981 23.723 91.7981 22.9818C91.7981 22.2406 91.798 21.5757 91.8416 20.998C91.8816 20.1553 92.0168 19.3199 92.2449 18.5076C92.4492 17.7709 92.8099 17.0868 93.3022 16.502C93.8097 15.915 94.4481 15.4557 95.166 15.1613C96.0716 14.8075 97.0389 14.6388 98.0108 14.6653C98.9771 14.6392 99.9394 14.8003 100.845 15.1395C101.566 15.4182 102.21 15.8647 102.725 16.4421C103.214 17.0159 103.573 17.6891 103.777 18.415C104.004 19.2125 104.14 20.0334 104.18 20.8618ZM94.9153 24.8238C94.9299 25.7344 95.206 26.6217 95.711 27.3797C96.1579 27.9846 96.9208 28.2897 97.9889 28.2897C99.0571 28.2897 99.82 27.9846 100.272 27.3797C100.773 26.6199 101.047 25.7334 101.063 24.8238C101.063 24.2461 101.106 23.6031 101.106 22.9001C101.106 22.1971 101.106 21.5539 101.063 20.9762C101.046 20.065 100.772 19.1772 100.272 18.415C99.82 17.8155 99.0571 17.5102 97.9889 17.5102C96.9208 17.5102 96.1579 17.8155 95.711 18.415C95.207 19.1754 94.931 20.064 94.9153 20.9762C94.9153 21.5539 94.8717 22.1971 94.8717 22.9001C94.8717 23.6031 94.9099 24.2461 94.9372 24.8238H94.9153Z" fill="#F4F7FE"/>
<path d="M119.129 20.8618C119.129 21.1506 119.129 21.4723 119.129 21.8211V24.001C119.129 24.3498 119.129 24.6712 119.129 24.96C119.094 25.796 118.958 26.6249 118.726 27.4289C118.522 28.1548 118.163 28.8277 117.674 29.4015C117.16 29.9789 116.515 30.4254 115.794 30.7041C113.954 31.3377 111.955 31.3377 110.115 30.7041C109.399 30.4252 108.76 29.9785 108.252 29.4015C107.761 28.828 107.4 28.1551 107.194 27.4289C106.965 26.6243 106.83 25.7957 106.791 24.96C106.791 24.3823 106.748 23.723 106.748 22.9818C106.748 22.2406 106.748 21.5757 106.791 20.998C106.831 20.1553 106.966 19.3199 107.194 18.5076C107.399 17.7709 107.759 17.0868 108.252 16.502C108.759 15.915 109.398 15.4557 110.115 15.1613C111.021 14.8075 111.988 14.6388 112.96 14.6653C113.927 14.6392 114.889 14.8003 115.794 15.1395C116.515 15.4182 117.16 15.8647 117.674 16.4421C118.163 17.0159 118.522 17.6891 118.726 18.415C118.956 19.2119 119.092 20.0331 119.129 20.8618ZM109.865 24.8238C109.879 25.7344 110.156 26.6217 110.66 27.3797C111.107 27.9846 111.87 28.2897 112.938 28.2897C114.007 28.2897 114.77 27.9846 115.222 27.3797C115.725 26.6209 115.999 25.7338 116.012 24.8238C116.045 24.2461 116.056 23.6031 116.056 22.9001C116.056 22.1971 116.056 21.5539 116.012 20.9762C115.998 20.0645 115.724 19.176 115.222 18.415C114.77 17.8155 114.007 17.5102 112.938 17.5102C111.87 17.5102 111.107 17.8155 110.66 18.415C110.156 19.1754 109.88 20.064 109.865 20.9762C109.838 21.5539 109.821 22.1971 109.821 22.9001C109.821 23.6031 109.859 24.2461 109.887 24.8238H109.865Z" fill="#F4F7FE"/>
<path d="M129.353 14.8071C130.04 14.9222 130.706 15.1427 131.326 15.4609C131.849 15.7258 132.329 16.0696 132.748 16.4801C133.105 16.8293 133.4 17.2365 133.62 17.6845C133.803 18.0556 133.919 18.4558 133.963 18.867C133.974 18.9501 133.963 19.0347 133.932 19.1126C133.902 19.1906 133.853 19.2598 133.789 19.3141C133.667 19.4257 133.507 19.4862 133.342 19.4831H131.74C131.535 19.4986 131.33 19.4469 131.157 19.3359C131.014 19.2237 130.892 19.087 130.797 18.9325C130.536 18.5206 130.179 18.1783 129.756 17.9351C129.114 17.6129 128.397 17.4663 127.68 17.5102C127.299 17.5094 126.918 17.5514 126.546 17.6355C126.215 17.7104 125.897 17.8355 125.603 18.0062C125.353 18.1504 125.139 18.3497 124.977 18.5892C124.821 18.8334 124.738 19.117 124.738 19.4067C124.738 19.6963 124.821 19.9799 124.977 20.2241C125.194 20.4816 125.473 20.6786 125.789 20.7963C126.257 20.9853 126.74 21.135 127.233 21.2433C127.822 21.3796 128.536 21.543 129.38 21.7228C130.175 21.8879 130.954 22.1231 131.707 22.4259C132.278 22.6543 132.805 22.9786 133.266 23.3849C133.656 23.7415 133.955 24.1865 134.138 24.6821C134.32 25.2208 134.409 25.7866 134.399 26.3551C134.404 26.9308 134.287 27.5008 134.056 28.0281C133.821 28.5574 133.482 29.034 133.059 29.4289C132.593 29.8631 132.054 30.2115 131.467 30.4587C130.786 30.7504 130.067 30.9449 129.331 31.0364V32.5952C129.331 32.6761 129.315 32.7562 129.285 32.831C129.254 32.9058 129.208 32.9738 129.151 33.0311C129.094 33.0887 129.026 33.1343 128.952 33.1652C128.877 33.1961 128.796 33.2117 128.715 33.211H126.857C126.693 33.211 126.536 33.1461 126.42 33.0308C126.303 32.9155 126.237 32.759 126.236 32.5952V31.0364C125.572 30.9318 124.922 30.7488 124.301 30.4914C123.731 30.2583 123.196 29.9445 122.715 29.5595C122.276 29.2076 121.907 28.777 121.625 28.2897C121.346 27.8021 121.189 27.2545 121.167 26.6931C121.156 26.6104 121.166 26.5263 121.195 26.4483C121.225 26.3702 121.273 26.3006 121.336 26.246C121.459 26.1354 121.618 26.075 121.783 26.077H123.418C123.612 26.0526 123.81 26.0927 123.979 26.1912C124.148 26.2897 124.281 26.441 124.356 26.622C124.471 26.8298 124.602 27.0285 124.748 27.2162C124.916 27.4364 125.125 27.6216 125.364 27.7612C125.67 27.9307 125.998 28.0572 126.339 28.1372C126.816 28.2492 127.305 28.3003 127.794 28.2897C128.24 28.289 128.684 28.2544 129.124 28.1862C129.513 28.1284 129.892 28.0128 130.247 27.8429C130.545 27.6996 130.811 27.4953 131.026 27.2434C131.232 26.9962 131.338 26.6816 131.326 26.3604C131.331 26.2087 131.305 26.0575 131.249 25.9161C131.194 25.7746 131.111 25.6459 131.004 25.5377C130.723 25.287 130.39 25.101 130.029 24.9927C129.494 24.8127 128.948 24.6671 128.394 24.5568C127.751 24.4206 127.01 24.2407 126.17 24.0118C125.483 23.8554 124.812 23.6364 124.165 23.3578C123.638 23.1393 123.155 22.8251 122.742 22.4312C122.369 22.0671 122.082 21.6239 121.903 21.1342C121.708 20.5628 121.616 19.9614 121.631 19.3577C121.628 18.7946 121.745 18.2372 121.974 17.7228C122.206 17.2154 122.527 16.7539 122.922 16.3604C123.348 15.9436 123.842 15.6026 124.383 15.3521C124.972 15.0766 125.595 14.8787 126.236 14.7635V13.2049C126.237 13.0411 126.303 12.8844 126.42 12.769C126.536 12.6537 126.693 12.5889 126.857 12.5889H128.715C128.796 12.5881 128.877 12.6038 128.952 12.6347C129.026 12.6656 129.094 12.7111 129.151 12.7688C129.208 12.8261 129.254 12.8941 129.285 12.9689C129.315 13.0437 129.331 13.124 129.331 13.2049L129.353 14.8071Z" fill="#F4F7FE"/>
<path d="M74.545 25.7172V29.6518C74.5422 29.8056 74.4799 29.9523 74.3711 30.0611C74.2623 30.1698 74.1156 30.2323 73.9618 30.2351H72.3269C72.1731 30.2323 72.0265 30.1698 71.9178 30.0611C71.809 29.9523 71.7467 29.8056 71.7439 29.6518V25.7172H67.8745C67.7207 25.7144 67.574 25.652 67.4652 25.5432C67.3565 25.4344 67.2941 25.2877 67.2913 25.1339V23.7063C67.2901 23.6297 67.3049 23.5537 67.335 23.4833C67.365 23.4129 67.4096 23.3496 67.4658 23.2976C67.5178 23.2414 67.5811 23.1967 67.6515 23.1666C67.7219 23.1366 67.7979 23.1217 67.8745 23.123H71.7439V19.2102C71.7467 19.0565 71.809 18.9097 71.9178 18.801C72.0265 18.6922 72.1731 18.6297 72.3269 18.627H73.9618C74.1156 18.6297 74.2623 18.6922 74.3711 18.801C74.4799 18.9097 74.5422 19.0565 74.545 19.2102V23.123H78.3926C78.4691 23.1217 78.5451 23.1366 78.6156 23.1666C78.686 23.1967 78.7492 23.2414 78.8013 23.2976C78.8574 23.3496 78.902 23.4129 78.9321 23.4833C78.9621 23.5537 78.977 23.6297 78.9757 23.7063V25.1177C78.9729 25.2715 78.9106 25.4182 78.8018 25.527C78.6931 25.6357 78.5463 25.6979 78.3926 25.7007L74.545 25.7172Z" fill="#F4F7FE"/>
<path d="M195.29 105.933C128.045 101.709 88.2455 143.018 88.2455 143.018C61.3618 169.122 50.3696 195.597 47.1542 218.53C47.1542 218.53 41.4101 247.812 51.623 273.725C57.1817 291.78 69.3402 315.961 95.9295 334.185C108.377 342.992 121.424 348.354 132.508 351.586C135.904 352.659 139.362 353.525 142.863 354.18C153.506 356.414 160.629 356.573 160.629 356.573C274.104 367.614 292.099 195.221 292.099 195.221C300.426 109.813 195.29 105.933 195.29 105.933Z" fill="#EAF0FF"/>
<path d="M273.309 13.063H251.684C249.712 13.063 247.759 13.4516 245.936 14.2064C244.114 14.9612 242.458 16.0675 241.064 17.4622C239.669 18.8569 238.563 20.5125 237.808 22.3348C237.053 24.157 236.665 26.1102 236.665 28.0826C236.665 32.0665 238.247 35.8875 241.063 38.7051C243.88 41.5226 247.7 43.106 251.684 43.1075H273.309C277.293 43.106 281.113 41.5226 283.93 38.7051C286.746 35.8875 288.328 32.0665 288.328 28.0826C288.328 26.1102 287.94 24.157 287.185 22.3348C286.43 20.5125 285.324 18.8569 283.929 17.4622C282.535 16.0675 280.879 14.9612 279.057 14.2064C277.234 13.4516 275.281 13.063 273.309 13.063Z" fill="#5E56F1"/>
<path d="M254.551 22.9055C254.552 22.8009 254.595 22.7011 254.669 22.6276C254.744 22.5542 254.844 22.5132 254.949 22.5132H260.475C260.527 22.5125 260.578 22.522 260.626 22.5414C260.675 22.5608 260.719 22.5895 260.756 22.626C260.793 22.6626 260.822 22.7061 260.842 22.754C260.862 22.802 260.872 22.8535 260.872 22.9055V23.9518C260.874 24.0035 260.864 24.0548 260.844 24.1026C260.824 24.1505 260.795 24.1939 260.758 24.2298C260.722 24.2684 260.678 24.2989 260.629 24.3195C260.58 24.3402 260.528 24.3504 260.475 24.3496H256.344L256.186 26.208C256.436 26.1037 256.7 26.0393 256.97 26.0172C257.232 26.0172 257.445 26.0172 257.608 26.0172C258.127 26.0116 258.643 26.0851 259.139 26.2352C259.586 26.3698 260.001 26.5922 260.36 26.8893C260.708 27.187 260.984 27.5596 261.167 27.9792C261.371 28.4366 261.471 28.9335 261.461 29.4343C261.476 29.9853 261.374 30.5335 261.161 31.042C260.972 31.4626 260.691 31.8351 260.338 32.132C259.976 32.4263 259.557 32.6414 259.107 32.764C258.618 32.8972 258.114 32.9634 257.608 32.9604C257.02 32.9734 256.433 32.8942 255.87 32.7259C255.428 32.5924 255.017 32.3738 254.66 32.0828C254.355 31.8298 254.11 31.5138 253.94 31.1565C253.782 30.8135 253.689 30.4437 253.668 30.0665C253.661 30.0127 253.669 29.9581 253.689 29.9077C253.709 29.8572 253.741 29.8124 253.782 29.7775C253.82 29.7414 253.864 29.7132 253.913 29.6945C253.962 29.6758 254.014 29.6671 254.066 29.6687H255.259C255.354 29.6686 255.447 29.7013 255.521 29.7613C255.602 29.8264 255.659 29.9165 255.684 30.0176C255.734 30.2183 255.829 30.4048 255.962 30.5625C256.088 30.7006 256.237 30.8148 256.404 30.9002C256.576 30.9825 256.76 31.0394 256.949 31.0692C257.162 31.098 257.377 31.1126 257.592 31.1128C258.084 31.1369 258.567 30.9734 258.943 30.6551C259.121 30.5006 259.262 30.3085 259.357 30.0926C259.451 29.8767 259.496 29.6426 259.488 29.4071C259.485 29.1961 259.435 28.9883 259.34 28.7996C259.246 28.6109 259.11 28.4461 258.943 28.3172C258.56 28.0116 258.081 27.8514 257.592 27.8648C257.357 27.8589 257.123 27.8809 256.894 27.9303C256.749 27.9666 256.609 28.0176 256.474 28.0827C256.366 28.1427 256.273 28.1972 256.18 28.2408C256.074 28.288 255.959 28.3105 255.842 28.3063H254.491C254.386 28.3035 254.287 28.2605 254.212 28.1865C254.138 28.1125 254.096 28.0131 254.093 27.9084L254.551 22.9055Z" fill="#F4F7FE"/>
<path d="M270.818 26.3492C270.818 26.5345 270.818 26.7417 270.818 26.9652V28.3494C270.818 28.5729 270.818 28.7799 270.818 28.9652C270.791 29.5002 270.703 30.0304 270.557 30.5456C270.426 31.0111 270.195 31.4424 269.881 31.8098C269.554 32.1834 269.14 32.4715 268.676 32.6491C268.096 32.8618 267.48 32.9637 266.862 32.949C266.241 32.9651 265.624 32.8633 265.041 32.6491C264.58 32.4702 264.169 32.1822 263.842 31.8098C263.528 31.4424 263.298 31.0111 263.167 30.5456C263.02 30.0304 262.932 29.5002 262.905 28.9652C262.905 28.5946 262.905 28.1695 262.905 27.6954C262.905 27.2212 262.905 26.7962 262.905 26.4202C262.933 25.8817 263.021 25.348 263.167 24.8289C263.296 24.3547 263.527 23.914 263.842 23.5373C264.169 23.1616 264.58 22.8683 265.041 22.6815C265.62 22.4531 266.24 22.3457 266.862 22.3656C267.48 22.3483 268.096 22.45 268.676 22.6652C269.14 22.8428 269.554 23.131 269.881 23.5045C270.197 23.8708 270.428 24.3025 270.557 24.7688C270.704 25.2839 270.791 25.8141 270.818 26.3492ZM264.894 28.8888C264.904 29.4709 265.08 30.038 265.401 30.5238C265.795 30.8983 266.318 31.1073 266.862 31.1073C267.405 31.1073 267.928 30.8983 268.322 30.5238C268.643 30.0376 268.82 29.4711 268.834 28.8888C268.834 28.5182 268.862 28.1096 268.862 27.6573C268.862 27.205 268.862 26.7962 268.834 26.4202C268.819 25.8382 268.642 25.272 268.322 24.7853C267.926 24.4144 267.404 24.2078 266.862 24.2078C266.319 24.2078 265.797 24.4144 265.401 24.7853C265.081 25.2714 264.905 25.8383 264.894 26.4202C264.894 26.7962 264.862 27.205 264.862 27.6573C264.862 28.1096 264.872 28.5182 264.905 28.8888H264.894Z" fill="#F4F7FE"/>
<path d="M277.374 22.4692C277.814 22.5427 278.241 22.6822 278.639 22.8832C278.972 23.0568 279.278 23.2771 279.549 23.5373C279.774 23.762 279.958 24.0238 280.094 24.3112C280.213 24.5483 280.288 24.8049 280.317 25.0687C280.324 25.1221 280.317 25.1762 280.298 25.2265C280.279 25.2768 280.248 25.3217 280.208 25.3575C280.128 25.4274 280.026 25.4662 279.919 25.4666H278.889C278.758 25.4761 278.628 25.4415 278.519 25.3684C278.425 25.3003 278.347 25.2131 278.29 25.1124C278.123 24.8476 277.892 24.6283 277.62 24.4745C277.208 24.2685 276.749 24.1746 276.29 24.202C276.044 24.2011 275.799 24.2287 275.56 24.284C275.349 24.3301 275.146 24.4091 274.96 24.5182C274.798 24.6097 274.659 24.7385 274.557 24.8942C274.459 25.0408 274.407 25.2138 274.41 25.3902C274.402 25.5842 274.457 25.7755 274.568 25.9352C274.715 26.1019 274.903 26.2277 275.113 26.3003C275.413 26.421 275.723 26.5177 276.039 26.5892L277.413 26.8942C277.923 26.9995 278.423 27.1509 278.906 27.3466C279.273 27.4901 279.61 27.6989 279.903 27.9626C280.148 28.1912 280.335 28.4753 280.448 28.791C280.568 29.1414 280.626 29.5105 280.617 29.8809C280.621 30.256 280.545 30.6276 280.394 30.9709C280.242 31.3095 280.025 31.615 279.756 31.87C279.456 32.1463 279.112 32.3693 278.737 32.5294C278.3 32.7144 277.84 32.8373 277.369 32.8945V33.8972C277.366 34.0018 277.323 34.1015 277.249 34.1755C277.175 34.2496 277.076 34.2923 276.971 34.295H275.805C275.7 34.2936 275.6 34.2511 275.527 34.1766C275.454 34.1021 275.412 34.0018 275.412 33.8972V32.8945C274.985 32.8331 274.568 32.7178 274.17 32.5513C273.806 32.402 273.464 32.2018 273.156 31.957C272.872 31.7316 272.634 31.4542 272.453 31.1396C272.278 30.8271 272.177 30.4785 272.159 30.1207C272.153 30.0668 272.16 30.0122 272.18 29.9618C272.2 29.9114 272.232 29.8666 272.273 29.8317C272.351 29.7613 272.452 29.7225 272.557 29.7229H273.587C273.72 29.7133 273.853 29.7435 273.968 29.8099C274.064 29.8782 274.141 29.9703 274.192 30.077C274.265 30.2107 274.349 30.3381 274.442 30.4584C274.55 30.5953 274.683 30.7101 274.835 30.7963C275.031 30.9062 275.242 30.987 275.462 31.0361C275.767 31.1076 276.08 31.1406 276.393 31.1343C276.68 31.1348 276.966 31.1129 277.249 31.0688C277.499 31.0314 277.741 30.956 277.968 30.8453C278.16 30.7534 278.33 30.6238 278.47 30.464C278.594 30.3097 278.662 30.1172 278.661 29.919C278.666 29.8187 278.65 29.7185 278.614 29.6247C278.579 29.5309 278.524 29.4456 278.453 29.374C278.274 29.2108 278.059 29.0899 277.827 29.0198C277.488 28.905 277.142 28.812 276.791 28.7417C276.383 28.6545 275.903 28.54 275.369 28.4038C274.927 28.3016 274.495 28.1612 274.077 27.9842C273.741 27.8414 273.433 27.6403 273.167 27.3902C272.924 27.1581 272.737 26.8728 272.622 26.5565C272.494 26.1908 272.433 25.8047 272.442 25.4173C272.439 25.0529 272.516 24.6922 272.666 24.3601C272.814 24.0343 273.021 23.7386 273.276 23.4881C273.546 23.2182 273.861 22.9986 274.208 22.8396C274.589 22.6649 274.99 22.5386 275.402 22.4636V21.4663C275.401 21.4143 275.411 21.3628 275.43 21.3146C275.449 21.2663 275.478 21.2223 275.515 21.1853C275.551 21.1482 275.595 21.1191 275.643 21.099C275.691 21.079 275.742 21.0684 275.794 21.0684H276.987C277.039 21.0674 277.09 21.0772 277.138 21.0969C277.186 21.1166 277.229 21.1457 277.265 21.1829C277.304 21.2192 277.335 21.2631 277.355 21.3119C277.376 21.3607 277.386 21.4133 277.385 21.4663L277.374 22.4692Z" fill="#F4F7FE"/>
<path d="M249.412 29.4776V32.0008C249.412 32.0495 249.403 32.0979 249.384 32.1429C249.365 32.1879 249.338 32.2284 249.303 32.2624C249.268 32.2987 249.227 32.3276 249.181 32.3473C249.135 32.367 249.086 32.377 249.036 32.3768H248.011C247.962 32.3766 247.913 32.3664 247.868 32.3467C247.823 32.3271 247.783 32.2983 247.749 32.2624C247.713 32.2293 247.685 32.1889 247.666 32.1437C247.647 32.0985 247.639 32.0497 247.64 32.0008V29.4776H245.155C245.057 29.4776 244.963 29.4386 244.893 29.3691C244.824 29.2996 244.785 29.2052 244.785 29.107V28.1916C244.784 28.1424 244.793 28.0935 244.811 28.0479C244.83 28.0023 244.857 27.961 244.891 27.926C244.926 27.891 244.967 27.8633 245.012 27.8443C245.058 27.8253 245.106 27.8156 245.155 27.8156H247.64V25.3086C247.639 25.2597 247.647 25.2109 247.666 25.1657C247.685 25.1206 247.713 25.0802 247.749 25.047C247.783 25.0111 247.823 24.9824 247.868 24.9627C247.913 24.943 247.962 24.9328 248.011 24.9326H249.063C249.113 24.9324 249.162 24.9425 249.208 24.9622C249.254 24.9818 249.296 25.0107 249.33 25.047C249.365 25.081 249.393 25.1216 249.411 25.1665C249.43 25.2115 249.439 25.2599 249.439 25.3086V27.8156H251.908C251.956 27.8154 252.004 27.8248 252.049 27.8435C252.094 27.8622 252.135 27.8897 252.169 27.9244C252.205 27.959 252.233 28.0006 252.252 28.0465C252.27 28.0925 252.279 28.1419 252.278 28.1916V29.107C252.279 29.1557 252.27 29.2043 252.251 29.2493C252.232 29.2943 252.204 29.3348 252.169 29.3685C252.135 29.4032 252.094 29.4307 252.049 29.4494C252.004 29.4681 251.956 29.4778 251.908 29.4776H249.412Z" fill="#F4F7FE"/>
<path d="M227.443 205.254C219.789 202.466 212.398 199.001 205.36 194.9L212.445 183.357L208.903 189.128L212.434 183.352C212.603 183.455 229.328 193.581 250.304 197.804C277.101 203.205 298.088 196.802 312.693 178.774L323.217 187.303C305.369 209.336 279.074 217.527 247.253 211.004C240.512 209.596 233.889 207.674 227.443 205.254Z" fill="url(#paint0_linear_1_2626)"/>
<g opacity="0.1">
<path d="M209.257 197.03C206.876 195.75 205.524 194.927 205.377 194.851L212.462 183.302C212.462 183.302 213.622 184.011 215.661 185.101L209.257 197.03Z" fill="#EAEFF4"/>
<path d="M225.564 204.486C222.8 203.396 220.026 202.246 217.312 201.009L222.937 188.687C225.405 189.815 227.94 190.867 230.457 191.853L225.564 204.486ZM234.032 207.472L238.136 194.562C240.746 195.395 243.373 196.137 245.935 196.742L242.714 209.897C239.836 209.216 236.932 208.393 234.032 207.472ZM251.602 211.745L253.782 198.382C256.458 198.823 259.118 199.15 261.69 199.347L260.66 212.846C257.722 212.622 254.665 212.252 251.602 211.745ZM269.914 213.096L269.576 199.554C272.165 199.492 274.749 199.282 277.314 198.927L279.211 212.333C276.129 212.764 273.025 213.019 269.914 213.096ZM288.443 210.42L284.819 197.341C287.26 196.665 289.651 195.818 291.974 194.807L297.397 207.216C294.491 208.489 291.498 209.556 288.443 210.41V210.42ZM305.828 202.791L298.656 191.335C300.802 189.996 302.849 188.505 304.781 186.872L313.501 197.227C311.079 199.259 308.515 201.115 305.828 202.78V202.791Z" fill="#E2E5E8"/>
<path d="M320.335 190.621L310.318 181.526C311.13 180.637 311.953 179.695 312.716 178.735L323.234 187.264C322.291 188.403 321.316 189.542 320.335 190.621Z" fill="#EAEFF4"/>
</g>
<path d="M338.439 185.532L346.712 174.365L336.776 166.997L330.286 162.19L320.345 154.822L312.073 165.989C312.073 165.989 308.596 169.635 313.114 172.986L319.032 177.373L325.523 182.18L331.441 186.572C335.959 189.919 338.439 185.532 338.439 185.532Z" fill="#D3DDE5"/>
<path d="M326.454 146.579L320.503 154.609L324.855 157.835L330.806 149.804L326.454 146.579Z" fill="#D3DDE5"/>
<path d="M333.081 146.958L337.441 141.105C337.875 140.527 338.061 139.8 337.959 139.085C337.857 138.369 337.474 137.724 336.896 137.29C336.61 137.075 336.284 136.919 335.938 136.83C335.591 136.741 335.23 136.722 334.876 136.773C334.522 136.823 334.181 136.943 333.873 137.125C333.565 137.308 333.296 137.549 333.081 137.835L328.722 143.688L333.081 146.958Z" fill="#D3DDE5"/>
<path d="M336.649 148.284L327.901 160.089L332.254 163.314L341.001 151.509L336.649 148.284Z" fill="#D3DDE5"/>
<path d="M341.104 157.883L335.367 165.624L339.719 168.849L345.456 161.108L341.104 157.883Z" fill="#D3DDE5"/>
<path d="M345.648 166.623L342.481 170.897L346.833 174.122L350 169.849L345.648 166.623Z" fill="#D3DDE5"/>
<path d="M312.625 172.236L331.673 186.522C330.799 187.687 329.499 188.457 328.059 188.662C326.618 188.868 325.154 188.493 323.99 187.62L313.722 179.919C312.558 179.046 311.788 177.746 311.582 176.305C311.376 174.864 311.751 173.401 312.625 172.236Z" fill="#A6B4D1"/>
<path d="M117.762 205.603C125.681 203.683 133.412 201.058 140.863 197.761L135.114 185.499L137.991 191.63L135.119 185.493C134.945 185.575 117.173 193.771 95.8811 195.63C68.6323 198.006 48.5063 189.297 36.0045 169.76L24.5709 177.057C39.8303 200.943 65.0408 212.017 97.4124 209.091C104.274 208.448 111.077 207.282 117.762 205.603Z" fill="url(#paint1_linear_1_2626)"/>
<g opacity="0.1">
<path d="M136.725 199.456C139.238 198.453 140.676 197.783 140.829 197.712L135.085 185.45C135.085 185.45 133.853 186.022 131.706 186.878L136.725 199.456Z" fill="#EAEFF4"/>
<path d="M116.24 191.952C118.851 191.26 121.488 190.486 124.066 189.641L128.279 202.513C125.45 203.44 122.562 204.29 119.69 205.048L116.24 191.952ZM102.044 208.53L100.322 195.096C102.937 194.764 105.63 194.317 108.316 193.783L110.954 207.069C107.951 207.685 104.965 208.154 102.044 208.53ZM83.8578 209.44L84.3428 195.903C86.9151 195.995 89.5964 195.968 92.305 195.832L93.008 209.353C89.9071 209.516 86.828 209.544 83.8578 209.44ZM65.5031 206.862L68.8874 193.745C71.3993 194.391 73.9469 194.889 76.517 195.238L74.6695 208.655C71.5821 208.234 68.5217 207.635 65.5031 206.862ZM47.9984 199.778L54.7779 188.055C56.9712 189.321 59.2512 190.43 61.601 191.374L56.5436 203.936C53.6013 202.751 50.7475 201.358 48.0039 199.767L47.9984 199.778ZM33.1096 188.006L42.9192 178.687C44.6601 180.522 46.5286 182.233 48.5106 183.804L40.1017 194.426C37.6232 192.449 35.2867 190.3 33.1096 187.995V188.006Z" fill="#E2E5E8"/>
<path d="M27.0606 180.692L38.0309 172.747C37.3279 171.777 36.6303 170.752 35.9655 169.711L24.5701 177.008C25.3603 178.256 26.205 179.51 27.0606 180.692Z" fill="#EAEFF4"/>
</g>
<path d="M9.63832 173.613L2.6626 161.623L13.3604 155.411L20.347 151.356L31.0449 145.144L38.0206 157.16C38.0206 157.16 41.0671 161.177 36.2059 164L29.835 167.7L22.8485 171.755L16.4777 175.455C11.6165 178.256 9.63832 173.613 9.63832 173.613Z" fill="#D3DDE5"/>
<path d="M25.9897 136.243L21.3051 138.963L26.3237 147.607L31.0084 144.887L25.9897 136.243Z" fill="#D3DDE5"/>
<path d="M19.2682 135.879L15.6114 129.579C15.2539 128.957 15.1563 128.218 15.34 127.524C15.5237 126.83 15.9738 126.237 16.5924 125.873C17.2154 125.516 17.9542 125.419 18.6482 125.604C19.3421 125.789 19.935 126.24 20.2981 126.859L23.955 133.159L19.2682 135.879Z" fill="#D3DDE5"/>
<path d="M15.6657 136.8L10.9811 139.52L18.3585 152.226L23.0432 149.506L15.6657 136.8Z" fill="#D3DDE5"/>
<path d="M10.4324 145.736L5.7738 148.445L10.5913 156.731L15.25 154.022L10.4324 145.736Z" fill="#D3DDE5"/>
<path d="M4.68465 154.022L0 156.742L2.67067 161.342L7.35532 158.622L4.68465 154.022Z" fill="#D3DDE5"/>
<path d="M34.635 171.536L23.536 177.98C22.2773 178.711 20.7797 178.912 19.3729 178.538C17.9661 178.165 16.7652 177.248 16.0343 175.99L36.6253 164.034C37.3562 165.293 37.557 166.79 37.1838 168.197C36.8105 169.604 35.8937 170.805 34.635 171.536Z" fill="#A6B4D1"/>
<path d="M195.835 324.451C191.704 324.451 187.742 322.811 184.821 319.89C181.9 316.969 180.26 313.007 180.26 308.876C180.26 304.745 181.9 300.784 184.821 297.863C187.742 294.942 191.704 293.301 195.835 293.301C204.369 293.301 211.323 293.432 211.41 301.944V308.876C211.406 313.006 209.764 316.965 206.844 319.885C203.924 322.805 199.965 324.447 195.835 324.451ZM195.835 297.366C192.783 297.369 189.857 298.583 187.699 300.741C185.542 302.899 184.328 305.825 184.325 308.876C184.325 315.225 188.81 319.71 195.159 319.71C198.211 319.707 201.137 318.494 203.295 316.336C205.453 314.178 206.666 311.252 206.669 308.2V301.236C206.593 294.99 202.119 297.366 195.835 297.366Z" fill="url(#paint2_linear_1_2626)"/>
<path d="M156.891 324.451C152.762 324.447 148.803 322.805 145.883 319.885C142.963 316.965 141.32 313.005 141.316 308.876V302.015C141.365 293.469 148.335 293.295 156.891 293.295C161.022 293.295 164.984 294.936 167.905 297.857C170.826 300.778 172.467 304.74 172.467 308.87C172.467 313.001 170.826 316.963 167.905 319.884C164.984 322.805 161.022 324.446 156.891 324.446V324.451ZM156.891 297.366C150.581 297.366 146.112 295.028 146.057 301.317V308.2C146.06 311.252 147.274 314.178 149.432 316.336C151.59 318.493 154.516 319.707 157.567 319.71C163.916 319.71 168.407 315.225 168.407 308.876C168.402 305.824 167.188 302.898 165.029 300.74C162.87 298.582 159.944 297.369 156.891 297.366Z" fill="url(#paint3_linear_1_2626)"/>
<path d="M198.882 330.953C198.882 341.166 189.797 349.52 178.717 349.52H174.063C162.962 349.52 153.872 341.166 153.872 330.953V308.876H198.909L198.882 330.953Z" fill="url(#paint4_linear_1_2626)"/>
<path d="M157.229 330.953V308.876H153.845V330.953C153.845 341.166 162.935 349.52 174.036 349.52H177.426C166.319 349.52 157.229 341.166 157.229 330.953Z" fill="#373D4F"/>
<g style="mix-blend-mode:multiply">
<path d="M195.497 308.876V330.953C195.497 341.166 186.406 349.52 175.333 349.52H178.717C189.824 349.52 198.881 341.166 198.881 330.953V308.876H195.497Z" fill="#D3DDE5"/>
</g>
<g style="mix-blend-mode:multiply">
<path d="M195.497 308.211H153.845V312.952H195.497V308.211Z" fill="#D3DDE5"/>
</g>
<path d="M192.249 155.312H160.482V176.627H192.249V155.312Z" fill="#A6B4D1"/>
<path d="M235.901 124.391C235.871 134.454 231.86 144.096 224.744 151.211C217.628 158.326 207.985 162.336 197.922 162.364H154.82C144.757 162.337 135.114 158.328 127.998 151.212C120.883 144.097 116.873 134.454 116.846 124.391V113.529C116.875 103.467 120.885 93.8246 128 86.7094C135.115 79.5941 144.757 75.5839 154.82 75.5552H197.927C207.99 75.5839 217.633 79.594 224.749 86.7091C231.865 93.8242 235.877 103.466 235.907 113.529L235.901 124.391Z" fill="url(#paint5_linear_1_2626)"/>
<path d="M154.82 75.5552H161.594C151.53 75.5839 141.887 79.5936 134.77 86.7086C127.653 93.8235 123.64 103.466 123.609 113.529V124.391C123.639 134.455 127.651 144.097 134.768 151.213C141.886 158.328 151.53 162.337 161.594 162.364H154.82C144.756 162.337 135.112 158.328 127.994 151.213C120.877 144.097 116.865 134.455 116.835 124.391V113.529C116.866 103.466 120.879 93.8235 127.996 86.7086C135.113 79.5936 144.756 75.5839 154.82 75.5552Z" fill="#A6B4D1"/>
<path d="M197.922 172.523H154.82C144.757 172.552 135.115 176.562 128 183.677C120.885 190.792 116.875 200.435 116.846 210.497V271.594C116.869 281.661 120.876 291.309 127.992 298.43C135.108 305.551 144.753 309.565 154.82 309.595H197.927C207.989 309.567 217.631 305.556 224.745 298.441C231.86 291.325 235.869 281.683 235.896 271.621V210.497C235.866 200.435 231.855 190.794 224.74 183.679C217.625 176.564 207.984 172.553 197.922 172.523Z" fill="url(#paint6_linear_1_2626)"/>
<g style="mix-blend-mode:multiply">
<path d="M154.82 256.067C148.342 256.062 142.132 253.487 137.55 248.908C132.969 244.329 130.391 238.119 130.383 231.642V210.497C130.389 204.02 132.964 197.811 137.543 193.231C142.123 188.652 148.332 186.077 154.809 186.071H197.916C204.394 186.075 210.605 188.65 215.187 193.229C219.769 197.809 222.346 204.019 222.353 210.497V231.664C222.346 238.139 219.77 244.348 215.191 248.927C210.612 253.506 204.403 256.082 197.927 256.089L154.82 256.067Z" fill="#D3DDE5"/>
</g>
<path d="M154.82 252.683C149.24 252.679 143.889 250.461 139.942 246.516C135.995 242.571 133.775 237.222 133.767 231.642V210.497C133.773 204.918 135.992 199.569 139.937 195.624C143.881 191.68 149.23 189.461 154.809 189.455H197.917C203.497 189.459 208.847 191.677 212.794 195.622C216.741 199.567 218.962 204.917 218.969 210.497V231.664C218.963 237.242 216.744 242.591 212.8 246.536C208.855 250.481 203.506 252.699 197.927 252.705L154.82 252.683Z" fill="url(#paint7_linear_1_2626)"/>
<path d="M154.82 172.523H161.594C151.53 172.552 141.887 176.561 134.77 183.676C127.653 190.791 123.64 200.434 123.609 210.497V271.594C123.609 289.867 136.59 305.999 153.855 309.557C143.961 309.28 134.564 305.162 127.654 298.076C120.744 290.989 116.864 281.492 116.835 271.594V210.497C116.866 200.434 120.879 190.791 127.996 183.676C135.113 176.561 144.756 172.552 154.82 172.523Z" fill="#A6B4D1"/>
<path d="M154.82 142.288C148.642 142.28 142.719 139.823 138.35 135.454C133.981 131.086 131.524 125.163 131.517 118.984C131.524 112.806 133.981 106.883 138.35 102.514C142.719 98.1457 148.642 95.6884 154.82 95.6812H197.928C204.105 95.6884 210.028 98.1461 214.395 102.515C218.763 106.884 221.22 112.807 221.225 118.984C221.22 125.162 218.763 131.085 214.395 135.454C210.028 139.823 204.105 142.28 197.928 142.288H154.82Z" fill="url(#paint8_linear_1_2626)"/>
<path d="M229.814 101.66C237.444 102.706 243.019 106.515 243.019 117.933C243.019 128.739 237.961 132.75 230.871 134.031L229.814 101.66Z" fill="#E7EDFC"/>
<path d="M119.336 133.443C113.597 131.699 109.712 127.448 109.712 117.933C109.712 107.186 114.715 103.158 121.75 101.856L119.336 133.443Z" fill="#A6B4D1"/>
<path d="M191.018 118.963C191.017 117.728 191.382 116.521 192.067 115.494C192.752 114.467 193.727 113.666 194.867 113.193C196.008 112.72 197.263 112.596 198.474 112.837C199.685 113.078 200.797 113.672 201.67 114.545C202.543 115.418 203.137 116.53 203.378 117.741C203.619 118.952 203.495 120.207 203.022 121.348C202.549 122.488 201.748 123.463 200.721 124.148C199.694 124.833 198.487 125.198 197.252 125.197C195.599 125.197 194.013 124.54 192.844 123.371C191.675 122.202 191.018 120.616 191.018 118.963Z" fill="#F4F7FE"/>
<path d="M149.24 118.963C149.24 117.73 149.605 116.524 150.29 115.499C150.976 114.474 151.949 113.675 153.088 113.203C154.228 112.731 155.481 112.608 156.691 112.848C157.9 113.089 159.011 113.683 159.883 114.555C160.755 115.426 161.348 116.537 161.589 117.747C161.83 118.956 161.706 120.21 161.234 121.349C160.762 122.488 159.963 123.462 158.938 124.147C157.913 124.832 156.707 125.198 155.474 125.198C153.821 125.198 152.235 124.541 151.066 123.371C149.897 122.202 149.24 120.617 149.24 118.963Z" fill="#F4F7FE"/>
<path d="M193.437 80.9726C193.437 75.1686 184.679 70.46 176.373 70.46C168.068 70.46 159.305 75.1686 159.305 80.9726C159.305 86.7766 168.068 91.4796 176.373 91.4796C184.679 91.4796 193.437 86.7711 193.437 80.9726Z" fill="#D8DFEF"/>
<g style="mix-blend-mode:multiply">
<path d="M235.902 269.567H116.841V271.6H235.902V269.567Z" fill="#D3DDE5"/>
</g>
<g style="mix-blend-mode:multiply">
<path d="M197.922 189.455H154.82C149.241 189.461 143.893 191.68 139.948 195.624C136.003 199.569 133.784 204.918 133.779 210.497V213.881C133.784 208.302 136.003 202.953 139.948 199.009C143.893 195.064 149.241 192.845 154.82 192.839H197.928C203.508 192.844 208.859 195.062 212.805 199.007C216.752 202.951 218.973 208.301 218.98 213.881V210.497C218.973 204.916 216.752 199.565 212.804 195.62C208.856 191.675 203.504 189.458 197.922 189.455Z" fill="#D3DDE5"/>
</g>
<path d="M164.738 334.457C164.428 334.504 164.111 334.484 163.809 334.397C163.508 334.31 163.229 334.159 162.991 333.955C162.753 333.75 162.562 333.497 162.431 333.211C162.3 332.926 162.232 332.616 162.232 332.302C162.232 331.988 162.3 331.678 162.431 331.393C162.562 331.108 162.753 330.854 162.991 330.649C163.229 330.445 163.508 330.294 163.809 330.207C164.111 330.12 164.428 330.1 164.738 330.147H187.987C188.297 330.1 188.614 330.12 188.916 330.207C189.217 330.294 189.496 330.445 189.734 330.649C189.972 330.854 190.163 331.108 190.294 331.393C190.425 331.678 190.493 331.988 190.493 332.302C190.493 332.616 190.425 332.926 190.294 333.211C190.163 333.497 189.972 333.75 189.734 333.955C189.496 334.159 189.217 334.31 188.916 334.397C188.614 334.484 188.297 334.504 187.987 334.457H164.738Z" fill="#1B1D26"/>
<path d="M164.738 322.413C164.428 322.46 164.111 322.439 163.809 322.353C163.508 322.266 163.229 322.115 162.991 321.91C162.753 321.706 162.562 321.452 162.431 321.167C162.3 320.882 162.232 320.571 162.232 320.258C162.232 319.944 162.3 319.634 162.431 319.348C162.562 319.063 162.753 318.809 162.991 318.605C163.229 318.4 163.508 318.249 163.809 318.163C164.111 318.076 164.428 318.055 164.738 318.102H187.987C188.297 318.055 188.614 318.076 188.916 318.163C189.217 318.249 189.496 318.4 189.734 318.605C189.972 318.809 190.163 319.063 190.294 319.348C190.425 319.634 190.493 319.944 190.493 320.258C190.493 320.571 190.425 320.882 190.294 321.167C190.163 321.452 189.972 321.706 189.734 321.91C189.496 322.115 189.217 322.266 188.916 322.353C188.614 322.439 188.297 322.46 187.987 322.413H164.738Z" fill="#1B1D26"/>
<path opacity="0.03" d="M197.916 142.288C204.094 142.28 210.018 139.823 214.386 135.454C218.755 131.086 221.212 125.163 221.219 118.984C221.212 112.806 218.755 106.883 214.386 102.514C210.018 98.1457 204.094 95.6884 197.916 95.6812H154.82L197.916 142.288Z" fill="#EAEFF4"/>
<g style="mix-blend-mode:multiply">
<g style="mix-blend-mode:multiply">
<path d="M176.372 295.137C175.314 295.136 174.28 294.821 173.4 294.232C172.521 293.644 171.836 292.807 171.432 291.829C171.027 290.851 170.922 289.776 171.129 288.738C171.336 287.7 171.846 286.747 172.595 285.999C173.344 285.251 174.297 284.742 175.335 284.536C176.373 284.33 177.449 284.436 178.427 284.842C179.404 285.247 180.24 285.933 180.828 286.813C181.415 287.692 181.729 288.727 181.729 289.785C181.728 291.205 181.163 292.566 180.158 293.57C179.154 294.573 177.792 295.137 176.372 295.137Z" fill="#D3DDE5"/>
</g>
<g style="mix-blend-mode:multiply">
<path d="M194.264 295.137C193.206 295.136 192.172 294.821 191.292 294.232C190.413 293.644 189.728 292.807 189.324 291.829C188.92 290.851 188.814 289.776 189.021 288.738C189.229 287.7 189.739 286.747 190.487 285.999C191.236 285.251 192.19 284.742 193.227 284.536C194.265 284.33 195.341 284.436 196.319 284.842C197.296 285.247 198.132 285.933 198.72 286.813C199.307 287.692 199.621 288.727 199.621 289.785C199.62 291.205 199.055 292.566 198.05 293.57C197.046 294.573 195.684 295.137 194.264 295.137Z" fill="#D3DDE5"/>
</g>
<g style="mix-blend-mode:multiply">
<path d="M158.465 295.137C157.406 295.137 156.372 294.823 155.492 294.235C154.612 293.647 153.926 292.811 153.521 291.833C153.115 290.855 153.009 289.779 153.216 288.741C153.422 287.703 153.932 286.749 154.681 286.001C155.429 285.253 156.383 284.743 157.421 284.536C158.459 284.33 159.535 284.436 160.513 284.841C161.491 285.246 162.327 285.932 162.915 286.812C163.503 287.692 163.817 288.727 163.817 289.785C163.817 291.205 163.253 292.566 162.249 293.569C161.245 294.573 159.884 295.137 158.465 295.137Z" fill="#D3DDE5"/>
</g>
</g>
<path d="M184.423 201.51L175.36 215.958L166.292 201.51H152.444L161.512 215.958V216.012L169.431 228.628V244.721H169.48H175.36H181.235H181.284V228.628L189.203 216.012V215.958L198.271 201.51H184.423Z" fill="#5F5CED"/>
<path opacity="0.06" d="M205.934 251.098L146.166 191.336C148.886 190.101 151.839 189.464 154.826 189.466H197.933C203.512 189.472 208.861 191.691 212.806 195.636C216.75 199.58 218.969 204.929 218.975 210.508V231.664C218.965 235.829 217.721 239.899 215.4 243.357C213.079 246.816 209.785 249.51 205.934 251.098Z" fill="white"/>
<path d="M61.9827 105.142C65.4922 105.142 68.3371 102.297 68.3371 98.7875C68.3371 95.2781 65.4922 92.4331 61.9827 92.4331C58.4733 92.4331 55.6283 95.2781 55.6283 98.7875C55.6283 102.297 58.4733 105.142 61.9827 105.142Z" fill="#04CD99"/>
<path d="M102.274 66.0619C105.783 66.0619 108.628 63.2169 108.628 59.7074C108.628 56.198 105.783 53.353 102.274 53.353C98.7644 53.353 95.9194 56.198 95.9194 59.7074C95.9194 63.2169 98.7644 66.0619 102.274 66.0619Z" fill="#04CD99"/>
<path d="M143.8 85.7518C147.31 85.7518 150.155 82.9068 150.155 79.3974C150.155 75.8879 147.31 73.043 143.8 73.043C140.291 73.043 137.446 75.8879 137.446 79.3974C137.446 82.9068 140.291 85.7518 143.8 85.7518Z" fill="#04CD99"/>
<path d="M265.603 83.9046C269.113 83.9046 271.958 81.0597 271.958 77.5502C271.958 74.0408 269.113 71.1958 265.603 71.1958C262.094 71.1958 259.249 74.0408 259.249 77.5502C259.249 81.0597 262.094 83.9046 265.603 83.9046Z" fill="#04CD99"/>
<path d="M308.819 44.0614C312.329 44.0614 315.174 41.2164 315.174 37.707C315.174 34.1975 312.329 31.3525 308.819 31.3525C305.31 31.3525 302.465 34.1975 302.465 37.707C302.465 41.2164 305.31 44.0614 308.819 44.0614Z" fill="#04CD99"/>
<path d="M224.016 47.1839C227.525 47.1839 230.37 44.339 230.37 40.8295C230.37 37.3201 227.525 34.4751 224.016 34.4751C220.506 34.4751 217.661 37.3201 217.661 40.8295C217.661 44.339 220.506 47.1839 224.016 47.1839Z" fill="#04CD99"/>
<path d="M184.009 30.5565C187.518 30.5565 190.363 27.7115 190.363 24.2021C190.363 20.6926 187.518 17.8477 184.009 17.8477C180.499 17.8477 177.654 20.6926 177.654 24.2021C177.654 27.7115 180.499 30.5565 184.009 30.5565Z" fill="#04CD99"/>
<path d="M184.682 27.4709L181.539 25.0859L142.447 76.6062L145.59 78.9911L184.682 27.4709Z" fill="#04CD99"/>
<path d="M103.821 62.1339L101.108 59.269L59.1592 98.9935L61.8722 101.858L103.821 62.1339Z" fill="#04CD99"/>
<path d="M307.058 42.4775L304.375 39.5972L264.289 76.9373L266.972 79.8176L307.058 42.4775Z" fill="#04CD99"/>
<path d="M144.472 83.8182L146.296 80.3193L101.415 56.9258L99.5912 60.4247L144.472 83.8182Z" fill="#04CD99"/>
<path d="M222.763 42.9637L224.427 39.3857L183.873 20.5355L182.21 24.1134L222.763 42.9637Z" fill="#04CD99"/>
<path d="M267.678 81.7826L270.249 78.7891L221.864 37.2449L219.293 40.2385L267.678 81.7826Z" fill="#04CD99"/>
<path d="M90.5125 106.908C94.022 106.908 96.8669 104.063 96.8669 100.554C96.8669 97.0442 94.022 94.1992 90.5125 94.1992C87.0031 94.1992 84.1581 97.0442 84.1581 100.554C84.1581 104.063 87.0031 106.908 90.5125 106.908Z" fill="#5F5CED"/>
<path d="M177.655 111.496C181.164 111.496 184.009 108.651 184.009 105.142C184.009 101.633 181.164 98.7876 177.655 98.7876C174.145 98.7876 171.3 101.633 171.3 105.142C171.3 108.651 174.145 111.496 177.655 111.496Z" fill="#5F5CED"/>
<path d="M51.3836 72.4164C54.893 72.4164 57.738 69.5714 57.738 66.0619C57.738 62.5525 54.893 59.7075 51.3836 59.7075C47.8741 59.7075 45.0292 62.5525 45.0292 66.0619C45.0292 69.5714 47.8741 72.4164 51.3836 72.4164Z" fill="#5F5CED"/>
<path d="M131.817 89.2889C135.327 89.2889 138.171 86.4439 138.171 82.9345C138.171 79.425 135.327 76.5801 131.817 76.5801C128.308 76.5801 125.463 79.425 125.463 82.9345C125.463 86.4439 128.308 89.2889 131.817 89.2889Z" fill="#5F5CED"/>
<path d="M209.846 53.5384C213.355 53.5384 216.2 50.6935 216.2 47.184C216.2 43.6746 213.355 40.8296 209.846 40.8296C206.336 40.8296 203.491 43.6746 203.491 47.184C203.491 50.6935 206.336 53.5384 209.846 53.5384Z" fill="#5F5CED"/>
<path d="M249.253 127.012C252.763 127.012 255.608 124.167 255.608 120.658C255.608 117.148 252.763 114.303 249.253 114.303C245.744 114.303 242.899 117.148 242.899 120.658C242.899 124.167 245.744 127.012 249.253 127.012Z" fill="#5F5CED"/>
<path d="M289.184 90.2586C292.693 90.2586 295.538 87.4137 295.538 83.9042C295.538 80.3948 292.693 77.5498 289.184 77.5498C285.674 77.5498 282.829 80.3948 282.829 83.9042C282.829 87.4137 285.674 90.2586 289.184 90.2586Z" fill="#5F5CED"/>
<path d="M330.863 127.241C334.373 127.241 337.218 124.396 337.218 120.887C337.218 117.377 334.373 114.532 330.863 114.532C327.354 114.532 324.509 117.377 324.509 120.887C324.509 124.396 327.354 127.241 330.863 127.241Z" fill="#5F5CED"/>
<path d="M92.1516 102.608L94.5933 99.5083L51.4581 65.5277L49.0165 68.6271L92.1516 102.608Z" fill="#5F5CED"/>
<path d="M133.909 83.086L132.277 79.4937L88.8215 99.2335L90.4533 102.826L133.909 83.086Z" fill="#5F5CED"/>
<path d="M212.117 47.3641L208.664 45.4561L176.788 103.151L180.242 105.059L212.117 47.3641Z" fill="#5F5CED"/>
<path d="M290.063 85.8331L287.368 82.9512L247.26 120.457L249.955 123.339L290.063 85.8331Z" fill="#5F5CED"/>
<path d="M247.371 123.674L250.9 121.91L213.381 46.8554L209.852 48.6196L247.371 123.674Z" fill="#5F5CED"/>
<path d="M328.995 123.542L331.698 120.667L290.021 81.4886L287.318 84.3634L328.995 123.542Z" fill="#5F5CED"/>
<path d="M178.849 107.306L180.395 103.676L131.699 82.9255L130.152 86.5553L178.849 107.306Z" fill="#5F5CED"/>
<path opacity="0.6" d="M191.742 120.172L140.967 91.0815H198.963L203.617 117.257L191.742 120.172Z" fill="url(#paint9_linear_1_2626)"/>
<path opacity="0.6" d="M150.127 120.172L99.3518 91.0815H157.348L162.002 117.257L150.127 120.172Z" fill="url(#paint10_linear_1_2626)"/>
<path d="M308.819 37.7066V103.191V123.213H61.6012L61.8573 101.861L63.9882 95.6648L102.273 60.5138L142.993 80.4599L184.008 25.1885L222.358 40.8293L229.814 46.8567L266.85 76.5852L308.819 37.7066Z" fill="url(#paint11_linear_1_2626)"/>
<defs>
<linearGradient id="paint0_linear_1_2626" x1="264.288" y1="178.774" x2="264.288" y2="213.182" gradientUnits="userSpaceOnUse">
<stop stop-color="#2E3242"/>
<stop offset="0.21875" stop-color="#606475"/>
<stop offset="1" stop-color="#2E3242"/>
</linearGradient>
<linearGradient id="paint1_linear_1_2626" x1="82.7171" y1="169.76" x2="82.7171" y2="209.551" gradientUnits="userSpaceOnUse">
<stop stop-color="#2E3242"/>
<stop offset="0.21875" stop-color="#606475"/>
<stop offset="1" stop-color="#2E3242"/>
</linearGradient>
<linearGradient id="paint2_linear_1_2626" x1="195.835" y1="293.301" x2="195.835" y2="324.451" gradientUnits="userSpaceOnUse">
<stop stop-color="#2E3242"/>
<stop offset="0.21875" stop-color="#606475"/>
<stop offset="1" stop-color="#2E3242"/>
</linearGradient>
<linearGradient id="paint3_linear_1_2626" x1="156.891" y1="293.295" x2="156.891" y2="324.451" gradientUnits="userSpaceOnUse">
<stop stop-color="#2E3242"/>
<stop offset="0.21875" stop-color="#606475"/>
<stop offset="1" stop-color="#2E3242"/>
</linearGradient>
<linearGradient id="paint4_linear_1_2626" x1="176.39" y1="308.876" x2="176.39" y2="349.52" gradientUnits="userSpaceOnUse">
<stop stop-color="#2E3242"/>
<stop offset="0.21875" stop-color="#606475"/>
<stop offset="1" stop-color="#2E3242"/>
</linearGradient>
<linearGradient id="paint5_linear_1_2626" x1="176.376" y1="75.5552" x2="176.376" y2="162.364" gradientUnits="userSpaceOnUse">
<stop stop-color="#D8DFEF"/>
<stop offset="0.682292" stop-color="#EBF1FF"/>
<stop offset="1" stop-color="#D8DFEF"/>
</linearGradient>
<linearGradient id="paint6_linear_1_2626" x1="176.371" y1="172.523" x2="176.371" y2="309.595" gradientUnits="userSpaceOnUse">
<stop stop-color="#D8DFEF"/>
<stop offset="0.682292" stop-color="#EBF1FF"/>
<stop offset="1" stop-color="#D8DFEF"/>
</linearGradient>
<linearGradient id="paint7_linear_1_2626" x1="176.368" y1="189.455" x2="176.368" y2="252.705" gradientUnits="userSpaceOnUse">
<stop stop-color="#2E3242"/>
<stop offset="0.21875" stop-color="#606475"/>
<stop offset="1" stop-color="#2E3242"/>
</linearGradient>
<linearGradient id="paint8_linear_1_2626" x1="176.371" y1="95.6812" x2="176.371" y2="142.288" gradientUnits="userSpaceOnUse">
<stop stop-color="#2E3242"/>
<stop offset="0.21875" stop-color="#606475"/>
<stop offset="1" stop-color="#2E3242"/>
</linearGradient>
<linearGradient id="paint9_linear_1_2626" x1="172.292" y1="120.172" x2="172.292" y2="91.0815" gradientUnits="userSpaceOnUse">
<stop stop-color="#F4F7FE"/>
<stop offset="1" stop-color="#F4F7FE" stop-opacity="0"/>
</linearGradient>
<linearGradient id="paint10_linear_1_2626" x1="130.677" y1="120.172" x2="130.677" y2="91.0815" gradientUnits="userSpaceOnUse">
<stop stop-color="#F4F7FE"/>
<stop offset="1" stop-color="#F4F7FE" stop-opacity="0"/>
</linearGradient>
<linearGradient id="paint11_linear_1_2626" x1="185.207" y1="123.213" x2="185.207" y2="25.1885" gradientUnits="userSpaceOnUse">
<stop offset="0.36" stop-color="#04CD99" stop-opacity="0"/>
<stop offset="0.49" stop-color="#04CD99" stop-opacity="0.18"/>
<stop offset="0.62" stop-color="#04CD99" stop-opacity="0.32"/>
<stop offset="0.75" stop-color="#04CD99" stop-opacity="0.42"/>
<stop offset="0.88" stop-color="#04CD99" stop-opacity="0.48"/>
<stop offset="1" stop-color="#04CD99" stop-opacity="0.5"/>
</linearGradient>
</defs>
</svg>
