<svg width="564" height="575" viewBox="0 0 564 575" fill="none" xmlns="http://www.w3.org/2000/svg">
<path d="M191.76 0H137.479C127.475 0 117.881 3.97384 110.807 11.0476C103.734 18.1213 99.7595 27.7156 99.7595 37.7194V37.7194C99.7595 47.7231 103.734 57.3169 110.807 64.3907C117.881 71.4644 127.475 75.4387 137.479 75.4387H191.76C201.764 75.4387 211.358 71.4644 218.431 64.3907C225.505 57.3169 229.479 47.7231 229.479 37.7194V37.7194C229.479 27.7156 225.505 18.1213 218.431 11.0476C211.358 3.97384 201.764 0 191.76 0V0Z" fill="#04CD99"/>
<path d="M129.821 32.2804C129.739 32.1775 129.679 32.0592 129.645 31.9326C129.61 31.806 129.601 31.6738 129.619 31.5437C129.635 31.4124 129.678 31.2856 129.745 31.1711C129.811 31.0566 129.899 30.9566 130.005 30.8768L138.014 24.5698C138.215 24.4207 138.417 24.2804 138.628 24.1488C138.829 24.0102 139.068 23.937 139.312 23.9385H142.18C142.444 23.9408 142.696 24.0472 142.882 24.2345C143.067 24.4218 143.171 24.6745 143.171 24.9382V48.7805C143.171 48.9107 143.146 49.0397 143.096 49.16C143.046 49.2802 142.973 49.3892 142.881 49.4812C142.789 49.5733 142.68 49.6464 142.56 49.6962C142.439 49.746 142.31 49.7716 142.18 49.7716H139.189C139.059 49.7738 138.929 49.7494 138.808 49.6997C138.687 49.6499 138.578 49.5757 138.487 49.4821C138.393 49.3909 138.319 49.2818 138.267 49.1613C138.216 49.0407 138.189 48.9114 138.189 48.7805V30.5526L132.926 34.649C132.826 34.7296 132.711 34.7891 132.587 34.8238C132.463 34.8584 132.334 34.8676 132.206 34.8507C131.94 34.8058 131.699 34.6693 131.522 34.4648L129.821 32.2804Z" fill="#F4F7FE"/>
<path d="M167.689 33.5788C167.689 34.0437 167.689 34.5615 167.689 35.1229V38.6316C167.689 39.1931 167.689 39.7104 167.689 40.1753C167.627 41.5205 167.409 42.8542 167.04 44.1492C166.712 45.3176 166.134 46.4007 165.347 47.3244C164.519 48.2537 163.482 48.9725 162.321 49.421C159.359 50.4409 156.142 50.4409 153.18 49.421C152.027 48.9721 150.998 48.2531 150.18 47.3244C149.39 46.4012 148.81 45.3182 148.478 44.1492C148.109 42.8542 147.891 41.5205 147.829 40.1753C147.785 39.2455 147.759 38.1842 147.759 36.9912C147.759 35.7982 147.759 34.7279 147.829 33.7981C147.894 32.4416 148.111 31.0969 148.478 29.7895C148.807 28.6037 149.388 27.5026 150.18 26.5612C150.997 25.6164 152.025 24.8772 153.18 24.4034C154.638 23.8338 156.195 23.5622 157.759 23.605C159.315 23.563 160.864 23.8222 162.321 24.3682C163.482 24.8167 164.519 25.5355 165.347 26.4649C166.134 27.3885 166.712 28.472 167.04 29.6404C167.407 30.9241 167.624 32.2454 167.689 33.5788ZM152.777 39.956C152.8 41.4218 153.245 42.8499 154.057 44.07C154.777 45.0437 156.005 45.5348 157.724 45.5348C159.443 45.5348 160.671 45.0437 161.399 44.07C162.205 42.8471 162.646 41.4202 162.672 39.956C162.672 39.0262 162.742 37.9913 162.742 36.8597C162.742 35.7281 162.742 34.6928 162.672 33.763C162.645 32.2963 162.204 30.8673 161.399 29.6404C160.671 28.6755 159.443 28.1841 157.724 28.1841C156.005 28.1841 154.777 28.6755 154.057 29.6404C153.246 30.8645 152.802 32.2947 152.777 33.763C152.777 34.6928 152.707 35.7281 152.707 36.8597C152.707 37.9913 152.768 39.0262 152.812 39.956H152.777Z" fill="#F4F7FE"/>
<path d="M191.751 33.5788C191.751 34.0437 191.751 34.5615 191.751 35.1229V38.6316C191.751 39.1931 191.751 39.7104 191.751 40.1753C191.693 41.521 191.476 42.8552 191.102 44.1492C190.774 45.3176 190.196 46.4007 189.409 47.3244C188.581 48.2537 187.544 48.9725 186.383 49.421C183.421 50.4409 180.204 50.4409 177.242 49.421C176.089 48.9721 175.06 48.2531 174.242 47.3244C173.452 46.4012 172.872 45.3182 172.541 44.1492C172.171 42.8542 171.954 41.5205 171.892 40.1753C171.892 39.2455 171.821 38.1842 171.821 36.9912C171.821 35.7982 171.821 34.7279 171.892 33.7981C171.956 32.4416 172.174 31.0969 172.541 29.7895C172.87 28.6037 173.45 27.5026 174.242 26.5612C175.059 25.6164 176.087 24.8772 177.242 24.4034C178.7 23.8338 180.257 23.5622 181.821 23.605C183.377 23.563 184.926 23.8222 186.383 24.3682C187.544 24.8167 188.581 25.5355 189.409 26.4649C190.196 27.3885 190.774 28.472 191.102 29.6404C191.473 30.9231 191.691 32.2449 191.751 33.5788V33.5788ZM176.839 39.956C176.862 41.4218 177.307 42.8499 178.119 44.07C178.839 45.0437 180.067 45.5348 181.786 45.5348C183.505 45.5348 184.734 45.0437 185.462 44.07C186.271 42.8487 186.712 41.4209 186.734 39.956C186.786 39.0262 186.804 37.9913 186.804 36.8597C186.804 35.7281 186.804 34.6928 186.734 33.763C186.711 32.2956 186.27 30.8654 185.462 29.6404C184.734 28.6755 183.505 28.1841 181.786 28.1841C180.067 28.1841 178.839 28.6755 178.119 29.6404C177.308 30.8645 176.864 32.2947 176.839 33.763C176.795 34.6928 176.769 35.7281 176.769 36.8597C176.769 37.9913 176.83 39.0262 176.874 39.956H176.839Z" fill="#F4F7FE"/>
<path d="M208.207 23.8332C209.313 24.0185 210.384 24.3733 211.382 24.8856C212.225 25.312 212.997 25.8653 213.672 26.526C214.246 27.0881 214.721 27.7436 215.076 28.4646C215.369 29.062 215.556 29.7061 215.628 30.368C215.644 30.5018 215.627 30.6379 215.578 30.7634C215.529 30.8889 215.45 31.0002 215.347 31.0876C215.151 31.2673 214.894 31.3647 214.628 31.3596H212.049C211.719 31.3846 211.389 31.3014 211.111 31.1227C210.881 30.9421 210.685 30.7222 210.531 30.4734C210.111 29.8104 209.536 29.2595 208.856 28.8681C207.822 28.3493 206.669 28.1134 205.514 28.184C204.9 28.1827 204.288 28.2504 203.69 28.3858C203.156 28.5063 202.644 28.7076 202.172 28.9824C201.769 29.2146 201.424 29.5354 201.163 29.9209C200.912 30.314 200.779 30.7705 200.779 31.2367C200.779 31.7029 200.912 32.1594 201.163 32.5525C201.512 32.9668 201.962 33.2839 202.47 33.4733C203.224 33.7776 204.001 34.0185 204.795 34.1929C205.742 34.4122 206.891 34.6753 208.251 34.9647C209.53 35.2304 210.784 35.6091 211.997 36.0963C212.915 36.464 213.763 36.986 214.505 37.64C215.133 38.214 215.614 38.9302 215.909 39.7281C216.202 40.595 216.345 41.5057 216.33 42.4209C216.337 43.3474 216.149 44.265 215.777 45.1137C215.399 45.9657 214.854 46.7328 214.172 47.3684C213.422 48.0673 212.555 48.6282 211.61 49.026C210.513 49.4956 209.356 49.8086 208.172 49.9558V52.4649C208.172 52.5952 208.147 52.724 208.097 52.8444C208.047 52.9648 207.974 53.0743 207.882 53.1665C207.791 53.2593 207.681 53.3327 207.561 53.3824C207.44 53.4321 207.311 53.4573 207.181 53.4561H204.189C203.926 53.4561 203.673 53.3517 203.485 53.1661C203.298 52.9804 203.192 52.7286 203.189 52.4649V49.9558C202.12 49.7875 201.075 49.493 200.075 49.0787C199.157 48.7034 198.298 48.1983 197.523 47.5787C196.816 47.0123 196.221 46.3191 195.768 45.5348C195.319 44.75 195.066 43.8685 195.032 42.9648C195.013 42.8318 195.029 42.6964 195.076 42.5708C195.124 42.4452 195.202 42.3331 195.304 42.2453C195.5 42.0672 195.757 41.97 196.023 41.9733H198.654C198.967 41.9339 199.284 41.9985 199.557 42.157C199.83 42.3155 200.043 42.5591 200.163 42.8505C200.349 43.1849 200.56 43.5048 200.795 43.8069C201.065 44.1614 201.401 44.4594 201.786 44.6841C202.279 44.957 202.807 45.1606 203.356 45.2893C204.123 45.4696 204.91 45.5519 205.698 45.5348C206.415 45.5337 207.13 45.478 207.839 45.3681C208.465 45.2752 209.074 45.089 209.646 44.8156C210.126 44.5849 210.554 44.2562 210.9 43.8506C211.231 43.4527 211.402 42.9464 211.382 42.4295C211.39 42.1851 211.348 41.9418 211.259 41.7142C211.17 41.4865 211.036 41.2794 210.865 41.1051C210.412 40.7016 209.876 40.4022 209.295 40.2279C208.433 39.9381 207.554 39.7039 206.663 39.5263C205.628 39.307 204.435 39.0175 203.084 38.6491C201.978 38.3974 200.898 38.0448 199.856 37.5963C199.008 37.2447 198.231 36.7389 197.567 36.1049C196.966 35.5189 196.504 34.8056 196.216 34.0173C195.901 33.0976 195.753 32.1295 195.777 31.1578C195.773 30.2514 195.961 29.3543 196.33 28.5263C196.703 27.7096 197.22 26.9668 197.856 26.3333C198.542 25.6625 199.337 25.1136 200.207 24.7104C201.156 24.267 202.159 23.9485 203.189 23.7629V21.2543C203.192 20.9906 203.298 20.7384 203.485 20.5527C203.673 20.3671 203.926 20.2627 204.189 20.2627H207.181C207.311 20.2615 207.44 20.2867 207.561 20.3364C207.681 20.3861 207.791 20.4595 207.882 20.5523C207.974 20.6445 208.047 20.754 208.097 20.8744C208.147 20.9948 208.172 21.124 208.172 21.2543L208.207 23.8332Z" fill="#F4F7FE"/>
<path d="M119.988 41.3949V47.728C119.983 47.9756 119.883 48.2117 119.708 48.3868C119.533 48.5619 119.297 48.6624 119.049 48.6669H116.417C116.17 48.6624 115.934 48.5619 115.759 48.3868C115.584 48.2117 115.483 47.9756 115.479 47.728V41.3949H109.251C109.003 41.3904 108.767 41.2899 108.592 41.1148C108.417 40.9398 108.317 40.7036 108.312 40.4561V38.1581C108.31 38.0349 108.334 37.9126 108.382 37.7992C108.431 37.6859 108.503 37.584 108.593 37.5003C108.677 37.4099 108.779 37.3379 108.892 37.2895C109.005 37.2412 109.128 37.2172 109.251 37.2193H115.479V30.9213C115.483 30.6738 115.584 30.4376 115.759 30.2625C115.934 30.0875 116.17 29.9869 116.417 29.9824H119.049C119.297 29.9869 119.533 30.0875 119.708 30.2625C119.883 30.4376 119.983 30.6738 119.988 30.9213V37.2193H126.181C126.304 37.2172 126.426 37.2412 126.54 37.2895C126.653 37.3379 126.755 37.4099 126.839 37.5003C126.929 37.584 127.001 37.6859 127.049 37.7992C127.097 37.9126 127.121 38.0349 127.119 38.1581V40.4299C127.115 40.6775 127.014 40.9136 126.839 41.0887C126.664 41.2637 126.428 41.3639 126.181 41.3684L119.988 41.3949Z" fill="#F4F7FE"/>
<path d="M314.338 170.509C206.101 163.711 142.04 230.202 142.04 230.202C98.768 272.219 81.0749 314.834 75.8994 351.746C75.8994 351.746 66.6537 398.878 83.0924 440.588C92.0397 469.65 111.61 508.571 154.408 537.904C174.443 552.08 195.444 560.711 213.286 565.913C218.752 567.639 224.318 569.034 229.952 570.088C247.084 573.685 258.549 573.939 258.549 573.939C441.198 591.711 470.163 314.228 470.163 314.228C483.567 176.754 314.338 170.509 314.338 170.509Z" fill="#EAF0FF"/>
<path d="M439.918 21.0259H405.111C401.936 21.0259 398.792 21.6514 395.859 22.8664C392.926 24.0813 390.261 25.8619 388.016 28.1068C385.771 30.3517 383.991 33.0166 382.776 35.9497C381.561 38.8828 380.935 42.0266 380.935 45.2014V45.2014C380.935 51.6139 383.482 57.7642 388.016 62.2994C392.549 66.8346 398.698 69.3832 405.111 69.3855H439.918C446.33 69.3832 452.48 66.8346 457.013 62.2994C461.547 57.7642 464.093 51.6139 464.093 45.2014V45.2014C464.093 42.0266 463.468 38.8828 462.253 35.9497C461.038 33.0166 459.258 30.3517 457.013 28.1068C454.768 25.8619 452.103 24.0813 449.169 22.8664C446.236 21.6514 443.093 21.0259 439.918 21.0259Z" fill="#5E56F1"/>
<path d="M409.725 36.8682C409.727 36.6999 409.795 36.5393 409.915 36.4211C410.035 36.3029 410.197 36.2369 410.365 36.2369H419.26C419.343 36.2357 419.427 36.2511 419.504 36.2823C419.582 36.3135 419.652 36.3597 419.712 36.4185C419.771 36.4772 419.819 36.5473 419.851 36.6245C419.883 36.7017 419.9 36.7845 419.9 36.8682V38.5524C419.902 38.6356 419.886 38.7182 419.855 38.7952C419.823 38.8722 419.776 38.9421 419.716 39C419.657 39.062 419.587 39.1111 419.508 39.1443C419.429 39.1775 419.345 39.194 419.26 39.1927H412.611L412.356 42.1841C412.759 42.0161 413.185 41.9124 413.619 41.877C414.04 41.877 414.383 41.877 414.646 41.877C415.48 41.8679 416.311 41.9862 417.111 42.2278C417.829 42.4444 418.497 42.8025 419.075 43.2806C419.635 43.7598 420.079 44.3596 420.374 45.0349C420.702 45.7712 420.864 46.5709 420.847 47.377C420.872 48.264 420.707 49.1463 420.365 49.9649C420.061 50.6418 419.608 51.2414 419.041 51.7193C418.458 52.1929 417.783 52.5392 417.058 52.7365C416.272 52.951 415.46 53.0576 414.646 53.0526C413.699 53.0736 412.755 52.9462 411.847 52.6753C411.137 52.4603 410.476 52.1085 409.9 51.64C409.41 51.2329 409.015 50.7243 408.742 50.1491C408.487 49.5971 408.338 49.0019 408.303 48.3947C408.293 48.308 408.305 48.2201 408.337 48.139C408.369 48.0578 408.421 47.9857 408.488 47.9295C408.548 47.8714 408.62 47.826 408.698 47.7959C408.776 47.7658 408.86 47.7518 408.944 47.7543H410.865C411.018 47.7541 411.167 47.8067 411.286 47.9034C411.417 48.0082 411.509 48.1533 411.549 48.3159C411.628 48.6389 411.782 48.9392 411.997 49.1931C412.199 49.4153 412.44 49.5992 412.707 49.7366C412.985 49.869 413.28 49.9607 413.584 50.0086C413.927 50.055 414.273 50.0785 414.619 50.0788C415.412 50.1176 416.189 49.8544 416.795 49.3421C417.081 49.0934 417.308 48.7841 417.46 48.4366C417.612 48.0892 417.684 47.7123 417.672 47.3333C417.667 46.9937 417.586 46.6592 417.434 46.3554C417.282 46.0517 417.064 45.7864 416.795 45.5789C416.178 45.0872 415.408 44.8292 414.619 44.8508C414.242 44.8413 413.865 44.8767 413.497 44.9561C413.264 45.0147 413.037 45.0968 412.821 45.2016C412.646 45.2981 412.497 45.3858 412.347 45.456C412.177 45.532 411.991 45.5681 411.804 45.5613H409.628C409.46 45.5569 409.299 45.4877 409.18 45.3686C409.061 45.2495 408.992 45.0894 408.988 44.921L409.725 36.8682Z" fill="#F4F7FE"/>
<path d="M435.909 42.4118C435.909 42.71 435.909 43.0437 435.909 43.4033V45.6314C435.909 45.9911 435.909 46.3243 435.909 46.6226C435.866 47.4837 435.725 48.337 435.488 49.1663C435.278 49.9156 434.907 50.6099 434.401 51.2013C433.874 51.8026 433.208 52.2663 432.462 52.5522C431.527 52.8945 430.536 53.0585 429.541 53.0349C428.543 53.0608 427.548 52.8969 426.611 52.5522C425.868 52.2641 425.206 51.8006 424.681 51.2013C424.175 50.6099 423.804 49.9156 423.594 49.1663C423.358 48.337 423.216 47.4837 423.173 46.6226C423.173 46.0261 423.173 45.3418 423.173 44.5786C423.173 43.8155 423.173 43.1314 423.173 42.5261C423.217 41.6593 423.358 40.8003 423.594 39.9648C423.802 39.2014 424.173 38.4921 424.681 37.8857C425.207 37.2811 425.868 36.809 426.611 36.5083C427.543 36.1406 428.54 35.9678 429.541 35.9999C430.537 35.972 431.528 36.1356 432.462 36.4821C433.208 36.768 433.874 37.2317 434.401 37.8331C434.909 38.4226 435.281 39.1175 435.488 39.868C435.725 40.6972 435.866 41.5506 435.909 42.4118ZM426.374 46.4996C426.391 47.4365 426.674 48.3494 427.19 49.1312C427.824 49.7341 428.666 50.0705 429.541 50.0705C430.416 50.0705 431.258 49.7341 431.892 49.1312C432.408 48.3487 432.694 47.4368 432.716 46.4996C432.716 45.9031 432.76 45.2454 432.76 44.5174C432.76 43.7893 432.76 43.1314 432.716 42.5261C432.692 41.5893 432.406 40.6779 431.892 39.8945C431.255 39.2976 430.414 38.9651 429.541 38.9651C428.668 38.9651 427.827 39.2976 427.19 39.8945C426.675 40.677 426.392 41.5895 426.374 42.5261C426.374 43.1314 426.322 43.7893 426.322 44.5174C426.322 45.2454 426.339 45.9031 426.392 46.4996H426.374Z" fill="#F4F7FE"/>
<path d="M446.462 36.1669C447.17 36.2852 447.856 36.5097 448.497 36.8334C449.033 37.1126 449.526 37.4673 449.962 37.8862C450.324 38.2478 450.621 38.6691 450.839 39.1317C451.031 39.5135 451.152 39.9265 451.199 40.3511C451.209 40.437 451.199 40.5241 451.168 40.6051C451.138 40.6861 451.088 40.7583 451.023 40.8159C450.894 40.9284 450.729 40.9908 450.558 40.9915H448.9C448.689 41.0069 448.48 40.9511 448.304 40.8334C448.153 40.7238 448.028 40.5835 447.936 40.4214C447.666 39.9952 447.296 39.6422 446.857 39.3947C446.194 39.0631 445.456 38.9118 444.716 38.9561C444.321 38.9545 443.926 38.999 443.541 39.088C443.201 39.1623 442.876 39.2893 442.576 39.4649C442.314 39.6122 442.092 39.8196 441.927 40.0702C441.769 40.3062 441.686 40.5846 441.69 40.8685C441.677 41.1808 441.766 41.4887 441.944 41.7457C442.181 42.0142 442.483 42.2166 442.821 42.3334C443.305 42.5277 443.804 42.6834 444.313 42.7985L446.523 43.2894C447.345 43.4588 448.149 43.7026 448.927 44.0175C449.517 44.2486 450.061 44.5847 450.532 45.0091C450.927 45.3771 451.228 45.8343 451.409 46.3424C451.603 46.9065 451.695 47.5005 451.681 48.0968C451.688 48.7006 451.565 49.2987 451.321 49.8512C451.078 50.3963 450.729 50.888 450.295 51.2985C449.813 51.7432 449.258 52.1022 448.655 52.3599C447.952 52.6576 447.211 52.8554 446.453 52.9475V54.5614C446.449 54.7299 446.38 54.8903 446.261 55.0094C446.141 55.1286 445.981 55.1973 445.813 55.2018H443.935C443.767 55.1995 443.607 55.131 443.488 55.0112C443.37 54.8913 443.304 54.7297 443.304 54.5614V52.9475C442.617 52.8487 441.944 52.6631 441.304 52.395C440.718 52.1548 440.168 51.8326 439.672 51.4386C439.215 51.0756 438.831 50.6291 438.541 50.1228C438.259 49.6197 438.097 49.0587 438.067 48.4827C438.057 48.396 438.068 48.3082 438.101 48.227C438.133 48.1459 438.184 48.0737 438.251 48.0176C438.376 47.9042 438.539 47.8419 438.707 47.8424H440.365C440.579 47.8271 440.793 47.8756 440.979 47.9825C441.134 48.0925 441.258 48.2407 441.339 48.4125C441.457 48.6276 441.592 48.8327 441.743 49.0263C441.916 49.2467 442.13 49.4315 442.374 49.5702C442.69 49.7472 443.03 49.8771 443.383 49.9562C443.874 50.0712 444.378 50.1244 444.883 50.1142C445.344 50.115 445.804 50.0797 446.26 50.0088C446.662 49.9486 447.053 49.8272 447.418 49.649C447.726 49.5012 448 49.2926 448.225 49.0353C448.425 48.7869 448.534 48.4771 448.532 48.1581C448.54 47.9968 448.515 47.8354 448.457 47.6844C448.4 47.5334 448.312 47.3961 448.199 47.2809C447.909 47.0182 447.564 46.8235 447.19 46.7108C446.645 46.5259 446.088 46.3762 445.523 46.2632C444.865 46.1228 444.093 45.9385 443.234 45.7192C442.522 45.5548 441.827 45.3288 441.155 45.0438C440.614 44.814 440.118 44.4904 439.69 44.0878C439.298 43.7141 438.998 43.2549 438.813 42.7459C438.607 42.1571 438.509 41.5358 438.523 40.9122C438.519 40.3256 438.641 39.7451 438.883 39.2105C439.121 38.6861 439.454 38.2101 439.865 37.8069C440.299 37.3725 440.807 37.019 441.365 36.7631C441.978 36.4819 442.623 36.2786 443.286 36.1579V34.5526C443.285 34.4689 443.301 34.3861 443.332 34.3084C443.363 34.2308 443.409 34.1598 443.468 34.1003C443.527 34.0407 443.597 33.9938 443.674 33.9615C443.751 33.9292 443.834 33.9122 443.918 33.9122H445.839C445.922 33.9105 446.005 33.9264 446.082 33.9581C446.159 33.9898 446.228 34.0366 446.286 34.0964C446.348 34.1549 446.398 34.2256 446.431 34.3041C446.464 34.3827 446.481 34.4673 446.479 34.5526L446.462 36.1669Z" fill="#F4F7FE"/>
<path d="M401.453 47.4475V51.5088C401.454 51.5872 401.439 51.6652 401.409 51.7375C401.379 51.8099 401.334 51.8752 401.278 51.9298C401.223 51.9883 401.156 52.0348 401.082 52.0665C401.008 52.0982 400.928 52.1144 400.848 52.114H399.199C399.12 52.1137 399.042 52.0973 398.969 52.0656C398.897 52.0339 398.832 51.9877 398.778 51.9298C398.72 51.8766 398.674 51.8115 398.644 51.7388C398.613 51.6661 398.599 51.5875 398.602 51.5088V47.4475H394.602C394.444 47.4475 394.292 47.3846 394.18 47.2728C394.069 47.1609 394.006 47.0091 394.006 46.8509V45.3774C394.005 45.2984 394.019 45.2195 394.049 45.1462C394.078 45.0728 394.122 45.0063 394.177 44.95C394.233 44.8937 394.299 44.849 394.372 44.8185C394.445 44.788 394.523 44.7722 394.602 44.7722H398.602V40.7371C398.599 40.6584 398.613 40.5797 398.644 40.507C398.674 40.4343 398.72 40.3693 398.778 40.316C398.832 40.2582 398.897 40.2119 398.969 40.1802C399.042 40.1486 399.12 40.1322 399.199 40.1318H400.892C400.972 40.1315 401.052 40.1477 401.126 40.1794C401.2 40.2111 401.266 40.2575 401.322 40.316C401.378 40.3707 401.422 40.436 401.453 40.5083C401.483 40.5807 401.498 40.6586 401.497 40.7371V44.7722H405.471C405.549 44.7719 405.627 44.7871 405.699 44.8172C405.771 44.8473 405.837 44.8916 405.892 44.9474C405.949 45.0031 405.994 45.07 406.025 45.144C406.055 45.218 406.069 45.2976 406.067 45.3774V46.8509C406.069 46.9293 406.054 47.0076 406.023 47.08C405.993 47.1525 405.948 47.2176 405.892 47.2719C405.837 47.3277 405.771 47.372 405.699 47.4021C405.627 47.4322 405.549 47.4478 405.471 47.4475H401.453Z" fill="#F4F7FE"/>
<path d="M366.093 330.378C353.773 325.89 341.878 320.313 330.549 313.711L341.952 295.132L336.251 304.422L341.935 295.123C342.207 295.29 369.128 311.588 402.891 318.386C446.023 327.079 479.803 316.772 503.312 287.755L520.251 301.483C491.523 336.948 449.198 350.132 397.979 339.632C387.129 337.366 376.47 334.272 366.093 330.378V330.378Z" fill="url(#paint0_linear_160_503)"/>
<g opacity="0.1">
<path d="M336.821 317.141C332.987 315.079 330.812 313.755 330.575 313.632L341.979 295.044C341.979 295.044 343.847 296.185 347.128 297.939L336.821 317.141Z" fill="#EAEFF4"/>
<path d="M363.067 329.141C358.62 327.386 354.155 325.536 349.786 323.544L358.839 303.711C362.813 305.527 366.892 307.22 370.944 308.808L363.067 329.141ZM376.699 333.948L383.304 313.167C387.505 314.509 391.734 315.702 395.856 316.676L390.672 337.851C386.041 336.755 381.365 335.43 376.699 333.948ZM404.979 340.825L408.488 319.316C412.795 320.027 417.076 320.553 421.216 320.869L419.558 342.597C414.83 342.238 409.909 341.641 404.979 340.825V340.825ZM434.453 343.001L433.909 321.202C438.077 321.103 442.236 320.766 446.365 320.194L449.418 341.772C444.457 342.466 439.461 342.876 434.453 343.001V343.001ZM464.278 338.694L458.444 317.641C462.374 316.553 466.223 315.19 469.962 313.562L478.69 333.536C474.012 335.584 469.196 337.302 464.278 338.676V338.694ZM492.26 326.413L480.716 307.974C484.17 305.818 487.465 303.418 490.576 300.79L504.611 317.457C500.713 320.728 496.586 323.715 492.26 326.395V326.413Z" fill="#E2E5E8"/>
<path d="M515.611 306.825L499.488 292.185C500.795 290.755 502.12 289.237 503.348 287.693L520.278 301.421C518.76 303.255 517.19 305.088 515.611 306.825Z" fill="#EAEFF4"/>
</g>
<path d="M544.751 298.632L558.067 280.658L542.076 268.799L531.628 261.062L515.628 249.202L502.313 267.176C502.313 267.176 496.716 273.044 503.988 278.439L513.514 285.5L523.962 293.237L533.488 300.307C540.76 305.693 544.751 298.632 544.751 298.632Z" fill="#D3DDE5"/>
<path d="M525.46 235.934L515.882 248.859L522.887 254.051L532.466 241.125L525.46 235.934Z" fill="#D3DDE5"/>
<path d="M536.128 236.544L543.146 227.123C543.844 226.192 544.144 225.023 543.979 223.871C543.815 222.72 543.199 221.681 542.269 220.983V220.983C541.808 220.637 541.283 220.385 540.726 220.243C540.168 220.1 539.587 220.068 539.017 220.15C538.447 220.231 537.898 220.424 537.402 220.718C536.907 221.011 536.474 221.399 536.128 221.86L529.111 231.281L536.128 236.544Z" fill="#D3DDE5"/>
<path d="M541.871 238.678L527.791 257.679L534.796 262.871L548.876 243.87L541.871 238.678Z" fill="#D3DDE5"/>
<path d="M549.04 254.128L539.807 266.588L546.812 271.78L556.046 259.319L549.04 254.128Z" fill="#D3DDE5"/>
<path d="M556.356 268.198L551.258 275.076L558.264 280.267L563.361 273.389L556.356 268.198Z" fill="#D3DDE5"/>
<path d="M503.202 277.232L533.861 300.227C532.456 302.101 530.363 303.34 528.044 303.671C525.725 304.003 523.369 303.399 521.495 301.993L504.968 289.599C503.094 288.193 501.855 286.1 501.524 283.781C501.192 281.462 501.796 279.106 503.202 277.232V277.232V277.232Z" fill="#A6B4D1"/>
<path d="M189.549 330.939C202.296 327.849 214.74 323.624 226.733 318.316L217.479 298.579L222.111 308.448L217.488 298.57C217.207 298.702 188.602 311.895 154.33 314.886C110.47 318.711 78.0754 304.694 57.9526 273.246L39.5491 284.991C64.1105 323.439 104.689 341.264 156.795 336.553C167.84 335.519 178.79 333.642 189.549 330.939V330.939Z" fill="url(#paint1_linear_160_503)"/>
<g opacity="0.1">
<path d="M220.075 321.044C224.119 319.43 226.435 318.351 226.681 318.237L217.435 298.5C217.435 298.5 215.452 299.421 211.996 300.798L220.075 321.044Z" fill="#EAEFF4"/>
<path d="M187.102 308.966C191.303 307.851 195.549 306.606 199.698 305.246L206.479 325.965C201.926 327.457 197.277 328.825 192.654 330.045L187.102 308.966ZM164.251 335.65L161.479 314.027C165.689 313.492 170.023 312.773 174.347 311.913L178.593 333.299C173.76 334.29 168.952 335.044 164.251 335.65ZM134.979 337.115L135.759 315.325C139.9 315.474 144.216 315.431 148.575 315.211L149.707 336.974C144.716 337.238 139.76 337.282 134.979 337.115ZM105.435 332.966L110.882 311.852C114.926 312.891 119.026 313.694 123.163 314.255L120.189 335.851C115.22 335.173 110.294 334.21 105.435 332.966V332.966ZM77.2594 321.562L88.1717 302.694C91.702 304.731 95.372 306.516 99.1542 308.036L91.0138 328.255C86.2779 326.349 81.6844 324.106 77.2682 321.545L77.2594 321.562ZM53.2944 302.615L69.0839 287.615C71.8861 290.569 74.8936 293.322 78.084 295.852L64.5489 312.948C60.5595 309.766 56.7987 306.307 53.2944 302.597V302.615Z" fill="#E2E5E8"/>
<path d="M43.5577 290.843L61.2155 278.053C60.0839 276.492 58.9611 274.842 57.8909 273.167L39.5488 284.913C40.8208 286.922 42.1805 288.939 43.5577 290.843Z" fill="#EAEFF4"/>
</g>
<path d="M15.5138 279.447L4.28564 260.149L21.5049 250.149L32.7506 243.623L49.9698 233.623L61.1979 252.965C61.1979 252.965 66.1016 259.43 58.277 263.974L48.0224 269.93L36.777 276.456L26.5224 282.412C18.6978 286.921 15.5138 279.447 15.5138 279.447Z" fill="#D3DDE5"/>
<path d="M41.8324 219.297L34.292 223.675L42.37 237.588L49.9105 233.21L41.8324 219.297Z" fill="#D3DDE5"/>
<path d="M31.014 218.711L25.1281 208.57C24.5526 207.568 24.3956 206.38 24.6912 205.263C24.9868 204.146 25.7113 203.191 26.7071 202.605C27.7099 202.03 28.899 201.875 30.016 202.172C31.133 202.469 32.0874 203.196 32.6718 204.193L38.558 214.333L31.014 218.711Z" fill="#D3DDE5"/>
<path d="M25.2162 220.193L17.6758 224.571L29.5506 245.023L37.091 240.645L25.2162 220.193Z" fill="#D3DDE5"/>
<path d="M16.7915 234.577L9.29297 238.937L17.0472 252.274L24.5458 247.915L16.7915 234.577Z" fill="#D3DDE5"/>
<path d="M7.54043 247.914L0 252.292L4.29871 259.696L11.8391 255.318L7.54043 247.914Z" fill="#D3DDE5"/>
<path d="M55.7486 276.104L37.8835 286.477C35.8575 287.653 33.447 287.976 31.1826 287.375C28.9182 286.774 26.9852 285.299 25.8089 283.273L58.9522 264.029C60.1285 266.055 60.4518 268.466 59.851 270.73C59.2502 272.994 57.7746 274.928 55.7486 276.104Z" fill="#A6B4D1"/>
<path d="M315.216 522.237C308.567 522.237 302.19 519.596 297.489 514.895C292.787 510.193 290.146 503.816 290.146 497.167C290.146 490.518 292.787 484.141 297.489 479.44C302.19 474.738 308.567 472.097 315.216 472.097C328.953 472.097 340.146 472.308 340.286 486.009V497.167C340.279 503.814 337.636 510.187 332.936 514.887C328.236 519.587 321.863 522.23 315.216 522.237ZM315.216 478.641C310.304 478.646 305.594 480.599 302.121 484.072C298.648 487.546 296.694 492.255 296.69 497.167C296.69 507.387 303.909 514.606 314.128 514.606C319.04 514.601 323.75 512.648 327.223 509.174C330.697 505.701 332.65 500.992 332.655 496.08V484.869C332.532 474.817 325.33 478.641 315.216 478.641Z" fill="url(#paint2_linear_160_503)"/>
<path d="M252.532 522.237C245.885 522.23 239.512 519.587 234.812 514.887C230.112 510.187 227.468 503.814 227.461 497.167V486.123C227.54 472.369 238.76 472.088 252.532 472.088C259.181 472.088 265.557 474.729 270.259 479.431C274.96 484.133 277.602 490.509 277.602 497.158C277.602 503.807 274.96 510.184 270.259 514.885C265.557 519.587 259.181 522.228 252.532 522.228V522.237ZM252.532 478.641C242.374 478.641 235.181 474.878 235.093 485V496.079C235.098 500.991 237.051 505.701 240.524 509.174C243.998 512.648 248.707 514.601 253.619 514.606C263.839 514.606 271.067 507.386 271.067 497.167C271.06 492.254 269.104 487.544 265.63 484.071C262.155 480.598 257.445 478.645 252.532 478.641V478.641Z" fill="url(#paint3_linear_160_503)"/>
<path d="M320.12 532.702C320.12 549.141 305.497 562.588 287.663 562.588H280.172C262.304 562.588 247.672 549.141 247.672 532.702V497.167H320.163L320.12 532.702Z" fill="url(#paint4_linear_160_503)"/>
<path d="M253.076 532.702V497.167H247.628V532.702C247.628 549.141 262.26 562.588 280.129 562.588H285.585C267.707 562.588 253.076 549.141 253.076 532.702Z" fill="#373D4F"/>
<g style="mix-blend-mode:multiply">
<path d="M314.672 497.167V532.702C314.672 549.141 300.04 562.588 282.216 562.588H287.663C305.541 562.588 320.12 549.141 320.12 532.702V497.167H314.672Z" fill="#D3DDE5"/>
</g>
<g style="mix-blend-mode:multiply">
<path d="M314.672 496.097H247.628V503.729H314.672V496.097Z" fill="#D3DDE5"/>
</g>
<path d="M309.444 249.991H258.312V284.298H309.444V249.991Z" fill="#A6B4D1"/>
<path d="M379.707 200.219C379.658 216.417 373.202 231.937 361.748 243.389C350.294 254.842 334.773 261.296 318.575 261.342H249.198C233.001 261.298 217.479 254.845 206.026 243.391C194.573 231.938 188.119 216.417 188.075 200.219V182.737C188.121 166.54 194.576 151.02 206.029 139.568C217.482 128.115 233.001 121.66 249.198 121.614H318.584C334.782 121.66 350.302 128.115 361.756 139.567C373.211 151.02 379.667 166.539 379.716 182.737L379.707 200.219Z" fill="url(#paint5_linear_160_503)"/>
<path d="M249.198 121.614H260.102C243.904 121.66 228.382 128.114 216.926 139.566C205.471 151.019 199.012 166.539 198.961 182.737V200.219C199.01 216.418 205.468 231.939 216.924 243.392C228.38 254.845 243.903 261.298 260.102 261.342H249.198C232.999 261.298 217.476 254.845 206.02 243.392C194.564 231.939 188.106 216.418 188.058 200.219V182.737C188.109 166.539 194.567 151.019 206.023 139.566C217.478 128.114 233 121.66 249.198 121.614Z" fill="#A6B4D1"/>
<path d="M318.575 277.693H249.198C233.001 277.74 217.482 284.194 206.029 295.647C194.576 307.1 188.121 322.62 188.075 338.816V437.159C188.112 453.362 194.562 468.892 206.016 480.353C217.469 491.815 232.995 498.277 249.198 498.325H318.584C334.78 498.279 350.299 491.824 361.75 480.371C373.202 468.918 379.654 453.398 379.698 437.202V338.816C379.65 322.621 373.194 307.102 361.742 295.65C350.29 284.197 334.771 277.742 318.575 277.693V277.693Z" fill="url(#paint6_linear_160_503)"/>
<g style="mix-blend-mode:multiply">
<path d="M249.198 412.167C238.772 412.157 228.775 408.013 221.401 400.642C214.028 393.272 209.878 383.277 209.865 372.851V338.816C209.874 328.392 214.019 318.397 221.39 311.026C228.761 303.654 238.756 299.509 249.18 299.5H318.567C328.993 299.507 338.991 303.651 346.365 311.022C353.74 318.393 357.888 328.389 357.9 338.816V372.886C357.888 383.31 353.742 393.303 346.372 400.674C339.001 408.044 329.008 412.19 318.584 412.202L249.198 412.167Z" fill="#D3DDE5"/>
</g>
<path d="M249.199 406.719C240.217 406.712 231.604 403.143 225.251 396.793C218.899 390.444 215.324 381.833 215.313 372.851V338.816C215.322 329.836 218.893 321.227 225.243 314.877C231.592 308.528 240.201 304.957 249.181 304.947H318.567C327.549 304.954 336.161 308.524 342.514 314.874C348.867 321.224 352.442 329.834 352.453 338.816V372.886C352.444 381.866 348.873 390.475 342.523 396.824C336.173 403.174 327.564 406.745 318.585 406.754L249.199 406.719Z" fill="url(#paint7_linear_160_503)"/>
<path d="M249.198 277.693H260.102C243.904 277.74 228.382 284.194 216.926 295.646C205.471 307.098 199.012 322.618 198.961 338.816V437.159C198.961 466.571 219.856 492.536 247.646 498.264C231.721 497.817 216.595 491.189 205.472 479.783C194.35 468.377 188.104 453.09 188.058 437.159V338.816C188.109 322.618 194.567 307.098 206.023 295.646C217.478 284.194 233 277.74 249.198 277.693V277.693Z" fill="#A6B4D1"/>
<path d="M249.198 229.026C239.253 229.015 229.72 225.059 222.688 218.028C215.656 210.996 211.701 201.462 211.689 191.518V191.518C211.701 181.573 215.656 172.039 222.688 165.008C229.72 157.976 239.253 154.02 249.198 154.009H318.584C328.528 154.02 338.06 157.976 345.091 165.008C352.121 172.04 356.075 181.574 356.084 191.518V191.518C356.075 201.461 352.121 210.995 345.091 218.027C338.06 225.059 328.528 229.015 318.584 229.026H249.198Z" fill="url(#paint8_linear_160_503)"/>
<path d="M369.909 163.632C382.189 165.316 391.163 171.448 391.163 189.825C391.163 207.219 383.023 213.676 371.61 215.737L369.909 163.632Z" fill="#E7EDFC"/>
<path d="M192.084 214.789C182.847 211.982 176.593 205.14 176.593 189.824C176.593 172.526 184.645 166.044 195.97 163.947L192.084 214.789Z" fill="#A6B4D1"/>
<path d="M307.462 191.483C307.46 189.495 308.048 187.552 309.151 185.899C310.254 184.246 311.822 182.957 313.658 182.196C315.494 181.435 317.514 181.235 319.463 181.622C321.412 182.01 323.202 182.966 324.608 184.372C326.013 185.777 326.97 187.567 327.357 189.516C327.744 191.465 327.545 193.486 326.783 195.321C326.022 197.157 324.733 198.725 323.08 199.828C321.427 200.931 319.484 201.519 317.497 201.518C314.835 201.518 312.283 200.46 310.401 198.578C308.519 196.696 307.462 194.144 307.462 191.483V191.483Z" fill="#F4F7FE"/>
<path d="M240.216 191.483C240.216 189.498 240.804 187.558 241.907 185.908C243.01 184.257 244.577 182.971 246.411 182.212C248.244 181.452 250.262 181.253 252.209 181.641C254.155 182.028 255.943 182.984 257.347 184.387C258.75 185.79 259.706 187.578 260.093 189.525C260.48 191.472 260.282 193.49 259.522 195.323C258.763 197.157 257.476 198.724 255.826 199.827C254.176 200.929 252.236 201.518 250.251 201.518C247.589 201.518 245.037 200.46 243.155 198.578C241.273 196.696 240.216 194.144 240.216 191.483Z" fill="#F4F7FE"/>
<path d="M311.356 130.334C311.356 120.992 297.26 113.413 283.891 113.413C270.523 113.413 256.417 120.992 256.417 130.334C256.417 139.676 270.523 147.246 283.891 147.246C297.26 147.246 311.356 139.667 311.356 130.334Z" fill="#D8DFEF"/>
<g style="mix-blend-mode:multiply">
<path d="M379.707 433.895H188.066V437.167H379.707V433.895Z" fill="#D3DDE5"/>
</g>
<g style="mix-blend-mode:multiply">
<path d="M318.576 304.947H249.198C240.219 304.957 231.61 308.528 225.26 314.877C218.91 321.227 215.339 329.836 215.33 338.816V344.263C215.339 335.284 218.91 326.674 225.26 320.325C231.61 313.975 240.219 310.404 249.198 310.395H318.585C327.567 310.402 336.179 313.972 342.532 320.321C348.884 326.671 352.459 335.281 352.47 344.263V338.816C352.459 329.833 348.883 321.221 342.529 314.871C336.174 308.521 327.559 304.952 318.576 304.947V304.947Z" fill="#D3DDE5"/>
</g>
<path d="M265.163 538.343C264.664 538.419 264.154 538.385 263.669 538.246C263.183 538.106 262.734 537.863 262.351 537.534C261.968 537.204 261.66 536.796 261.45 536.337C261.239 535.878 261.13 535.379 261.13 534.874C261.13 534.368 261.239 533.869 261.45 533.41C261.66 532.951 261.968 532.543 262.351 532.213C262.734 531.884 263.183 531.641 263.669 531.501C264.154 531.362 264.664 531.329 265.163 531.404H302.585C303.084 531.329 303.594 531.362 304.079 531.501C304.565 531.641 305.014 531.884 305.397 532.213C305.78 532.543 306.088 532.951 306.298 533.41C306.509 533.869 306.618 534.368 306.618 534.874C306.618 535.379 306.509 535.878 306.298 536.337C306.088 536.796 305.78 537.204 305.397 537.534C305.014 537.863 304.565 538.106 304.079 538.246C303.594 538.385 303.084 538.419 302.585 538.343H265.163Z" fill="#1B1D26"/>
<path d="M265.163 518.957C264.664 519.032 264.154 518.999 263.669 518.86C263.183 518.72 262.734 518.477 262.351 518.148C261.968 517.818 261.66 517.41 261.45 516.951C261.239 516.492 261.13 515.993 261.13 515.487C261.13 514.982 261.239 514.483 261.45 514.024C261.66 513.565 261.968 513.156 262.351 512.827C262.734 512.498 263.183 512.255 263.669 512.115C264.154 511.976 264.664 511.942 265.163 512.018H302.585C303.084 511.942 303.594 511.976 304.079 512.115C304.565 512.255 305.014 512.498 305.397 512.827C305.78 513.156 306.088 513.565 306.298 514.024C306.509 514.483 306.618 514.982 306.618 515.487C306.618 515.993 306.509 516.492 306.298 516.951C306.088 517.41 305.78 517.818 305.397 518.148C305.014 518.477 304.565 518.72 304.079 518.86C303.594 518.999 303.084 519.032 302.585 518.957H265.163Z" fill="#1B1D26"/>
<path opacity="0.03" d="M318.567 229.026C328.511 229.015 338.045 225.059 345.077 218.028C352.109 210.996 356.064 201.462 356.076 191.518V191.518C356.064 181.573 352.109 172.039 345.077 165.008C338.045 157.976 328.511 154.02 318.567 154.009H249.198L318.567 229.026Z" fill="#EAEFF4"/>
<g style="mix-blend-mode:multiply">
<g style="mix-blend-mode:multiply">
<path d="M283.891 475.053C282.188 475.052 280.523 474.545 279.108 473.597C277.693 472.65 276.59 471.304 275.939 469.729C275.289 468.155 275.119 466.424 275.453 464.753C275.786 463.083 276.607 461.549 277.812 460.345C279.017 459.141 280.552 458.322 282.223 457.99C283.894 457.658 285.625 457.83 287.199 458.482C288.772 459.134 290.117 460.238 291.063 461.654C292.009 463.071 292.514 464.736 292.514 466.439C292.512 468.724 291.602 470.915 289.986 472.531C288.369 474.146 286.177 475.053 283.891 475.053V475.053Z" fill="#D3DDE5"/>
</g>
<g style="mix-blend-mode:multiply">
<path d="M312.69 475.053C310.986 475.052 309.322 474.545 307.906 473.597C306.491 472.65 305.388 471.304 304.738 469.729C304.087 468.155 303.918 466.424 304.251 464.753C304.584 463.083 305.405 461.549 306.61 460.345C307.816 459.141 309.35 458.322 311.021 457.99C312.692 457.658 314.423 457.83 315.997 458.482C317.57 459.134 318.915 460.238 319.861 461.654C320.807 463.071 321.312 464.736 321.312 466.439C321.31 468.724 320.401 470.915 318.784 472.531C317.167 474.146 314.975 475.053 312.69 475.053V475.053Z" fill="#D3DDE5"/>
</g>
<g style="mix-blend-mode:multiply">
<path d="M255.067 475.054C253.363 475.054 251.698 474.548 250.281 473.602C248.865 472.655 247.76 471.31 247.108 469.736C246.456 468.162 246.286 466.43 246.618 464.759C246.951 463.088 247.771 461.553 248.976 460.348C250.18 459.143 251.715 458.323 253.386 457.991C255.057 457.658 256.789 457.829 258.363 458.481C259.937 459.133 261.283 460.237 262.229 461.654C263.176 463.07 263.681 464.736 263.681 466.439C263.681 468.724 262.773 470.915 261.158 472.53C259.542 474.146 257.351 475.054 255.067 475.054V475.054Z" fill="#D3DDE5"/>
</g>
</g>
<path d="M296.848 324.351L282.26 347.605L267.663 324.351H245.374L259.97 347.605V347.693L272.716 368V393.904H272.795H282.26H291.716H291.795V368L304.541 347.693V347.605L319.137 324.351H296.848Z" fill="#5F5CED"/>
<path opacity="0.06" d="M331.471 404.167L235.269 307.974C239.647 305.987 244.4 304.961 249.207 304.965H318.593C327.573 304.974 336.182 308.545 342.532 314.895C348.881 321.245 352.453 329.854 352.462 338.834V372.886C352.446 379.591 350.444 386.141 346.708 391.708C342.971 397.276 337.669 401.611 331.471 404.167V404.167Z" fill="white"/>
<path d="M99.7679 169.237C105.417 169.237 109.996 164.658 109.996 159.009C109.996 153.36 105.417 148.781 99.7679 148.781C94.1191 148.781 89.5398 153.36 89.5398 159.009C89.5398 164.658 94.1191 169.237 99.7679 169.237Z" fill="#04CD99"/>
<path d="M164.619 106.333C170.268 106.333 174.848 101.754 174.848 96.105C174.848 90.4562 170.268 85.877 164.619 85.877C158.971 85.877 154.391 90.4562 154.391 96.105C154.391 101.754 158.971 106.333 164.619 106.333Z" fill="#04CD99"/>
<path d="M231.462 138.026C237.111 138.026 241.69 133.447 241.69 127.798C241.69 122.15 237.111 117.57 231.462 117.57C225.813 117.57 221.234 122.15 221.234 127.798C221.234 133.447 225.813 138.026 231.462 138.026Z" fill="#04CD99"/>
<path d="M427.515 135.053C433.164 135.053 437.743 130.474 437.743 124.825C437.743 119.176 433.164 114.597 427.515 114.597C421.866 114.597 417.287 119.176 417.287 124.825C417.287 130.474 421.866 135.053 427.515 135.053Z" fill="#04CD99"/>
<path d="M497.076 70.921C502.725 70.921 507.304 66.3417 507.304 60.6929C507.304 55.0441 502.725 50.4648 497.076 50.4648C491.427 50.4648 486.848 55.0441 486.848 60.6929C486.848 66.3417 491.427 70.921 497.076 70.921Z" fill="#04CD99"/>
<path d="M360.575 75.9474C366.224 75.9474 370.804 71.3681 370.804 65.7193C370.804 60.0705 366.224 55.4912 360.575 55.4912C354.927 55.4912 350.347 60.0705 350.347 65.7193C350.347 71.3681 354.927 75.9474 360.575 75.9474Z" fill="#04CD99"/>
<path d="M296.18 49.1842C301.829 49.1842 306.409 44.6049 306.409 38.9561C306.409 33.3073 301.829 28.728 296.18 28.728C290.532 28.728 285.952 33.3073 285.952 38.9561C285.952 44.6049 290.532 49.1842 296.18 49.1842Z" fill="#04CD99"/>
<path d="M297.264 44.2173L292.205 40.3784L229.283 123.305L234.342 127.144L297.264 44.2173Z" fill="#04CD99"/>
<path d="M167.11 100.011L162.743 95.3999L95.222 159.34L99.5888 163.952L167.11 100.011Z" fill="#04CD99"/>
<path d="M494.24 68.372L489.922 63.7358L425.4 123.839L429.718 128.475L494.24 68.372Z" fill="#04CD99"/>
<path d="M232.543 134.913L235.479 129.282L163.238 91.6275L160.303 97.2593L232.543 134.913Z" fill="#04CD99"/>
<path d="M358.56 69.1546L361.237 63.3955L295.962 33.0541L293.285 38.8132L358.56 69.1546Z" fill="#04CD99"/>
<path d="M430.855 131.637L434.992 126.819L357.112 59.9494L352.975 64.7678L430.855 131.637Z" fill="#04CD99"/>
<path d="M145.69 172.079C151.338 172.079 155.918 167.5 155.918 161.851C155.918 156.202 151.338 151.623 145.69 151.623C140.041 151.623 135.461 156.202 135.461 161.851C135.461 167.5 140.041 172.079 145.69 172.079Z" fill="#5F5CED"/>
<path d="M285.952 179.465C291.601 179.465 296.181 174.886 296.181 169.237C296.181 163.588 291.601 159.009 285.952 159.009C280.304 159.009 275.724 163.588 275.724 169.237C275.724 174.886 280.304 179.465 285.952 179.465Z" fill="#5F5CED"/>
<path d="M82.7071 116.562C88.3559 116.562 92.9352 111.982 92.9352 106.334C92.9352 100.685 88.3559 96.1055 82.7071 96.1055C77.0583 96.1055 72.479 100.685 72.479 106.334C72.479 111.982 77.0583 116.562 82.7071 116.562Z" fill="#5F5CED"/>
<path d="M212.172 143.719C217.821 143.719 222.4 139.14 222.4 133.491C222.4 127.842 217.821 123.263 212.172 123.263C206.523 123.263 201.944 127.842 201.944 133.491C201.944 139.14 206.523 143.719 212.172 143.719Z" fill="#5F5CED"/>
<path d="M337.769 86.1754C343.417 86.1754 347.997 81.5961 347.997 75.9473C347.997 70.2985 343.417 65.7192 337.769 65.7192C332.12 65.7192 327.541 70.2985 327.541 75.9473C327.541 81.5961 332.12 86.1754 337.769 86.1754Z" fill="#5F5CED"/>
<path d="M401.199 204.439C406.848 204.439 411.427 199.859 411.427 194.21C411.427 188.562 406.848 183.982 401.199 183.982C395.55 183.982 390.971 188.562 390.971 194.21C390.971 199.859 395.55 204.439 401.199 204.439Z" fill="#5F5CED"/>
<path d="M465.47 145.281C471.119 145.281 475.699 140.702 475.699 135.053C475.699 129.404 471.119 124.825 465.47 124.825C459.822 124.825 455.242 129.404 455.242 135.053C455.242 140.702 459.822 145.281 465.47 145.281Z" fill="#5F5CED"/>
<path d="M532.558 204.807C538.207 204.807 542.786 200.228 542.786 194.579C542.786 188.93 538.207 184.351 532.558 184.351C526.909 184.351 522.33 188.93 522.33 194.579C522.33 200.228 526.909 204.807 532.558 204.807Z" fill="#5F5CED"/>
<path d="M148.327 165.157L152.257 160.168L82.8262 105.473L78.8962 110.462L148.327 165.157Z" fill="#5F5CED"/>
<path d="M215.541 133.735L212.914 127.953L142.968 159.726L145.594 165.509L215.541 133.735Z" fill="#5F5CED"/>
<path d="M341.424 76.2372L335.865 73.166L284.558 166.032L290.117 169.103L341.424 76.2372Z" fill="#5F5CED"/>
<path d="M466.885 138.157L462.547 133.519L397.99 193.888L402.328 198.526L466.885 138.157Z" fill="#5F5CED"/>
<path d="M398.169 199.067L403.849 196.227L343.459 75.4188L337.778 78.2585L398.169 199.067Z" fill="#5F5CED"/>
<path d="M529.551 198.853L533.901 194.226L466.818 131.164L462.468 135.791L529.551 198.853Z" fill="#5F5CED"/>
<path d="M287.875 172.72L290.365 166.877L211.983 133.477L209.493 139.32L287.875 172.72Z" fill="#5F5CED"/>
<path opacity="0.6" d="M308.629 193.43L226.9 146.605H320.251L327.743 188.737L308.629 193.43Z" fill="url(#paint9_linear_160_503)"/>
<path opacity="0.6" d="M241.646 193.43L159.917 146.605H253.269L260.76 188.737L241.646 193.43Z" fill="url(#paint10_linear_160_503)"/>
<path d="M497.075 60.6931V166.097V198.325H99.1538L99.5661 163.956L102.996 153.983L164.619 97.4037L230.163 129.509L296.18 40.5439L357.909 65.7194L369.909 75.4212L429.523 123.272L497.075 60.6931Z" fill="url(#paint11_linear_160_503)"/>
<defs>
<linearGradient id="paint0_linear_160_503" x1="425.4" y1="287.755" x2="425.4" y2="343.139" gradientUnits="userSpaceOnUse">
<stop stop-color="#2E3242"/>
<stop offset="0.21875" stop-color="#606475"/>
<stop offset="1" stop-color="#2E3242"/>
</linearGradient>
<linearGradient id="paint1_linear_160_503" x1="133.141" y1="273.246" x2="133.141" y2="337.294" gradientUnits="userSpaceOnUse">
<stop stop-color="#2E3242"/>
<stop offset="0.21875" stop-color="#606475"/>
<stop offset="1" stop-color="#2E3242"/>
</linearGradient>
<linearGradient id="paint2_linear_160_503" x1="315.216" y1="472.097" x2="315.216" y2="522.237" gradientUnits="userSpaceOnUse">
<stop stop-color="#2E3242"/>
<stop offset="0.21875" stop-color="#606475"/>
<stop offset="1" stop-color="#2E3242"/>
</linearGradient>
<linearGradient id="paint3_linear_160_503" x1="252.532" y1="472.088" x2="252.532" y2="522.237" gradientUnits="userSpaceOnUse">
<stop stop-color="#2E3242"/>
<stop offset="0.21875" stop-color="#606475"/>
<stop offset="1" stop-color="#2E3242"/>
</linearGradient>
<linearGradient id="paint4_linear_160_503" x1="283.918" y1="497.167" x2="283.918" y2="562.588" gradientUnits="userSpaceOnUse">
<stop stop-color="#2E3242"/>
<stop offset="0.21875" stop-color="#606475"/>
<stop offset="1" stop-color="#2E3242"/>
</linearGradient>
<linearGradient id="paint5_linear_160_503" x1="283.895" y1="121.614" x2="283.895" y2="261.342" gradientUnits="userSpaceOnUse">
<stop stop-color="#D8DFEF"/>
<stop offset="0.682292" stop-color="#EBF1FF"/>
<stop offset="1" stop-color="#D8DFEF"/>
</linearGradient>
<linearGradient id="paint6_linear_160_503" x1="283.887" y1="277.693" x2="283.887" y2="498.325" gradientUnits="userSpaceOnUse">
<stop stop-color="#D8DFEF"/>
<stop offset="0.682292" stop-color="#EBF1FF"/>
<stop offset="1" stop-color="#D8DFEF"/>
</linearGradient>
<linearGradient id="paint7_linear_160_503" x1="283.883" y1="304.947" x2="283.883" y2="406.754" gradientUnits="userSpaceOnUse">
<stop stop-color="#2E3242"/>
<stop offset="0.21875" stop-color="#606475"/>
<stop offset="1" stop-color="#2E3242"/>
</linearGradient>
<linearGradient id="paint8_linear_160_503" x1="283.886" y1="154.009" x2="283.886" y2="229.026" gradientUnits="userSpaceOnUse">
<stop stop-color="#2E3242"/>
<stop offset="0.21875" stop-color="#606475"/>
<stop offset="1" stop-color="#2E3242"/>
</linearGradient>
<linearGradient id="paint9_linear_160_503" x1="277.322" y1="193.43" x2="277.322" y2="146.605" gradientUnits="userSpaceOnUse">
<stop stop-color="#F4F7FE"/>
<stop offset="1" stop-color="#F4F7FE" stop-opacity="0"/>
</linearGradient>
<linearGradient id="paint10_linear_160_503" x1="210.339" y1="193.43" x2="210.339" y2="146.605" gradientUnits="userSpaceOnUse">
<stop stop-color="#F4F7FE"/>
<stop offset="1" stop-color="#F4F7FE" stop-opacity="0"/>
</linearGradient>
<linearGradient id="paint11_linear_160_503" x1="298.11" y1="198.325" x2="298.11" y2="40.5439" gradientUnits="userSpaceOnUse">
<stop offset="0.36" stop-color="#04CD99" stop-opacity="0"/>
<stop offset="0.49" stop-color="#04CD99" stop-opacity="0.18"/>
<stop offset="0.62" stop-color="#04CD99" stop-opacity="0.32"/>
<stop offset="0.75" stop-color="#04CD99" stop-opacity="0.42"/>
<stop offset="0.88" stop-color="#04CD99" stop-opacity="0.48"/>
<stop offset="1" stop-color="#04CD99" stop-opacity="0.5"/>
</linearGradient>
</defs>
</svg>
