<svg width="401" height="409" viewBox="0 0 401 409" fill="none" xmlns="http://www.w3.org/2000/svg">
<path d="M137.026 0.116211H98.4856C91.3826 0.116211 84.5707 2.93774 79.5481 7.96027C74.5256 12.9828 71.7039 19.7949 71.7039 26.8979C71.7039 34.0008 74.5256 40.8126 79.5481 45.8352C84.5707 50.8577 91.3826 53.6795 98.4856 53.6795H137.026C144.129 53.6795 150.941 50.8577 155.964 45.8352C160.986 40.8126 163.808 34.0008 163.808 26.8979C163.808 19.7949 160.986 12.9828 155.964 7.96027C150.941 2.93774 144.129 0.116211 137.026 0.116211Z" fill="#04CD99"/>
<path d="M93.0475 23.0363C92.9896 22.9632 92.9471 22.8792 92.9225 22.7893C92.8979 22.6994 92.8916 22.6055 92.9042 22.5132C92.916 22.42 92.9464 22.3299 92.9935 22.2486C93.0406 22.1673 93.1034 22.0963 93.1784 22.0397L98.8648 17.5616C99.008 17.4557 99.1512 17.356 99.3007 17.2626C99.4435 17.1642 99.6131 17.1122 99.7865 17.1133H101.823C102.01 17.1149 102.189 17.1905 102.321 17.3234C102.453 17.4564 102.527 17.6359 102.527 17.8231V34.7517C102.527 34.8441 102.509 34.9358 102.473 35.0212C102.438 35.1066 102.386 35.1839 102.321 35.2492C102.256 35.3146 102.178 35.3665 102.092 35.4019C102.007 35.4373 101.916 35.4554 101.823 35.4554H99.6994C99.6067 35.457 99.5146 35.4397 99.4289 35.4043C99.3432 35.369 99.2657 35.3163 99.2011 35.2499C99.1344 35.1851 99.0813 35.1076 99.0449 35.0221C99.0086 34.9365 98.9896 34.8447 98.9893 34.7517V21.8095L95.2523 24.718C95.1813 24.7753 95.0996 24.8175 95.0118 24.8421C94.924 24.8667 94.832 24.8732 94.7416 24.8613C94.5526 24.8293 94.3809 24.7324 94.2559 24.5872L93.0475 23.0363Z" fill="#F4F7FE"/>
<path d="M119.935 23.9578C119.935 24.2879 119.935 24.6555 119.935 25.0542V27.5455C119.935 27.9441 119.935 28.3114 119.935 28.6415C119.891 29.5966 119.736 30.5436 119.474 31.4631C119.241 32.2927 118.831 33.0617 118.272 33.7175C117.684 34.3773 116.948 34.8877 116.123 35.2061C114.021 35.9303 111.736 35.9303 109.633 35.2061C108.815 34.8875 108.084 34.3769 107.503 33.7175C106.943 33.062 106.53 32.2931 106.295 31.4631C106.033 30.5436 105.878 29.5966 105.834 28.6415C105.803 27.9813 105.784 27.2278 105.784 26.3807C105.784 25.5337 105.784 24.7737 105.834 24.1135C105.88 23.1504 106.034 22.1956 106.295 21.2673C106.529 20.4254 106.941 19.6436 107.503 18.9752C108.083 18.3044 108.813 17.7795 109.633 17.443C110.668 17.0386 111.774 16.8458 112.885 16.8762C113.989 16.8463 115.089 17.0304 116.123 17.4181C116.948 17.7365 117.684 18.2469 118.272 18.9068C118.831 19.5626 119.241 20.3319 119.474 21.1615C119.734 22.0729 119.889 23.0111 119.935 23.9578ZM109.347 28.4858C109.364 29.5266 109.679 30.5405 110.256 31.4068C110.767 32.0982 111.639 32.4469 112.86 32.4469C114.08 32.4469 114.952 32.0982 115.469 31.4068C116.041 30.5385 116.355 29.5254 116.373 28.4858C116.373 27.8256 116.422 27.0908 116.422 26.2873C116.422 25.4839 116.422 24.7488 116.373 24.0886C116.353 23.0472 116.04 22.0326 115.469 21.1615C114.952 20.4764 114.08 20.1275 112.86 20.1275C111.639 20.1275 110.767 20.4764 110.256 21.1615C109.68 22.0306 109.365 23.0461 109.347 24.0886C109.347 24.7488 109.297 25.4839 109.297 26.2873C109.297 27.0908 109.341 27.8256 109.372 28.4858H109.347Z" fill="#F4F7FE"/>
<path d="M137.02 23.9578C137.02 24.2879 137.02 24.6555 137.02 25.0542V27.5455C137.02 27.9441 137.02 28.3114 137.02 28.6415C136.979 29.5969 136.824 30.5443 136.559 31.4631C136.326 32.2927 135.916 33.0617 135.357 33.7175C134.769 34.3773 134.033 34.8877 133.208 35.2061C131.106 35.9303 128.821 35.9303 126.718 35.2061C125.9 34.8875 125.169 34.3769 124.588 33.7175C124.028 33.062 123.615 32.2931 123.38 31.4631C123.118 30.5436 122.963 29.5966 122.919 28.6415C122.919 27.9813 122.869 27.2278 122.869 26.3807C122.869 25.5337 122.869 24.7737 122.919 24.1135C122.965 23.1504 123.12 22.1956 123.38 21.2673C123.614 20.4254 124.026 19.6436 124.588 18.9752C125.168 18.3044 125.898 17.7795 126.718 17.443C127.753 17.0386 128.859 16.8458 129.97 16.8762C131.074 16.8463 132.174 17.0304 133.208 17.4181C134.033 17.7365 134.769 18.2469 135.357 18.9068C135.916 19.5626 136.326 20.3319 136.559 21.1615C136.822 22.0722 136.977 23.0107 137.02 23.9578ZM126.432 28.4858C126.449 29.5266 126.764 30.5405 127.341 31.4068C127.852 32.0982 128.724 32.4469 129.945 32.4469C131.165 32.4469 132.037 32.0982 132.554 31.4068C133.129 30.5397 133.442 29.5259 133.457 28.4858C133.495 27.8256 133.507 27.0908 133.507 26.2873C133.507 25.4839 133.507 24.7488 133.457 24.0886C133.441 23.0467 133.128 22.0313 132.554 21.1615C132.037 20.4764 131.165 20.1275 129.945 20.1275C128.724 20.1275 127.852 20.4764 127.341 21.1615C126.765 22.0306 126.45 23.0461 126.432 24.0886C126.401 24.7488 126.382 25.4839 126.382 26.2873C126.382 27.0908 126.426 27.8256 126.457 28.4858H126.432Z" fill="#F4F7FE"/>
<path d="M148.704 17.0386C149.49 17.1701 150.25 17.422 150.959 17.7858C151.557 18.0885 152.105 18.4814 152.585 18.9505C152.992 19.3496 153.329 19.815 153.581 20.327C153.79 20.7511 153.923 21.2085 153.973 21.6785C153.985 21.7734 153.973 21.87 153.938 21.9592C153.903 22.0483 153.847 22.1273 153.774 22.1894C153.635 22.3169 153.452 22.3861 153.263 22.3825H151.432C151.198 22.4002 150.964 22.3412 150.766 22.2143C150.603 22.0861 150.464 21.9299 150.355 21.7533C150.056 21.2825 149.648 20.8913 149.165 20.6134C148.431 20.2451 147.612 20.0776 146.792 20.1278C146.356 20.1268 145.922 20.1749 145.497 20.271C145.118 20.3566 144.755 20.4995 144.419 20.6946C144.133 20.8595 143.888 21.0873 143.703 21.361C143.525 21.6401 143.43 21.9642 143.43 22.2952C143.43 22.6262 143.525 22.9503 143.703 23.2294C143.951 23.5236 144.271 23.7488 144.631 23.8833C145.166 24.0993 145.718 24.2704 146.281 24.3942C146.954 24.5499 147.77 24.7367 148.735 24.9422C149.644 25.1308 150.534 25.3997 151.395 25.7457C152.047 26.0068 152.649 26.3774 153.176 26.8417C153.622 27.2493 153.964 27.7578 154.173 28.3243C154.381 28.9399 154.482 29.5865 154.472 30.2363C154.477 30.8942 154.343 31.5456 154.079 32.1483C153.811 32.7532 153.424 33.2978 152.94 33.7491C152.407 34.2453 151.792 34.6436 151.121 34.926C150.342 35.2595 149.52 35.4817 148.679 35.5863V37.3678C148.68 37.4603 148.661 37.5517 148.626 37.6372C148.591 37.7227 148.539 37.8005 148.474 37.8659C148.409 37.9318 148.331 37.9839 148.246 38.0192C148.16 38.0545 148.068 38.0724 147.976 38.0715H145.852C145.664 38.0715 145.485 37.9974 145.352 37.8656C145.219 37.7338 145.143 37.555 145.142 37.3678V35.5863C144.383 35.4667 143.641 35.2576 142.931 34.9634C142.279 34.697 141.668 34.3384 141.118 33.8984C140.617 33.4963 140.194 33.0041 139.873 32.4472C139.554 31.89 139.374 31.2641 139.349 30.6225C139.337 30.528 139.347 30.4319 139.381 30.3427C139.415 30.2535 139.47 30.1739 139.543 30.1116C139.682 29.9851 139.865 29.9161 140.053 29.9185H141.922C142.144 29.8905 142.369 29.9364 142.563 30.0489C142.756 30.1615 142.907 30.3344 142.993 30.5413C143.125 30.7787 143.275 31.0059 143.441 31.2204C143.633 31.4721 143.872 31.6837 144.145 31.8432C144.495 32.037 144.87 32.1815 145.26 32.2729C145.805 32.4009 146.364 32.4594 146.923 32.4472C147.432 32.4464 147.94 32.4069 148.443 32.3289C148.888 32.2629 149.32 32.1307 149.726 31.9366C150.067 31.7728 150.371 31.5394 150.616 31.2514C150.851 30.9689 150.973 30.6094 150.959 30.2424C150.964 30.0689 150.935 29.8961 150.872 29.7345C150.808 29.5728 150.713 29.4258 150.592 29.302C150.27 29.0156 149.889 28.803 149.477 28.6792C148.865 28.4735 148.241 28.3071 147.608 28.1811C146.873 28.0254 146.026 27.8198 145.067 27.5582C144.282 27.3795 143.515 27.1292 142.775 26.8107C142.172 26.561 141.621 26.2019 141.149 25.7518C140.723 25.3357 140.395 24.8292 140.19 24.2695C139.967 23.6165 139.862 22.9292 139.879 22.2392C139.876 21.5956 140.009 20.9587 140.271 20.3708C140.536 19.7909 140.903 19.2635 141.355 18.8137C141.842 18.3374 142.406 17.9477 143.024 17.6614C143.698 17.3466 144.41 17.1204 145.142 16.9887V15.2075C145.143 15.0202 145.219 14.8411 145.352 14.7093C145.485 14.5775 145.664 14.5034 145.852 14.5034H147.976C148.068 14.5026 148.16 14.5204 148.246 14.5558C148.331 14.5911 148.409 14.6432 148.474 14.709C148.539 14.7745 148.591 14.8522 148.626 14.9377C148.661 15.0232 148.68 15.115 148.679 15.2075L148.704 17.0386Z" fill="#F4F7FE"/>
<path d="M86.0666 29.5075V34.0041C86.0634 34.1799 85.9921 34.3476 85.8679 34.4719C85.7436 34.5961 85.5759 34.6675 85.4001 34.6707H83.5316C83.3559 34.6675 83.1884 34.5961 83.0641 34.4719C82.9398 34.3476 82.8685 34.1799 82.8653 34.0041V29.5075H78.4432C78.2674 29.5043 78.0997 29.4329 77.9754 29.3086C77.8511 29.1843 77.7799 29.0166 77.7767 28.8408V27.2093C77.7752 27.1218 77.7922 27.0349 77.8266 26.9544C77.8609 26.8739 77.9119 26.8016 77.976 26.7421C78.0355 26.678 78.1078 26.6269 78.1883 26.5925C78.2688 26.5582 78.3557 26.5412 78.4432 26.5426H82.8653V22.0709C82.8685 21.8952 82.9398 21.7275 83.0641 21.6032C83.1884 21.4789 83.3559 21.4075 83.5316 21.4043H85.4001C85.5759 21.4075 85.7436 21.4789 85.8679 21.6032C85.9921 21.7275 86.0634 21.8952 86.0666 22.0709V26.5426H90.4638C90.5513 26.5412 90.6382 26.5582 90.7187 26.5925C90.7991 26.6269 90.8714 26.678 90.9309 26.7421C90.9951 26.8016 91.0461 26.8739 91.0804 26.9544C91.1147 27.0349 91.1317 27.1218 91.1303 27.2093V28.8223C91.1271 28.998 91.0558 29.1657 90.9315 29.29C90.8072 29.4143 90.6396 29.4854 90.4638 29.4886L86.0666 29.5075Z" fill="#F4F7FE"/>
<path d="M224.06 121.182C147.209 116.355 101.724 163.565 101.724 163.565C70.9999 193.399 58.4374 223.656 54.7627 249.865C54.7627 249.865 48.198 283.329 59.8699 312.945C66.2227 333.579 80.1181 361.214 110.506 382.042C124.731 392.106 139.642 398.235 152.31 401.928C156.191 403.154 160.143 404.145 164.144 404.893C176.308 407.447 184.448 407.627 184.448 407.627C314.134 420.246 334.7 223.226 334.7 223.226C344.216 125.616 224.06 121.182 224.06 121.182Z" fill="#EAF0FF"/>
<path d="M313.225 15.0454H288.511C286.257 15.0454 284.025 15.4896 281.942 16.3522C279.859 17.2148 277.967 18.4791 276.373 20.0731C274.779 21.667 273.515 23.5591 272.652 25.6417C271.79 27.7243 271.346 29.9565 271.346 32.2106C271.346 36.7637 273.154 41.1305 276.373 44.3506C279.592 47.5707 283.958 49.3803 288.511 49.3819H313.225C317.778 49.3803 322.144 47.5707 325.363 44.3506C328.582 41.1305 330.39 36.7637 330.39 32.2106C330.39 29.9565 329.946 27.7243 329.083 25.6417C328.221 23.5591 326.956 21.667 325.362 20.0731C323.768 18.4791 321.876 17.2148 319.794 16.3522C317.711 15.4896 315.479 15.0454 313.225 15.0454Z" fill="#5E56F1"/>
<path d="M291.787 26.2935C291.788 26.174 291.837 26.06 291.922 25.976C292.007 25.8921 292.122 25.8452 292.241 25.8453H298.557C298.616 25.8444 298.675 25.8553 298.73 25.8775C298.785 25.8997 298.835 25.9325 298.878 25.9742C298.92 26.0159 298.954 26.0657 298.977 26.1205C299 26.1753 299.011 26.2341 299.011 26.2935V27.4893C299.013 27.5484 299.002 27.6071 298.979 27.6617C298.957 27.7164 298.923 27.766 298.881 27.8071C298.839 27.8512 298.789 27.886 298.733 27.9096C298.677 27.9332 298.617 27.9449 298.557 27.944H293.836L293.655 30.0679C293.941 29.9487 294.243 29.875 294.552 29.8499C294.851 29.8499 295.094 29.8499 295.281 29.8499C295.873 29.8435 296.463 29.9274 297.031 30.0989C297.541 30.2528 298.015 30.507 298.426 30.8464C298.823 31.1867 299.138 31.6126 299.348 32.0921C299.581 32.6149 299.696 33.1827 299.684 33.755C299.701 34.3848 299.585 35.0113 299.341 35.5925C299.125 36.0731 298.804 36.4988 298.401 36.8381C297.987 37.1745 297.508 37.4203 296.993 37.5604C296.435 37.7127 295.859 37.7884 295.281 37.7848C294.608 37.7997 293.938 37.7093 293.294 37.5169C292.789 37.3643 292.32 37.1145 291.911 36.7819C291.563 36.4928 291.283 36.1317 291.089 35.7232C290.908 35.3313 290.802 34.9087 290.777 34.4776C290.77 34.416 290.778 34.3537 290.801 34.296C290.824 34.2384 290.861 34.1872 290.908 34.1473C290.951 34.1061 291.002 34.0738 291.058 34.0524C291.113 34.031 291.173 34.0211 291.232 34.0229H292.596C292.705 34.0228 292.811 34.0601 292.895 34.1288C292.988 34.2032 293.054 34.3062 293.082 34.4216C293.138 34.651 293.247 34.8642 293.4 35.0445C293.543 35.2023 293.714 35.3328 293.904 35.4304C294.101 35.5244 294.311 35.5895 294.527 35.6235C294.771 35.6564 295.016 35.6731 295.262 35.6734C295.825 35.7009 296.377 35.514 296.807 35.1503C297.01 34.9737 297.171 34.7541 297.279 34.5074C297.387 34.2607 297.438 33.9931 297.429 33.724C297.426 33.4829 297.368 33.2454 297.26 33.0297C297.153 32.814 296.998 32.6256 296.807 32.4783C296.369 32.1292 295.822 31.946 295.262 31.9613C294.994 31.9546 294.727 31.9798 294.465 32.0361C294.299 32.0777 294.139 32.136 293.985 32.2104C293.861 32.2789 293.755 32.3412 293.649 32.391C293.527 32.445 293.395 32.4707 293.263 32.4659H291.718C291.598 32.4627 291.485 32.4136 291.4 32.329C291.315 32.2444 291.266 32.1308 291.263 32.0112L291.787 26.2935Z" fill="#F4F7FE"/>
<path d="M310.379 30.2296C310.379 30.4414 310.379 30.6783 310.379 30.9336V32.5156C310.379 32.771 310.379 33.0076 310.379 33.2194C310.348 33.8308 310.247 34.4367 310.08 35.0255C309.93 35.5575 309.667 36.0505 309.307 36.4704C308.933 36.8973 308.461 37.2266 307.931 37.4295C307.267 37.6726 306.564 37.789 305.857 37.7723C305.148 37.7907 304.442 37.6743 303.777 37.4295C303.249 37.225 302.779 36.8959 302.406 36.4704C302.047 36.0505 301.784 35.5575 301.634 35.0255C301.467 34.4367 301.366 33.8308 301.335 33.2194C301.335 32.7958 301.335 32.31 301.335 31.7681C301.335 31.2263 301.335 30.7406 301.335 30.3108C301.367 29.6953 301.467 29.0854 301.634 28.4922C301.782 27.9502 302.046 27.4465 302.406 27.016C302.78 26.5867 303.249 26.2515 303.777 26.038C304.438 25.7769 305.146 25.6542 305.857 25.677C306.564 25.6572 307.268 25.7734 307.931 26.0194C308.461 26.2224 308.933 26.5517 309.307 26.9786C309.668 27.3972 309.932 27.8906 310.08 28.4235C310.248 29.0122 310.348 29.6181 310.379 30.2296ZM303.608 33.1321C303.62 33.7973 303.821 34.4454 304.188 35.0006C304.638 35.4286 305.236 35.6675 305.857 35.6675C306.478 35.6675 307.076 35.4286 307.526 35.0006C307.893 34.4449 308.095 33.7975 308.112 33.1321C308.112 32.7086 308.143 32.2416 308.143 31.7246C308.143 31.2077 308.143 30.7406 308.112 30.3108C308.094 29.6456 307.891 28.9985 307.526 28.4423C307.074 28.0185 306.477 27.7824 305.857 27.7824C305.237 27.7824 304.64 28.0185 304.188 28.4423C303.822 28.9979 303.621 29.6457 303.608 30.3108C303.608 30.7406 303.571 31.2077 303.571 31.7246C303.571 32.2416 303.584 32.7086 303.621 33.1321H303.608Z" fill="#F4F7FE"/>
<path d="M317.871 25.7958C318.374 25.8797 318.861 26.0392 319.316 26.269C319.696 26.4673 320.047 26.7191 320.356 27.0165C320.613 27.2733 320.824 27.5724 320.979 27.9009C321.115 28.1719 321.201 28.4652 321.234 28.7667C321.242 28.8277 321.234 28.8895 321.213 28.947C321.191 29.0045 321.156 29.0558 321.11 29.0967C321.018 29.1766 320.901 29.2209 320.78 29.2213H319.602C319.453 29.2323 319.303 29.1927 319.179 29.1091C319.072 29.0313 318.983 28.9317 318.917 28.8166C318.726 28.514 318.463 28.2633 318.151 28.0876C317.681 27.8522 317.156 27.7448 316.631 27.7762C316.35 27.7751 316.071 27.8066 315.797 27.8698C315.556 27.9226 315.325 28.0128 315.112 28.1375C314.926 28.242 314.768 28.3893 314.651 28.5672C314.539 28.7348 314.48 28.9325 314.483 29.1341C314.474 29.3558 314.537 29.5744 314.663 29.7569C314.831 29.9475 315.046 30.0912 315.286 30.1741C315.63 30.3121 315.984 30.4226 316.345 30.5044L317.914 30.8529C318.498 30.9732 319.069 31.1463 319.621 31.3699C320.04 31.534 320.426 31.7726 320.761 32.0739C321.041 32.3352 321.255 32.6599 321.384 33.0207C321.521 33.4212 321.587 33.8429 321.577 34.2663C321.581 34.695 321.494 35.1197 321.321 35.512C321.148 35.899 320.901 36.2481 320.593 36.5396C320.25 36.8553 319.856 37.1102 319.428 37.2932C318.929 37.5046 318.403 37.645 317.865 37.7104V38.8563C317.862 38.9759 317.813 39.0899 317.728 39.1744C317.643 39.259 317.529 39.3078 317.41 39.311H316.077C315.958 39.3094 315.844 39.2608 315.76 39.1757C315.676 39.0906 315.629 38.9759 315.629 38.8563V37.7104C315.141 37.6403 314.663 37.5085 314.209 37.3181C313.792 37.1476 313.402 36.9188 313.05 36.639C312.725 36.3813 312.453 36.0643 312.247 35.7048C312.046 35.3476 311.931 34.9493 311.91 34.5403C311.903 34.4788 311.911 34.4164 311.934 34.3588C311.957 34.3011 311.994 34.2499 312.041 34.2101C312.13 34.1296 312.245 34.0853 312.365 34.0857H313.542C313.694 34.0748 313.846 34.1093 313.978 34.1851C314.088 34.2632 314.176 34.3685 314.234 34.4905C314.317 34.6432 314.413 34.7888 314.52 34.9263C314.643 35.0828 314.795 35.214 314.968 35.3125C315.193 35.4381 315.434 35.5304 315.685 35.5865C316.034 35.6682 316.392 35.706 316.75 35.6987C317.077 35.6993 317.404 35.6742 317.728 35.6239C318.013 35.5811 318.29 35.4949 318.55 35.3684C318.768 35.2635 318.963 35.1153 319.123 34.9326C319.265 34.7563 319.342 34.5363 319.341 34.3098C319.347 34.1953 319.329 34.0807 319.288 33.9735C319.247 33.8662 319.185 33.7688 319.104 33.687C318.898 33.5005 318.654 33.3623 318.388 33.2822C318.001 33.1509 317.605 33.0447 317.204 32.9644C316.737 32.8647 316.189 32.7339 315.579 32.5782C315.074 32.4614 314.58 32.3009 314.103 32.0986C313.719 31.9354 313.367 31.7057 313.063 31.4198C312.784 31.1545 312.571 30.8285 312.44 30.467C312.293 30.049 312.224 29.6078 312.234 29.1651C312.231 28.7486 312.318 28.3364 312.49 27.9568C312.659 27.5845 312.895 27.2465 313.187 26.9602C313.495 26.6518 313.856 26.4008 314.252 26.2191C314.687 26.0195 315.145 25.8751 315.616 25.7894V24.6496C315.615 24.5902 315.626 24.5313 315.649 24.4762C315.671 24.4211 315.704 24.3707 315.745 24.3284C315.787 24.2861 315.837 24.2528 315.892 24.2299C315.946 24.207 316.005 24.1949 316.065 24.1949H317.429C317.488 24.1937 317.546 24.2049 317.601 24.2275C317.656 24.25 317.705 24.2832 317.746 24.3257C317.79 24.3672 317.825 24.4174 317.849 24.4732C317.872 24.5289 317.884 24.589 317.883 24.6496L317.871 25.7958Z" fill="#F4F7FE"/>
<path d="M285.914 33.8051V36.6888C285.914 36.7444 285.903 36.7998 285.882 36.8512C285.861 36.9026 285.829 36.9489 285.789 36.9877C285.75 37.0292 285.703 37.0622 285.65 37.0847C285.598 37.1072 285.541 37.1187 285.484 37.1185H284.313C284.257 37.1182 284.201 37.1066 284.15 37.0841C284.099 37.0616 284.052 37.0288 284.014 36.9877C283.973 36.9499 283.94 36.9037 283.919 36.8521C283.897 36.8005 283.887 36.7446 283.89 36.6888V33.8051H281.049C280.937 33.8051 280.829 33.7605 280.75 33.6811C280.67 33.6016 280.626 33.4938 280.626 33.3815V32.3354C280.625 32.2792 280.635 32.2232 280.656 32.1711C280.677 32.119 280.708 32.0718 280.748 32.0318C280.787 31.9919 280.834 31.9602 280.886 31.9385C280.938 31.9168 280.993 31.9056 281.049 31.9056H283.89V29.0406C283.887 28.9847 283.897 28.9289 283.919 28.8772C283.94 28.8256 283.973 28.7795 284.014 28.7416C284.052 28.7006 284.099 28.6677 284.15 28.6452C284.201 28.6227 284.257 28.6111 284.313 28.6108H285.515C285.572 28.6106 285.629 28.6221 285.681 28.6446C285.734 28.6671 285.781 28.7001 285.82 28.7416C285.86 28.7804 285.892 28.8268 285.913 28.8782C285.935 28.9296 285.945 28.9849 285.945 29.0406V31.9056H288.766C288.822 31.9054 288.877 31.9162 288.928 31.9376C288.98 31.959 289.026 31.9904 289.065 32.03C289.106 32.0695 289.138 32.1171 289.159 32.1696C289.181 32.2221 289.191 32.2786 289.19 32.3354V33.3815C289.191 33.4372 289.18 33.4928 289.159 33.5442C289.137 33.5957 289.105 33.6419 289.065 33.6805C289.026 33.7201 288.98 33.7515 288.928 33.7729C288.877 33.7943 288.822 33.8054 288.766 33.8051H285.914Z" fill="#F4F7FE"/>
<path d="M260.807 234.692C252.059 231.506 243.613 227.546 235.57 222.859L243.667 209.667L239.618 216.263L243.654 209.661C243.847 209.779 262.962 221.351 286.935 226.178C317.559 232.351 341.544 225.032 358.236 204.429L370.263 214.176C349.865 239.357 319.814 248.718 283.447 241.263C275.743 239.654 268.175 237.458 260.807 234.692Z" fill="url(#paint0_linear_1_1765)"/>
<g opacity="0.1">
<path d="M240.023 225.294C237.301 223.83 235.756 222.89 235.588 222.803L243.685 209.604C243.685 209.604 245.011 210.414 247.341 211.66L240.023 225.294Z" fill="#EAEFF4"/>
<path d="M258.658 233.814C255.5 232.568 252.33 231.254 249.228 229.84L255.656 215.758C258.477 217.047 261.374 218.25 264.251 219.377L258.658 233.814ZM268.337 237.227L273.027 222.472C276.01 223.425 279.012 224.272 281.939 224.963L278.259 239.999C274.97 239.22 271.65 238.279 268.337 237.227ZM288.417 242.11L290.908 226.838C293.966 227.343 297.006 227.717 299.945 227.941L298.768 243.368C295.411 243.113 291.917 242.689 288.417 242.11ZM309.344 243.655L308.958 228.177C311.917 228.106 314.87 227.867 317.802 227.461L319.969 242.782C316.447 243.275 312.899 243.566 309.344 243.655ZM330.52 240.597L326.378 225.649C329.169 224.876 331.901 223.909 334.556 222.753L340.753 236.934C337.432 238.389 334.012 239.608 330.52 240.584V240.597ZM350.388 231.877L342.192 218.785C344.644 217.254 346.984 215.55 349.192 213.684L359.158 225.518C356.39 227.84 353.46 229.961 350.388 231.864V231.877Z" fill="#E2E5E8"/>
<path d="M366.968 217.969L355.521 207.574C356.449 206.559 357.389 205.481 358.261 204.385L370.282 214.132C369.204 215.434 368.089 216.736 366.968 217.969Z" fill="#EAEFF4"/>
</g>
<path d="M387.658 212.152L397.113 199.39L385.759 190.97L378.341 185.476L366.981 177.056L357.526 189.818C357.526 189.818 353.552 193.984 358.716 197.815L365.48 202.828L372.897 208.322L379.661 213.342C384.825 217.166 387.658 212.152 387.658 212.152Z" fill="#D3DDE5"/>
<path d="M373.962 167.635L367.161 176.812L372.135 180.498L378.936 171.321L373.962 167.635Z" fill="#D3DDE5"/>
<path d="M381.536 168.068L386.519 161.379C387.014 160.718 387.227 159.888 387.11 159.07C386.993 158.253 386.557 157.515 385.896 157.019C385.569 156.774 385.196 156.595 384.8 156.494C384.404 156.392 383.992 156.37 383.587 156.428C383.182 156.486 382.792 156.623 382.441 156.831C382.089 157.039 381.781 157.315 381.536 157.642L376.553 164.331L381.536 168.068Z" fill="#D3DDE5"/>
<path d="M385.614 169.584L375.617 183.075L380.591 186.761L390.588 173.27L385.614 169.584Z" fill="#D3DDE5"/>
<path d="M390.704 180.553L384.148 189.4L389.122 193.086L395.678 184.239L390.704 180.553Z" fill="#D3DDE5"/>
<path d="M395.898 190.543L392.279 195.427L397.253 199.113L400.872 194.229L395.898 190.543Z" fill="#D3DDE5"/>
<path d="M358.157 196.958L379.926 213.284C378.928 214.615 377.443 215.495 375.796 215.73C374.149 215.965 372.477 215.537 371.146 214.539L359.412 205.738C358.081 204.74 357.201 203.254 356.966 201.608C356.731 199.961 357.159 198.288 358.157 196.958Z" fill="#A6B4D1"/>
<path d="M135.457 235.091C144.507 232.897 153.343 229.897 161.858 226.128L155.287 212.115L158.576 219.122L155.294 212.108C155.094 212.202 134.784 221.569 110.45 223.693C79.3085 226.409 56.3074 216.456 42.0196 194.127L28.9527 202.467C46.3919 229.766 75.2039 242.422 112.2 239.077C120.042 238.342 127.817 237.01 135.457 235.091Z" fill="url(#paint1_linear_1_1765)"/>
<g opacity="0.1">
<path d="M157.13 228.065C160.002 226.919 161.646 226.153 161.82 226.072L155.256 212.059C155.256 212.059 153.848 212.712 151.394 213.69L157.13 228.065Z" fill="#EAEFF4"/>
<path d="M133.718 219.489C136.701 218.698 139.716 217.814 142.662 216.849L147.476 231.56C144.244 232.618 140.943 233.59 137.661 234.456L133.718 219.489ZM117.493 238.436L115.525 223.083C118.515 222.703 121.592 222.192 124.662 221.582L127.677 236.767C124.245 237.47 120.832 238.006 117.493 238.436ZM96.7096 239.476L97.2639 224.005C100.204 224.111 103.268 224.079 106.363 223.924L107.167 239.376C103.623 239.563 100.104 239.594 96.7096 239.476ZM75.7328 236.53L79.6005 221.538C82.4713 222.276 85.3828 222.846 88.3201 223.245L86.2086 238.579C82.6802 238.097 79.1825 237.413 75.7328 236.53ZM55.7274 228.433L63.4754 215.036C65.982 216.483 68.5878 217.75 71.2732 218.829L65.4933 233.185C62.1307 231.832 58.8692 230.239 55.7336 228.421L55.7274 228.433ZM38.7117 214.98L49.9226 204.33C51.9122 206.427 54.0476 208.382 56.3128 210.178L46.7026 222.317C43.8701 220.057 41.1998 217.602 38.7117 214.968V214.98Z" fill="#E2E5E8"/>
<path d="M31.7986 206.622L44.3361 197.541C43.5327 196.432 42.7354 195.261 41.9756 194.071L28.9523 202.411C29.8554 203.837 30.8208 205.27 31.7986 206.622Z" fill="#EAEFF4"/>
</g>
<path d="M11.8876 198.531L3.91534 184.828L16.1414 177.728L24.1261 173.094L36.3522 165.994L44.3244 179.727C44.3244 179.727 47.8062 184.318 42.2505 187.544L34.9695 191.773L26.985 196.407L19.704 200.636C14.1483 203.837 11.8876 198.531 11.8876 198.531Z" fill="#D3DDE5"/>
<path d="M30.5741 155.823L25.2202 158.931L30.9558 168.81L36.3097 165.701L30.5741 155.823Z" fill="#D3DDE5"/>
<path d="M22.8926 155.406L18.7134 148.206C18.3048 147.495 18.1933 146.651 18.4032 145.858C18.6132 145.065 19.1276 144.387 19.8346 143.971C20.5466 143.563 21.3909 143.452 22.184 143.663C22.9771 143.874 23.6547 144.39 24.0697 145.098L28.249 152.298L22.8926 155.406Z" fill="#D3DDE5"/>
<path d="M18.7762 156.458L13.4223 159.567L21.8537 174.088L27.2076 170.98L18.7762 156.458Z" fill="#D3DDE5"/>
<path d="M12.7944 166.672L7.47028 169.767L12.976 179.237L18.3002 176.141L12.7944 166.672Z" fill="#D3DDE5"/>
<path d="M6.22596 176.141L0.87207 179.25L3.92426 184.507L9.27814 181.398L6.22596 176.141Z" fill="#D3DDE5"/>
<path d="M40.4549 196.157L27.7703 203.521C26.3318 204.357 24.6203 204.586 23.0125 204.159C21.4048 203.733 20.0323 202.685 19.197 201.247L42.7296 187.583C43.5648 189.022 43.7944 190.733 43.3678 192.341C42.9412 193.949 41.8934 195.321 40.4549 196.157Z" fill="#A6B4D1"/>
<path d="M224.683 370.918C219.962 370.918 215.434 369.042 212.096 365.704C208.758 362.366 206.882 357.838 206.882 353.117C206.882 348.396 208.758 343.869 212.096 340.53C215.434 337.192 219.962 335.317 224.683 335.317C234.436 335.317 242.384 335.466 242.483 345.195V353.117C242.479 357.837 240.602 362.362 237.264 365.699C233.927 369.036 229.402 370.913 224.683 370.918ZM224.683 339.963C221.195 339.966 217.851 341.354 215.385 343.82C212.919 346.286 211.532 349.63 211.529 353.117C211.529 360.373 216.655 365.499 223.911 365.499C227.398 365.496 230.742 364.109 233.208 361.643C235.675 359.177 237.061 355.833 237.065 352.345V344.385C236.978 337.248 231.864 339.963 224.683 339.963Z" fill="url(#paint2_linear_1_1765)"/>
<path d="M180.176 370.918C175.457 370.913 170.932 369.036 167.595 365.699C164.258 362.362 162.381 357.837 162.376 353.117V345.276C162.432 335.51 170.398 335.311 180.176 335.311C184.897 335.311 189.425 337.186 192.763 340.524C196.101 343.863 197.976 348.39 197.976 353.111C197.976 357.832 196.101 362.36 192.763 365.698C189.425 369.036 184.897 370.912 180.176 370.912V370.918ZM180.176 339.963C172.964 339.963 167.856 337.291 167.794 344.479V352.345C167.797 355.833 169.185 359.177 171.651 361.643C174.117 364.109 177.461 365.496 180.948 365.499C188.204 365.499 193.336 360.373 193.336 353.117C193.331 349.629 191.943 346.285 189.476 343.819C187.009 341.353 183.664 339.967 180.176 339.963Z" fill="url(#paint3_linear_1_1765)"/>
<path d="M228.165 378.348C228.165 390.02 217.782 399.568 205.12 399.568H199.801C187.114 399.568 176.725 390.02 176.725 378.348V353.117H228.196L228.165 378.348Z" fill="url(#paint4_linear_1_1765)"/>
<path d="M180.562 378.348V353.117H176.694V378.348C176.694 390.02 187.083 399.568 199.77 399.568H203.644C190.951 399.568 180.562 390.02 180.562 378.348Z" fill="#373D4F"/>
<g style="mix-blend-mode:multiply">
<path d="M224.297 353.117V378.348C224.297 390.02 213.908 399.568 201.252 399.568H205.12C217.813 399.568 228.165 390.02 228.165 378.348V353.117H224.297Z" fill="#D3DDE5"/>
</g>
<g style="mix-blend-mode:multiply">
<path d="M224.297 352.357H176.694V357.776H224.297V352.357Z" fill="#D3DDE5"/>
</g>
<path d="M220.585 177.616H184.28V201.975H220.585V177.616Z" fill="#A6B4D1"/>
<path d="M270.473 142.277C270.439 153.777 265.854 164.797 257.722 172.928C249.589 181.06 238.569 185.642 227.068 185.675H177.809C166.308 185.644 155.288 181.062 147.156 172.93C139.024 164.798 134.441 153.777 134.41 142.277V129.864C134.443 118.364 139.026 107.344 147.158 99.2125C155.289 91.0807 166.309 86.4977 177.809 86.4648H227.075C238.575 86.4977 249.595 91.0806 257.728 99.2122C265.861 107.344 270.445 118.363 270.48 129.864L270.473 142.277Z" fill="url(#paint5_linear_1_1765)"/>
<path d="M177.809 86.4648H185.55C174.049 86.4977 163.029 91.0802 154.895 99.2116C146.761 107.343 142.175 118.363 142.139 129.864V142.277C142.174 153.778 146.759 164.799 154.893 172.93C163.027 181.062 174.049 185.644 185.55 185.675H177.809C166.307 185.644 155.285 181.062 147.151 172.93C139.017 164.799 134.432 153.778 134.398 142.277V129.864C134.434 118.363 139.019 107.343 147.153 99.2116C155.287 91.0802 166.308 86.4977 177.809 86.4648Z" fill="#A6B4D1"/>
<path d="M227.068 197.285H177.809C166.309 197.318 155.289 201.901 147.158 210.033C139.026 218.165 134.443 229.184 134.41 240.684V310.509C134.436 322.014 139.016 333.041 147.148 341.179C155.281 349.317 166.304 353.905 177.809 353.939H227.075C238.574 353.906 249.593 349.323 257.724 341.191C265.854 333.059 270.436 322.04 270.467 310.54V240.684C270.433 229.185 265.849 218.166 257.718 210.035C249.586 201.903 238.568 197.32 227.068 197.285Z" fill="url(#paint6_linear_1_1765)"/>
<g style="mix-blend-mode:multiply">
<path d="M177.809 292.765C170.406 292.758 163.308 289.816 158.072 284.582C152.837 279.349 149.891 272.252 149.881 264.85V240.684C149.887 233.282 152.831 226.186 158.064 220.952C163.298 215.718 170.395 212.775 177.796 212.769H227.062C234.465 212.773 241.564 215.716 246.8 220.95C252.036 226.183 254.981 233.281 254.99 240.684V264.875C254.981 272.276 252.038 279.371 246.804 284.604C241.571 289.838 234.475 292.781 227.074 292.79L177.809 292.765Z" fill="#D3DDE5"/>
</g>
<path d="M177.809 288.897C171.432 288.892 165.317 286.357 160.806 281.849C156.295 277.341 153.758 271.227 153.749 264.85V240.684C153.756 234.308 156.291 228.195 160.8 223.687C165.308 219.179 171.421 216.643 177.797 216.636H227.062C233.44 216.641 239.555 219.176 244.065 223.684C248.576 228.193 251.114 234.306 251.122 240.684V264.874C251.116 271.25 248.58 277.363 244.072 281.871C239.563 286.38 233.451 288.915 227.075 288.922L177.809 288.897Z" fill="url(#paint7_linear_1_1765)"/>
<path d="M177.809 197.285H185.55C174.049 197.318 163.029 201.9 154.895 210.032C146.761 218.163 142.175 229.183 142.139 240.684V310.509C142.139 331.393 156.975 349.829 176.706 353.896C165.399 353.579 154.66 348.872 146.762 340.774C138.865 332.675 134.43 321.821 134.398 310.509V240.684C134.434 229.183 139.019 218.163 147.153 210.032C155.287 201.9 166.308 197.318 177.809 197.285Z" fill="#A6B4D1"/>
<path d="M177.809 162.731C170.748 162.722 163.979 159.914 158.986 154.921C153.994 149.929 151.185 143.159 151.177 136.099C151.185 129.038 153.994 122.268 158.986 117.276C163.979 112.283 170.748 109.475 177.809 109.466H227.075C234.135 109.475 240.903 112.283 245.895 117.276C250.887 122.269 253.694 129.038 253.701 136.099C253.694 143.159 250.887 149.928 245.895 154.921C240.903 159.914 234.135 162.722 227.075 162.731H177.809Z" fill="url(#paint8_linear_1_1765)"/>
<path d="M263.517 116.299C272.236 117.495 278.608 121.848 278.608 134.896C278.608 147.247 272.828 151.831 264.725 153.295L263.517 116.299Z" fill="#E7EDFC"/>
<path d="M137.256 152.622C130.698 150.629 126.257 145.771 126.257 134.896C126.257 122.614 131.975 118.012 140.016 116.523L137.256 152.622Z" fill="#A6B4D1"/>
<path d="M219.177 136.073C219.176 134.662 219.594 133.283 220.377 132.109C221.16 130.935 222.274 130.02 223.577 129.48C224.88 128.939 226.315 128.797 227.699 129.072C229.083 129.347 230.354 130.027 231.352 131.024C232.349 132.022 233.029 133.293 233.304 134.677C233.579 136.061 233.437 137.495 232.896 138.799C232.356 140.102 231.441 141.216 230.267 141.999C229.093 142.782 227.714 143.2 226.303 143.198C224.413 143.198 222.601 142.448 221.264 141.111C219.928 139.775 219.177 137.963 219.177 136.073Z" fill="#F4F7FE"/>
<path d="M171.431 136.074C171.431 134.665 171.849 133.287 172.632 132.115C173.415 130.944 174.528 130.03 175.83 129.491C177.132 128.952 178.564 128.811 179.946 129.086C181.329 129.361 182.598 130.039 183.595 131.036C184.591 132.032 185.27 133.302 185.545 134.684C185.819 136.066 185.678 137.499 185.139 138.801C184.6 140.103 183.687 141.215 182.515 141.998C181.343 142.781 179.966 143.199 178.556 143.199C176.667 143.199 174.854 142.448 173.518 141.112C172.182 139.776 171.431 137.964 171.431 136.074Z" fill="#F4F7FE"/>
<path d="M221.942 92.656C221.942 86.0229 211.933 80.6416 202.442 80.6416C192.95 80.6416 182.934 86.0229 182.934 92.656C182.934 99.2891 192.95 104.664 202.442 104.664C211.933 104.664 221.942 99.2829 221.942 92.656Z" fill="#D8DFEF"/>
<g style="mix-blend-mode:multiply">
<path d="M270.473 308.192H134.404V310.516H270.473V308.192Z" fill="#D3DDE5"/>
</g>
<g style="mix-blend-mode:multiply">
<path d="M227.069 216.636H177.809C171.433 216.643 165.321 219.179 160.812 223.687C156.304 228.195 153.768 234.308 153.762 240.684V244.552C153.768 238.176 156.304 232.063 160.812 227.555C165.321 223.046 171.433 220.511 177.809 220.504H227.075C233.452 220.509 239.567 223.044 244.078 227.552C248.589 232.061 251.127 238.174 251.135 244.552V240.684C251.127 234.305 248.588 228.191 244.076 223.682C239.564 219.174 233.447 216.64 227.069 216.636Z" fill="#D3DDE5"/>
</g>
<path d="M189.144 382.353C188.79 382.406 188.428 382.383 188.083 382.284C187.738 382.184 187.419 382.012 187.147 381.778C186.875 381.544 186.657 381.254 186.508 380.928C186.358 380.603 186.281 380.248 186.281 379.889C186.281 379.531 186.358 379.176 186.508 378.85C186.657 378.524 186.875 378.234 187.147 378C187.419 377.767 187.738 377.594 188.083 377.495C188.428 377.396 188.79 377.372 189.144 377.426H215.714C216.069 377.372 216.431 377.396 216.776 377.495C217.121 377.594 217.44 377.767 217.712 378C217.984 378.234 218.202 378.524 218.351 378.85C218.501 379.176 218.578 379.531 218.578 379.889C218.578 380.248 218.501 380.603 218.351 380.928C218.202 381.254 217.984 381.544 217.712 381.778C217.44 382.012 217.121 382.184 216.776 382.284C216.431 382.383 216.069 382.406 215.714 382.353H189.144Z" fill="#1B1D26"/>
<path d="M189.144 368.588C188.79 368.642 188.428 368.618 188.083 368.519C187.738 368.42 187.419 368.247 187.147 368.014C186.875 367.78 186.657 367.49 186.508 367.164C186.358 366.838 186.281 366.483 186.281 366.125C186.281 365.766 186.358 365.411 186.508 365.086C186.657 364.76 186.875 364.47 187.147 364.236C187.419 364.002 187.738 363.83 188.083 363.73C188.428 363.631 188.79 363.608 189.144 363.661H215.714C216.069 363.608 216.431 363.631 216.776 363.73C217.121 363.83 217.44 364.002 217.712 364.236C217.984 364.47 218.202 364.76 218.351 365.086C218.501 365.411 218.578 365.766 218.578 366.125C218.578 366.483 218.501 366.838 218.351 367.164C218.202 367.49 217.984 367.78 217.712 368.014C217.44 368.247 217.121 368.42 216.776 368.519C216.431 368.618 216.069 368.642 215.714 368.588H189.144Z" fill="#1B1D26"/>
<path opacity="0.03" d="M227.062 162.731C234.123 162.722 240.892 159.914 245.885 154.921C250.878 149.929 253.686 143.159 253.695 136.099C253.686 129.038 250.878 122.268 245.885 117.276C240.892 112.283 234.123 109.475 227.062 109.466H177.809L227.062 162.731Z" fill="#EAEFF4"/>
<g style="mix-blend-mode:multiply">
<g style="mix-blend-mode:multiply">
<path d="M202.441 337.416C201.232 337.414 200.05 337.054 199.045 336.382C198.04 335.709 197.257 334.753 196.795 333.635C196.333 332.518 196.213 331.288 196.449 330.102C196.686 328.916 197.269 327.827 198.125 326.972C198.98 326.117 200.07 325.536 201.256 325.3C202.443 325.065 203.672 325.186 204.789 325.649C205.906 326.112 206.861 326.896 207.533 327.902C208.205 328.908 208.563 330.09 208.563 331.299C208.562 332.922 207.916 334.477 206.768 335.624C205.62 336.771 204.064 337.416 202.441 337.416Z" fill="#D3DDE5"/>
</g>
<g style="mix-blend-mode:multiply">
<path d="M222.889 337.416C221.679 337.414 220.498 337.054 219.493 336.382C218.488 335.709 217.705 334.753 217.243 333.635C216.781 332.518 216.661 331.288 216.897 330.102C217.134 328.916 217.717 327.827 218.572 326.972C219.428 326.117 220.518 325.536 221.704 325.3C222.89 325.065 224.12 325.186 225.237 325.649C226.354 326.112 227.309 326.896 227.981 327.902C228.653 328.908 229.011 330.09 229.011 331.299C229.01 332.922 228.364 334.477 227.216 335.624C226.068 336.771 224.511 337.416 222.889 337.416Z" fill="#D3DDE5"/>
</g>
<g style="mix-blend-mode:multiply">
<path d="M181.975 337.416C180.765 337.416 179.583 337.057 178.577 336.385C177.571 335.713 176.787 334.757 176.324 333.64C175.862 332.522 175.74 331.293 175.976 330.106C176.212 328.92 176.795 327.83 177.65 326.974C178.506 326.119 179.595 325.537 180.782 325.301C181.968 325.065 183.198 325.186 184.316 325.649C185.433 326.112 186.388 326.896 187.061 327.901C187.733 328.907 188.091 330.09 188.091 331.299C188.091 332.921 187.447 334.477 186.3 335.624C185.153 336.771 183.597 337.416 181.975 337.416Z" fill="#D3DDE5"/>
</g>
</g>
<path d="M211.641 230.414L201.284 246.925L190.92 230.414H175.094L185.457 246.925V246.987L194.507 261.406V279.798H194.563H201.284H207.998H208.054V261.406L217.103 246.987V246.925L227.467 230.414H211.641Z" fill="#5F5CED"/>
<path opacity="0.06" d="M236.224 287.085L167.918 218.785C171.027 217.375 174.402 216.646 177.815 216.649H227.081C233.457 216.656 239.569 219.191 244.078 223.7C248.586 228.208 251.122 234.321 251.128 240.697V264.875C251.117 269.635 249.695 274.286 247.043 278.239C244.39 282.192 240.625 285.27 236.224 287.085Z" fill="white"/>
<path d="M71.7099 120.279C75.7207 120.279 78.9721 117.027 78.9721 113.017C78.9721 109.006 75.7207 105.754 71.7099 105.754C67.6991 105.754 64.4477 109.006 64.4477 113.017C64.4477 117.027 67.6991 120.279 71.7099 120.279Z" fill="#04CD99"/>
<path d="M117.756 75.6157C121.767 75.6157 125.018 72.3643 125.018 68.3535C125.018 64.3427 121.767 61.0913 117.756 61.0913C113.745 61.0913 110.494 64.3427 110.494 68.3535C110.494 72.3643 113.745 75.6157 117.756 75.6157Z" fill="#04CD99"/>
<path d="M165.215 98.1181C169.226 98.1181 172.478 94.8667 172.478 90.8559C172.478 86.8451 169.226 83.5938 165.215 83.5938C161.205 83.5938 157.953 86.8451 157.953 90.8559C157.953 94.8667 161.205 98.1181 165.215 98.1181Z" fill="#04CD99"/>
<path d="M304.418 96.0068C308.429 96.0068 311.681 92.7554 311.681 88.7446C311.681 84.7338 308.429 81.4824 304.418 81.4824C300.408 81.4824 297.156 84.7338 297.156 88.7446C297.156 92.7554 300.408 96.0068 304.418 96.0068Z" fill="#04CD99"/>
<path d="M353.808 50.4716C357.819 50.4716 361.07 47.2203 361.07 43.2095C361.07 39.1987 357.819 35.9473 353.808 35.9473C349.797 35.9473 346.546 39.1987 346.546 43.2095C346.546 47.2203 349.797 50.4716 353.808 50.4716Z" fill="#04CD99"/>
<path d="M256.89 54.0405C260.9 54.0405 264.152 50.7891 264.152 46.7783C264.152 42.7675 260.9 39.5161 256.89 39.5161C252.879 39.5161 249.627 42.7675 249.627 46.7783C249.627 50.7891 252.879 54.0405 256.89 54.0405Z" fill="#04CD99"/>
<path d="M211.167 35.0381C215.178 35.0381 218.429 31.7867 218.429 27.7759C218.429 23.7651 215.178 20.5137 211.167 20.5137C207.156 20.5137 203.905 23.7651 203.905 27.7759C203.905 31.7867 207.156 35.0381 211.167 35.0381Z" fill="#04CD99"/>
<path d="M211.937 31.5113L208.345 28.7856L163.669 87.6659L167.261 90.3915L211.937 31.5113Z" fill="#04CD99"/>
<path d="M119.524 71.1267L116.424 67.8525L68.4824 113.252L71.5829 116.526L119.524 71.1267Z" fill="#04CD99"/>
<path d="M351.795 48.6619L348.729 45.3701L302.916 88.0445L305.983 91.3363L351.795 48.6619Z" fill="#04CD99"/>
<path d="M165.983 95.9084L168.068 91.9097L116.775 65.1742L114.691 69.1729L165.983 95.9084Z" fill="#04CD99"/>
<path d="M255.459 49.218L257.359 45.1289L211.012 23.5857L209.111 27.6749L255.459 49.218Z" fill="#04CD99"/>
<path d="M306.79 93.5818L309.727 90.1606L254.43 42.6817L251.493 46.1029L306.79 93.5818Z" fill="#04CD99"/>
<path d="M104.315 122.296C108.326 122.296 111.577 119.045 111.577 115.034C111.577 111.023 108.326 107.772 104.315 107.772C100.304 107.772 97.0526 111.023 97.0526 115.034C97.0526 119.045 100.304 122.296 104.315 122.296Z" fill="#5F5CED"/>
<path d="M203.906 127.541C207.916 127.541 211.168 124.29 211.168 120.279C211.168 116.268 207.916 113.017 203.906 113.017C199.895 113.017 196.643 116.268 196.643 120.279C196.643 124.29 199.895 127.541 203.906 127.541Z" fill="#5F5CED"/>
<path d="M59.5965 82.8779C63.6073 82.8779 66.8587 79.6265 66.8587 75.6157C66.8587 71.6049 63.6073 68.3535 59.5965 68.3535C55.5857 68.3535 52.3343 71.6049 52.3343 75.6157C52.3343 79.6265 55.5857 82.8779 59.5965 82.8779Z" fill="#5F5CED"/>
<path d="M151.52 102.161C155.53 102.161 158.782 98.9092 158.782 94.8984C158.782 90.8876 155.53 87.6362 151.52 87.6362C147.509 87.6362 144.257 90.8876 144.257 94.8984C144.257 98.9092 147.509 102.161 151.52 102.161Z" fill="#5F5CED"/>
<path d="M240.696 61.3027C244.706 61.3027 247.958 58.0513 247.958 54.0405C247.958 50.0297 244.706 46.7783 240.696 46.7783C236.685 46.7783 233.433 50.0297 233.433 54.0405C233.433 58.0513 236.685 61.3027 240.696 61.3027Z" fill="#5F5CED"/>
<path d="M285.733 145.273C289.744 145.273 292.995 142.022 292.995 138.011C292.995 134 289.744 130.749 285.733 130.749C281.722 130.749 278.471 134 278.471 138.011C278.471 142.022 281.722 145.273 285.733 145.273Z" fill="#5F5CED"/>
<path d="M331.367 103.269C335.378 103.269 338.629 100.018 338.629 96.0068C338.629 91.996 335.378 88.7446 331.367 88.7446C327.356 88.7446 324.105 91.996 324.105 96.0068C324.105 100.018 327.356 103.269 331.367 103.269Z" fill="#5F5CED"/>
<path d="M379.001 145.534C383.012 145.534 386.264 142.283 386.264 138.272C386.264 134.261 383.012 131.01 379.001 131.01C374.991 131.01 371.739 134.261 371.739 138.272C371.739 142.283 374.991 145.534 379.001 145.534Z" fill="#5F5CED"/>
<path d="M106.188 117.382L108.978 113.84L59.6809 75.0049L56.8905 78.5471L106.188 117.382Z" fill="#5F5CED"/>
<path d="M153.911 95.0714L152.046 90.9658L102.383 113.526L104.248 117.631L153.911 95.0714Z" fill="#5F5CED"/>
<path d="M243.292 54.2466L239.345 52.0659L202.915 118.003L206.862 120.184L243.292 54.2466Z" fill="#5F5CED"/>
<path d="M332.372 98.2111L329.292 94.9175L283.454 137.781L286.534 141.075L332.372 98.2111Z" fill="#5F5CED"/>
<path d="M283.582 141.458L287.615 139.442L244.736 53.6651L240.703 55.6813L283.582 141.458Z" fill="#5F5CED"/>
<path d="M376.867 141.307L379.955 138.021L332.324 93.2462L329.236 96.5317L376.867 141.307Z" fill="#5F5CED"/>
<path d="M205.271 122.751L207.038 118.603L151.385 94.8879L149.618 99.0362L205.271 122.751Z" fill="#5F5CED"/>
<path opacity="0.6" d="M220.006 137.456L161.977 104.209H228.258L233.577 134.124L220.006 137.456Z" fill="url(#paint9_linear_1_1765)"/>
<path opacity="0.6" d="M172.446 137.456L114.417 104.209H180.699L186.018 134.124L172.446 137.456Z" fill="url(#paint10_linear_1_1765)"/>
<path d="M353.807 43.2097V118.049V140.932H71.2733L71.566 116.529L74.0013 109.448L117.755 69.2751L164.293 92.0707L211.167 28.9033L254.996 46.7785L263.516 53.667L305.843 87.6424L353.807 43.2097Z" fill="url(#paint11_linear_1_1765)"/>
<defs>
<linearGradient id="paint0_linear_1_1765" x1="302.916" y1="204.429" x2="302.916" y2="243.753" gradientUnits="userSpaceOnUse">
<stop stop-color="#2E3242"/>
<stop offset="0.21875" stop-color="#606475"/>
<stop offset="1" stop-color="#2E3242"/>
</linearGradient>
<linearGradient id="paint1_linear_1_1765" x1="95.4054" y1="194.127" x2="95.4054" y2="239.603" gradientUnits="userSpaceOnUse">
<stop stop-color="#2E3242"/>
<stop offset="0.21875" stop-color="#606475"/>
<stop offset="1" stop-color="#2E3242"/>
</linearGradient>
<linearGradient id="paint2_linear_1_1765" x1="224.683" y1="335.317" x2="224.683" y2="370.918" gradientUnits="userSpaceOnUse">
<stop stop-color="#2E3242"/>
<stop offset="0.21875" stop-color="#606475"/>
<stop offset="1" stop-color="#2E3242"/>
</linearGradient>
<linearGradient id="paint3_linear_1_1765" x1="180.176" y1="335.311" x2="180.176" y2="370.918" gradientUnits="userSpaceOnUse">
<stop stop-color="#2E3242"/>
<stop offset="0.21875" stop-color="#606475"/>
<stop offset="1" stop-color="#2E3242"/>
</linearGradient>
<linearGradient id="paint4_linear_1_1765" x1="202.46" y1="353.117" x2="202.46" y2="399.568" gradientUnits="userSpaceOnUse">
<stop stop-color="#2E3242"/>
<stop offset="0.21875" stop-color="#606475"/>
<stop offset="1" stop-color="#2E3242"/>
</linearGradient>
<linearGradient id="paint5_linear_1_1765" x1="202.445" y1="86.4648" x2="202.445" y2="185.675" gradientUnits="userSpaceOnUse">
<stop stop-color="#D8DFEF"/>
<stop offset="0.682292" stop-color="#EBF1FF"/>
<stop offset="1" stop-color="#D8DFEF"/>
</linearGradient>
<linearGradient id="paint6_linear_1_1765" x1="202.439" y1="197.285" x2="202.439" y2="353.939" gradientUnits="userSpaceOnUse">
<stop stop-color="#D8DFEF"/>
<stop offset="0.682292" stop-color="#EBF1FF"/>
<stop offset="1" stop-color="#D8DFEF"/>
</linearGradient>
<linearGradient id="paint7_linear_1_1765" x1="202.436" y1="216.636" x2="202.436" y2="288.922" gradientUnits="userSpaceOnUse">
<stop stop-color="#2E3242"/>
<stop offset="0.21875" stop-color="#606475"/>
<stop offset="1" stop-color="#2E3242"/>
</linearGradient>
<linearGradient id="paint8_linear_1_1765" x1="202.439" y1="109.466" x2="202.439" y2="162.731" gradientUnits="userSpaceOnUse">
<stop stop-color="#2E3242"/>
<stop offset="0.21875" stop-color="#606475"/>
<stop offset="1" stop-color="#2E3242"/>
</linearGradient>
<linearGradient id="paint9_linear_1_1765" x1="197.777" y1="137.456" x2="197.777" y2="104.209" gradientUnits="userSpaceOnUse">
<stop stop-color="#F4F7FE"/>
<stop offset="1" stop-color="#F4F7FE" stop-opacity="0"/>
</linearGradient>
<linearGradient id="paint10_linear_1_1765" x1="150.217" y1="137.456" x2="150.217" y2="104.209" gradientUnits="userSpaceOnUse">
<stop stop-color="#F4F7FE"/>
<stop offset="1" stop-color="#F4F7FE" stop-opacity="0"/>
</linearGradient>
<linearGradient id="paint11_linear_1_1765" x1="212.537" y1="140.932" x2="212.537" y2="28.9033" gradientUnits="userSpaceOnUse">
<stop offset="0.36" stop-color="#04CD99" stop-opacity="0"/>
<stop offset="0.49" stop-color="#04CD99" stop-opacity="0.18"/>
<stop offset="0.62" stop-color="#04CD99" stop-opacity="0.32"/>
<stop offset="0.75" stop-color="#04CD99" stop-opacity="0.42"/>
<stop offset="0.88" stop-color="#04CD99" stop-opacity="0.48"/>
<stop offset="1" stop-color="#04CD99" stop-opacity="0.5"/>
</linearGradient>
</defs>
</svg>
