<svg width="674" height="24" viewBox="0 0 674 24" fill="none" xmlns="http://www.w3.org/2000/svg">
<path fill-rule="evenodd" clip-rule="evenodd" d="M17.939 4.6574C17.8391 4.68475 17.7374 4.71262 17.6334 4.74153C16.3436 3.60555 14.6211 3.65037 13.1389 4.20539C11.3973 4.85753 10.2269 6.46891 10.2502 8.33824V8.48739C7.82955 8.33878 5.70243 7.13813 4.27673 5.14675C4.12749 4.93829 3.88211 4.82051 3.62611 4.83445C3.37011 4.8484 3.13856 4.99289 3.01284 5.21633L3.01234 5.21723L3.01106 5.21951L3.00749 5.22595L2.9964 5.24628C2.98731 5.26309 2.9749 5.2864 2.95964 5.31588C2.92913 5.37482 2.88715 5.45858 2.83754 5.56461C2.73843 5.7764 2.60806 6.07862 2.47746 6.45061C2.21773 7.19041 1.9492 8.22843 1.93772 9.39145C1.92617 10.5602 2.17477 11.8678 2.96279 13.1128C3.57379 14.0782 4.48794 14.9725 5.79197 15.7292C4.53622 16.4159 3.28703 16.806 1.86274 16.7506C1.51468 16.737 1.2031 16.9649 1.11054 17.3007C1.01798 17.6365 1.1688 17.9918 1.47464 18.1585C4.63342 19.8802 8.14348 20.5099 11.2406 19.6108C14.7573 18.5892 17.6581 15.9437 18.7669 11.9966L18.7679 11.993C19.0842 10.8448 19.2465 9.65985 19.2505 8.46926C19.2806 8.40132 19.3271 8.30515 19.3904 8.17932C19.4628 8.03522 19.5451 7.87612 19.6364 7.69935C19.7159 7.54544 19.8024 7.37814 19.8954 7.19569C20.2626 6.47496 20.7187 5.54487 20.8892 4.87794C20.9073 4.81308 20.9169 4.74428 20.9169 4.67493C20.9169 4.29591 20.6341 3.97646 20.2579 3.93047C20.0969 3.91079 19.9405 3.94382 19.807 4.01688C19.1921 4.31421 18.6071 4.47444 17.939 4.6574ZM3.01284 5.21633L3.66691 5.58334C3.01326 5.21558 3.01284 5.21633 3.01284 5.21633ZM3.86967 7.01417C3.65318 7.6472 3.44669 8.48973 3.43764 9.40626C3.42833 10.3496 3.62764 11.3585 4.23026 12.3106C4.8318 13.261 5.87044 14.2106 7.6333 14.9792C7.88488 15.0888 8.05646 15.3272 8.08065 15.6006C8.10485 15.874 7.97778 16.1387 7.74937 16.2909C6.73958 16.9635 5.69988 17.5329 4.56881 17.8829C8 19 14.4688 18.8668 17.3223 11.5927C17.6124 10.539 17.7565 9.45052 17.7504 8.35766C17.7496 8.20959 17.7924 8.08431 17.8046 8.04872L17.8057 8.04559C17.8256 7.98693 17.85 7.92787 17.873 7.87544C17.9196 7.76915 17.9821 7.64105 18.0503 7.5055C18.1225 7.36188 18.2129 7.18678 18.3096 6.99947L18.3107 6.99739C18.3913 6.84123 18.4763 6.67664 18.5588 6.51475C18.6523 6.33126 18.7447 6.14702 18.8327 5.96646C18.632 6.02454 18.4347 6.07841 18.2423 6.13092C18.0313 6.18855 17.8262 6.24454 17.6292 6.30268C17.3501 6.38503 17.0486 6.29853 16.8556 6.08076C16.1158 5.24589 14.974 5.11992 13.6649 5.61013C12.4803 6.0537 11.7337 7.12018 11.7502 8.32306L11.7502 8.33334V9.25001C11.7502 9.65675 11.426 9.98936 11.0194 9.99976C8.23138 10.0711 5.70073 8.97957 3.86967 7.01417Z" fill="white"/>
<path fill-rule="evenodd" clip-rule="evenodd" d="M65.7459 4.10387C65.9562 4.28924 66.0456 4.57644 65.9776 4.84842L62.3109 19.5151C62.2454 19.7772 62.0439 19.9838 61.7835 20.056C61.5231 20.1281 61.2441 20.0546 61.053 19.8635L57.0812 15.8917L54.85 18.8665C54.6826 19.0897 54.4052 19.2015 54.1299 19.1568C53.8545 19.1121 53.6267 18.9183 53.5385 18.6537L51.8034 13.4484L48.4146 11.754C48.1493 11.6213 47.9871 11.3447 48.0008 11.0484C48.0146 10.7521 48.2017 10.4917 48.4782 10.3842L64.9782 3.96751C65.2395 3.8659 65.5356 3.9185 65.7459 4.10387ZM57.5395 14.2286C57.5339 14.2229 57.5283 14.2173 57.5225 14.2117L57.144 13.8332L60.2803 10.6968C60.5732 10.404 60.5732 9.92908 60.2803 9.63619C59.9874 9.34329 59.5126 9.34329 59.2197 9.63619L55.553 13.3029C55.4124 13.4435 55.3333 13.6343 55.3333 13.8332C55.3333 14.0321 55.4124 14.2229 55.553 14.3635L56.0097 14.8202L54.5089 16.8214L53.1282 12.6793C53.0653 12.4906 52.93 12.3347 52.7521 12.2457L50.5987 11.169L64.1708 5.89092L61.177 17.8662L57.5395 14.2286Z" fill="white"/>
<path fill-rule="evenodd" clip-rule="evenodd" d="M92.3486 5.89247C92.6444 5.59891 93.0539 5.5 93.4671 5.5H95.7238C96.1294 5.5 96.5184 5.59448 96.8416 5.87442C97.1303 6.12451 97.2925 6.46355 97.414 6.7723L97.4172 6.78056L97.4203 6.78889C97.9584 8.27415 98.6723 9.66768 99.3362 10.6797C99.6495 11.1573 99.9407 11.5331 100.185 11.7899V8.77394C100.152 8.19668 99.9869 7.9325 99.8527 7.75815C99.812 7.70524 99.771 7.65698 99.7211 7.59836L99.7173 7.59388C99.6721 7.54064 99.6122 7.47026 99.5581 7.39608C99.4392 7.23324 99.3056 6.99702 99.3056 6.67921C99.3056 6.39608 99.4115 6.09838 99.6427 5.86706C99.8827 5.62696 100.216 5.5 100.581 5.5H104.1C104.474 5.5 104.899 5.6016 105.181 5.97251C105.419 6.28661 105.453 6.67357 105.453 6.97076V10.9134C105.513 10.8621 105.582 10.8021 105.661 10.7319C106.401 9.9188 107.051 8.8824 107.524 8.02607C107.76 7.59722 107.948 7.2214 108.077 6.9536C108.141 6.81982 108.19 6.71334 108.223 6.64108C108.239 6.60496 108.251 6.57741 108.259 6.55931L108.268 6.53936L108.27 6.53491L108.27 6.53405L108.274 6.52549L108.278 6.51684C108.383 6.29141 108.551 6.02783 108.835 5.82252C109.13 5.61002 109.494 5.5 109.914 5.5H112.171C112.625 5.5 113.116 5.62195 113.404 6.03883C113.666 6.41948 113.614 6.85035 113.542 7.1285C113.44 7.53678 113.166 8.07186 112.868 8.58989C112.556 9.13099 112.174 9.72571 111.807 10.2737C111.438 10.823 111.08 11.3321 110.815 11.7035C110.682 11.8894 110.572 12.0412 110.495 12.1467C110.457 12.1995 110.426 12.2408 110.406 12.269L110.389 12.292C110.365 12.3293 110.346 12.36 110.329 12.3885C110.323 12.3981 110.318 12.4069 110.313 12.4149C110.322 12.4255 110.331 12.4375 110.343 12.451L110.347 12.4554C110.345 12.4526 110.35 12.4578 110.367 12.4746C110.386 12.4938 110.421 12.528 110.476 12.5825C110.507 12.6122 110.541 12.6459 110.58 12.683C110.656 12.7574 110.747 12.8457 110.846 12.9429C111.146 13.2366 111.539 13.6272 111.942 14.053C112.343 14.4773 112.762 14.9445 113.111 15.3913C113.447 15.8215 113.767 16.2924 113.91 16.714L113.913 16.7225L113.916 16.7311C114.042 17.1399 114.065 17.6425 113.71 18.0406C113.377 18.4151 112.877 18.5 112.477 18.5H110.22C109.909 18.5 109.625 18.4405 109.351 18.3081C109.091 18.1825 108.871 18.0058 108.669 17.8183C108.494 17.656 108.303 17.4571 108.093 17.2393C108.064 17.2084 108.034 17.1772 108.003 17.1456C107.753 16.8858 107.458 16.5831 107.088 16.2302C106.135 15.3487 105.663 15.0995 105.457 15.0291C105.449 15.1573 105.446 15.3329 105.446 15.5778C105.446 15.7355 105.447 15.9135 105.449 16.1173C105.449 16.1469 105.449 16.1769 105.449 16.2076C105.451 16.4486 105.453 16.7216 105.453 17.0292C105.453 17.187 105.44 17.3974 105.354 17.6102C105.26 17.8433 105.094 18.0406 104.856 18.1854C104.443 18.4367 103.852 18.5 103.144 18.5C100.499 18.5 97.6629 17.0076 95.6853 14.3168C94.2599 12.4002 93.3453 10.717 92.7849 9.42691C92.5048 8.78208 92.3118 8.23253 92.1878 7.79848C92.0691 7.38296 92 7.02726 92 6.78854C92 6.53842 92.057 6.18186 92.3486 5.89247ZM105.234 15.0053C105.232 15.0056 105.231 15.0057 105.231 15.0057L105.234 15.0053ZM109.226 11.5413L109.233 11.5315L109.256 11.5012C109.275 11.4743 109.305 11.4345 109.342 11.3832C109.417 11.2806 109.524 11.1323 109.654 10.9503C109.915 10.586 110.264 10.0884 110.623 9.55351C110.982 9.01728 111.346 8.45036 111.637 7.94597C111.93 7.437 112.112 7.05309 112.171 6.838H109.914C109.761 6.838 109.704 6.87375 109.683 6.88903C109.653 6.91099 109.611 6.95565 109.565 7.05352L109.554 7.07838C109.544 7.10011 109.53 7.13143 109.512 7.17147C109.476 7.25153 109.423 7.36656 109.354 7.50953C109.217 7.79521 109.018 8.19383 108.767 8.64873C108.269 9.55086 107.551 10.7064 106.694 11.6388L106.67 11.6649L106.644 11.6885C106.386 11.9167 106.154 12.1189 105.938 12.258C105.695 12.4145 105.426 12.5232 105.095 12.5232C104.708 12.5232 104.436 12.2754 104.3 12.0853C104.136 11.8564 104.049 11.5647 104.049 11.2347V6.97076C104.049 6.91712 104.047 6.87336 104.044 6.838H100.881C100.914 6.87684 100.949 6.9203 100.985 6.96691C101.27 7.33762 101.543 7.85373 101.589 8.7231L101.59 8.73979V11.9271C101.59 12.2614 101.571 12.6279 101.415 12.9138C101.32 13.089 101.171 13.241 100.964 13.3354C100.776 13.4209 100.593 13.4343 100.467 13.4343C100.169 13.4343 99.9167 13.3099 99.7439 13.2002C99.5581 13.0823 99.3784 12.9261 99.209 12.7546C98.8688 12.4103 98.5053 11.9376 98.1453 11.3888C97.424 10.2891 96.6667 8.80701 96.096 7.23424C95.9899 6.96623 95.9235 6.88747 95.897 6.86446C95.8918 6.85996 95.8887 6.85758 95.8763 6.85371C95.8588 6.84824 95.8142 6.838 95.7238 6.838H93.4671C93.4447 6.838 93.425 6.83863 93.4079 6.83965C93.4183 6.93394 93.4532 7.13345 93.5428 7.44705C93.6495 7.82045 93.8223 8.31638 94.0824 8.91519C94.6024 10.1121 95.4661 11.7082 96.8322 13.5447L96.8346 13.5479C98.6053 15.9581 101.047 17.162 103.144 17.162C103.477 17.162 103.711 17.1446 103.874 17.118C103.957 17.1046 104.012 17.0902 104.047 17.0788C104.048 17.0653 104.049 17.0489 104.049 17.0292C104.049 16.7265 104.047 16.4573 104.045 16.2171C104.045 16.1867 104.045 16.1568 104.044 16.1273C104.043 15.9241 104.041 15.7407 104.041 15.5778C104.041 15.2169 104.047 14.9079 104.085 14.6671C104.12 14.4379 104.207 14.1034 104.521 13.877C104.811 13.6676 105.152 13.6634 105.324 13.6634C105.975 13.6634 106.73 14.0332 108.07 15.2738L108.078 15.2806C108.471 15.6551 108.782 15.9754 109.038 16.2409C109.069 16.2733 109.099 16.3046 109.128 16.3349C109.344 16.5587 109.505 16.726 109.649 16.8597C109.81 17.0093 109.911 17.0786 109.986 17.1148C110.046 17.144 110.111 17.162 110.22 17.162H112.477C112.519 17.162 112.553 17.1602 112.582 17.1575C112.579 17.1454 112.575 17.1321 112.571 17.1175C112.501 16.9189 112.305 16.6003 111.985 16.1902C111.673 15.7908 111.286 15.3583 110.899 14.9489C110.513 14.5411 110.134 14.164 109.839 13.8758C109.742 13.7799 109.655 13.6955 109.579 13.6221C109.541 13.5843 109.505 13.5494 109.472 13.5174L109.462 13.5077C109.389 13.4369 109.303 13.3524 109.256 13.2983C109.034 13.0397 108.845 12.7201 108.886 12.3228C108.916 12.0239 109.082 11.7633 109.176 11.6173C109.183 11.605 109.191 11.5935 109.197 11.5829L109.211 11.5616L109.226 11.5413Z" fill="white"/>
<g clip-path="url(#clip0_211_450)">
<path fill-rule="evenodd" clip-rule="evenodd" d="M151.334 11.9969C151.334 10.1569 149.843 8.66607 148.003 8.66607C146.163 8.66607 144.672 10.1569 144.672 11.9969C144.672 13.8369 146.162 15.3277 148.003 15.3277C149.844 15.3277 151.335 13.8369 151.334 11.9969ZM142.871 11.9969C142.871 9.16357 145.167 6.86523 148.003 6.86523C150.836 6.86523 153.135 9.16107 153.135 11.9969C153.135 14.8302 150.839 17.1286 148.003 17.1286C145.17 17.1286 142.871 14.8327 142.871 11.9969Z" fill="white"/>
<path fill-rule="evenodd" clip-rule="evenodd" d="M143.883 2.06478C145.725 1.98311 150.282 1.97894 152.122 2.06478C155.886 2.23811 157.771 4.36727 157.936 7.8781C158.017 9.71977 158.022 14.2764 157.936 16.1173C157.799 19.0914 156.401 20.7473 154.548 21.4664C153.192 21.9914 151.868 21.9914 148.057 21.9914H148.002C147.6 21.9914 147.211 21.9943 146.835 21.9971C143.692 22.0205 141.411 22.0374 139.686 20.3139C137.974 18.6019 137.987 16.3691 138.005 13.0832C138.007 12.7337 138.009 12.3722 138.009 11.9981C138.009 11.5984 138.006 11.2121 138.004 10.8386C137.981 7.65962 137.965 5.40336 139.686 3.68227C140.837 2.53144 142.265 2.14061 143.883 2.06478ZM140.723 19.2286L140.747 19.253L140.759 19.1917L140.76 19.1902L140.815 18.9182C140.85 18.9557 140.885 18.9927 140.921 19.029C142.083 20.1939 143.655 20.1927 147.406 20.19L147.978 20.1898C148.297 20.1898 148.602 20.1905 148.894 20.1911L148.896 20.1911C152.298 20.199 153.874 20.2027 155.035 19.0415C156.202 17.8691 156.2 16.31 156.197 12.6927C156.197 12.4689 156.196 12.2372 156.196 11.9973C156.196 9.32894 156.186 9.01227 156.138 7.9581C155.947 3.73398 153.018 3.76075 149.123 3.79636C148.758 3.79969 148.384 3.80311 148.004 3.80311L147.966 3.77811C145.335 3.77811 144.991 3.79023 143.968 3.82642L143.92 3.82811C143.912 3.82849 143.905 3.82889 143.897 3.82929L143.952 3.56322L143.911 3.56522L143.906 3.56544C142.515 3.63682 141.525 3.96529 140.747 4.74293C140.089 5.40153 139.764 6.18257 139.614 7.33133C139.487 8.29598 139.494 9.38217 139.504 10.7634C139.506 11.1466 139.509 11.5525 139.509 11.9848L139.509 11.9981C139.509 12.4025 139.507 12.7836 139.505 13.1443C139.498 14.5992 139.492 15.7226 139.624 16.7043C139.775 17.8285 140.091 18.5859 140.722 19.2279L140.76 19.1902L140.759 19.1917L140.723 19.2286Z" fill="white"/>
<path d="M139.624 16.7043C139.775 17.8285 140.091 18.5859 140.722 19.2279L140.76 19.1902L140.815 18.9182C139.714 17.7147 139.734 15.9157 139.762 13.3397C139.767 12.91 139.771 12.4586 139.771 11.9848C139.771 11.5829 139.768 11.1909 139.764 10.8099C139.728 6.83241 139.702 4.05408 143.897 3.82929L143.952 3.56322L143.911 3.56522L143.906 3.56544C142.515 3.63682 141.525 3.96529 140.747 4.74293C140.089 5.40153 139.764 6.18257 139.614 7.33133C139.487 8.29598 139.494 9.38217 139.504 10.7634C139.506 11.1466 139.509 11.5525 139.509 11.9848L139.509 11.9981C139.509 12.4025 139.507 12.7836 139.505 13.1443C139.498 14.5992 139.492 15.7226 139.624 16.7043Z" fill="white"/>
<path fill-rule="evenodd" clip-rule="evenodd" d="M153.339 6.36171C153.172 6.36171 153.038 6.4964 153.038 6.66254C153.038 6.82869 153.172 6.96338 153.339 6.96338C153.505 6.96338 153.639 6.82869 153.639 6.66254C153.639 6.49639 153.505 6.36171 153.339 6.36171ZM154.538 6.66254C154.538 7.32482 154.001 7.86171 153.339 7.86171C152.676 7.86171 152.139 7.32482 152.139 6.66254C152.139 6.00026 152.676 5.46338 153.339 5.46338C154.001 5.46338 154.538 6.00026 154.538 6.66254Z" fill="white"/>
</g>
<path fill-rule="evenodd" clip-rule="evenodd" d="M185.267 15.1761C185.75 14.7687 186.368 14.5542 187 14.5738C187.632 14.5933 188.235 14.8457 188.692 15.2825L188.702 15.2913C189.659 16.2363 189.648 17.7564 188.823 18.7333C188.465 19.1594 187.969 19.4754 187.485 19.7117C186.992 19.9523 186.459 20.1358 185.979 20.2732C185.496 20.4113 185.05 20.5073 184.726 20.5689C184.564 20.5998 184.43 20.6222 184.336 20.6371C184.289 20.6446 184.252 20.6501 184.226 20.6539L184.196 20.6583L184.187 20.6595L184.184 20.6599L184.183 20.6601C184.183 20.6601 184.182 20.6601 184.083 19.9167C183.34 19.8173 183.34 19.8172 183.34 19.817L183.34 19.8157L183.34 19.813L183.341 19.8042L183.346 19.7735C183.35 19.7474 183.355 19.7103 183.363 19.6633C183.377 19.5694 183.4 19.436 183.431 19.2734C183.492 18.9492 183.588 18.5037 183.726 18.0209C183.864 17.5405 184.047 17.0075 184.288 16.5149C184.524 16.031 184.84 15.5344 185.267 15.1761ZM185.75 15.7501L186.232 16.3243C186.034 16.491 185.829 16.7776 185.636 17.1732C185.447 17.5603 185.292 18.0034 185.169 18.4334C185.115 18.6202 185.069 18.8017 185.029 18.9712C185.198 18.931 185.379 18.8845 185.566 18.831C185.996 18.708 186.439 18.553 186.826 18.3639C187.222 18.1706 187.509 17.9661 187.675 17.7676L187.677 17.7659C188.033 17.3445 188.007 16.7186 187.652 16.3631C187.463 16.1843 187.214 16.0811 186.953 16.073C186.691 16.0649 186.434 16.1541 186.233 16.3235L185.75 15.7501ZM184.083 19.9167L183.34 19.817C183.309 20.0487 183.387 20.2818 183.553 20.447C183.718 20.6123 183.951 20.691 184.183 20.6601L184.083 19.9167Z" fill="white"/>
<path fill-rule="evenodd" clip-rule="evenodd" d="M199.556 4.44182C198.121 4.54421 196.722 4.95593 195.456 5.65228C193.963 6.47308 192.706 7.66204 191.803 9.10607L191.798 9.1128C191.248 9.97255 190.773 10.8783 190.38 11.8198L192.182 13.6214C193.135 13.2293 194.052 12.7554 194.924 12.2049C198.527 9.78534 199.404 6.60733 199.556 4.44182ZM192 14.5L192.267 15.2011C193.477 14.7405 194.639 14.1597 195.734 13.4673L195.751 13.4563C200.382 10.3515 201.083 6.08051 201.083 3.66671C201.083 3.25431 200.75 2.91928 200.338 2.91672C198.379 2.90457 196.449 3.39383 194.733 4.33796C193.017 5.28144 191.572 6.64781 190.533 8.30727C189.842 9.38717 189.261 10.534 188.8 11.7303C188.693 12.007 188.76 12.3207 188.97 12.5304L191.47 15.0304L192 14.5Z" fill="white"/>
<path fill-rule="evenodd" clip-rule="evenodd" d="M188.29 9.0338C187.903 9.06973 187.611 9.16059 187.416 9.29042C187.03 9.54933 186.679 10.1721 186.418 10.8922C186.374 11.0153 186.334 11.1356 186.298 11.25H189.5C189.914 11.25 190.25 11.5858 190.25 12C190.25 12.4143 189.914 12.75 189.5 12.75H185.333C185.111 12.75 184.9 12.6514 184.757 12.4807C184.615 12.31 184.555 12.0849 184.595 11.8661L185.333 12C184.595 11.8661 184.595 11.8663 184.595 11.8661L184.595 11.8644L184.596 11.8619L184.597 11.854L184.602 11.8277C184.607 11.8055 184.613 11.7744 184.621 11.7352C184.638 11.657 184.662 11.5465 184.696 11.4123C184.762 11.145 184.864 10.7779 185.008 10.3808C185.278 9.63666 185.761 8.59295 186.583 8.04333L186.584 8.04267C187.064 7.72267 187.63 7.58865 188.151 7.54024C188.678 7.49122 189.216 7.52489 189.685 7.58536C190.157 7.64621 190.58 7.73694 190.885 7.81195C191.037 7.84963 191.162 7.88375 191.249 7.90887C191.293 7.92144 191.328 7.93179 191.353 7.93925L191.382 7.94818L191.39 7.95087L191.393 7.95174L191.394 7.95206C191.394 7.95211 191.395 7.95229 191.166 8.66671L191.394 7.95206C191.788 8.07813 192.007 8.50042 191.881 8.89498C191.755 9.28933 191.333 9.50696 190.939 9.38132C190.939 9.38131 190.939 9.38134 190.939 9.38132M190.939 9.38132L190.935 9.38012L190.916 9.37439C190.899 9.3691 190.872 9.36099 190.836 9.35071C190.764 9.33013 190.658 9.30097 190.526 9.26833C190.259 9.20273 189.894 9.1247 189.493 9.07305C189.09 9.02102 188.67 8.99844 188.29 9.0338" fill="white"/>
<path fill-rule="evenodd" clip-rule="evenodd" d="M195.105 12.119C195.5 11.9929 195.922 12.2105 196.048 12.6051L195.333 12.8334C196.048 12.6051 196.048 12.6049 196.048 12.6051L196.048 12.6068L196.049 12.6096L196.052 12.6181L196.061 12.6472C196.068 12.6717 196.079 12.7064 196.091 12.7502C196.116 12.8378 196.15 12.9622 196.188 13.115C196.263 13.4193 196.354 13.8424 196.415 14.3146C196.475 14.7838 196.509 15.3215 196.46 15.8489C196.411 16.3698 196.277 16.9361 195.957 17.4161L195.957 17.4171C195.407 18.2387 194.363 18.7216 193.619 18.9916C193.222 19.1356 192.855 19.2379 192.588 19.3042C192.453 19.3374 192.343 19.362 192.265 19.3785C192.226 19.3868 192.194 19.393 192.172 19.3974L192.146 19.4024L192.138 19.4039L192.136 19.4044L192.134 19.4046C192.134 19.4046 192.134 19.4047 192 18.6667L192.134 19.4046C191.915 19.4443 191.69 19.385 191.519 19.2425C191.349 19.1 191.25 18.8891 191.25 18.6667V14.5C191.25 14.0858 191.586 13.75 192 13.75C192.414 13.75 192.75 14.0858 192.75 14.5V17.7019C192.864 17.6662 192.985 17.6261 193.108 17.5815C193.828 17.3202 194.451 16.97 194.71 16.5835C194.839 16.3885 194.93 16.0966 194.966 15.7101C195.002 15.3297 194.979 14.9101 194.927 14.5063C194.875 14.1056 194.797 13.7402 194.732 13.4741C194.699 13.3418 194.67 13.2356 194.649 13.1639C194.639 13.128 194.631 13.1009 194.626 13.0835L194.62 13.0649L194.619 13.0617C194.493 12.6672 194.711 12.245 195.105 12.119Z" fill="white"/>
<path fill-rule="evenodd" clip-rule="evenodd" d="M227.464 15.4645C228.402 14.5268 229.674 14 231 14H239C240.326 14 241.598 14.5268 242.536 15.4645C243.473 16.4021 244 17.6739 244 19V21C244 21.5523 243.552 22 243 22C242.448 22 242 21.5523 242 21V19C242 18.2044 241.684 17.4413 241.121 16.8787C240.559 16.3161 239.796 16 239 16H231C230.204 16 229.441 16.3161 228.879 16.8787C228.316 17.4413 228 18.2044 228 19V21C228 21.5523 227.552 22 227 22C226.448 22 226 21.5523 226 21V19C226 17.6739 226.527 16.4021 227.464 15.4645Z" fill="white"/>
<path fill-rule="evenodd" clip-rule="evenodd" d="M234.999 4C233.342 4 231.999 5.34315 231.999 7C231.999 8.65685 233.342 10 234.999 10C236.656 10 237.999 8.65685 237.999 7C237.999 5.34315 236.656 4 234.999 4ZM229.999 7C229.999 4.23858 232.238 2 234.999 2C237.76 2 239.999 4.23858 239.999 7C239.999 9.76142 237.76 12 234.999 12C232.238 12 229.999 9.76142 229.999 7Z" fill="white"/>
<path fill-rule="evenodd" clip-rule="evenodd" d="M271.333 6.75C271.179 6.75 271.03 6.81146 270.921 6.92085C270.811 7.03025 270.75 7.17862 270.75 7.33333V16.6667C270.75 16.8214 270.811 16.9697 270.921 17.0791C271.03 17.1885 271.179 17.25 271.333 17.25H274C274.414 17.25 274.75 17.5858 274.75 18C274.75 18.4142 274.414 18.75 274 18.75H271.333C270.781 18.75 270.251 18.5305 269.86 18.1398C269.469 17.7491 269.25 17.2192 269.25 16.6667V7.33333C269.25 6.7808 269.469 6.2509 269.86 5.86019C270.251 5.46949 270.781 5.25 271.333 5.25H274C274.414 5.25 274.75 5.58579 274.75 6C274.75 6.41421 274.414 6.75 274 6.75H271.333Z" fill="white"/>
<path fill-rule="evenodd" clip-rule="evenodd" d="M278.137 8.13617C278.43 7.84328 278.904 7.84328 279.197 8.13617L282.531 11.4695C282.824 11.7624 282.824 12.2373 282.531 12.5302L279.197 15.8635C278.904 16.1564 278.43 16.1564 278.137 15.8635C277.844 15.5706 277.844 15.0957 278.137 14.8028L280.94 11.9998L278.137 9.19683C277.844 8.90394 277.844 8.42907 278.137 8.13617Z" fill="white"/>
<path fill-rule="evenodd" clip-rule="evenodd" d="M273.25 12C273.25 11.5858 273.586 11.25 274 11.25H282C282.414 11.25 282.75 11.5858 282.75 12C282.75 12.4142 282.414 12.75 282 12.75H274C273.586 12.75 273.25 12.4142 273.25 12Z" fill="white"/>
<path fill-rule="evenodd" clip-rule="evenodd" d="M311.47 9.46967C311.763 9.17678 312.237 9.17678 312.53 9.46967L316 12.9393L319.47 9.46967C319.763 9.17678 320.237 9.17678 320.53 9.46967C320.823 9.76256 320.823 10.2374 320.53 10.5303L316.53 14.5303C316.237 14.8232 315.763 14.8232 315.47 14.5303L311.47 10.5303C311.177 10.2374 311.177 9.76256 311.47 9.46967Z" fill="white"/>
<path fill-rule="evenodd" clip-rule="evenodd" d="M353.691 5.59845C354.605 4.93355 355.991 4.5132 358 4.5132C360.109 4.5132 361.407 5.25294 362.173 6.07817C362.547 6.48055 362.777 6.88484 362.915 7.19352C362.984 7.34812 363.031 7.48013 363.061 7.57812C363.076 7.62719 363.087 7.66795 363.095 7.69903C363.099 7.71458 363.102 7.72773 363.105 7.7383L363.108 7.75223L363.109 7.75772L363.11 7.76009L363.11 7.76118C363.11 7.76169 363.11 7.7622 362.376 7.91381L363.11 7.7622C363.194 8.16786 362.933 8.5646 362.527 8.64832C362.122 8.73195 361.726 8.47169 361.641 8.06685L361.642 8.06893L361.642 8.07154L361.643 8.0741C361.643 8.07465 361.643 8.07279 361.642 8.06893C361.64 8.06118 361.635 8.04512 361.628 8.0217C361.614 7.97474 361.588 7.89967 361.546 7.80578C361.461 7.61747 361.316 7.35911 361.074 7.09884C360.61 6.59877 359.719 6.0132 358 6.0132C356.181 6.0132 355.144 6.39623 354.574 6.8114C354.019 7.2152 353.85 7.68649 353.826 8.02931C353.789 8.56077 353.797 9.20098 354.219 9.72449C354.628 10.2327 355.602 10.8335 358 10.8335C360.646 10.8335 362.149 11.6107 362.961 12.6254C363.75 13.6121 363.75 14.6634 363.75 14.9153V14.9168C363.75 15.1801 363.727 16.2794 362.946 17.3223C362.136 18.4041 360.635 19.2662 358 19.2662C355.409 19.2662 353.946 18.5658 353.144 17.7012C352.749 17.2759 352.544 16.8413 352.438 16.5015C352.386 16.3325 352.359 16.1873 352.344 16.0781C352.337 16.0235 352.333 15.9775 352.331 15.9417C352.329 15.9238 352.329 15.9084 352.328 15.8957L352.328 15.8786L352.328 15.8716L352.328 15.8685L352.328 15.867C352.328 15.8663 352.328 15.8656 353.078 15.8656H352.328C352.328 15.4514 352.664 15.1156 353.078 15.1156C353.487 15.1156 353.82 15.4431 353.828 15.8502C353.828 15.8544 353.829 15.8649 353.831 15.8809C353.836 15.9167 353.847 15.9786 353.871 16.058C353.92 16.2152 354.022 16.4433 354.243 16.6806C354.671 17.1413 355.669 17.7662 358 17.7662C360.287 17.7662 361.286 17.037 361.746 16.4233C362.234 15.7706 362.25 15.0702 362.25 14.9168C362.25 14.7493 362.249 14.1362 361.789 13.5624C361.351 13.0146 360.354 12.3335 358 12.3335C355.398 12.3335 353.872 11.6843 353.051 10.6658C352.242 9.66263 352.289 8.49945 352.33 7.92414C352.383 7.16019 352.762 6.27472 353.691 5.59845Z" fill="white"/>
<path fill-rule="evenodd" clip-rule="evenodd" d="M358 2.0835C358.414 2.0835 358.75 2.41928 358.75 2.8335V21.1668C358.75 21.581 358.414 21.9168 358 21.9168C357.586 21.9168 357.25 21.581 357.25 21.1668V2.8335C357.25 2.41928 357.586 2.0835 358 2.0835Z" fill="white"/>
<path fill-rule="evenodd" clip-rule="evenodd" d="M396.167 10.9165C395.66 10.9165 395.25 11.3269 395.25 11.8332V16.8332C395.25 17.3394 395.66 17.7498 396.167 17.7498H407.833C408.34 17.7498 408.75 17.3394 408.75 16.8332V11.8332C408.75 11.3269 408.34 10.9165 407.833 10.9165H396.167ZM393.75 11.8332C393.75 10.4985 394.832 9.4165 396.167 9.4165H407.833C409.168 9.4165 410.25 10.4985 410.25 11.8332V16.8332C410.25 18.1679 409.168 19.2498 407.833 19.2498H396.167C394.832 19.2498 393.75 18.1679 393.75 16.8332V11.8332Z" fill="white"/>
<path fill-rule="evenodd" clip-rule="evenodd" d="M402.001 4.25C401.494 4.25 401.084 4.66041 401.084 5.16667C401.084 5.67293 401.494 6.08333 402.001 6.08333C402.507 6.08333 402.917 5.67293 402.917 5.16667C402.917 4.66041 402.507 4.25 402.001 4.25ZM399.584 5.16667C399.584 3.83198 400.666 2.75 402.001 2.75C403.335 2.75 404.417 3.83198 404.417 5.16667C404.417 6.50135 403.335 7.58333 402.001 7.58333C400.666 7.58333 399.584 6.50135 399.584 5.16667Z" fill="white"/>
<path fill-rule="evenodd" clip-rule="evenodd" d="M398.667 14.25C398.621 14.25 398.584 14.2873 398.584 14.3333C398.584 14.3794 398.621 14.4167 398.667 14.4167C398.713 14.4167 398.751 14.3794 398.751 14.3333C398.751 14.2873 398.713 14.25 398.667 14.25ZM397.084 14.3333C397.084 13.4589 397.793 12.75 398.667 12.75C399.542 12.75 400.251 13.4589 400.251 14.3333C400.251 15.2078 399.542 15.9167 398.667 15.9167C397.793 15.9167 397.084 15.2078 397.084 14.3333Z" fill="white"/>
<path fill-rule="evenodd" clip-rule="evenodd" d="M405.333 14.25C405.287 14.25 405.25 14.2873 405.25 14.3333C405.25 14.3794 405.287 14.4167 405.333 14.4167C405.379 14.4167 405.417 14.3794 405.417 14.3333C405.417 14.2873 405.379 14.25 405.333 14.25ZM403.75 14.3333C403.75 13.4589 404.459 12.75 405.333 12.75C406.208 12.75 406.917 13.4589 406.917 14.3333C406.917 15.2078 406.208 15.9167 405.333 15.9167C404.459 15.9167 403.75 15.2078 403.75 14.3333Z" fill="white"/>
<path fill-rule="evenodd" clip-rule="evenodd" d="M402 6.0835C402.414 6.0835 402.75 6.41928 402.75 6.8335V10.1668C402.75 10.581 402.414 10.9168 402 10.9168C401.586 10.9168 401.25 10.581 401.25 10.1668V6.8335C401.25 6.41928 401.586 6.0835 402 6.0835Z" fill="white"/>
<path fill-rule="evenodd" clip-rule="evenodd" d="M449.728 6.33475C448.531 5.5278 447.11 5.12031 445.668 5.17067C444.226 5.22103 442.837 5.72666 441.699 6.6151C440.562 7.50353 439.736 8.72916 439.338 10.1163C439.224 10.5145 438.808 10.7447 438.41 10.6305C438.012 10.5164 437.782 10.101 437.896 9.70286C438.381 8.01121 439.389 6.51654 440.776 5.43308C442.163 4.34962 443.857 3.733 445.616 3.67158C447.374 3.61017 449.107 4.10711 450.566 5.09119C452.025 6.07528 453.135 7.49598 453.737 9.14967C453.879 9.53891 453.678 9.96929 453.289 10.111C452.9 10.2526 452.469 10.0519 452.328 9.6627C451.834 8.30667 450.924 7.1417 449.728 6.33475Z" fill="white"/>
<path fill-rule="evenodd" clip-rule="evenodd" d="M442.289 17.7971C443.411 18.4972 444.711 18.8568 446.033 18.8323C447.355 18.8078 448.642 18.4003 449.737 17.6591C450.832 16.9179 451.689 15.8749 452.203 14.6566C452.364 14.275 452.804 14.0961 453.185 14.2572C453.567 14.4182 453.746 14.8581 453.585 15.2397C452.958 16.7255 451.913 17.9974 450.578 18.9013C449.242 19.8052 447.673 20.3022 446.061 20.3321C444.449 20.3619 442.863 19.9234 441.495 19.0696C440.127 18.2158 439.036 16.9835 438.354 15.522C438.179 15.1466 438.342 14.7003 438.717 14.5253C439.092 14.3502 439.539 14.5126 439.714 14.8881C440.272 16.0865 441.167 17.097 442.289 17.7971Z" fill="white"/>
<path fill-rule="evenodd" clip-rule="evenodd" d="M441.751 14.2991C441.67 13.7528 441.162 13.3756 440.615 13.4566L438.476 13.7738C438.165 13.82 437.893 14.01 437.744 14.2868L436.714 16.1885C436.451 16.6741 436.631 17.281 437.117 17.544C437.603 17.807 438.21 17.6264 438.473 17.1408L439.264 15.6788L440.909 15.435C441.455 15.3539 441.832 14.8454 441.751 14.2991Z" fill="white"/>
<path fill-rule="evenodd" clip-rule="evenodd" d="M450.122 10.2551C450.203 10.8014 450.711 11.1786 451.258 11.0976L453.397 10.7804C453.708 10.7342 453.98 10.5442 454.13 10.2674L455.159 8.36574C455.422 7.88009 455.242 7.2732 454.756 7.01022C454.27 6.74725 453.663 6.92777 453.401 7.41342L452.609 8.87537L450.964 9.11924C450.418 9.20025 450.041 9.7088 450.122 10.2551Z" fill="white"/>
<path fill-rule="evenodd" clip-rule="evenodd" d="M480.917 7.49975C480.917 5.42869 482.596 3.74976 484.667 3.74976H495.334C497.405 3.74976 499.084 5.42869 499.084 7.49976V17.3331C499.084 19.4042 497.405 21.0831 495.334 21.0831H484.667C482.596 21.0831 480.917 19.4042 480.917 17.3331V7.49975ZM484.667 5.24976C483.424 5.24976 482.417 6.25711 482.417 7.49975V17.3331C482.417 18.5757 483.424 19.5831 484.667 19.5831H495.334C496.576 19.5831 497.584 18.5757 497.584 17.3331V7.49976C497.584 6.25712 496.576 5.24976 495.334 5.24976H484.667Z" fill="white"/>
<path fill-rule="evenodd" clip-rule="evenodd" d="M485.833 2.08301C486.247 2.08301 486.583 2.41879 486.583 2.83301V4.49967C486.583 4.91389 486.247 5.24967 485.833 5.24967C485.419 5.24967 485.083 4.91389 485.083 4.49967V2.83301C485.083 2.41879 485.419 2.08301 485.833 2.08301Z" fill="white"/>
<path fill-rule="evenodd" clip-rule="evenodd" d="M494.167 2.08301C494.581 2.08301 494.917 2.41879 494.917 2.83301V4.49967C494.917 4.91389 494.581 5.24967 494.167 5.24967C493.753 5.24967 493.417 4.91389 493.417 4.49967V2.83301C493.417 2.41879 493.753 2.08301 494.167 2.08301Z" fill="white"/>
<path fill-rule="evenodd" clip-rule="evenodd" d="M480.917 8.6665C480.917 8.25229 481.253 7.9165 481.667 7.9165H498.334C498.748 7.9165 499.084 8.25229 499.084 8.6665C499.084 9.08072 498.748 9.4165 498.334 9.4165H481.667C481.253 9.4165 480.917 9.08072 480.917 8.6665Z" fill="white"/>
<path fill-rule="evenodd" clip-rule="evenodd" d="M485.5 12.8331C485.5 12.4189 485.836 12.0831 486.25 12.0831H487.917C488.331 12.0831 488.667 12.4189 488.667 12.8331C488.667 13.2473 488.331 13.5831 487.917 13.5831H486.25C485.836 13.5831 485.5 13.2473 485.5 12.8331Z" fill="white"/>
<path fill-rule="evenodd" clip-rule="evenodd" d="M491.333 12.833C491.333 12.4188 491.669 12.083 492.083 12.083H493.75C494.164 12.083 494.5 12.4188 494.5 12.833C494.5 13.2472 494.164 13.583 493.75 13.583H492.083C491.669 13.583 491.333 13.2472 491.333 12.833Z" fill="white"/>
<path fill-rule="evenodd" clip-rule="evenodd" d="M485.5 16.1664C485.5 15.7522 485.836 15.4164 486.25 15.4164H487.917C488.331 15.4164 488.667 15.7522 488.667 16.1664C488.667 16.5806 488.331 16.9164 487.917 16.9164H486.25C485.836 16.9164 485.5 16.5806 485.5 16.1664Z" fill="white"/>
<path fill-rule="evenodd" clip-rule="evenodd" d="M491.333 16.1665C491.333 15.7523 491.669 15.4165 492.083 15.4165H493.75C494.164 15.4165 494.5 15.7523 494.5 16.1665C494.5 16.5807 494.164 16.9165 493.75 16.9165H492.083C491.669 16.9165 491.333 16.5807 491.333 16.1665Z" fill="white"/>
<path fill-rule="evenodd" clip-rule="evenodd" d="M531.626 5.45989C532.016 5.06936 532.65 5.06936 533.04 5.45989L538.843 11.2625C539.03 11.4501 539.136 11.7044 539.136 11.9696C539.136 12.2349 539.03 12.4892 538.843 12.6767L533.04 18.4794C532.65 18.8699 532.016 18.8699 531.626 18.4794C531.235 18.0889 531.235 17.4557 531.626 17.0652L536.721 11.9696L531.626 6.8741C531.235 6.48357 531.235 5.85041 531.626 5.45989Z" fill="white"/>
<path fill-rule="evenodd" clip-rule="evenodd" d="M569.279 14.946C570.045 14.1802 571.083 13.75 572.166 13.75H578.833C579.916 13.75 580.955 14.1802 581.72 14.946C582.486 15.7118 582.916 16.7504 582.916 17.8333V19.5C582.916 19.9142 582.581 20.25 582.166 20.25C581.752 20.25 581.416 19.9142 581.416 19.5V17.8333C581.416 17.1482 581.144 16.4911 580.66 16.0066C580.175 15.5222 579.518 15.25 578.833 15.25H572.166C571.481 15.25 570.824 15.5222 570.34 16.0066C569.855 16.4911 569.583 17.1482 569.583 17.8333V19.5C569.583 19.9142 569.247 20.25 568.833 20.25C568.419 20.25 568.083 19.9142 568.083 19.5V17.8333C568.083 16.7504 568.513 15.7118 569.279 14.946Z" fill="white"/>
<path fill-rule="evenodd" clip-rule="evenodd" d="M575.5 5.25C574.074 5.25 572.917 6.4066 572.917 7.83333C572.917 9.26007 574.074 10.4167 575.5 10.4167C576.927 10.4167 578.084 9.26007 578.084 7.83333C578.084 6.4066 576.927 5.25 575.5 5.25ZM571.417 7.83333C571.417 5.57817 573.245 3.75 575.5 3.75C577.755 3.75 579.584 5.57817 579.584 7.83333C579.584 10.0885 577.755 11.9167 575.5 11.9167C573.245 11.9167 571.417 10.0885 571.417 7.83333Z" fill="white"/>
<path fill-rule="evenodd" clip-rule="evenodd" d="M583.941 14.4211C584.044 14.02 584.453 13.7788 584.854 13.8824C585.73 14.1086 586.507 14.6193 587.061 15.3343C587.615 16.0494 587.916 16.9283 587.917 17.833L587.917 19.5002C587.917 19.9145 587.581 20.2502 587.167 20.2502C586.753 20.2502 586.417 19.9145 586.417 19.5002V17.8341C586.417 17.8341 586.417 17.8342 586.417 17.8341C586.416 17.2618 586.226 16.7057 585.875 16.2533C585.525 15.801 585.034 15.4779 584.479 15.3348C584.078 15.2312 583.837 14.8221 583.941 14.4211Z" fill="white"/>
<path fill-rule="evenodd" clip-rule="evenodd" d="M580.606 4.42255C580.709 4.02128 581.118 3.77928 581.519 3.88202C582.397 4.10691 583.176 4.61773 583.732 5.33396C584.288 6.05018 584.589 6.93107 584.589 7.83775C584.589 8.74442 584.288 9.62531 583.732 10.3415C583.176 11.0578 582.397 11.5686 581.519 11.7935C581.118 11.8962 580.709 11.6542 580.606 11.2529C580.504 10.8517 580.746 10.4431 581.147 10.3404C581.703 10.1981 582.195 9.8749 582.547 9.42177C582.899 8.96865 583.089 8.41136 583.089 7.83775C583.089 7.26414 582.899 6.70684 582.547 6.25372C582.195 5.80059 581.703 5.47742 581.147 5.33514C580.746 5.2324 580.504 4.82382 580.606 4.42255Z" fill="white"/>
<path fill-rule="evenodd" clip-rule="evenodd" d="M619.22 6.46967C619.513 6.17678 619.987 6.17678 620.28 6.46967L625.28 11.4696C625.573 11.7625 625.573 12.2374 625.28 12.5303L620.28 17.5302C619.987 17.8231 619.513 17.8231 619.22 17.5302C618.927 17.2373 618.927 16.7625 619.22 16.4696L623.689 11.9999L619.22 7.53033C618.927 7.23744 618.927 6.76256 619.22 6.46967Z" fill="white"/>
<path fill-rule="evenodd" clip-rule="evenodd" d="M612 11.999C612 11.5848 612.336 11.249 612.75 11.249H624.75C625.164 11.249 625.5 11.5848 625.5 11.999C625.5 12.4132 625.164 12.749 624.75 12.749H612.75C612.336 12.749 612 12.4132 612 11.999Z" fill="white"/>
<path fill-rule="evenodd" clip-rule="evenodd" d="M651.5 5C651.5 4.44772 651.948 4 652.5 4H670.57C671.122 4 671.57 4.44772 671.57 5C671.57 5.55228 671.122 6 670.57 6H652.5C651.948 6 651.5 5.55228 651.5 5Z" fill="white"/>
<path fill-rule="evenodd" clip-rule="evenodd" d="M651.5 12C651.5 11.4477 651.948 11 652.5 11H670.57C671.122 11 671.57 11.4477 671.57 12C671.57 12.5523 671.122 13 670.57 13H652.5C651.948 13 651.5 12.5523 651.5 12Z" fill="white"/>
<path fill-rule="evenodd" clip-rule="evenodd" d="M651.5 19C651.5 18.4477 651.948 18 652.5 18H670.57C671.122 18 671.57 18.4477 671.57 19C671.57 19.5523 671.122 20 670.57 20H652.5C651.948 20 651.5 19.5523 651.5 19Z" fill="white"/>
<defs>
<clipPath id="clip0_211_450">
<rect width="20" height="20" fill="white" transform="translate(138 2)"/>
</clipPath>
</defs>
</svg>
