<svg width="74" height="46" viewBox="0 0 74 46" fill="none" xmlns="http://www.w3.org/2000/svg">
<path d="M11.416 22.8008H6.568V16.4408L0.568 6.79278H6.016L8.992 12.1928L11.92 6.79278H17.368L11.416 16.4408V22.8008ZM33.4086 20.7848C31.7446 22.3208 29.6646 23.0888 27.1686 23.0888C24.6726 23.0888 22.5846 22.3208 20.9046 20.7848C19.2406 19.2328 18.4086 17.2408 18.4086 14.8088C18.4086 12.3768 19.2406 10.3928 20.9046 8.85678C22.5846 7.30478 24.6726 6.52878 27.1686 6.52878C29.6646 6.52878 31.7446 7.30478 33.4086 8.85678C35.0886 10.3928 35.9286 12.3768 35.9286 14.8088C35.9286 17.2408 35.0886 19.2328 33.4086 20.7848ZM24.3846 17.6648C25.1046 18.4328 26.0326 18.8168 27.1686 18.8168C28.3046 18.8168 29.2246 18.4328 29.9286 17.6648C30.6486 16.8968 31.0086 15.9448 31.0086 14.8088C31.0086 13.6728 30.6486 12.7208 29.9286 11.9528C29.2246 11.1848 28.3046 10.8008 27.1686 10.8008C26.0326 10.8008 25.1046 11.1848 24.3846 11.9528C23.6806 12.7208 23.3286 13.6728 23.3286 14.8088C23.3286 15.9448 23.6806 16.8968 24.3846 17.6648ZM54.8876 22.8008H48.9836L45.3836 17.1608L44.4956 18.3608V22.8008H39.6476V6.79278H44.4956V12.7928L48.6956 6.79278H54.6236L48.5756 14.2328L54.8876 22.8008ZM70.9242 20.7848C69.2602 22.3208 67.1802 23.0888 64.6842 23.0888C62.1882 23.0888 60.1002 22.3208 58.4202 20.7848C56.7562 19.2328 55.9242 17.2408 55.9242 14.8088C55.9242 12.3768 56.7562 10.3928 58.4202 8.85678C60.1002 7.30478 62.1882 6.52878 64.6842 6.52878C67.1802 6.52878 69.2602 7.30478 70.9242 8.85678C72.6042 10.3928 73.4442 12.3768 73.4442 14.8088C73.4442 17.2408 72.6042 19.2328 70.9242 20.7848ZM61.9002 17.6648C62.6202 18.4328 63.5482 18.8168 64.6842 18.8168C65.8202 18.8168 66.7402 18.4328 67.4442 17.6648C68.1642 16.8968 68.5242 15.9448 68.5242 14.8088C68.5242 13.6728 68.1642 12.7208 67.4442 11.9528C66.7402 11.1848 65.8202 10.8008 64.6842 10.8008C63.5482 10.8008 62.6202 11.1848 61.9002 11.9528C61.1962 12.7208 60.8442 13.6728 60.8442 14.8088C60.8442 15.9448 61.1962 16.8968 61.9002 17.6648Z" fill="white"/>
<path d="M7.219 41.8008H5.36V34.7548H2.825V33.1298H9.741V34.7548H7.219V41.8008ZM24.9444 41.8008H22.8254L21.1224 38.7198H19.7704V41.8008H17.9244V33.1298H21.9804C22.8731 33.1298 23.5794 33.3898 24.0994 33.9098C24.6281 34.4298 24.8924 35.1014 24.8924 35.9248C24.8924 36.6354 24.7061 37.2118 24.3334 37.6538C23.9694 38.0958 23.5231 38.3774 22.9944 38.4988L24.9444 41.8008ZM21.7074 37.0948C22.0887 37.0948 22.4007 36.9908 22.6434 36.7828C22.8861 36.5661 23.0074 36.2801 23.0074 35.9248C23.0074 35.5694 22.8861 35.2878 22.6434 35.0798C22.4007 34.8631 22.0887 34.7548 21.7074 34.7548H19.7704V37.0948H21.7074ZM41.3639 41.8008H39.2579L38.7249 40.3318H35.0069L34.4609 41.8008H32.3549L35.7089 33.1298H38.0229L41.3639 41.8008ZM38.2179 38.7068L36.8659 34.9758L35.5139 38.7068H38.2179ZM52.5836 41.8008H49.1646V33.1298H52.5836C53.9443 33.1298 55.0493 33.5284 55.8986 34.3258C56.7566 35.1231 57.1856 36.1718 57.1856 37.4718C57.1856 38.7718 56.761 39.8204 55.9116 40.6178C55.0623 41.4064 53.953 41.8008 52.5836 41.8008ZM52.5836 40.1758C53.4156 40.1758 54.0743 39.9158 54.5596 39.3958C55.0536 38.8758 55.3006 38.2344 55.3006 37.4718C55.3006 36.6744 55.0623 36.0244 54.5856 35.5218C54.109 35.0104 53.4416 34.7548 52.5836 34.7548H51.0106V40.1758H52.5836ZM71.6317 41.8008H65.4957V33.1298H71.6317V34.7548H67.3417V36.5878H71.5407V38.2128H67.3417V40.1758H71.6317V41.8008Z" fill="white"/>
</svg>
