<svg width="20" height="17" viewBox="0 0 20 17" fill="none" xmlns="http://www.w3.org/2000/svg">
<path d="M19.167 1.1756C18.2503 1.62477 17.352 1.80718 16.417 2.0831C15.3894 0.923518 13.8659 0.859351 12.402 1.40752C10.9381 1.95568 9.97926 3.29585 10.0003 4.8331V5.74977C7.02576 5.82585 4.3766 4.47102 2.66701 2.0831C2.66701 2.0831 -1.16649 8.89669 6.33368 12.1664C4.61768 13.3095 2.90626 14.0804 0.833679 13.9998C3.86601 15.6525 7.1706 16.2209 10.0315 15.3904C13.3132 14.437 16.01 11.9776 17.0449 8.29352C17.3537 7.17305 17.5069 6.01547 17.5005 4.85327C17.4987 4.62502 18.8847 2.31227 19.167 1.17468V1.1756Z" stroke="#9298B8" stroke-width="1.5" stroke-linecap="round" stroke-linejoin="round"/>
</svg>
