<svg width="20" height="21" viewBox="0 0 20 21" fill="none" xmlns="http://www.w3.org/2000/svg">
<g clip-path="url(#clip0_1_852)">
<path d="M18.3335 4.14295C17.5002 4.55128 16.6835 4.71711 15.8335 4.96795C14.8994 3.91378 13.5144 3.85545 12.1835 4.35378C10.8527 4.85211 9.98104 6.07045 10.0002 7.46795V8.30128C7.29604 8.37045 4.8877 7.13878 3.33354 4.96795C3.33354 4.96795 -0.151463 11.1621 6.66687 14.1346C5.10687 15.1738 3.55104 15.8746 1.66687 15.8013C4.42354 17.3038 7.4277 17.8204 10.0285 17.0654C13.0119 16.1988 15.4635 13.9629 16.4044 10.6138C16.685 9.59517 16.8244 8.54283 16.8185 7.48628C16.8169 7.27878 18.0769 5.17628 18.3335 4.14211V4.14295Z" stroke="white" stroke-width="1.5" stroke-linecap="round" stroke-linejoin="round"/>
</g>
<defs>
<clipPath id="clip0_1_852">
<rect width="20" height="20" fill="white" transform="translate(-0.00012207 0.800781)"/>
</clipPath>
</defs>
</svg>
