<svg width="24" height="15" viewBox="0 0 24 15" fill="none" xmlns="http://www.w3.org/2000/svg">
<path d="M22.8833 12.5599C22.8567 12.5025 22.8319 12.4549 22.8088 12.4167C22.4271 11.7293 21.6977 10.8855 20.621 9.8851L20.5982 9.8622L20.5868 9.85096L20.5753 9.83945H20.5638C20.0751 9.37362 19.7657 9.0604 19.6361 8.90005C19.399 8.59457 19.3459 8.28537 19.4754 7.97208C19.567 7.73537 19.9109 7.23548 20.5064 6.47172C20.8196 6.06695 21.0676 5.74255 21.2508 5.49814C22.572 3.7417 23.1448 2.61931 22.9691 2.13053L22.9008 2.01631C22.855 1.94754 22.7366 1.88464 22.5459 1.82727C22.3548 1.77001 22.1105 1.76055 21.8126 1.7987L18.5138 1.82149C18.4604 1.80255 18.3841 1.80432 18.2846 1.82727C18.1853 1.85021 18.1357 1.86173 18.1357 1.86173L18.0783 1.89041L18.0327 1.92488C17.9945 1.94766 17.9525 1.98774 17.9066 2.04504C17.861 2.10213 17.8229 2.16912 17.7924 2.24547C17.4332 3.16947 17.0249 4.02855 16.5666 4.82268C16.284 5.29621 16.0245 5.7066 15.7876 6.05408C15.5509 6.40143 15.3523 6.65735 15.1921 6.8214C15.0316 6.98561 14.8868 7.11717 14.7567 7.21654C14.6269 7.31596 14.5277 7.35796 14.4591 7.3426C14.3903 7.32723 14.3255 7.31199 14.2641 7.29674C14.1573 7.22798 14.0714 7.13446 14.0066 7.0161C13.9415 6.89775 13.8977 6.74879 13.8748 6.56933C13.852 6.38976 13.8385 6.2353 13.8346 6.10543C13.8311 5.97572 13.8327 5.79225 13.8405 5.55555C13.8484 5.31872 13.852 5.15848 13.852 5.07447C13.852 4.78425 13.8576 4.46927 13.869 4.12945C13.8805 3.78964 13.8899 3.5204 13.8977 3.32204C13.9055 3.12349 13.9091 2.91343 13.9091 2.69197C13.9091 2.4705 13.8956 2.29683 13.869 2.17077C13.8427 2.04487 13.8023 1.92267 13.749 1.8042C13.6955 1.68584 13.6171 1.59429 13.5142 1.5293C13.4111 1.46438 13.283 1.41287 13.1305 1.37459C12.7257 1.283 12.2103 1.23345 11.584 1.22575C10.1637 1.21051 9.25114 1.30222 8.84641 1.50077C8.68605 1.58466 8.54094 1.69928 8.41119 1.84428C8.2737 2.01234 8.25452 2.10405 8.35378 2.11914C8.81203 2.18778 9.13643 2.35199 9.32736 2.61161L9.39617 2.74918C9.44969 2.84843 9.50313 3.02416 9.55661 3.27611C9.61001 3.52806 9.64447 3.80677 9.65963 4.11208C9.69775 4.66962 9.69775 5.14689 9.65963 5.54391C9.6214 5.9411 9.58529 6.2503 9.55083 6.47176C9.51637 6.69322 9.46485 6.87268 9.39617 7.01009C9.32736 7.14754 9.28159 7.23155 9.25864 7.26204C9.23573 7.29253 9.21663 7.31175 9.20147 7.31929C9.10221 7.35732 8.99898 7.3767 8.89214 7.3767C8.78515 7.3767 8.6554 7.32318 8.5027 7.21622C8.35005 7.10926 8.19161 6.96234 8.0274 6.77523C7.86319 6.58807 7.678 6.32653 7.47175 5.99057C7.26565 5.6546 7.05181 5.25754 6.83035 4.79937L6.64713 4.4671C6.53259 4.25334 6.37612 3.94209 6.17757 3.53364C5.97889 3.12502 5.80329 2.72976 5.65063 2.34794C5.58961 2.18758 5.49794 2.0655 5.37577 1.98149L5.31844 1.94702C5.28033 1.91653 5.21915 1.88415 5.13522 1.84965C5.05117 1.81519 4.96346 1.79048 4.87175 1.77527L1.73323 1.79806C1.41251 1.79806 1.1949 1.87071 1.08032 2.01583L1.03446 2.08447C1.01155 2.12271 1 2.18377 1 2.26782C1 2.35183 1.02291 2.45494 1.06877 2.57702C1.52693 3.65383 2.02518 4.69233 2.5635 5.69268C3.10183 6.69302 3.56963 7.49882 3.96661 8.10937C4.36367 8.72035 4.7684 9.29699 5.18079 9.83901C5.59318 10.3812 5.86616 10.7287 5.99972 10.8814C6.13343 11.0343 6.23847 11.1486 6.31482 11.225L6.60123 11.4998C6.7845 11.6831 7.05362 11.9027 7.40872 12.1584C7.7639 12.4144 8.15711 12.6663 8.58856 12.9147C9.02009 13.1627 9.5221 13.365 10.0949 13.5216C10.6676 13.6782 11.225 13.7411 11.7672 13.7108H13.0845C13.3517 13.6877 13.5541 13.6037 13.6917 13.4587L13.7372 13.4013C13.7679 13.3557 13.7966 13.2849 13.8231 13.1896C13.8499 13.0942 13.8632 12.989 13.8632 12.8746C13.8554 12.5463 13.8803 12.2504 13.9375 11.987C13.9946 11.7237 14.0596 11.5251 14.1324 11.3914C14.2052 11.2578 14.2872 11.1451 14.3786 11.0537C14.4701 10.9621 14.5354 10.9066 14.5737 10.8875C14.6117 10.8683 14.6421 10.8552 14.665 10.8474C14.8482 10.7864 15.0639 10.8455 15.3123 11.0251C15.5606 11.2046 15.7934 11.4261 16.0111 11.6895C16.2288 11.9531 16.4903 12.2488 16.7957 12.5771C17.1013 12.9055 17.3685 13.1496 17.5975 13.3102L17.8265 13.4477C17.9794 13.5394 18.178 13.6234 18.4224 13.6998C18.6663 13.7761 18.8801 13.7952 19.0636 13.757L21.9959 13.7113C22.2859 13.7113 22.5116 13.6633 22.6717 13.568C22.8321 13.4725 22.9273 13.3674 22.9581 13.253C22.9887 13.1385 22.9904 13.0086 22.9639 12.8633C22.9367 12.7185 22.91 12.6172 22.8833 12.5599Z" stroke="#9298B8" stroke-width="1.5"/>
</svg>
