<svg width="22" height="14" viewBox="0 0 22 14" fill="none" xmlns="http://www.w3.org/2000/svg">
<path d="M20.8938 11.4007C20.8696 11.3485 20.847 11.3053 20.826 11.2706C20.479 10.6456 19.8159 9.87852 18.8371 8.96908L18.8164 8.94825L18.8061 8.93804L18.7956 8.92758H18.7851C18.3409 8.50409 18.0596 8.21935 17.9418 8.07357C17.7262 7.79587 17.6779 7.51478 17.7957 7.22996C17.879 7.01478 18.1916 6.56033 18.7329 5.866C19.0177 5.49803 19.2432 5.20312 19.4097 4.98093C20.6108 3.38416 21.1315 2.36381 20.9718 1.91947L20.9097 1.81563C20.868 1.75312 20.7604 1.69593 20.5871 1.64377C20.4133 1.59173 20.1912 1.58312 19.9204 1.6178L16.9215 1.63852C16.8729 1.6213 16.8036 1.62291 16.7132 1.64377C16.6229 1.66463 16.5778 1.6751 16.5778 1.6751L16.5256 1.70118L16.4841 1.73251C16.4494 1.75323 16.4112 1.78966 16.3695 1.84174C16.3281 1.89364 16.2934 1.95455 16.2657 2.02396C15.9392 2.86396 15.568 3.64494 15.1513 4.36688C14.8945 4.79736 14.6586 5.17044 14.4431 5.48633C14.228 5.8021 14.0475 6.03476 13.9018 6.1839C13.7559 6.33318 13.6242 6.45277 13.506 6.54312C13.3879 6.63349 13.2978 6.67168 13.2354 6.65771C13.1728 6.64374 13.1139 6.62988 13.0582 6.61602C12.9611 6.55351 12.8829 6.46849 12.824 6.3609C12.7649 6.25331 12.725 6.11788 12.7042 5.95474C12.6835 5.79149 12.6712 5.65107 12.6677 5.53301C12.6645 5.4151 12.666 5.24831 12.673 5.03312C12.6803 4.81782 12.6835 4.67215 12.6835 4.59578C12.6835 4.33194 12.6886 4.04559 12.699 3.73667C12.7095 3.42775 12.718 3.18298 12.7251 3.00266C12.7322 2.82216 12.7354 2.63119 12.7354 2.42986C12.7354 2.22853 12.7232 2.07065 12.699 1.95605C12.675 1.8416 12.6383 1.7305 12.5899 1.6228C12.5412 1.51521 12.47 1.43198 12.3764 1.37289C12.2827 1.31388 12.1662 1.26705 12.0276 1.23225C11.6596 1.14899 11.1911 1.10394 10.6217 1.09694C9.33055 1.08308 8.50091 1.16646 8.13298 1.34696C7.9872 1.42322 7.85528 1.52742 7.73732 1.65924C7.61233 1.81202 7.5949 1.8954 7.68513 1.90911C8.10172 1.97151 8.39664 2.1208 8.57021 2.35681L8.63276 2.48187C8.68141 2.57211 8.72999 2.73185 8.77861 2.9609C8.82716 3.18995 8.85849 3.44332 8.87227 3.72088C8.90692 4.22774 8.90692 4.66161 8.87227 5.02254C8.83751 5.38362 8.80469 5.66471 8.77336 5.86604C8.74203 6.06737 8.6952 6.23051 8.63276 6.35543C8.57021 6.48038 8.52859 6.55676 8.50773 6.58448C8.4869 6.61219 8.46954 6.62966 8.45576 6.63652C8.36552 6.6711 8.27168 6.68871 8.17455 6.68871C8.07728 6.68871 7.95933 6.64006 7.82052 6.54282C7.68174 6.44559 7.53771 6.31203 7.38843 6.14192C7.23915 5.97177 7.07079 5.73401 6.88328 5.42859C6.69593 5.12317 6.50153 4.7622 6.3002 4.34569L6.13363 4.04362C6.0295 3.8493 5.88726 3.56634 5.70676 3.19502C5.52614 2.82355 5.3665 2.46422 5.22773 2.11711C5.17225 1.97133 5.08891 1.86035 4.97785 1.78397L4.92574 1.75264C4.89109 1.72492 4.83547 1.69549 4.75917 1.66412C4.68276 1.63279 4.60303 1.61033 4.51965 1.5965L1.66645 1.61722C1.37489 1.61722 1.17706 1.68327 1.0729 1.81519L1.03121 1.8776C1.01038 1.91235 0.999878 1.96787 0.999878 2.04428C0.999878 2.12065 1.0207 2.21438 1.06239 2.32537C1.47891 3.30429 1.93186 4.24838 2.42125 5.15778C2.91063 6.06719 3.3359 6.79974 3.6968 7.35477C4.05776 7.91021 4.4257 8.43443 4.8006 8.92717C5.1755 9.4201 5.42366 9.73599 5.54507 9.87476C5.66664 10.0138 5.76212 10.1177 5.83153 10.1872L6.09191 10.437C6.25851 10.6037 6.50317 10.8032 6.82599 11.0358C7.14888 11.2684 7.50634 11.4975 7.89857 11.7233C8.29087 11.9487 8.74724 12.1327 9.26796 12.2749C9.78861 12.4174 10.2954 12.4745 10.7883 12.4469H11.9858C12.2287 12.426 12.4127 12.3496 12.5378 12.2178L12.5792 12.1656C12.6071 12.1242 12.6331 12.0598 12.6572 11.9732C12.6816 11.8864 12.6937 11.7908 12.6937 11.6868C12.6866 11.3884 12.7093 11.1194 12.7612 10.8799C12.8131 10.6405 12.8723 10.46 12.9384 10.3384C13.0046 10.217 13.0792 10.1145 13.1622 10.0314C13.2455 9.94815 13.3048 9.89771 13.3396 9.88034C13.3741 9.86287 13.4017 9.85102 13.4226 9.84391C13.5892 9.7884 13.7853 9.84216 14.0111 10.0054C14.2367 10.1686 14.4484 10.37 14.6464 10.6094C14.8442 10.8491 15.082 11.1179 15.3596 11.4163C15.6374 11.7149 15.8803 11.9368 16.0885 12.0828L16.2967 12.2078C16.4357 12.2912 16.6162 12.3675 16.8384 12.437C17.0602 12.5063 17.2545 12.5237 17.4214 12.489L20.087 12.4474C20.3507 12.4474 20.5559 12.4038 20.7014 12.3171C20.8472 12.2304 20.9338 12.1348 20.9618 12.0308C20.9896 11.9267 20.9911 11.8086 20.967 11.6766C20.9424 11.5449 20.918 11.4528 20.8938 11.4007Z" stroke="white" stroke-width="1.5"/>
</svg>
