<svg width="624" height="552" viewBox="0 0 624 552" fill="none" xmlns="http://www.w3.org/2000/svg">
<path fill-rule="evenodd" clip-rule="evenodd" d="M362.288 1.90249C449.33 -4.04926 547.451 9.13377 598.529 79.7919C648.019 148.252 613.825 238.77 592.609 320.513C572.551 397.788 553.455 481.028 484.096 520.676C409.713 563.195 316.436 560.412 239.733 522.228C164.239 484.647 113.028 411.186 97.7008 328.326C83.13 249.556 112.935 171.799 163.396 109.546C213.318 47.956 283.144 7.31429 362.288 1.90249Z" fill="#DDE7FF"/>
<path d="M225.8 372.395L249.316 448.448H407.053L383.537 372.395H225.8Z" fill="#171A41"/>
<path d="M437.013 443.945H209.289C202.159 443.945 196.405 449.261 196.405 455.766V463.709C196.405 470.213 202.159 475.53 209.289 475.53H437.013C444.143 475.53 449.897 470.213 449.897 463.709V455.703C449.959 449.199 444.143 443.945 437.013 443.945Z" fill="#3A429A"/>
<path d="M122.789 387.405C108.342 387.405 97.3339 375.647 98.3346 361.137L115.034 119.277C116.035 104.83 128.606 93.0088 143.116 93.0088H548.342C562.789 93.0088 573.797 104.767 572.796 119.277L556.097 361.137C555.096 375.584 542.525 387.405 528.015 387.405H122.789Z" fill="#3A429A"/>
<path d="M113.845 387.405C99.3975 387.405 88.3896 375.647 89.3903 361.137L106.09 119.277C107.09 104.83 119.662 93.0088 134.172 93.0088H539.397C553.845 93.0088 564.853 104.767 563.852 119.277L547.153 361.137C546.152 375.584 533.581 387.405 519.07 387.405H113.845Z" fill="#5F5CEC"/>
<path d="M551.092 123.28L536.519 334.618C535.831 344.437 527.326 352.443 517.506 352.443H120.287C110.467 352.443 103.024 344.5 103.712 334.618L118.285 123.28C118.973 113.461 127.479 105.455 137.299 105.455H534.518C544.338 105.518 551.78 113.461 551.092 123.28Z" fill="#CDD7FF"/>
<g opacity="0.5">
<path opacity="0.5" d="M398.36 105.518L173.2 352.443H129.481L354.579 105.518H398.36Z" fill="white"/>
<path opacity="0.5" d="M515.505 105.518L290.408 352.443H271.457L496.554 105.518H515.505Z" fill="white"/>
<path opacity="0.5" d="M485.046 105.518L259.886 352.443H185.333L410.43 105.518H485.046Z" fill="white"/>
</g>
<path d="M263.389 298.591C258.323 329.676 249.317 354.068 243.313 353.13C237.308 352.192 236.558 326.174 241.624 295.089C246.69 264.004 255.696 239.612 261.701 240.55C267.705 241.551 268.455 267.507 263.389 298.591Z" fill="#6265CE"/>
<path d="M204.409 321.045L182.519 409.421C179.829 420.178 186.396 431.061 197.154 433.688C207.912 436.377 218.794 429.81 221.421 419.052L243.312 330.677L204.409 321.045Z" fill="#162A45"/>
<path d="M252.444 344.687L52.9894 387.843L92.2673 147.109L267.642 251.434L252.444 344.687Z" fill="#05CD99"/>
<path opacity="0.5" d="M232.237 254.279C235.571 246.802 222.824 233.853 203.768 225.357C184.711 216.862 166.56 216.036 163.226 223.514C159.893 230.992 172.639 243.94 191.696 252.436C210.752 260.932 228.903 261.757 232.237 254.279Z" fill="white"/>
<path d="M51.0502 399.663C31.0985 396.411 15.5875 378.523 7.33165 349.315C-0.11113 323.171 -1.11181 290.148 4.3921 256.311C9.896 222.475 21.4041 191.453 36.7275 169.062C53.8647 143.982 74.3167 132.036 94.2058 135.288C114.157 138.54 129.669 156.428 137.924 185.636C145.367 211.78 146.368 244.803 140.864 278.64C135.36 312.476 123.852 343.498 108.529 365.889C91.3913 390.907 71.0019 402.915 51.0502 399.663ZM90.3906 158.93C69.3757 155.49 38.2286 198.082 28.0964 260.189C17.9642 322.296 33.913 372.581 54.928 375.959C75.9429 379.399 107.09 336.806 117.222 274.699C127.354 212.655 111.406 162.37 90.3906 158.93Z" fill="#20E8B4"/>
<path d="M129.043 276.701C126.229 293.963 121.851 310.162 116.347 324.485C100.711 365.326 76.0681 391.595 52.9893 387.842C21.8422 382.776 5.39298 324.735 16.2132 258.25C27.0959 191.766 61.1201 141.98 92.2672 147.109C115.346 150.861 130.357 183.635 132.17 227.353C132.858 242.677 131.858 259.439 129.043 276.701Z" fill="#162A45"/>
<path d="M129.044 276.702C126.229 293.964 121.851 310.163 116.347 324.486L59.119 307.348L72.5035 225.415L132.233 227.354C132.859 242.678 131.858 259.439 129.044 276.702Z" fill="#4D52A8"/>
<path d="M85.0347 269.511C88.732 246.875 83.1347 227.122 72.5328 225.39C61.9309 223.658 50.3391 240.604 46.6418 263.24C42.9445 285.876 48.5418 305.629 59.1437 307.361C69.7456 309.093 81.3374 292.147 85.0347 269.511Z" fill="#5F5CEC"/>
<path d="M276.836 249.995L261.701 240.551L243.312 353.131L260.637 349.003C274.96 345.625 285.78 333.93 288.157 319.482L293.473 286.771C295.912 272.261 289.345 257.751 276.836 249.995Z" fill="#6265CE"/>
<path d="M263.086 298.583C267.618 270.834 265.931 247.463 259.318 246.383C252.705 245.303 243.669 266.922 239.137 294.671C234.604 322.42 236.291 345.791 242.904 346.871C249.518 347.951 258.553 326.332 263.086 298.583Z" fill="#05CD99"/>
<path d="M285.343 484.099H156.564V508.992H285.343V484.099Z" fill="#FFB552"/>
<path d="M173.763 487.29H166.633V505.803H173.763V487.29Z" fill="#F78721"/>
<path d="M194.089 487.29H186.959V505.803H194.089V487.29Z" fill="#F78721"/>
<path d="M214.355 487.29H207.224V505.803H214.355V487.29Z" fill="#F78721"/>
<path d="M234.681 487.29H227.551V505.803H234.681V487.29Z" fill="#F78721"/>
<path d="M254.946 487.29H247.816V505.803H254.946V487.29Z" fill="#F78721"/>
<path d="M275.272 487.29H268.142V505.803H275.272V487.29Z" fill="#F78721"/>
<path opacity="0.15" d="M190.526 501.737C203.238 501.737 213.542 498.713 213.542 494.982C213.542 491.252 203.238 488.228 190.526 488.228C177.815 488.228 167.51 491.252 167.51 494.982C167.51 498.713 177.815 501.737 190.526 501.737Z" fill="white"/>
<path d="M262.578 459.206H133.799V484.099H262.578V459.206Z" fill="#FFB552"/>
<path d="M150.999 462.395H143.869V480.909H150.999V462.395Z" fill="#F78721"/>
<path d="M171.327 462.395H164.197V480.909H171.327V462.395Z" fill="#F78721"/>
<path d="M191.591 462.396H184.461V480.909H191.591V462.396Z" fill="#F78721"/>
<path d="M211.856 462.395H204.726V480.909H211.856V462.395Z" fill="#F78721"/>
<path d="M232.183 462.395H225.053V480.909H232.183V462.395Z" fill="#F78721"/>
<path d="M252.446 462.395H245.315V480.909H252.446V462.395Z" fill="#F78721"/>
<path opacity="0.15" d="M167.761 476.843C180.473 476.843 190.778 473.819 190.778 470.089C190.778 466.358 180.473 463.334 167.761 463.334C155.05 463.334 144.745 466.358 144.745 470.089C144.745 473.819 155.05 476.843 167.761 476.843Z" fill="white"/>
<path d="M299.041 434.313H170.263V459.206H299.041V434.313Z" fill="#FFB552"/>
<path d="M187.525 437.504H180.395V456.017H187.525V437.504Z" fill="#F78721"/>
<path d="M207.79 437.504H200.66V456.017H207.79V437.504Z" fill="#F78721"/>
<path d="M228.117 437.504H220.987V456.017H228.117V437.504Z" fill="#F78721"/>
<path d="M248.382 437.504H241.252V456.017H248.382V437.504Z" fill="#F78721"/>
<path d="M268.708 437.504H261.578V456.017H268.708V437.504Z" fill="#F78721"/>
<path d="M288.972 437.504H281.842V456.017H288.972V437.504Z" fill="#F78721"/>
<path opacity="0.15" d="M204.224 451.952C216.936 451.952 227.241 448.927 227.241 445.197C227.241 441.466 216.936 438.442 204.224 438.442C191.513 438.442 181.208 441.466 181.208 445.197C181.208 448.927 191.513 451.952 204.224 451.952Z" fill="white"/>
<path d="M314.551 508.991C346.606 508.991 372.592 483.005 372.592 450.95C372.592 418.895 346.606 392.909 314.551 392.909C282.496 392.909 256.51 418.895 256.51 450.95C256.51 483.005 282.496 508.991 314.551 508.991Z" fill="#F78721"/>
<path d="M324.933 392.847H317.365V508.991H324.933V392.847Z" fill="#F78721"/>
<path d="M324.996 508.991C357.052 508.991 383.038 483.005 383.038 450.95C383.038 418.895 357.052 392.909 324.996 392.909C292.941 392.909 266.955 418.895 266.955 450.95C266.955 483.005 292.941 508.991 324.996 508.991Z" fill="#FFB552"/>
<path d="M355.511 481.452C372.364 464.599 372.364 437.275 355.511 420.421C338.658 403.568 311.333 403.568 294.48 420.421C277.627 437.275 277.627 464.599 294.48 481.452C311.333 498.305 338.658 498.305 355.511 481.452Z" fill="#F78721"/>
<path d="M340.383 468.775C337.881 471.339 334.253 472.965 329.437 473.653V480.658H321.87V473.904C318.68 473.716 315.74 473.153 312.863 472.277C310.049 471.402 307.672 470.338 305.858 469.088L309.986 459.831C311.988 461.144 314.239 462.208 316.866 463.021C319.493 463.834 322.057 464.209 324.559 464.209C329.375 464.209 331.752 463.021 331.752 460.582C331.752 459.331 331.064 458.393 329.688 457.767C328.312 457.142 326.123 456.516 323.058 455.828C319.743 455.14 316.929 454.327 314.677 453.514C312.425 452.701 310.549 451.388 308.923 449.574C307.297 447.76 306.546 445.321 306.546 442.256C306.546 438.628 307.86 435.501 310.487 432.937C313.113 430.373 316.866 428.746 321.807 428.184V421.179H329.375V427.996C331.752 428.184 334.066 428.621 336.317 429.247C338.506 429.872 340.508 430.685 342.259 431.686L338.381 441.005C334.191 438.754 330.063 437.565 326.123 437.565C323.621 437.565 321.807 437.94 320.681 438.691C319.555 439.442 318.993 440.38 318.993 441.568C318.993 442.756 319.681 443.632 320.994 444.257C322.37 444.82 324.496 445.446 327.499 446.071C330.876 446.759 333.691 447.572 335.88 448.385C338.069 449.198 340.007 450.512 341.634 452.326C343.26 454.139 344.073 456.579 344.073 459.643C344.135 463.146 342.885 466.211 340.383 468.775Z" fill="#FFB552"/>
<path opacity="0.15" d="M312.473 431.718C324.306 424.319 330.943 413.596 327.299 407.767C323.654 401.939 311.108 403.212 299.275 410.611C287.443 418.01 280.805 428.733 284.45 434.561C288.094 440.39 300.641 439.117 312.473 431.718Z" fill="white"/>
<path d="M420.688 387.218C419.25 381.776 417.436 376.272 413.808 371.957C410.181 367.641 404.427 364.764 398.923 366.015C393.982 367.141 390.167 371.456 388.478 376.272C386.789 381.088 386.789 386.279 387.227 391.345C388.478 405.981 392.794 420.178 398.548 433.688C404.302 447.198 411.432 460.019 418.624 472.778L426.88 470.777C427.443 442.757 427.943 414.299 420.688 387.218Z" fill="#05CD99"/>
<path d="M400.175 371.956C410.37 403.166 417.75 435.314 422.253 467.774" stroke="#33896E" stroke-width="0.8998" stroke-miterlimit="10" stroke-linecap="round" stroke-linejoin="round"/>
<path d="M432.949 470.527C432.761 467.838 442.518 343.687 476.605 352.881C510.692 362.075 443.081 470.527 443.081 470.527H432.949Z" fill="#05CD99"/>
<path d="M469.85 361.262C459.03 395.724 448.21 430.186 437.39 464.71" stroke="#33896E" stroke-width="0.8998" stroke-miterlimit="10" stroke-linecap="round" stroke-linejoin="round"/>
<path d="M425.63 470.527C425.63 470.527 404.365 380.776 429.446 378.087C454.526 375.397 434.824 470.527 434.824 470.527H425.63Z" fill="#93D8C3"/>
<path d="M429.384 383.779C430.885 411.799 430.76 439.881 429.009 467.901" stroke="#33896E" stroke-width="0.8998" stroke-miterlimit="10" stroke-linecap="round" stroke-linejoin="round"/>
<path d="M452.774 509.679H412.308L405.49 466.273H459.591L452.774 509.679Z" fill="#6265CE"/>
<path d="M462.093 460.145H402.926V470.589H462.093V460.145Z" fill="#A9B3FF"/>
<path d="M542.156 343.937C542.093 344.187 542.031 344.438 541.968 344.688L494.059 496.796L486.054 522.189C484.803 526.129 480.55 528.381 476.61 527.13C472.794 525.941 470.605 521.939 471.543 518.123L477.485 494.357L516.7 337.62C518.452 330.615 525.582 326.3 532.587 328.114C539.654 329.802 543.907 336.932 542.156 343.937Z" fill="#EFAD9C"/>
<path d="M494.059 496.796L486.054 522.189C484.803 526.129 480.55 528.38 476.61 527.13C472.794 525.941 470.605 521.938 471.543 518.123L477.485 494.356C482.989 495.67 488.493 496.483 494.059 496.796Z" fill="white"/>
<path d="M489.744 533.009H439.958C439.958 533.009 439.833 531.758 440.271 530.069C441.022 527.13 443.461 523.002 451.029 522.689C462.912 522.189 470.855 518.498 470.855 518.498C478.236 519.687 487.492 518.498 487.492 518.498C491.37 525.879 489.744 533.009 489.744 533.009Z" fill="#162A45"/>
<path d="M470.857 518.499C470.857 518.499 469.919 510.305 472.545 509.242C475.172 508.179 476.673 519.061 476.673 519.061C476.673 519.061 473.484 519.812 470.857 518.499Z" fill="#162A45"/>
<path d="M459.911 524.628C459.535 523.502 458.91 522.377 458.034 521.376C457.847 521.188 457.596 521.001 457.284 520.938C456.971 520.875 456.596 520.876 456.346 521.063C455.845 521.313 455.47 521.939 455.908 522.439C456.346 522.939 456.721 523.502 457.034 524.065C457.221 524.441 457.409 524.816 457.534 525.254C457.722 525.754 458.41 526.129 459.035 525.942C459.66 525.691 460.036 525.191 459.911 524.628Z" fill="#FFB552"/>
<path d="M464.226 523.877C463.851 522.752 463.225 521.626 462.35 520.625C462.162 520.437 461.912 520.25 461.599 520.187C461.286 520.125 460.911 520.125 460.661 520.312C460.161 520.562 459.785 521.188 460.223 521.688C460.661 522.189 461.036 522.752 461.349 523.314C461.537 523.69 461.724 524.065 461.849 524.503C462.037 525.003 462.725 525.378 463.35 525.191C464.038 524.941 464.414 524.44 464.226 523.877Z" fill="#FFB552"/>
<path d="M468.604 523.189C468.229 522.063 467.603 520.937 466.728 519.937C466.54 519.749 466.29 519.561 465.977 519.499C465.664 519.436 465.289 519.436 465.039 519.624C464.538 519.874 464.163 520.499 464.601 521C465.039 521.5 465.414 522.063 465.727 522.626C465.914 523.001 466.102 523.376 466.227 523.814C466.415 524.315 467.103 524.69 467.728 524.502C468.416 524.252 468.791 523.689 468.604 523.189Z" fill="#FFB552"/>
<path d="M439.958 533.01H489.744C489.744 533.01 489.994 531.884 490.056 530.07H440.271C439.833 531.759 439.958 533.01 439.958 533.01Z" fill="#FFB552"/>
<path d="M560.92 506.991C558.168 508.742 554.665 508.366 552.351 506.365C551.976 506.052 551.601 505.677 551.288 505.239L535.402 483.912L495.373 430.186C494.372 428.873 493.81 427.309 493.622 425.745L493.497 424.995L484.115 342.186C483.302 334.806 488.618 328.114 495.999 327.301C503.379 326.487 510.071 331.804 510.884 339.184C510.947 339.497 510.947 339.809 510.947 340.122L514.512 420.929L548.723 474.593L563.109 497.109C563.421 497.609 563.672 498.172 563.859 498.735C564.86 501.674 563.734 505.177 560.92 506.991Z" fill="#EFAD9C"/>
<path d="M563.859 498.61C563.546 499.235 563.233 499.798 562.796 500.361C561.607 501.987 559.919 503.113 558.23 504.239C556.541 505.365 554.727 506.491 552.726 506.366C552.601 506.366 552.476 506.366 552.351 506.303C551.975 505.99 551.6 505.615 551.288 505.177L535.401 483.85C540.28 481.348 544.783 478.158 548.786 474.468L563.171 496.984C563.421 497.547 563.671 498.11 563.859 498.61Z" fill="white"/>
<path d="M516.465 424.615L508.714 448.271L509.13 448.407L516.881 424.751L516.465 424.615Z" fill="#AD6253"/>
<path d="M494.622 427.246L494.247 427.121L500.501 400.79L500.877 400.915L494.622 427.246Z" fill="#AD6253"/>
<path d="M570.801 501.487L531.335 531.758C531.335 531.758 530.46 530.82 529.834 529.194C528.646 526.38 528.02 521.626 533.837 516.81C542.969 509.18 547.034 501.424 547.034 501.424C553.601 497.859 560.231 491.292 560.231 491.292C567.799 494.795 570.801 501.487 570.801 501.487Z" fill="#162A45"/>
<path d="M547.033 501.424C547.033 501.424 541.967 494.92 543.656 492.668C545.345 490.416 552.35 498.86 552.35 498.86C552.35 498.86 549.91 501.174 547.033 501.424Z" fill="#162A45"/>
<path d="M542.03 512.933C541.03 512.245 539.841 511.745 538.591 511.495C538.278 511.432 538.028 511.432 537.715 511.557C537.465 511.682 537.152 511.933 537.027 512.245C536.777 512.808 536.902 513.496 537.527 513.621C538.215 513.746 538.778 513.934 539.404 514.184C539.779 514.372 540.154 514.559 540.467 514.81C540.905 515.122 541.718 514.935 542.093 514.434C542.531 513.934 542.531 513.246 542.03 512.933Z" fill="#FFB552"/>
<path d="M545.095 509.68C544.094 508.992 542.906 508.492 541.655 508.242C541.342 508.179 541.092 508.179 540.779 508.304C540.529 508.43 540.216 508.68 540.091 508.992C539.841 509.555 539.966 510.243 540.592 510.368C541.28 510.493 541.843 510.681 542.468 510.931C542.843 511.119 543.219 511.307 543.531 511.557C543.969 511.869 544.782 511.682 545.157 511.181C545.533 510.681 545.533 510.056 545.095 509.68Z" fill="#FFB552"/>
<path d="M548.096 506.49C547.095 505.802 545.907 505.302 544.656 505.051C544.343 504.989 544.093 504.989 543.78 505.114C543.53 505.239 543.217 505.489 543.092 505.802C542.842 506.365 542.967 507.053 543.593 507.178C544.281 507.303 544.844 507.491 545.469 507.741C545.844 507.929 546.22 508.116 546.532 508.366C546.97 508.679 547.783 508.491 548.158 507.991C548.534 507.428 548.534 506.803 548.096 506.49Z" fill="#FFB552"/>
<path d="M531.334 531.758L570.799 501.487C570.799 501.487 570.299 500.424 569.236 498.922L529.77 529.194C530.458 530.82 531.334 531.758 531.334 531.758Z" fill="#FFB552"/>
<path d="M483.054 322.86L481.803 349.378L483.054 404.855C495.25 406.669 521.331 402.041 521.331 402.041L519.392 322.86H483.054Z" fill="#D35D57"/>
<path d="M546.724 322.11L546.974 344.063C547.036 347.003 546.724 349.942 546.098 352.819L534.778 407.295C514.138 408.109 493.123 402.104 493.123 402.104L509.51 322.923L546.724 322.11Z" fill="#D35D57"/>
<path d="M509.822 343.625C509.697 343.625 509.635 343.563 509.635 343.437V319.108C509.635 318.983 509.697 318.92 509.822 318.92C509.947 318.92 510.01 318.983 510.01 319.108V343.437C510.01 343.563 509.947 343.625 509.822 343.625Z" fill="#B03C36"/>
<path d="M509.822 339.748C507.695 339.748 505.944 337.997 505.944 335.87V320.046C505.944 319.921 506.007 319.859 506.132 319.859C506.257 319.859 506.319 319.921 506.319 320.046V335.87C506.319 337.809 507.883 339.372 509.822 339.372C509.947 339.372 510.01 339.435 510.01 339.56C510.01 339.623 509.947 339.748 509.822 339.748Z" fill="#B03C36"/>
<path d="M541.343 333.805H541.281C533.462 329.74 534.964 320.046 535.026 319.983C535.026 319.858 535.151 319.796 535.276 319.796C535.401 319.796 535.464 319.921 535.464 320.046C535.464 320.171 533.963 329.552 541.531 333.493C541.656 333.555 541.656 333.68 541.593 333.743C541.468 333.805 541.406 333.805 541.343 333.805Z" fill="#B03C36"/>
<path d="M484.304 333.806C484.241 333.806 484.179 333.806 484.179 333.743C484.116 333.681 484.116 333.556 484.179 333.493C488.181 330.116 487.681 320.984 487.681 320.859C487.681 320.734 487.744 320.671 487.869 320.671C487.994 320.671 488.056 320.734 488.056 320.859C488.056 321.234 488.557 330.303 484.429 333.806C484.366 333.806 484.304 333.806 484.304 333.806Z" fill="#B03C36"/>
<path d="M509.823 346.877C509.76 346.877 509.697 346.815 509.635 346.752C509.572 346.627 509.635 346.564 509.76 346.502C516.515 343.562 523.958 342.124 532.526 342.124C532.651 342.124 532.714 342.124 532.839 342.124C532.964 342.124 533.026 342.186 533.026 342.311C533.026 342.436 532.964 342.499 532.839 342.499C532.714 342.499 532.651 342.499 532.526 342.499C524.02 342.499 516.577 343.937 509.885 346.814C509.885 346.877 509.885 346.877 509.823 346.877Z" fill="#B03C36"/>
<path d="M495.249 402.167C495.187 402.167 495.187 402.167 495.249 402.167C495.062 402.104 494.999 402.042 495.062 401.917L509.697 346.628C509.697 346.502 509.822 346.44 509.947 346.502C510.072 346.502 510.135 346.628 510.072 346.753L495.437 402.042C495.374 402.104 495.312 402.167 495.249 402.167Z" fill="#B03C36"/>
<path d="M438.523 224.603C435.208 222.789 433.394 218.849 434.395 215.034C435.583 210.468 440.211 207.716 444.777 208.904L488.808 220.225C493.374 221.413 496.126 226.042 494.938 230.607C493.749 235.173 489.121 237.925 484.555 236.737L440.524 225.416C439.836 225.166 439.148 224.916 438.523 224.603Z" fill="#EFAD9C"/>
<path d="M491.748 217.348L458.725 209.53C450.97 225.479 451.908 234.235 451.908 234.235L490.435 243.366L491.748 217.348Z" fill="#162A45"/>
<path d="M486.056 241.865L481.865 329.364C503.443 332.679 525.646 332.679 547.099 329.239L545.285 261.316L536.091 223.477L510.323 219.536L491.81 217.347L486.056 241.865Z" fill="#162A45"/>
<path d="M408.876 171.691C407.062 169.001 402.934 166.875 402.434 164.686C401.934 162.497 400.683 156.367 401.934 155.054C403.185 153.74 414.568 150.801 416.131 152.552C417.695 154.303 418.07 166.312 418.07 166.312L408.876 171.691Z" fill="#EFAD9C"/>
<path d="M434.143 220.286L408.812 171.689C407.436 169 408.437 165.685 411.127 164.247C413.628 162.933 416.693 163.746 418.257 166.06L448.778 211.593C451.405 215.533 450.342 220.849 446.464 223.476C442.524 226.103 437.208 225.04 434.581 221.162C434.456 220.849 434.331 220.537 434.143 220.286Z" fill="#EFAD9C"/>
<g filter="url(#filter0_d_1_590)">
<path d="M412.067 120.279H323.192C321.503 120.279 320.127 121.655 320.127 123.344V160.308C320.127 161.996 321.503 163.372 323.192 163.372H412.067C413.756 163.372 415.132 161.996 415.132 160.308V123.344C415.132 121.655 413.756 120.279 412.067 120.279Z" fill="white"/>
</g>
<path d="M341.976 142.982H337.128V136.622L331.128 126.974H336.576L339.552 132.374L342.48 126.974H347.928L341.976 136.622V142.982Z" fill="#5F5CEC"/>
<path d="M363.968 140.966C362.304 142.502 360.224 143.27 357.728 143.27C355.232 143.27 353.144 142.502 351.464 140.966C349.8 139.414 348.968 137.422 348.968 134.99C348.968 132.558 349.8 130.574 351.464 129.038C353.144 127.486 355.232 126.71 357.728 126.71C360.224 126.71 362.304 127.486 363.968 129.038C365.648 130.574 366.488 132.558 366.488 134.99C366.488 137.422 365.648 139.414 363.968 140.966ZM354.944 137.846C355.664 138.614 356.592 138.998 357.728 138.998C358.864 138.998 359.784 138.614 360.488 137.846C361.208 137.078 361.568 136.126 361.568 134.99C361.568 133.854 361.208 132.902 360.488 132.134C359.784 131.366 358.864 130.982 357.728 130.982C356.592 130.982 355.664 131.366 354.944 132.134C354.24 132.902 353.888 133.854 353.888 134.99C353.888 136.126 354.24 137.078 354.944 137.846Z" fill="#5F5CEC"/>
<path d="M385.447 142.982H379.543L375.943 137.342L375.055 138.542V142.982H370.207V126.974H375.055V132.974L379.255 126.974H385.183L379.135 134.414L385.447 142.982Z" fill="#5F5CEC"/>
<path d="M401.484 140.966C399.82 142.502 397.74 143.27 395.244 143.27C392.748 143.27 390.66 142.502 388.98 140.966C387.316 139.414 386.484 137.422 386.484 134.99C386.484 132.558 387.316 130.574 388.98 129.038C390.66 127.486 392.748 126.71 395.244 126.71C397.74 126.71 399.82 127.486 401.484 129.038C403.164 130.574 404.004 132.558 404.004 134.99C404.004 137.422 403.164 139.414 401.484 140.966ZM392.46 137.846C393.18 138.614 394.108 138.998 395.244 138.998C396.38 138.998 397.3 138.614 398.004 137.846C398.724 137.078 399.084 136.126 399.084 134.99C399.084 133.854 398.724 132.902 398.004 132.134C397.3 131.366 396.38 130.982 395.244 130.982C394.108 130.982 393.18 131.366 392.46 132.134C391.756 132.902 391.404 133.854 391.404 134.99C391.404 136.126 391.756 137.078 392.46 137.846Z" fill="#5F5CEC"/>
<path d="M341.557 156.942H339.698V149.896H337.163V148.271H344.079V149.896H341.557V156.942Z" fill="#9298B8"/>
<path d="M357.282 156.942H355.163L353.46 153.861H352.108V156.942H350.262V148.271H354.318C355.211 148.271 355.917 148.531 356.437 149.051C356.966 149.571 357.23 150.242 357.23 151.066C357.23 151.776 357.044 152.353 356.671 152.795C356.307 153.237 355.861 153.518 355.332 153.64L357.282 156.942ZM354.045 152.236C354.426 152.236 354.738 152.132 354.981 151.924C355.224 151.707 355.345 151.421 355.345 151.066C355.345 150.71 355.224 150.429 354.981 150.221C354.738 150.004 354.426 149.896 354.045 149.896H352.108V152.236H354.045Z" fill="#9298B8"/>
<path d="M371.702 156.942H369.596L369.063 155.473H365.345L364.799 156.942H362.693L366.047 148.271H368.361L371.702 156.942ZM368.556 153.848L367.204 150.117L365.852 153.848H368.556Z" fill="#9298B8"/>
<path d="M380.921 156.942H377.502V148.271H380.921C382.282 148.271 383.387 148.669 384.236 149.467C385.094 150.264 385.523 151.313 385.523 152.613C385.523 153.913 385.099 154.961 384.249 155.759C383.4 156.547 382.291 156.942 380.921 156.942ZM380.921 155.317C381.753 155.317 382.412 155.057 382.897 154.537C383.391 154.017 383.638 153.375 383.638 152.613C383.638 151.815 383.4 151.165 382.923 150.663C382.447 150.151 381.779 149.896 380.921 149.896H379.348V155.317H380.921Z" fill="#9298B8"/>
<path d="M397.969 156.942H391.833V148.271H397.969V149.896H393.679V151.729H397.878V153.354H393.679V155.317H397.969V156.942Z" fill="#9298B8"/>
<path d="M418.759 166.75C417.383 162.371 418.509 157.993 417.633 156.43C416.758 154.866 411.879 148.049 410.441 148.674C409.002 149.3 412.129 156.054 412.129 156.054C409.878 158.181 409.002 165.436 410.941 167.5C412.943 169.564 418.759 166.75 418.759 166.75Z" fill="#EFAD9C"/>
<path d="M519.894 203.4L521.145 221.412C521.145 221.412 510.888 226.541 504.07 222.538L504.32 208.841L519.894 203.4Z" fill="#EFAD9C"/>
<path d="M504.132 217.786C513.138 217.035 516.328 212.094 516.328 212.094L504.195 212.97L504.132 217.786Z" fill="#AD6253"/>
<path d="M523.146 221.475L510.199 219.536L501.881 218.535C501.505 231.482 520.269 231.294 523.146 221.475Z" fill="#EFAD9C"/>
<path d="M532.653 178.132C531.339 175.568 528.65 173.629 525.773 173.816C525.335 171.252 523.646 168.938 521.395 167.687C519.143 166.436 516.329 166.186 513.889 167.124C511.575 165.436 509.011 164.06 506.196 163.434C503.382 162.809 500.317 163.121 497.94 164.685C495.564 166.249 493.938 169.126 494.375 172.003C492.249 173.942 490.81 176.631 490.435 179.445C490.06 182.26 490.873 186.325 494.813 189.828L496.189 189.64C504.32 195.832 512.889 201.586 521.457 207.09C524.709 204.776 527.399 201.586 529.15 197.959C530.901 194.331 531.84 190.266 531.652 186.2C533.528 184.011 533.966 180.696 532.653 178.132Z" fill="#162A45"/>
<path d="M503.756 172.628C520.706 172.065 528.774 180.946 525.897 196.457C523.645 208.779 515.702 215.909 503.881 214.845C493.061 213.907 492.061 204.838 492.811 195.582C493.874 182.322 493.749 172.941 503.756 172.628Z" fill="#EFAD9C"/>
<path d="M493.813 181.322C496.815 182.76 500.443 183.01 503.633 181.947C503.195 182.447 503.32 183.26 503.82 183.761C504.321 184.261 505.009 184.449 505.634 184.574C508.636 185.137 511.763 185.012 514.703 184.074C514.703 185.7 516.329 187.076 517.955 186.888C517.33 189.828 517.705 193.017 519.081 195.707C520.457 198.396 522.709 200.648 525.461 201.899C526.399 198.209 527.274 194.456 527.337 190.641C527.4 186.826 526.586 182.885 524.46 179.758C522.834 177.381 520.457 175.505 517.83 174.254C515.203 173.003 512.389 172.315 509.512 171.94C506.009 171.502 502.382 171.565 499.255 173.128C496.065 174.567 493.5 177.819 493.813 181.322Z" fill="#162A45"/>
<path d="M493.814 189.203C493.814 189.203 498.067 188.89 500.631 189.578C499.443 187.514 495.565 188.077 493.814 189.203Z" fill="#162A45"/>
<path d="M514.141 191.079C514.141 191.079 510.013 189.953 507.386 190.203C508.95 188.389 512.64 189.703 514.141 191.079Z" fill="#162A45"/>
<path d="M498.754 195.894C498.691 196.707 498.066 197.332 497.378 197.27C496.69 197.207 496.189 196.457 496.314 195.644C496.377 194.831 497.002 194.205 497.69 194.268C498.316 194.33 498.816 195.081 498.754 195.894Z" fill="#162A45"/>
<path d="M497.566 195.206C497.566 195.456 497.378 195.644 497.128 195.644C496.94 195.644 496.753 195.394 496.815 195.144C496.815 194.893 497.003 194.706 497.253 194.706C497.441 194.706 497.566 194.956 497.566 195.206Z" fill="white"/>
<path d="M510.575 196.958C510.512 197.771 509.887 198.396 509.199 198.334C508.511 198.271 508.011 197.521 508.136 196.708C508.198 195.894 508.824 195.269 509.512 195.332C510.137 195.457 510.637 196.145 510.575 196.958Z" fill="#162A45"/>
<path d="M509.387 196.332C509.387 196.582 509.199 196.77 508.949 196.77C508.761 196.77 508.574 196.52 508.636 196.27C508.636 196.019 508.824 195.832 509.074 195.832C509.262 195.832 509.387 196.082 509.387 196.332Z" fill="white"/>
<path d="M501.632 201.773H501.57C500.882 201.586 500.381 201.21 500.194 200.772C500.069 200.522 500.006 200.084 500.256 199.522C500.381 199.209 500.694 198.834 501.007 198.396C501.257 198.02 501.57 197.645 501.695 197.395C501.757 197.207 502.008 197.145 502.195 197.207C502.383 197.27 502.445 197.52 502.383 197.708C502.258 198.021 501.945 198.458 501.632 198.834C501.382 199.209 501.069 199.584 500.944 199.834C500.819 200.084 500.819 200.272 500.882 200.397C501.007 200.647 501.319 200.835 501.757 200.96C501.945 201.023 502.07 201.21 502.007 201.46C502.007 201.648 501.82 201.773 501.632 201.773Z" fill="#AD6253"/>
<path d="M498.504 203.4C501.194 203.838 504.008 203.963 506.948 203.9C505.134 207.09 499.192 205.964 498.504 203.4Z" fill="white"/>
<path d="M522.895 198.521C521.707 200.898 522.145 203.337 523.896 204.213C525.585 205.088 527.961 203.9 529.212 201.523C530.4 199.147 530.025 196.52 528.336 195.644C526.585 194.768 524.146 196.144 522.895 198.521Z" fill="#EFAD9C"/>
<path d="M524.334 201.836C524.146 201.836 524.021 201.711 524.021 201.524C523.959 201.336 524.084 201.086 524.272 201.023C524.709 200.898 525.147 200.585 525.21 200.085C525.21 199.897 525.21 199.71 525.147 199.46C525.085 199.209 525.022 198.959 525.022 198.709C525.022 198.209 525.272 197.708 525.71 197.333C526.21 196.895 526.836 196.708 527.399 196.833C528.337 197.083 528.712 198.021 528.65 198.834C528.65 199.022 528.462 199.209 528.212 199.209C528.024 199.209 527.837 199.022 527.837 198.772C527.899 198.271 527.649 197.708 527.149 197.583C526.773 197.521 526.398 197.708 526.148 197.896C525.898 198.084 525.773 198.396 525.773 198.709C525.773 198.897 525.835 199.022 525.898 199.209C525.96 199.46 526.085 199.772 526.023 200.148C525.898 200.961 525.147 201.524 524.522 201.711C524.397 201.836 524.397 201.836 524.334 201.836Z" fill="#AD6253"/>
<path d="M573.49 292.401L540.967 340.185C539.279 342.687 535.839 343.375 533.337 341.624C530.96 339.998 530.272 336.933 531.586 334.494L558.918 283.583C561.169 279.392 566.36 277.829 570.488 280.08C574.679 282.332 576.242 287.523 573.991 291.651C573.803 291.901 573.616 292.151 573.49 292.401Z" fill="#EFAD9C"/>
<path d="M566.799 295.591C563.672 295.591 560.607 293.84 559.106 290.838L533.65 239.364C531.586 235.111 533.275 229.982 537.528 227.918C541.781 225.854 546.91 227.543 548.974 231.796L574.429 283.27C576.493 287.523 574.805 292.652 570.552 294.716C569.363 295.341 568.05 295.591 566.799 295.591Z" fill="#EFAD9C"/>
<path d="M550.911 230.795C549.097 227.355 545.845 224.978 542.03 224.415L536.026 223.477L529.083 233.859L544.532 273.45C544.532 273.45 562.544 268.071 566.797 261.129L550.911 230.795Z" fill="#162A45"/>
<path d="M537.027 330.553C537.027 330.553 522.955 333.743 520.516 335.181C518.076 336.682 506.256 345.689 506.631 346.627C507.006 347.565 516.826 341.436 516.826 341.436C516.826 341.436 507.256 348.691 507.757 349.879C508.257 351.068 518.202 344.188 518.202 344.188C518.202 344.188 509.883 350.192 510.509 351.38C511.134 352.569 519.39 346.94 519.39 346.94C519.39 346.94 512.823 352.006 513.386 353.006C513.886 353.945 523.58 347.503 523.58 347.503C523.58 347.503 534.901 348.128 540.53 340.873C546.096 333.618 537.027 330.553 537.027 330.553Z" fill="#EFAD9C"/>
<path d="M544.972 261.065C544.909 261.065 544.847 261.003 544.784 260.94C544.722 260.815 538.592 246.242 536.716 240.426C536.653 240.301 536.716 240.238 536.841 240.176C536.966 240.113 537.029 240.176 537.091 240.301C538.905 246.18 545.034 260.69 545.097 260.815C545.159 260.94 545.097 261.003 544.972 261.065C545.034 261.065 544.972 261.065 544.972 261.065Z" fill="#4D52A8"/>
<path d="M486.116 244.617C485.991 244.617 485.929 244.492 485.929 244.429C486.241 237.674 486.617 232.733 486.992 229.794C486.992 229.669 487.117 229.606 487.242 229.606C487.367 229.606 487.43 229.731 487.43 229.856C486.992 232.733 486.617 237.674 486.366 244.429C486.304 244.492 486.179 244.617 486.116 244.617Z" fill="#4D52A8"/>
<path d="M486.116 241.551C486.054 241.551 486.054 241.551 485.991 241.489C485.741 241.301 479.299 236.923 478.799 232.858C478.799 232.733 478.861 232.67 478.986 232.67C479.111 232.67 479.174 232.733 479.174 232.858C479.612 236.735 486.116 241.176 486.179 241.239C486.241 241.301 486.304 241.426 486.242 241.489C486.242 241.489 486.179 241.551 486.116 241.551Z" fill="#4D52A8"/>
<defs>
<filter id="filter0_d_1_590" x="300.127" y="120.279" width="135.005" height="88.093" filterUnits="userSpaceOnUse" color-interpolation-filters="sRGB">
<feFlood flood-opacity="0" result="BackgroundImageFix"/>
<feColorMatrix in="SourceAlpha" type="matrix" values="0 0 0 0 0 0 0 0 0 0 0 0 0 0 0 0 0 0 127 0" result="hardAlpha"/>
<feOffset dy="25"/>
<feGaussianBlur stdDeviation="10"/>
<feComposite in2="hardAlpha" operator="out"/>
<feColorMatrix type="matrix" values="0 0 0 0 0.0773437 0 0 0 0 0.09675 0 0 0 0 0.5625 0 0 0 0.15 0"/>
<feBlend mode="normal" in2="BackgroundImageFix" result="effect1_dropShadow_1_590"/>
<feBlend mode="normal" in="SourceGraphic" in2="effect1_dropShadow_1_590" result="shape"/>
</filter>
</defs>
</svg>
