<svg width="21" height="20" viewBox="0 0 21 20" fill="none" xmlns="http://www.w3.org/2000/svg">
<path d="M16.609 8.16675H4.9423C4.02183 8.16675 3.27563 8.91294 3.27563 9.83341V14.8334C3.27563 15.7539 4.02183 16.5001 4.9423 16.5001H16.609C17.5294 16.5001 18.2756 15.7539 18.2756 14.8334V9.83341C18.2756 8.91294 17.5294 8.16675 16.609 8.16675Z" stroke="#CFCEF9" stroke-width="1.5" stroke-linecap="round" stroke-linejoin="round"/>
<path d="M10.7763 4.83333C11.6968 4.83333 12.443 4.08714 12.443 3.16667C12.443 2.24619 11.6968 1.5 10.7763 1.5C9.85581 1.5 9.10962 2.24619 9.10962 3.16667C9.10962 4.08714 9.85581 4.83333 10.7763 4.83333Z" stroke="#CFCEF9" stroke-width="1.5" stroke-linecap="round" stroke-linejoin="round"/>
<path d="M7.44295 13.1667C7.90319 13.1667 8.27629 12.7936 8.27629 12.3333C8.27629 11.8731 7.90319 11.5 7.44295 11.5C6.98272 11.5 6.60962 11.8731 6.60962 12.3333C6.60962 12.7936 6.98272 13.1667 7.44295 13.1667Z" stroke="#CFCEF9" stroke-width="1.5" stroke-linecap="round" stroke-linejoin="round"/>
<path d="M14.109 13.1667C14.5692 13.1667 14.9423 12.7936 14.9423 12.3333C14.9423 11.8731 14.5692 11.5 14.109 11.5C13.6487 11.5 13.2756 11.8731 13.2756 12.3333C13.2756 12.7936 13.6487 13.1667 14.109 13.1667Z" stroke="#CFCEF9" stroke-width="1.5" stroke-linecap="round" stroke-linejoin="round"/>
<path d="M10.7756 4.83325V8.16658" stroke="#CFCEF9" stroke-width="1.5" stroke-linecap="round" stroke-linejoin="round"/>
</svg>
