<svg width="25" height="24" viewBox="0 0 25 24" fill="none" xmlns="http://www.w3.org/2000/svg">
<path fill-rule="evenodd" clip-rule="evenodd" d="M2.5 5C2.5 4.44772 2.94772 4 3.5 4H21.57C22.1223 4 22.57 4.44772 22.57 5C22.57 5.55228 22.1223 6 21.57 6H3.5C2.94772 6 2.5 5.55228 2.5 5Z" fill="#5F5CEC"/>
<path fill-rule="evenodd" clip-rule="evenodd" d="M2.5 12C2.5 11.4477 2.94772 11 3.5 11H21.57C22.1223 11 22.57 11.4477 22.57 12C22.57 12.5523 22.1223 13 21.57 13H3.5C2.94772 13 2.5 12.5523 2.5 12Z" fill="#5F5CEC"/>
<path fill-rule="evenodd" clip-rule="evenodd" d="M2.5 19C2.5 18.4477 2.94772 18 3.5 18H21.57C22.1223 18 22.57 18.4477 22.57 19C22.57 19.5523 22.1223 20 21.57 20H3.5C2.94772 20 2.5 19.5523 2.5 19Z" fill="#5F5CEC"/>
</svg>
