<svg width="23" height="20" viewBox="0 0 23 20" fill="none" xmlns="http://www.w3.org/2000/svg">
<path d="M4.11701 7.90983C4.55843 6.37042 5.47586 5.01028 6.73781 4.02433C7.99976 3.03839 9.54146 2.47726 11.1419 2.42137C12.7424 2.36548 14.3195 2.8177 15.6471 3.71321C16.9748 4.60873 17.9849 5.90157 18.5326 7.40643" stroke="#CFCEF9" stroke-width="1.5" stroke-linecap="round" stroke-linejoin="round"/>
<path d="M18.3937 12.9481C17.8232 14.3001 16.8728 15.4575 15.6575 16.2801C14.4423 17.1026 13.0145 17.5549 11.5473 17.5821C10.0802 17.6093 8.63661 17.2102 7.39174 16.4332C6.14688 15.6563 5.15417 14.5348 4.53401 13.2049" stroke="#CFCEF9" stroke-width="1.5" stroke-linecap="round" stroke-linejoin="round"/>
<path d="M6.2619 12.4458L4.12278 12.763L3.09307 14.6646" stroke="#CFCEF9" stroke-width="2" stroke-linecap="round" stroke-linejoin="round"/>
<path d="M16.6112 8.10828L18.7503 7.79106L19.78 5.88944" stroke="#CFCEF9" stroke-width="2" stroke-linecap="round" stroke-linejoin="round"/>
</svg>
