<svg width="20" height="21" viewBox="0 0 20 21" fill="none" xmlns="http://www.w3.org/2000/svg">
<path d="M14.1663 17.6748V16.0081C14.1663 15.1241 13.8152 14.2762 13.19 13.6511C12.5649 13.026 11.7171 12.6748 10.833 12.6748H4.16634C3.28229 12.6748 2.43444 13.026 1.80932 13.6511C1.1842 14.2762 0.833008 15.1241 0.833008 16.0081V17.6748" stroke="#CFCEF9" stroke-width="1.5" stroke-linecap="round" stroke-linejoin="round"/>
<path d="M7.50033 9.34147C9.34127 9.34147 10.8337 7.84909 10.8337 6.00814C10.8337 4.16719 9.34127 2.6748 7.50033 2.6748C5.65938 2.6748 4.16699 4.16719 4.16699 6.00814C4.16699 7.84909 5.65938 9.34147 7.50033 9.34147Z" stroke="#CFCEF9" stroke-width="1.5" stroke-linecap="round" stroke-linejoin="round"/>
<path d="M19.167 17.6749V16.0082C19.1664 15.2696 18.9206 14.5522 18.4681 13.9685C18.0156 13.3848 17.3821 12.9678 16.667 12.7832" stroke="#CFCEF9" stroke-width="1.5" stroke-linecap="round" stroke-linejoin="round"/>
<path d="M13.333 2.7832C14.05 2.96679 14.6855 3.38379 15.1394 3.96846C15.5932 4.55314 15.8395 5.27223 15.8395 6.01237C15.8395 6.75251 15.5932 7.4716 15.1394 8.05628C14.6855 8.64095 14.05 9.05795 13.333 9.24154" stroke="#CFCEF9" stroke-width="1.5" stroke-linecap="round" stroke-linejoin="round"/>
</svg>
