<svg width="74" height="32" viewBox="0 0 74 32" fill="none" xmlns="http://www.w3.org/2000/svg">
<path d="M11.4088 17.126H6.56079V10.766L0.560791 1.118H6.00879L8.98479 6.518L11.9128 1.118H17.3608L11.4088 10.766V17.126Z" fill="#5F5CEC"/>
<path d="M33.4014 15.11C31.7374 16.646 29.6574 17.414 27.1614 17.414C24.6654 17.414 22.5774 16.646 20.8974 15.11C19.2334 13.558 18.4014 11.566 18.4014 9.134C18.4014 6.702 19.2334 4.718 20.8974 3.182C22.5774 1.63 24.6654 0.854004 27.1614 0.854004C29.6574 0.854004 31.7374 1.63 33.4014 3.182C35.0814 4.718 35.9214 6.702 35.9214 9.134C35.9214 11.566 35.0814 13.558 33.4014 15.11ZM24.3774 11.99C25.0974 12.758 26.0254 13.142 27.1614 13.142C28.2974 13.142 29.2174 12.758 29.9214 11.99C30.6414 11.222 31.0014 10.27 31.0014 9.134C31.0014 7.998 30.6414 7.046 29.9214 6.278C29.2174 5.51 28.2974 5.126 27.1614 5.126C26.0254 5.126 25.0974 5.51 24.3774 6.278C23.6734 7.046 23.3214 7.998 23.3214 9.134C23.3214 10.27 23.6734 11.222 24.3774 11.99Z" fill="#5F5CEC"/>
<path d="M54.8804 17.126H48.9764L45.3764 11.486L44.4884 12.686V17.126H39.6404V1.118H44.4884V7.118L48.6884 1.118H54.6164L48.5684 8.558L54.8804 17.126Z" fill="#5F5CEC"/>
<path d="M70.917 15.11C69.253 16.646 67.173 17.414 64.677 17.414C62.181 17.414 60.093 16.646 58.413 15.11C56.749 13.558 55.917 11.566 55.917 9.134C55.917 6.702 56.749 4.718 58.413 3.182C60.093 1.63 62.181 0.854004 64.677 0.854004C67.173 0.854004 69.253 1.63 70.917 3.182C72.597 4.718 73.437 6.702 73.437 9.134C73.437 11.566 72.597 13.558 70.917 15.11ZM61.893 11.99C62.613 12.758 63.541 13.142 64.677 13.142C65.813 13.142 66.733 12.758 67.437 11.99C68.157 11.222 68.517 10.27 68.517 9.134C68.517 7.998 68.157 7.046 67.437 6.278C66.733 5.51 65.813 5.126 64.677 5.126C63.541 5.126 62.613 5.51 61.893 6.278C61.189 7.046 60.837 7.998 60.837 9.134C60.837 10.27 61.189 11.222 61.893 11.99Z" fill="#5F5CEC"/>
<path d="M10.9899 31.0851H9.13095V24.0391H6.59595V22.4141H13.5119V24.0391H10.9899V31.0851Z" fill="#9298B8"/>
<path d="M26.7154 31.0851H24.5964L22.8934 28.0041H21.5414V31.0851H19.6954V22.4141H23.7514C24.644 22.4141 25.3504 22.6741 25.8704 23.1941C26.399 23.7141 26.6634 24.3857 26.6634 25.2091C26.6634 25.9197 26.477 26.4961 26.1044 26.9381C25.7404 27.3801 25.294 27.6617 24.7654 27.7831L26.7154 31.0851ZM23.4784 26.3791C23.8597 26.3791 24.1717 26.2751 24.4144 26.0671C24.657 25.8504 24.7784 25.5644 24.7784 25.2091C24.7784 24.8537 24.657 24.5721 24.4144 24.3641C24.1717 24.1474 23.8597 24.0391 23.4784 24.0391H21.5414V26.3791H23.4784Z" fill="#9298B8"/>
<path d="M41.1349 31.0851H39.0289L38.4959 29.6161H34.7779L34.2319 31.0851H32.1259L35.4799 22.4141H37.7939L41.1349 31.0851ZM37.9889 27.9911L36.6369 24.2601L35.2849 27.9911H37.9889Z" fill="#9298B8"/>
<path d="M50.3546 31.0851H46.9356V22.4141H50.3546C51.7153 22.4141 52.8203 22.8127 53.6696 23.6101C54.5276 24.4074 54.9566 25.4561 54.9566 26.7561C54.9566 28.0561 54.5319 29.1047 53.6826 29.9021C52.8333 30.6907 51.7239 31.0851 50.3546 31.0851ZM50.3546 29.4601C51.1866 29.4601 51.8453 29.2001 52.3306 28.6801C52.8246 28.1601 53.0716 27.5187 53.0716 26.7561C53.0716 25.9587 52.8333 25.3087 52.3566 24.8061C51.8799 24.2947 51.2126 24.0391 50.3546 24.0391H48.7816V29.4601H50.3546Z" fill="#9298B8"/>
<path d="M67.4026 31.0851H61.2666V22.4141H67.4026V24.0391H63.1126V25.8721H67.3116V27.4971H63.1126V29.4601H67.4026V31.0851Z" fill="#9298B8"/>
</svg>
