<svg width="100" height="101" viewBox="0 0 100 101" fill="none" xmlns="http://www.w3.org/2000/svg">
<circle cx="50" cy="50.1184" r="50" fill="#F4F7FE"/>
<path d="M77.7193 67.2312C77.7193 68.8535 77.7193 70.4902 77.7193 72.1125C77.5165 72.605 77.3717 73.1409 77.0965 73.59C76.2129 75.0529 74.8368 75.5454 73.1856 75.5454C57.7158 75.5309 42.2461 75.5454 26.7908 75.5309C26.5156 75.5309 26.2549 75.5164 25.9797 75.502C23.8359 75.3281 22.2571 73.6189 22.2281 71.4752C22.2136 70.4033 22.2281 69.3459 22.2281 68.2741C22.2281 66.4635 22.6771 65.9565 24.5022 65.7537C24.5312 65.7537 24.5602 65.7247 24.676 65.6813C24.676 65.464 24.676 65.2178 24.676 64.9715C24.676 54.6584 24.676 44.3307 24.676 34.0176C24.676 33.7134 24.676 33.4092 24.705 33.0905C24.7919 31.9318 25.2989 30.9902 26.1969 30.2515C27.0805 29.5128 28.1234 29.339 29.2387 29.339C38.4945 29.3535 47.7358 29.339 56.9916 29.339C57.3102 29.339 57.6289 29.2521 57.9331 29.1652C58.6863 28.9334 58.976 28.2816 59.2802 27.6443C59.9465 26.2682 60.6418 25.8047 62.1627 25.9785C63.0897 26.0799 63.8284 25.8481 64.5816 25.3122C65.7404 24.4721 66.624 24.5011 67.8262 25.2977C68 25.4136 68.1738 25.5874 68.3766 25.6454C68.8256 25.7902 69.2892 25.9061 69.7527 25.993C70.0134 26.0364 70.2886 25.964 70.5638 25.9495C71.6791 25.8916 72.5482 26.3406 72.9683 27.3546C73.4028 28.412 74.0981 29.1072 75.141 29.5128C75.8363 29.788 76.3432 30.3529 76.4591 31.1206C76.5315 31.5551 76.5171 32.0187 76.4736 32.4677C76.4012 33.1919 76.5605 33.8003 76.9951 34.3942C77.3137 34.8142 77.5165 35.3357 77.7772 35.7992C77.7772 36.0889 77.7772 36.3786 77.7772 36.6683C77.5165 37.1608 77.3137 37.6967 76.9806 38.1312C76.5605 38.7106 76.3867 39.3045 76.4736 39.9998C76.5171 40.3764 76.5026 40.753 76.4881 41.1296C76.4591 41.7379 76.1839 42.2594 75.7059 42.607C75.4017 42.8243 75.3293 43.085 75.3293 43.4327C75.3293 50.6751 75.3293 57.9174 75.3293 65.1453C75.3293 65.3336 75.3438 65.522 75.3583 65.7827C76.5316 65.6378 77.2992 66.1738 77.7193 67.2312ZM55.8618 30.9758C55.6735 30.9758 55.4707 30.9758 55.2824 30.9758C46.5336 30.9758 37.7993 30.9758 29.0504 30.9758C27.2254 30.9758 26.2839 31.9173 26.2839 33.7568C26.2839 44.2148 26.2839 54.6729 26.2839 65.1453C26.2839 65.3336 26.2839 65.5364 26.2839 65.7537C26.8488 65.7537 27.3412 65.7537 27.9061 65.7537C27.9061 65.4785 27.9061 65.2178 27.9061 64.9715C27.9061 54.8901 27.9061 44.8087 27.9061 34.7273C27.9061 33.0905 28.3841 32.6125 30.0499 32.6125C35.4527 32.6125 40.8555 32.6125 46.2584 32.6125C46.4612 32.6125 46.6639 32.6125 46.8522 32.6415C47.2723 32.6994 47.4896 32.9602 47.5185 33.3802C47.533 33.8148 47.3302 34.119 46.8957 34.2059C46.6639 34.2493 46.4322 34.2493 46.2004 34.2493C40.8845 34.2493 35.5831 34.2493 30.2672 34.2493C30.0354 34.2493 29.8181 34.2493 29.5574 34.2493C29.5574 34.51 29.5574 34.6694 29.5574 34.8287C29.5574 44.9681 29.5574 55.1074 29.5429 65.2323C29.5429 65.6813 29.6733 65.8116 30.1223 65.8116C34.6416 65.7972 39.1608 65.7972 43.6801 65.7972C43.8973 65.7972 44.1146 65.7972 44.3319 65.8116C45.2299 65.8986 45.9107 66.5504 46.0121 67.4484C46.0556 67.883 46.0701 68.3175 46.0411 68.7521C46.0121 69.259 46.1715 69.4473 46.7074 69.4473C48.6773 69.4184 50.6473 69.4328 52.6172 69.4328C53.9643 69.4328 53.9643 69.4328 53.9643 68.0858C53.9643 66.4924 54.6595 65.8116 56.2384 65.8116C60.7142 65.8116 65.2045 65.8116 69.6802 65.8116C69.912 65.8116 70.1438 65.8116 70.4045 65.8116C70.4045 59.3659 70.4045 52.9926 70.4045 46.5903C69.6658 46.5614 68.9995 46.431 68.3332 46.88C66.4501 48.1837 65.9866 48.1547 64.0457 46.8945C63.756 46.7062 63.3939 46.5614 63.0607 46.5469C62.2351 46.5034 61.395 46.5324 60.5548 46.5324C60.4534 53.065 54.6161 57.8305 48.3731 56.8456C42.2461 55.8751 38.2773 49.8205 39.8271 43.8093C41.3915 37.6967 48.2573 33.9741 54.7464 37.0159C54.4423 35.973 54.8768 35.1474 55.4997 34.2783C55.1665 34.2783 54.9637 34.2783 54.7754 34.2783C53.5297 34.2783 52.284 34.2783 51.0383 34.2783C50.8645 34.2783 50.6762 34.2783 50.5024 34.2493C50.0244 34.1769 49.7492 33.8582 49.7637 33.4092C49.7927 32.9457 50.0968 32.656 50.6473 32.656C52.1971 32.6415 53.7615 32.656 55.3114 32.656C55.4997 32.656 55.7024 32.656 55.9197 32.656C55.8618 32.0476 55.8618 31.5696 55.8618 30.9758ZM49.9665 73.9086C57.6434 73.9086 65.3203 73.9086 72.9973 73.9086C73.2435 73.9086 73.5042 73.9086 73.7505 73.8942C75.141 73.7783 76.068 72.7933 76.0825 71.3883C76.097 70.3599 76.0825 69.3315 76.0825 68.303C76.0825 67.405 76.0825 67.405 75.1555 67.405C71.3605 67.405 67.5655 67.405 63.7705 67.405C61.4529 67.405 59.1498 67.405 56.8323 67.405C55.5286 67.405 55.5286 67.405 55.5286 68.6796C55.5286 68.8969 55.5286 69.1142 55.4997 69.3315C55.3983 70.2874 54.6595 71.0117 53.7035 71.0262C51.1977 71.0407 48.6773 71.0407 46.1715 71.0262C45.2299 71.0117 44.4912 70.3019 44.3898 69.3749C44.3464 68.9838 44.3609 68.5782 44.3609 68.1871C44.3609 67.405 44.3609 67.405 43.5787 67.405C38.1469 67.405 32.7006 67.405 27.2688 67.405C26.2983 67.405 25.3134 67.405 24.3429 67.405C24.0097 67.405 23.7925 67.4774 23.807 67.883C23.8214 69.1142 23.7925 70.3454 23.8214 71.5621C23.8504 72.6195 24.6036 73.5755 25.6176 73.8072C25.9942 73.8942 26.3997 73.9086 26.8053 73.9086C34.5402 73.9086 42.2606 73.9086 49.9665 73.9086ZM74.8803 32.1635C75.141 31.4538 74.5761 30.9178 73.6056 30.5702C72.5772 30.1936 72.0413 29.3535 71.6212 28.3975C71.2591 27.5718 71.1142 27.456 70.2596 27.5863C68.9995 27.7746 67.9131 27.456 66.9137 26.6883C66.2474 26.1813 66.0301 26.1813 65.3638 26.6883C64.3788 27.4415 63.3214 27.7746 62.0757 27.5863C61.1632 27.456 61.0184 27.5573 60.6707 28.3975C60.2072 29.5273 59.4395 30.3095 58.2952 30.773C57.4406 31.1206 57.3392 31.3234 57.4841 32.2359C57.6434 33.3513 57.4116 34.3362 56.7309 35.2488C56.0211 36.2048 56.0211 36.3062 56.7309 37.2477C57.3972 38.1457 57.6434 39.1017 57.4986 40.2026C57.3537 41.202 57.4406 41.3324 58.3532 41.7524C59.425 42.2449 60.2217 42.9836 60.6562 44.07C60.917 44.7363 61.337 45.0405 62.0613 44.9246C63.3069 44.7218 64.4223 45.0115 65.3928 45.8371C65.8852 46.2572 66.3922 46.2717 66.8992 45.8516C67.8552 45.055 68.9415 44.7218 70.1727 44.9246C70.9404 45.055 71.4184 44.7218 71.6791 44.0121C72.0847 42.9402 72.8379 42.2304 73.8953 41.7814C74.8513 41.3758 74.8948 41.2889 74.7934 40.2605C74.6775 39.1597 74.8658 38.1602 75.5611 37.2477C76.2708 36.3062 76.2563 36.2192 75.5611 35.2633C74.9817 34.4376 74.634 33.5685 74.8803 32.1635ZM56.7598 52.0801C58.469 50.1971 59.1933 47.2277 58.6863 44.6639C58.5415 43.9107 58.2373 43.4327 57.4986 43.114C56.1515 42.5346 55.7024 41.709 55.8618 40.275C55.9052 39.8694 55.7749 39.6521 55.4852 39.4204C53.4428 37.856 51.1542 37.2477 48.6194 37.6243C42.0578 38.5803 38.8422 46.3586 42.811 51.6745C42.9124 51.8049 43.0283 51.9352 43.1731 52.109C43.796 50.3564 44.8968 49.0817 46.4032 48.1402C45.6645 46.9525 45.7804 45.6923 45.8383 44.4611C45.9397 42.2739 47.7503 40.5936 49.9375 40.5792C52.1537 40.5647 53.9932 42.2449 54.1091 44.4321C54.1815 45.7068 54.2684 46.9959 53.5442 48.1692C55.0941 49.0817 56.137 50.3854 56.7598 52.0801ZM49.952 55.3102C51.835 55.2812 53.5442 54.7598 55.0796 53.6734C55.2969 53.5141 55.4562 53.3692 55.3693 53.065C54.9492 51.5297 54.0801 50.3419 52.6896 49.5452C52.5448 49.4583 52.2695 49.4728 52.1247 49.5597C50.6907 50.3419 49.2712 50.3419 47.8372 49.5742C47.6634 49.4873 47.3447 49.4873 47.1709 49.5887C45.8528 50.3564 45.0127 51.5152 44.5926 52.9781C44.5057 53.2823 44.5781 53.4706 44.8389 53.6589C46.3742 54.7453 48.0834 55.2812 49.952 55.3102ZM73.6056 44.0121C73.5767 43.9976 73.5477 43.9976 73.5187 43.9831C73.3739 44.2583 73.2435 44.548 73.0842 44.8232C72.8669 45.1853 72.6641 45.5909 72.3744 45.8951C72.1137 46.1558 72.0268 46.402 72.0268 46.7497C72.0268 52.8912 72.0268 59.0328 72.0268 65.1598C72.0268 65.3481 72.0413 65.5364 72.0558 65.7247C72.6062 65.7247 73.0987 65.7247 73.6056 65.7247C73.6056 58.4679 73.6056 51.24 73.6056 44.0121ZM52.5158 45.3447C52.5013 45.3447 52.4868 45.3447 52.4723 45.3447C52.4723 45.0694 52.4868 44.8087 52.4723 44.5335C52.3709 43.1864 51.3136 42.187 49.981 42.1725C48.6194 42.158 47.5185 43.1719 47.4461 44.5335C47.4171 45.0839 47.4171 45.6488 47.4461 46.2137C47.533 47.4594 48.518 48.4154 49.7782 48.5023C51.0239 48.5892 52.1682 47.7781 52.4289 46.5759C52.5158 46.1848 52.4868 45.7647 52.5158 45.3447Z" fill="#5F5CEC"/>
<path d="M49.9953 58.7288C53.0227 58.7288 56.0645 58.7288 59.0918 58.7288C60.5692 58.7288 61.2935 59.453 61.308 60.916C61.308 61.2781 61.308 61.6402 61.308 62.0023C61.2935 63.3929 60.5547 64.1461 59.1642 64.1461C56.8466 64.1606 54.5436 64.1461 52.226 64.1461C51.1831 64.1461 50.1257 64.1461 49.0828 64.1461C48.6048 64.1461 48.2137 64.0012 48.1123 63.4798C48.0109 62.9293 48.373 62.5383 48.9959 62.5238C50.2126 62.5093 51.4149 62.5238 52.6316 62.5238C54.7608 62.5238 56.8901 62.5093 59.0194 62.5383C59.4974 62.5383 59.7291 62.4079 59.6857 61.8864C59.6567 61.5243 59.6712 61.1622 59.6857 60.8001C59.6857 60.4814 59.5408 60.3366 59.2221 60.3511C58.9904 60.3655 58.7586 60.3511 58.5124 60.3511C52.675 60.3511 46.8377 60.3511 41.0148 60.3511C40.2326 60.3511 40.2181 60.3511 40.2326 61.1332C40.2471 62.7266 40.0153 62.5093 41.5942 62.5238C42.695 62.5383 43.7959 62.5238 44.8967 62.5238C45.534 62.5238 45.9106 62.8424 45.9106 63.3349C45.9106 63.8274 45.534 64.1461 44.8967 64.1461C43.4627 64.1606 42.0432 64.175 40.6092 64.1461C39.3345 64.1171 38.6103 63.3639 38.5958 62.0892C38.5813 61.6547 38.5813 61.2201 38.5958 60.7856C38.6248 59.482 39.3635 58.7432 40.6671 58.7288C43.7814 58.7288 46.8956 58.7288 49.9953 58.7288Z" fill="#5F5CEC"/>
<path d="M63.9435 38.6673C65.7686 36.8422 67.5212 35.0751 69.2884 33.3224C69.665 32.9458 70.0271 32.5692 70.4037 32.2216C70.8093 31.8305 71.2583 31.8015 71.6059 32.1347C71.9536 32.4678 71.9681 32.9458 71.577 33.3369C69.3753 35.5531 67.1736 37.7692 64.9574 39.9564C64.378 40.5358 63.6103 40.5213 63.0165 39.9564C62.2488 39.2177 61.4956 38.4645 60.7568 37.6968C60.3947 37.3347 60.3947 36.8567 60.6989 36.538C61.0321 36.1904 61.5101 36.1759 61.9011 36.567C62.5819 37.2333 63.2482 37.9431 63.9435 38.6673Z" fill="#5F5CEC"/>
</svg>
