<svg width="51" height="51" viewBox="0 0 51 51" fill="none" xmlns="http://www.w3.org/2000/svg">
<path d="M21.6989 0.0722656C22.1557 0.0722656 22.6124 0.0722656 23.0692 0.0722656C24.2176 0.372456 25.2746 0.816216 26.0054 1.75594C26.4491 1.39049 26.8145 0.985889 27.2713 0.737906C27.7802 0.450767 28.3674 0.294146 28.9286 0.0853182C29.3853 0.0853182 29.8421 0.0853182 30.2988 0.0853182C30.338 0.111422 30.3771 0.150577 30.4293 0.150577C32.0606 0.424664 33.3134 1.29913 34.2138 2.65651C34.3835 2.91755 34.5401 2.9306 34.8141 2.86534C37.5807 2.18665 39.9558 3.43962 40.778 6.03692C40.9346 6.51983 40.9998 7.0419 41.1042 7.56397C43.2575 7.7728 44.9931 8.69948 46.0502 10.6442C47.0811 12.5367 47.1072 14.5206 46.4939 16.5566C46.6896 16.648 46.8593 16.7133 47.0159 16.7785C48.8298 17.5747 50.0695 18.906 50.6829 20.7854C50.8134 21.2031 50.8917 21.6338 50.9961 22.0514C50.9961 22.5735 50.9961 23.0956 50.9961 23.6176C50.9439 23.8265 50.9047 24.0222 50.8525 24.2311C50.5263 25.7973 49.7694 27.1155 48.5166 28.1466C50.1478 29.6345 50.722 31.4487 50.2523 33.55C49.7825 35.6383 48.5558 37.1001 46.3895 37.6352C47.0681 40.4022 46.794 42.9473 44.5755 44.9181C42.3962 46.8498 39.8384 47.0064 37.1501 46.158C36.1322 48.5465 34.3574 49.9039 31.7996 50.0605C29.2287 50.2041 27.3104 49.0294 26.0185 46.7845C24.6874 49.0164 22.769 50.2041 20.1982 50.0605C17.6143 49.9169 15.8395 48.5465 14.8216 46.158C12.1072 47.0194 9.54939 46.8498 7.3831 44.9051C5.17765 42.9342 4.9297 40.3761 5.59525 37.6352C3.40286 37.1001 2.20226 35.6122 1.73246 33.5239C1.26266 31.4226 1.84991 29.6084 3.45505 28.1596C1.49756 26.4107 0.701511 24.2702 1.09301 21.7382C1.49756 19.1278 3.08966 17.4703 5.5039 16.5436C4.8775 14.4684 4.91665 12.4845 5.96065 10.592C7.03075 8.64727 8.77944 7.75975 10.8283 7.55092C11.0371 6.79392 11.1545 6.07607 11.4416 5.43654C12.3943 3.24384 14.6519 2.23886 17.1314 2.85229C17.4838 2.94365 17.6404 2.86534 17.8361 2.5782C18.0841 2.21275 18.3842 1.88646 18.6844 1.58627C19.5326 0.737906 20.5766 0.333301 21.6989 0.0722656ZM25.3138 39.7496C25.3138 39.5277 25.3138 39.4233 25.3138 39.332C25.3138 27.6637 25.3138 15.9954 25.3138 4.31409C25.3138 3.15248 24.6613 2.25191 23.5259 1.83425C22.0382 1.29913 20.3548 1.83425 19.2977 3.24384C19.0889 3.53098 18.9062 3.90948 18.8932 4.24883C18.8671 4.83616 18.9584 5.43654 19.0498 6.02387C19.1411 6.51983 18.9845 6.92444 18.58 7.06801C18.1754 7.21158 17.7448 7.0158 17.5882 6.53289C17.4577 6.15438 17.3533 5.74978 17.3011 5.35823C17.1836 4.37935 17.1967 4.36629 16.2049 4.26188C15.983 4.23578 15.7481 4.20967 15.5263 4.23578C13.634 4.3924 12.4204 5.89335 12.5248 7.94248C12.5639 8.8561 12.3943 9.05187 11.4547 9.07798C8.97519 9.14324 7.31785 10.4354 6.79585 12.7325C6.50875 13.9985 6.63925 15.2254 7.13515 16.4131C7.5136 17.3528 7.3831 17.653 6.3913 17.9271C3.61165 18.7232 2.11091 21.0725 2.67206 23.9048C3.05051 25.7712 4.02925 27.1808 6.03895 27.5854C6.69145 27.7159 7.357 27.7028 8.02254 27.7159C8.57064 27.7289 8.92299 27.99 8.93604 28.4468C8.96214 28.9166 8.63589 29.2821 8.10084 29.269C7.21345 29.2299 6.32605 29.1124 5.43865 29.0602C5.20375 29.0472 4.91665 29.0733 4.73395 29.1907C3.14186 30.261 2.69816 32.3101 3.5986 34.1896C4.08145 35.1945 4.83835 35.8863 5.9737 36.0821C6.2608 36.1343 6.45655 36.069 6.63925 35.821C7.18735 35.0379 7.90509 34.4245 8.74029 33.9546C9.28839 33.6544 9.73209 33.7197 9.98004 34.1504C10.228 34.5681 10.0583 34.9857 9.52329 35.312C8.04865 36.2256 7.10905 37.4525 6.87415 39.2275C6.50875 41.9815 8.08779 44.3438 10.8022 44.9442C12.1985 45.2574 13.5427 45.0225 14.8477 44.4613C15.5654 44.1481 15.9439 44.3438 16.1527 45.0878C16.4137 46.0145 16.8574 46.8367 17.6012 47.4632C20.159 49.6298 24.0088 48.3768 25.0267 45.0617C25.7575 42.6602 24.844 40.6632 22.5863 39.854C21.1247 39.332 19.6762 39.4103 18.2929 40.1542C18.2276 40.1934 18.1493 40.2325 18.0841 40.2717C17.6273 40.5066 17.1967 40.4022 16.9748 40.0237C16.753 39.6452 16.8835 39.1884 17.3011 38.9404C18.8149 38.0268 20.4461 37.7657 22.1818 38.1181C23.3432 38.3531 24.3481 38.9012 25.3138 39.7496ZM26.8928 17.2875C28.4327 17.2875 29.9334 17.2484 31.4211 17.3006C32.4782 17.3397 33.2873 16.7524 34.2138 16.4653C34.1877 16.2825 34.1616 16.1781 34.1486 16.0607C33.7701 13.4764 36.1583 11.2707 38.703 11.845C40.2951 12.2104 41.4827 13.4895 41.6393 15.0426C41.822 16.7263 40.9998 18.2142 39.5252 18.9321C38.0505 19.6369 36.3279 19.3367 35.1665 18.1359C34.9707 17.9271 34.8141 17.8488 34.5531 17.9923C33.1046 18.7754 31.5516 18.9712 29.9334 18.8537C29.0852 18.8015 28.2369 18.8407 27.3887 18.8407C27.2321 18.8407 27.0755 18.8537 26.8928 18.8668C26.8928 20.4069 26.8928 21.9079 26.8928 23.4219C26.9972 23.4349 27.0755 23.448 27.1538 23.448C30.7556 23.448 34.3443 23.448 37.9461 23.461C38.2332 23.461 38.3246 23.3435 38.4029 23.0956C39.0423 21.2161 40.9215 20.1328 42.7877 20.5505C44.5755 20.9551 45.8414 22.5474 45.7892 24.3224C45.737 26.1888 44.3798 27.6898 42.4875 27.99C40.7519 28.2641 38.9901 27.1547 38.4159 25.4188C38.3115 25.0794 38.1549 25.0142 37.8287 25.0142C34.3313 25.0272 30.8339 25.0142 27.3235 25.0272C27.1799 25.0272 27.0364 25.0403 26.8406 25.0533C26.8406 25.8495 26.8406 26.6326 26.8406 27.4026C26.8406 28.1727 26.8406 28.9558 26.8406 29.7781C27.9237 29.7781 28.9416 29.8303 29.9595 29.765C31.5647 29.6606 33.1046 29.8564 34.5401 30.6264C34.775 30.7569 34.9185 30.7047 35.1143 30.509C36.0669 29.5301 37.2284 29.1385 38.5725 29.3865C40.3995 29.7259 41.7306 31.4095 41.6262 33.2498C41.5218 35.1815 40.0341 36.7216 38.168 36.8391C36.1974 36.9696 34.4879 35.7036 34.1616 33.8111C34.0703 33.2759 34.1486 32.7147 34.1486 32.1535C33.1046 31.7619 32.1389 31.2399 30.9644 31.3182C29.7638 31.3965 28.5501 31.3312 27.3496 31.3312C27.1799 31.3312 27.0103 31.3312 26.8406 31.3312C26.8406 34.1112 26.8406 36.7999 26.8406 39.5408C27.989 39.5408 29.1113 39.5277 30.2205 39.5538C30.5468 39.5538 30.7295 39.4886 30.8861 39.1623C31.3428 38.2356 32.3607 37.7135 33.3395 37.831C34.5662 37.9876 35.5188 38.9273 35.6102 40.089C35.7015 41.3289 34.9446 42.4383 33.7832 42.7515C32.5956 43.0778 31.4081 42.5427 30.8469 41.4072C30.7164 41.1461 30.5729 41.107 30.3249 41.107C29.2809 41.12 28.2369 41.107 27.193 41.107C27.0755 41.107 26.945 41.1331 26.8276 41.1461C26.8276 42.0989 26.7754 43.0126 26.8406 43.9131C26.932 45.2836 27.3887 46.5235 28.4718 47.4501C30.7556 49.434 34.8141 48.6901 35.7798 45.1269C36.0017 44.3308 36.354 44.2003 37.1109 44.4613C37.8548 44.7093 38.6247 44.9573 39.4077 45.0486C42.0308 45.3619 44.3798 43.7304 44.954 41.2506C45.2541 39.9193 45.0323 38.6402 44.5886 37.3742C44.2884 36.4997 44.5886 36.0821 45.489 36.1082C46.2851 36.1343 46.9506 35.8732 47.5248 35.3381C49.1299 33.8372 49.5606 30.4307 46.781 28.9297C46.4547 28.76 46.2068 28.5512 46.1937 28.1596C46.1937 27.755 46.4547 27.5332 46.794 27.3504C50.0434 25.6146 50.2914 20.7201 47.2116 18.7102C46.6374 18.3317 45.9588 18.1098 45.3063 17.8749C44.6408 17.6399 44.432 17.2875 44.706 16.6088C44.7843 16.4131 44.8757 16.2173 44.9409 16.0215C45.9197 13.1632 44.8235 9.39122 40.8302 9.09103C39.4338 8.98662 39.4338 8.96051 39.4208 7.56397C39.3947 5.73673 38.1549 4.31409 36.3932 4.23578C35.8059 4.20967 35.1926 4.36629 34.6314 4.53597C33.731 4.81005 33.5613 4.7709 33.1176 3.94864C32.4782 2.76093 31.5255 1.92562 30.1683 1.69068C28.4066 1.37744 26.7232 2.42158 26.8015 4.45766C26.8406 5.47569 26.8015 6.50678 26.8145 7.53787C26.8145 7.69449 26.8276 7.85111 26.8406 8.04689C27.7933 8.04689 28.6937 8.03384 29.6072 8.05994C29.9595 8.07299 30.1422 7.98163 30.3249 7.65534C31.1993 6.02387 33.4308 5.85419 34.527 7.30294C35.4014 8.45149 35.1404 10.1091 33.9398 10.9183C32.7 11.7536 31.0557 11.349 30.3119 10.0308C30.2205 9.87414 30.077 9.6392 29.9595 9.6392C28.9286 9.6131 27.8846 9.62615 26.8276 9.62615C26.8928 12.1712 26.8928 14.6902 26.8928 17.2875ZM42.0308 22.0384C40.791 22.0384 39.7862 23.0303 39.7862 24.2441C39.7992 25.4449 40.791 26.4368 42.0047 26.4368C43.2444 26.4368 44.2493 25.4449 44.2362 24.218C44.2362 23.0173 43.2575 22.0514 42.0308 22.0384ZM40.1124 15.5386C40.1255 14.3117 39.1598 13.3459 37.92 13.3329C36.6803 13.3198 35.7015 14.2726 35.6885 15.4994C35.6754 16.7263 36.6803 17.7574 37.907 17.7443C39.1206 17.7443 40.0994 16.7655 40.1124 15.5386ZM37.92 35.2859C39.1467 35.2729 40.1124 34.307 40.1124 33.0802C40.1124 31.8663 39.1337 30.8875 37.907 30.8744C36.6803 30.8744 35.6624 31.8924 35.6885 33.1193C35.7015 34.3201 36.6933 35.2859 37.92 35.2859ZM33.1829 39.3842C32.6739 39.3711 32.2433 39.7757 32.2302 40.2978C32.2172 40.846 32.6217 41.2767 33.1437 41.2897C33.6396 41.3028 34.0833 40.8851 34.1094 40.3761C34.1355 39.841 33.7049 39.3842 33.1829 39.3842ZM32.6217 7.87722C32.0867 7.86417 31.6691 8.24267 31.643 8.75168C31.6169 9.29986 32.0084 9.73057 32.5434 9.74362C33.0915 9.75667 33.5091 9.35207 33.5222 8.81694C33.5352 8.29487 33.1437 7.89027 32.6217 7.87722Z" fill="#5F5CEC"/>
</svg>
