<svg width="52" height="50" viewBox="0 0 52 50" fill="none" xmlns="http://www.w3.org/2000/svg">
<path d="M0.996094 23.4317C1.12652 22.5056 1.23087 21.5666 1.37434 20.6405C3.01774 10.6497 11.1434 2.35442 21.1082 0.476252C27.134 -0.658476 32.8468 0.228438 38.2204 3.20221C38.2856 3.24134 38.3639 3.28047 38.4422 3.30655C38.4682 3.3196 38.5074 3.30655 38.5726 3.29351C38.3639 2.75875 38.1422 2.23704 37.9465 1.71532C37.7378 1.18057 37.8943 0.750152 38.3378 0.580595C38.7813 0.411037 39.1725 0.606681 39.3943 1.15448C39.916 2.43268 40.4377 3.71088 40.9464 4.98908C41.2203 5.6934 40.9594 6.13685 40.216 6.2412C38.8987 6.4238 37.5813 6.61944 36.264 6.80204C36.1727 6.81508 36.0683 6.82812 35.9771 6.82812C35.4945 6.84117 35.1553 6.58031 35.1032 6.16294C35.038 5.74557 35.3379 5.35428 35.8205 5.27602C36.3292 5.19777 36.8509 5.13255 37.3596 5.0543C37.5813 5.02821 37.803 4.98908 38.0509 4.84561C37.3205 4.46737 36.6031 4.05 35.8597 3.71088C23.3646 -2.02798 8.70442 3.99782 4.00899 16.9233C1.26999 24.4751 2.28734 31.6617 6.76104 38.3527C6.87842 38.5223 7.00885 38.6918 7.1132 38.8744C7.32188 39.2527 7.2045 39.6831 6.86538 39.9048C6.52627 40.1265 6.08281 40.0613 5.82195 39.7092C5.43067 39.1744 5.05242 38.6266 4.70027 38.0527C2.58732 34.6225 1.37434 30.9052 1.07435 26.9011C1.06131 26.7446 1.02218 26.5881 0.996094 26.4315C0.996094 25.4533 0.996094 24.436 0.996094 23.4317Z" fill="#5F5CEC"/>
<path d="M24.4339 49.987C23.5861 49.8696 22.7253 49.7783 21.8775 49.6479C18.982 49.1653 16.256 48.2001 13.6996 46.7523C13.6344 46.7132 13.5561 46.6871 13.3866 46.5958C13.6344 47.1958 13.8431 47.7175 14.0387 48.2392C14.2474 48.774 14.1039 49.2044 13.6735 49.4C13.217 49.5957 12.8127 49.374 12.5779 48.8131C12.0693 47.548 11.5475 46.2828 11.0519 45.0176C10.765 44.2872 11.0258 43.8568 11.7954 43.7394C13.0996 43.5568 14.4039 43.3612 15.7082 43.1786C15.7865 43.1656 15.8647 43.1525 15.956 43.1525C16.4908 43.1134 16.856 43.3873 16.9082 43.8438C16.9473 44.2872 16.6343 44.6394 16.1125 44.7177C15.4082 44.822 14.7039 44.9263 13.9866 45.0176C13.9735 45.0568 13.9605 45.0959 13.9344 45.1481C14.8996 45.6307 15.8517 46.1524 16.8429 46.5697C28.8554 51.5782 42.4591 46.1654 47.5328 34.179C50.8196 26.3924 49.9718 18.8667 45.3416 11.7714C45.2503 11.6279 45.1329 11.4844 45.0286 11.3279C44.6764 10.8062 44.6895 10.3628 45.0938 10.0889C45.4851 9.80192 45.9677 9.9193 46.2937 10.428C46.985 11.5236 47.7415 12.6061 48.3154 13.7539C55.5933 28.3228 47.4545 45.6437 31.5944 49.3609C30.4075 49.6348 29.1815 49.7392 27.9815 49.9087C27.8381 49.9348 27.6946 49.9609 27.5511 50C26.5208 49.987 25.4773 49.987 24.4339 49.987Z" fill="#5F5CEC"/>
<path d="M26.0388 7.12807C35.8993 7.15416 43.9206 15.2146 43.8684 25.062C43.8163 34.9094 35.7819 42.8916 25.9606 42.8655C16.1002 42.8394 8.09187 34.7789 8.131 24.9316C8.17013 15.0842 16.2045 7.08894 26.0388 7.12807ZM26.0258 8.68017C17.0523 8.65409 9.72223 15.9581 9.6831 24.9446C9.65702 33.9181 16.948 41.2612 25.9345 41.2873C34.921 41.3265 42.2903 33.9964 42.3033 24.9968C42.3163 16.0363 35.0123 8.70626 26.0258 8.68017Z" fill="#5F5CEC"/>
<path d="M40.1375 25.01C40.1244 32.7835 33.7595 39.1354 25.999 39.1354C18.2124 39.1354 11.8214 32.7314 11.8605 24.9578C11.8997 17.1712 18.2646 10.8324 26.0251 10.8585C33.8117 10.8846 40.1505 17.2495 40.1375 25.01ZM20.4297 36.2529C21.9427 36.9964 23.5078 37.4268 25.1903 37.5181C25.2686 36.8659 24.9947 35.966 25.999 35.966C27.0033 35.966 26.7163 36.892 26.7946 37.5181C28.5032 37.4268 30.0684 36.9964 31.5683 36.2268C31.4118 35.966 31.2813 35.7573 31.177 35.5356C30.9683 35.1182 31.0857 34.6878 31.4379 34.4661C31.8161 34.2313 32.2465 34.3487 32.5335 34.766C32.6769 34.9747 32.7943 35.1965 32.9378 35.4312C34.3464 34.4791 35.5072 33.3313 36.4333 31.9357C35.9507 31.5314 35.0116 31.3749 35.4681 30.501C35.9768 29.5228 36.655 30.3315 37.255 30.5141C37.9854 29.0011 38.4288 27.449 38.5071 25.7404C38.2071 25.7404 37.9723 25.7534 37.7245 25.7404C37.2419 25.7143 36.9028 25.3752 36.9159 24.9448C36.9289 24.5274 37.255 24.2144 37.7245 24.1883C37.9723 24.1752 38.2332 24.1883 38.5071 24.1883C38.4158 22.4536 37.9723 20.9015 37.2419 19.4146C36.042 19.9494 35.6898 19.9754 35.4551 19.4798C35.0247 18.5407 35.9246 18.4103 36.4202 17.9929C35.4811 16.5973 34.3334 15.4365 32.9378 14.5105C32.5335 15.0192 32.3509 15.9322 31.49 15.4626C30.5509 14.9539 31.3205 14.3018 31.5422 13.6888C30.0292 12.9453 28.4771 12.5149 26.7816 12.4236C26.6903 13.0627 26.9772 13.9757 25.9729 13.9757C24.9686 13.9757 25.2555 13.0627 25.1642 12.4106C23.4687 12.528 21.8905 12.9323 20.3906 13.7018C20.534 13.9496 20.6514 14.1453 20.7558 14.3409C20.9905 14.7844 20.8992 15.2278 20.521 15.4496C20.1297 15.6843 19.6993 15.5539 19.3993 15.1105C19.2689 14.9148 19.1515 14.7061 19.0211 14.4844C17.6124 15.4365 16.4647 16.5843 15.5256 17.9799C16.0342 18.3842 16.9864 18.5668 16.4777 19.4537C15.969 20.3406 15.3299 19.6233 14.7169 19.3755C13.9735 20.8884 13.53 22.4536 13.4518 24.1622C13.7517 24.1622 13.9996 24.1492 14.2343 24.1622C14.7039 24.1883 15.0169 24.5013 15.0299 24.9187C15.043 25.3621 14.7039 25.6882 14.2213 25.7143C13.9735 25.7273 13.7126 25.7143 13.4387 25.7143C13.5561 27.449 13.9735 29.0141 14.7169 30.501C15.3169 30.2663 15.9429 29.5489 16.4516 30.3836C17.0125 31.2966 16.0212 31.4792 15.5256 31.8966C16.4647 33.2792 17.6124 34.44 19.008 35.366C19.4254 34.8965 19.5689 33.9443 20.521 34.4139C21.0166 34.7269 20.9775 35.1182 20.4297 36.2529Z" fill="#5F5CEC"/>
<path d="M26.7818 19.3754C26.7818 20.2884 26.7949 21.2014 26.7818 22.1014C26.7818 22.3622 26.847 22.4927 27.0949 22.61C28.1644 23.1187 28.7122 24.0839 28.6078 25.2577C28.5817 25.5316 28.6861 25.636 28.8817 25.7403C29.8339 26.2751 30.7729 26.8229 31.712 27.3707C32.2729 27.6968 32.4424 28.1402 32.1946 28.5576C31.9598 28.9619 31.4903 29.0271 30.9555 28.7271C30.0165 28.1924 29.0643 27.6446 28.1252 27.0968C27.9166 26.9664 27.76 26.9272 27.5253 27.0968C26.2079 28.0098 24.5124 27.6315 23.7298 26.2751C22.9603 24.9317 23.4689 23.3013 24.9037 22.61C25.1776 22.4796 25.2297 22.3231 25.2297 22.0492C25.2167 20.2493 25.2297 18.4363 25.2167 16.6364C25.2167 16.193 25.3602 15.8669 25.8036 15.7365C26.3123 15.5799 26.7688 15.9712 26.7818 16.5842C26.7818 17.5233 26.7818 18.4494 26.7818 19.3754ZM25.9993 26.0534C26.5601 26.0534 27.0557 25.5708 27.0557 24.9969C27.0688 24.41 26.5471 23.9013 25.9732 23.9274C25.3993 23.9404 24.9297 24.436 24.9297 24.9969C24.9428 25.5708 25.4254 26.0534 25.9993 26.0534Z" fill="#5F5CEC"/>
</svg>
