<svg width="50" height="51" viewBox="0 0 50 51" fill="none" xmlns="http://www.w3.org/2000/svg">
<path d="M11.1599 50.0594C10.3982 50.0594 9.85595 49.8786 9.49448 49.5042C9.133 49.1298 8.95226 48.5876 8.96517 47.8259C8.96517 47.4774 8.96517 47.1288 8.95226 46.7932C8.93935 46.096 8.92644 45.386 9.0039 44.6759C8.65534 44.6759 8.31968 44.663 7.97111 44.663H7.28688C7.10615 44.663 6.9125 44.663 6.73176 44.663C6.125 44.663 5.6086 44.4694 5.24712 44.1079C4.89856 43.7464 4.71782 43.2429 4.71782 42.6362C4.71782 42.2747 4.71782 41.9132 4.70491 41.5517C4.692 40.8159 4.67909 40.0671 4.75655 39.3054C4.4338 39.3054 4.12396 39.3054 3.80121 39.3054H3.10408C2.89752 39.3054 2.69097 39.3054 2.49732 39.3054C1.14178 39.2925 0.367188 38.5308 0.367188 37.1882V36.8654C0.367188 36.0392 0.367188 35.1872 0.367188 34.3351C0.380097 33.1474 1.18051 32.347 2.35531 32.3212C2.70388 32.3212 3.05244 32.3212 3.40101 32.3212C3.67212 32.3212 3.95614 32.3212 4.22724 32.3212C4.39507 32.3212 4.57581 32.3212 4.74364 32.3212C4.65327 31.0431 4.692 29.7908 4.73073 28.6935C4.75655 27.7123 5.55696 26.9894 6.62848 26.9636C7.02869 26.9507 7.44181 26.9507 7.90656 26.9507C8.3455 26.9507 8.82316 26.9507 9.42993 26.9636H9.49448C9.53321 26.9636 9.55903 26.9636 9.58485 26.9636C9.58485 26.9377 9.58485 26.8861 9.58485 26.7957C9.49448 25.4918 9.50739 24.3041 9.59776 23.1939C9.59776 23.181 9.59776 23.1681 9.59776 23.1551C9.21046 23.1551 8.83607 23.1681 8.44878 23.1681C8.10021 23.1681 7.76455 23.1681 7.41598 23.1551C6.17663 23.1422 5.40204 22.3676 5.38913 21.1412C5.37622 20.0439 5.37622 19.0756 5.38913 18.1848C5.40204 16.9971 6.20246 16.1967 7.39017 16.1967C7.75164 16.1967 8.11312 16.1967 8.4746 16.1967C8.84898 16.1967 9.22337 16.1967 9.58485 16.2096C9.46866 14.9445 9.50739 13.6535 9.55903 12.5561C9.61067 11.5621 10.3853 10.852 11.4955 10.8262C11.6246 10.8262 11.7666 10.8262 11.8957 10.8262C11.999 10.8262 12.1023 10.8262 12.2056 10.8262C12.3088 10.8262 12.4121 10.8262 12.5154 10.8262H13.1996C13.1738 9.53521 13.148 8.29586 13.2125 7.03069C13.1738 7.03069 13.148 7.04361 13.1092 7.04361C12.0635 7.0307 11.0049 7.03069 10.0238 7.03069H8.22931C8.02275 7.03069 7.79037 7.0307 7.5709 7.00488C6.6543 6.9016 5.94426 6.15282 5.93135 5.26204C5.90553 4.22925 5.90553 3.13191 5.93135 1.82801C5.94426 0.898498 6.60266 0.433742 7.24816 0.098085L7.31271 0.0722656H33.1325L33.1841 0.098085C34.1911 0.511201 34.6688 1.2987 34.6042 2.44768C34.5784 2.8608 34.5913 3.28683 34.5913 3.69994C34.6042 4.26798 34.6171 4.86183 34.5397 5.45569C34.5526 5.45569 34.5784 5.45569 34.6042 5.45569C35.2368 5.45569 35.8565 5.45569 36.4761 5.45569H38.077C38.2706 5.45569 38.4643 5.45569 38.6579 5.45569C38.8516 5.45569 39.0452 5.45569 39.226 5.45569C39.4712 5.45569 39.7165 5.45569 39.9618 5.45569C41.0462 5.48151 41.8338 6.26901 41.8467 7.35344C41.8596 8.38623 41.8596 9.44484 41.8467 10.5035C41.8338 11.5879 41.0204 12.3883 39.9102 12.4141C39.6133 12.4141 39.3034 12.427 39.0065 12.427C38.6966 12.427 38.4255 12.427 38.1673 12.4141C38.1673 12.427 38.1673 12.4399 38.1673 12.4528C38.1932 13.434 38.219 14.725 38.1803 16.0418C38.1544 17.0488 37.3282 17.7975 36.2179 17.8105C35.7016 17.8234 35.1722 17.8234 34.6688 17.8234C34.4493 17.8234 34.2298 17.8234 34.0104 17.8234C34.062 19.1273 34.0491 20.3408 33.9974 21.5414C33.9974 21.5672 33.9974 21.5931 33.9974 21.606C34.0104 21.606 34.062 21.606 34.062 21.606C34.4235 21.606 34.7979 21.5931 35.1722 21.5931C35.5337 21.5931 35.8823 21.5931 36.2438 21.606C37.4057 21.6189 38.1673 22.3806 38.1803 23.5424C38.1932 24.1105 38.1932 24.6914 38.1932 25.2465C38.1932 25.5047 38.1932 25.75 38.1932 26.0082V26.2793L36.6182 26.2664V25.9953V25.3627C36.6182 24.898 36.6182 24.4332 36.6182 23.9685C36.6182 23.6457 36.6052 23.3488 36.5278 23.2584C36.4374 23.181 36.1405 23.1681 35.8177 23.1681H11.9086H11.7279C11.6892 23.1681 11.6633 23.1681 11.6246 23.1681C11.1728 23.181 11.1082 23.2455 11.1082 23.6845C11.1082 24.3429 11.1082 25.0013 11.1082 25.6597V26.2923C11.1082 26.9765 11.1082 26.9765 11.7795 26.9765C15.5879 26.9765 19.3964 26.9765 23.2048 26.9765H31.2864C31.4413 26.9765 31.5833 26.9765 31.7253 26.9894C31.7899 26.9894 31.8544 26.9894 31.919 27.0023L32.8356 27.0281L30.3439 28.5515H27.0648C24.754 28.5515 22.4431 28.5515 20.1322 28.5515H14.2453C11.7795 28.5515 9.31374 28.5515 6.86086 28.5515C6.30574 28.5515 6.267 28.5902 6.267 29.1582C6.267 29.7908 6.267 30.4234 6.267 31.056V31.6111C6.267 31.8177 6.26701 32.1921 6.34446 32.2695C6.42192 32.347 6.79631 32.347 6.97705 32.347H27.0907L26.3677 33.9478H21.1134C15.0328 33.9478 8.93935 33.9478 2.85879 33.9478H2.38113C1.99383 33.9478 1.91637 33.9865 1.91637 34.4384C1.91637 35.1484 1.91637 35.8585 1.91637 36.5685V37.0978C1.91637 37.7304 1.92928 37.7433 2.57478 37.7433H25.6706L25.7997 39.3312H6.82213C6.29283 39.3312 6.267 39.3571 6.267 39.8735C6.267 40.7642 6.267 41.6421 6.267 42.5329C6.267 43.1009 6.30574 43.1267 6.87377 43.1267H26.9099L27.8265 44.6759L27.181 44.6888C27.0519 44.6888 26.9099 44.6888 26.7808 44.6888H19.9902C17.0339 44.6888 14.0904 44.6888 11.134 44.6888C10.5402 44.6888 10.5015 44.7276 10.5015 45.3214C10.5015 46.1606 10.5015 46.9997 10.5015 47.8259C10.5015 48.4843 10.5014 48.4844 11.1857 48.4844C11.1857 48.4844 27.3618 48.4844 31.8544 48.4844C31.9577 48.4844 32.061 48.4843 32.1642 48.4714C32.2159 48.4714 32.2675 48.4714 32.3192 48.4585H32.3708L32.4224 48.4844C33.6101 48.9362 34.8237 49.2848 36.0243 49.4913L35.9856 50.0335C35.921 50.0335 35.8565 50.0464 35.7919 50.0464C35.6499 50.0594 35.495 50.0723 35.3401 50.0723C29.8792 50.0723 24.4054 50.0723 18.9445 50.0723L11.1599 50.0594ZM31.8673 21.5801C32.4612 21.5801 32.4999 21.5156 32.4999 20.9863C32.4999 20.0697 32.5128 19.1789 32.4999 18.2881C32.4999 17.8492 32.4354 17.7846 31.9835 17.7846C28.0202 17.7846 24.0568 17.7846 20.0935 17.7846C15.8849 17.7846 11.6762 17.7846 7.45472 17.7846C7.0416 17.7846 6.98996 17.8492 6.97705 18.2623C6.97705 18.9336 6.97705 19.6178 6.97705 20.2892V20.9088C6.97705 21.5414 7.00287 21.5672 7.62254 21.5672H19.732L31.8673 21.5801ZM23.6437 12.4012C19.6417 12.4012 15.6396 12.4012 11.6504 12.4012C11.2631 12.4012 11.1599 12.4528 11.1599 12.9305C11.1599 13.6922 11.1599 14.441 11.1599 15.1897V15.577C11.1599 16.1709 11.1857 16.1967 11.7924 16.1967H30.0341C32.061 16.1967 34.1007 16.1967 36.1276 16.1967C36.6052 16.1967 36.6698 16.1322 36.6827 15.6803C36.6956 14.6088 36.6956 13.718 36.6827 12.8918C36.6827 12.4916 36.5923 12.4141 36.1921 12.4141C31.9964 12.4012 27.8136 12.4012 23.6437 12.4012ZM33.6102 10.8133C35.6499 10.8133 37.6897 10.8133 39.7294 10.8133C40.2587 10.8133 40.2846 10.7875 40.2846 10.2711C40.2846 9.47066 40.2846 8.67025 40.2846 7.88275V7.67619C40.2846 7.05651 40.2846 7.03069 39.6262 7.03069H24.315H15.433C14.8263 7.03069 14.8004 7.05652 14.8004 7.66328C14.8004 8.50242 14.8004 9.34157 14.8004 10.1678C14.8004 10.8262 14.8004 10.8262 15.4459 10.8262H27.5167L33.6102 10.8133ZM8.0873 1.64727C7.55799 1.64727 7.51927 1.71182 7.51927 2.18949C7.51927 2.93826 7.50636 3.93232 7.51927 4.93929C7.51927 5.36532 7.60964 5.44278 8.04857 5.45569C8.35841 5.45569 8.68115 5.45569 8.99099 5.45569C9.22337 5.45569 10.14 5.45569 10.3594 5.45569H32.3708C32.9905 5.45569 33.0292 5.41696 33.0292 4.79729C33.0292 3.95814 33.0292 3.119 33.0292 2.29277C33.0292 1.66018 33.0292 1.66018 32.3708 1.66018H14.0646C12.0635 1.64727 10.0754 1.64727 8.0873 1.64727Z" fill="#5F5CEC"/>
<path d="M37.1733 50.0594C36.8376 50.0594 36.4891 50.0464 36.0243 50.0335H35.9985H35.9727C34.7333 49.8141 33.494 49.4655 32.2675 48.9878L32.2159 48.962L32.1772 48.9233C32.0739 48.8071 31.919 48.7425 31.7641 48.6651C31.6866 48.6264 31.5962 48.5876 31.5059 48.536C29.8405 47.6065 28.4204 46.3026 27.1811 44.5339V44.521L26.5743 43.4882V43.4753C25.8255 41.8487 25.4253 40.4415 25.2962 39.0472L25.2188 37.9886V37.9757C25.2575 36.4782 25.5286 34.9935 26.0063 33.5476V33.5347L26.4839 32.4632V32.4503C27.0778 31.3787 27.6071 30.6042 28.1751 29.9328C28.6141 29.4164 29.1175 28.9646 29.5952 28.5386C29.7759 28.3707 29.9567 28.2158 30.1374 28.048L30.1632 28.0351L31.8415 27.0023L31.8544 26.9894C33.6747 26.1632 35.3272 25.7371 36.9409 25.6855L37.9866 25.6984H37.9995C42.9828 26.0857 46.5459 28.5386 48.5727 33.0054C50.109 36.362 49.967 40.2091 48.1854 43.5528C46.391 46.9352 43.241 49.246 39.5487 49.8657C38.8387 49.9948 38.0899 50.0594 37.1733 50.0594ZM37.4057 27.2863C31.5704 27.2863 26.8196 32.0242 26.8067 37.8595C26.7938 43.6948 31.5317 48.4585 37.3799 48.4714H37.4057C43.228 48.4714 47.9789 43.7335 47.9918 37.9112C48.0047 32.063 43.2668 27.2863 37.4315 27.2734H37.4057V27.2863Z" fill="#5F5CEC"/>
<path d="M37.4186 46.9868C32.3966 46.9868 28.2913 42.9073 28.2913 37.8983C28.2913 32.8634 32.3708 28.7581 37.3927 28.7581C42.4276 28.7581 46.52 32.8376 46.52 37.8595C46.52 40.2995 45.5776 42.5975 43.8606 44.3145C42.1436 46.0444 39.8585 46.9868 37.4186 46.9868ZM37.5606 30.3589C33.4294 30.3589 29.9825 33.5864 29.8921 37.5497C29.7888 41.9261 32.9905 45.3085 37.354 45.4247C37.4186 45.4247 37.4702 45.4247 37.5347 45.4247C41.511 45.4247 44.8288 42.1327 44.9321 38.0919C45.0354 33.9995 41.7563 30.4622 37.78 30.3589C37.7026 30.3589 37.6251 30.3589 37.5606 30.3589Z" fill="#5F5CEC"/>
<path d="M37.3928 43.2688C37.1604 43.2688 36.9409 43.1784 36.8118 43.0235C36.6956 42.8815 36.644 42.6878 36.6827 42.4942C36.7086 42.3522 36.6956 42.236 36.6569 42.1843C36.6053 42.1198 36.4762 42.0811 36.2438 42.0682C35.7145 42.0294 35.2239 41.8487 34.7721 41.655C34.2428 41.4356 34.0362 40.9837 34.2299 40.4931C34.3719 40.1446 34.6301 39.938 34.9915 39.938C35.1336 39.938 35.2756 39.9638 35.4305 40.0284C35.7532 40.1575 36.1922 40.3124 36.6569 40.364H36.6698C36.6698 40.364 36.6698 40.364 36.6698 40.3511C36.6569 39.7056 36.6569 39.1892 36.6698 38.6987C36.6698 38.6599 36.6698 38.647 36.6698 38.647C36.6698 38.647 36.644 38.6341 36.5666 38.6083C36.1405 38.4792 35.8178 38.3501 35.5467 38.2081C34.8495 37.8595 34.3848 37.2269 34.2686 36.4782C34.1524 35.7165 34.4235 34.9677 35.0045 34.4126C35.4176 34.0253 35.8565 33.78 36.3213 33.7155C36.5665 33.6767 36.644 33.6251 36.6698 33.5864C36.6956 33.5476 36.6956 33.4573 36.6698 33.3411C36.6569 33.2894 36.6569 33.2507 36.6698 33.2249C36.6956 32.773 36.9668 32.5019 37.3928 32.5019C37.6381 32.5019 37.8575 32.5923 37.9866 32.7472C38.1028 32.8892 38.1545 33.07 38.1157 33.2636C38.0899 33.4056 38.1028 33.5089 38.1286 33.5476C38.1932 33.6251 38.4385 33.6509 38.5676 33.6509C39.0065 33.6896 39.4067 33.8187 39.7166 33.9349C40.233 34.1286 40.4395 34.5546 40.2717 35.0323C40.1426 35.4066 39.8586 35.6261 39.51 35.6261C39.3938 35.6261 39.2776 35.6003 39.1614 35.5616C38.8387 35.4583 38.5159 35.3808 38.1803 35.3421C38.1545 35.3421 38.1416 35.3421 38.1286 35.3421C38.1286 35.355 38.1286 35.3679 38.1286 35.3937C38.1416 35.5874 38.1416 35.7939 38.1286 35.9876C38.1286 36.0651 38.1286 36.1554 38.1286 36.2329C38.1286 36.6718 38.1286 36.93 38.2061 37.0333C38.2836 37.1366 38.5159 37.2269 38.9162 37.3819C40.1297 37.8466 40.659 38.5567 40.6332 39.7185C40.6073 40.7772 39.9102 41.6163 38.7871 41.9778L38.7225 42.0036C38.5676 42.0552 38.3868 42.1069 38.1932 42.1198C38.1674 42.1198 38.1416 42.1198 38.1286 42.1198C38.1286 42.1327 38.1286 42.1714 38.1286 42.2231C38.1416 42.3134 38.1286 42.4038 38.1286 42.4942V42.5458C38.1157 42.9848 37.8317 43.2688 37.3928 43.2688ZM38.1416 39.0472C38.1416 39.1118 38.1416 39.2022 38.1416 39.2796C38.1416 39.4087 38.1416 39.8864 38.1416 39.8864C38.1416 40.0542 38.1416 40.2091 38.1416 40.377C38.4643 40.3253 38.7741 40.0671 38.8258 39.796C38.8774 39.4991 38.8516 39.3442 38.3481 39.1376C38.2707 39.0989 38.1932 39.0731 38.1416 39.0472ZM36.6698 35.4196C36.5278 35.4583 36.3858 35.5487 36.2696 35.6778C36.1405 35.8327 36.0631 36.0134 36.076 36.1812C36.0889 36.4265 36.4633 36.8009 36.6956 36.8009C36.6956 36.7622 36.6827 36.7235 36.6827 36.6847C36.6569 36.5556 36.644 36.4136 36.6827 36.2716C36.6827 36.2587 36.6827 36.2458 36.6827 36.2329C36.6827 36.2071 36.6827 36.1812 36.6827 36.1554V35.923C36.6698 35.7552 36.6698 35.5874 36.6698 35.4196Z" fill="#5F5CEC"/>
</svg>
