<svg width="50" height="50" viewBox="0 0 50 50" fill="none" xmlns="http://www.w3.org/2000/svg">
<path d="M27.2882 0C27.6419 0.300163 27.7336 0.66558 27.7205 1.12235C27.6943 1.93149 27.7074 2.74062 27.7074 3.60196C27.8907 3.61501 28.0479 3.62806 28.2051 3.64111C29.1219 3.69331 29.6458 4.22839 29.6589 5.14193C29.672 6.57749 29.6589 8 29.6589 9.43556C29.6589 9.98369 29.397 10.2969 28.9385 10.2969C28.4801 10.31 28.192 9.97064 28.192 9.40946C28.1789 8.16966 28.192 6.92985 28.192 5.7031C28.192 5.52039 28.192 5.35073 28.192 5.14193C27.3799 5.14193 26.6071 5.14193 25.8082 5.14193C25.8082 9.53997 25.8082 13.925 25.8082 18.3361C26.5809 18.3361 27.3537 18.3361 28.192 18.3361C28.192 18.1794 28.192 17.9967 28.192 17.8271C28.192 16.1958 28.1789 14.5775 28.2051 12.9462C28.2051 12.6852 28.2837 12.3589 28.4539 12.2023C28.6242 12.0457 29.004 11.9674 29.2005 12.0587C29.4101 12.1631 29.6327 12.4763 29.6458 12.7243C29.6982 13.6378 29.672 14.5514 29.672 15.4519C29.672 16.3654 29.672 17.279 29.672 18.1925C29.672 19.3279 29.1874 19.8108 28.0348 19.8369C27.9562 19.8369 27.8776 19.8499 27.7336 19.863C27.7336 20.5807 27.7336 21.2855 27.7336 22.0033C27.7336 22.5514 27.7467 23.1126 27.7336 23.6607C27.7205 24.1697 27.4454 24.4568 27.0001 24.4568C26.5679 24.4568 26.2797 24.1566 26.2666 23.6476C26.2535 22.5253 26.2666 21.4029 26.2535 20.2806C26.2535 20.1501 26.2404 20.0196 26.2273 19.863C26.0963 19.8499 25.9654 19.8369 25.8344 19.8238C24.8651 19.7977 24.315 19.2887 24.3019 18.31C24.2888 13.938 24.2888 9.55302 24.3019 5.18108C24.3019 4.20228 24.8389 3.68026 25.8213 3.64111C25.9392 3.64111 26.0439 3.62806 26.2404 3.62806C26.2404 2.92333 26.2404 2.20555 26.2404 1.50082C26.2404 1.25285 26.188 0.991844 26.2535 0.769984C26.3452 0.495922 26.5417 0.261011 26.6988 0C26.8953 0 27.0918 0 27.2882 0Z" fill="#5F5CEC"/>
<path d="M1.51206 36.6982C17.2163 36.6982 32.855 36.6982 48.533 36.6982C48.5461 36.5155 48.5592 36.3589 48.5592 36.2023C48.5592 28.0718 48.5592 19.9543 48.5592 11.8238C48.5592 9.84012 47.2757 8.48286 45.2717 8.45676C42.3902 8.4176 39.5218 8.44371 36.6403 8.44371C36.5748 8.44371 36.5093 8.45676 36.4176 8.46981C36.4176 9.4747 36.4176 10.4796 36.4176 11.5106C36.5486 11.5236 36.6927 11.5367 36.8367 11.5367C37.7536 11.5758 38.3168 12.0979 38.3168 13.0114C38.3299 15.8303 38.343 18.6493 38.3168 21.4551C38.3037 22.4731 37.7667 22.8907 36.3783 22.969C36.3783 23.1386 36.3783 23.3083 36.3783 23.478C36.3783 25.0962 36.3783 26.7015 36.3783 28.3197C36.3783 28.4372 36.3783 28.5416 36.3783 28.659C36.3521 29.1811 36.0509 29.5073 35.6056 29.4943C35.1864 29.4812 34.9114 29.155 34.9114 28.659C34.8983 27.5236 34.9114 26.3752 34.9114 25.2398C34.9114 24.4959 34.9114 23.752 34.9114 23.0473C34.8459 22.9951 34.8328 22.982 34.8197 22.982C33.4968 23.0473 32.9074 22.4209 32.9467 20.8939C33.0122 18.3882 32.9598 15.8825 32.9598 13.3768C32.9598 12.0457 33.3658 11.628 34.6756 11.5497C34.7411 11.5497 34.7935 11.5236 34.8852 11.5106C34.8852 10.5057 34.8852 9.5269 34.8852 8.45676C34.5315 8.45676 34.1779 8.45676 33.8243 8.45676C33.1694 8.45676 32.5145 8.46981 31.8596 8.44371C31.4143 8.43065 31.0999 8.09134 31.113 7.69982C31.1261 7.32136 31.4274 7.02119 31.8596 7.00814C32.6717 6.99509 33.4968 6.99509 34.3089 6.99509C34.4791 6.99509 34.6625 6.99509 34.8983 6.99509C34.8983 6.18596 34.8983 5.42902 34.8983 4.67209C34.8983 4.48938 34.8983 4.31972 34.8983 4.13702C34.9114 3.6411 35.1995 3.32788 35.6186 3.32788C36.0509 3.32788 36.339 3.6411 36.3521 4.13702C36.3652 4.8809 36.3521 5.63783 36.3521 6.38171C36.3521 6.56442 36.3521 6.73408 36.3521 6.96899C36.5617 6.98204 36.7582 6.99509 36.9415 6.99509C39.6397 6.99509 42.3378 6.99509 45.0359 6.99509C48.0484 6.99509 50 8.95268 50 11.9413C50 20.3458 50 28.7373 50 37.1419C50 40.1174 48.0222 42.0881 45.0229 42.0881C41.6043 42.0881 38.1989 42.0881 34.7804 42.0881C34.5839 42.0881 34.4006 42.0881 34.1517 42.0881C34.1517 43.3148 34.1517 44.5024 34.1648 45.677C34.1648 45.8075 34.2827 45.938 34.3744 46.0424C35.0162 46.7993 35.6579 47.5693 36.339 48.2871C36.4831 48.4437 36.7844 48.509 37.0201 48.522C37.7667 48.5481 38.1334 48.77 38.1334 49.2528C38.1465 49.7488 37.7798 49.9967 37.0332 49.9967C28.9912 49.9967 20.9492 49.9967 12.9202 49.9967C12.763 49.9967 12.5928 50.0098 12.4356 49.9837C12.0558 49.9054 11.8331 49.6574 11.8331 49.2659C11.8331 48.8744 12.0689 48.6395 12.4487 48.5481C12.4749 48.5351 12.5142 48.5351 12.5404 48.5351C13.3655 48.7308 13.824 48.2218 14.2693 47.6607C14.767 47.0212 15.5136 46.4861 15.7886 45.7683C16.0637 45.0506 15.8672 44.1631 15.8803 43.354C15.8803 42.9494 15.8803 42.5448 15.8803 42.075C15.6446 42.075 15.4612 42.075 15.2647 42.075C11.7676 42.075 8.27051 42.0881 4.77341 42.075C2.33722 42.062 0.464243 40.4698 0.0582125 38.0816C0.0189192 37.8597 0.00582123 37.6248 0.00582123 37.4029C0.00582123 28.8287 -0.00727654 20.2414 0.00582123 11.6672C0.00582123 9.3964 1.51206 7.55627 3.72559 7.08645C4.13162 6.99509 4.56384 6.99509 4.99607 6.99509C8.96469 6.98204 12.9333 6.99509 16.9019 6.99509C17.0984 6.99509 17.2949 6.99509 17.4782 6.99509C17.6747 6.13375 17.8712 5.88579 18.3034 5.89884C18.7618 5.91189 18.9845 6.22511 19.0631 6.99509C19.4691 6.99509 19.8882 6.99509 20.2943 6.99509C20.8837 6.99509 21.4731 6.98204 22.0625 7.00814C22.5078 7.02119 22.7828 7.30831 22.7959 7.69982C22.809 8.11744 22.5209 8.43065 22.0625 8.43065C21.2504 8.45676 20.4252 8.44371 19.6132 8.44371C19.4429 8.44371 19.2595 8.44371 19.0631 8.44371C19.0631 8.92658 19.0631 9.3703 19.0631 9.87927C19.2333 9.87927 19.4036 9.86622 19.5739 9.87927C20.3859 9.91842 20.9753 10.4665 20.9753 11.2757C20.9884 14.1468 20.9884 17.0049 20.9753 19.876C20.9753 20.7112 20.3859 21.2463 19.5346 21.2855C19.3905 21.2985 19.2464 21.2855 19.0369 21.2855C19.0369 21.4812 19.0369 21.6639 19.0369 21.8336C19.0369 23.6607 19.0369 25.4747 19.0369 27.3018C19.0369 27.4192 19.0369 27.5236 19.0369 27.6411C19.0238 28.1631 18.7225 28.4894 18.2772 28.4763C17.8581 28.4633 17.5699 28.1501 17.5699 27.6541C17.5699 26.0228 17.5699 24.3915 17.5699 22.7732C17.5699 22.3034 17.5699 21.8336 17.5699 21.3246C17.3735 21.3116 17.2032 21.3116 17.0198 21.2985C16.1947 21.2463 15.6184 20.7112 15.6184 19.8891C15.6053 17.0179 15.6053 14.1599 15.6184 11.2887C15.6184 10.4796 16.1947 9.93147 17.0198 9.87927C17.177 9.86622 17.3473 9.87927 17.5437 9.87927C17.5437 9.40945 17.5437 8.95268 17.5437 8.44371C17.3866 8.44371 17.2163 8.44371 17.0591 8.44371C13.0381 8.44371 9.01709 8.44371 4.99607 8.44371C3.14929 8.44371 1.8657 9.4225 1.53826 11.0538C1.49897 11.2757 1.48587 11.5106 1.48587 11.7324C1.48587 19.9021 1.48587 28.0848 1.48587 36.2545C1.49897 36.385 1.51206 36.5155 1.51206 36.6982ZM32.6848 42.1011C31.9382 42.1011 31.2571 42.1142 30.576 42.1011C30.0914 42.0881 29.7639 41.7879 29.7639 41.3703C29.7639 40.9527 30.0914 40.6525 30.576 40.6395C31.0999 40.6264 31.6238 40.6395 32.1477 40.6395C36.5224 40.6395 40.9101 40.6395 45.2848 40.6395C46.8565 40.6395 48.1794 39.6215 48.4414 38.2121C32.8419 38.2121 17.2425 38.2121 1.62994 38.2121C1.64304 38.3034 1.65614 38.3817 1.68234 38.46C2.12766 39.8042 3.34575 40.6395 4.89129 40.6395C12.2391 40.6395 19.6001 40.6395 26.9479 40.6395C27.1051 40.6395 27.2754 40.6264 27.4325 40.6525C27.8255 40.6917 28.0612 40.9135 28.1005 41.305C28.1398 41.7227 27.9041 41.9837 27.5111 42.075C27.354 42.1142 27.1837 42.1011 27.0265 42.1011C24.0009 42.1011 20.9753 42.1011 17.9629 42.1011C17.7926 42.1011 17.6092 42.1011 17.4259 42.1011C17.4259 43.2104 17.4259 44.2545 17.4259 45.3507C17.9891 45.3507 18.5261 45.3377 19.0631 45.3507C19.6263 45.3638 19.9668 45.6639 19.9537 46.1077C19.9406 46.5383 19.6132 46.8124 19.0762 46.8124C18.4999 46.8124 17.9367 46.8124 17.3604 46.8124C17.2294 46.8124 17.0591 46.7993 16.9805 46.8646C16.4959 47.3866 16.0244 47.9347 15.5136 48.522C21.9315 48.522 28.2315 48.522 34.6232 48.522C34.1779 48.013 33.8112 47.5432 33.392 47.1256C33.2349 46.969 32.9598 46.8385 32.7371 46.8254C32.1215 46.7863 31.4929 46.8515 30.8773 46.7863C30.6284 46.7602 30.3141 46.4861 30.2355 46.2512C30.17 46.0424 30.3403 45.7031 30.5236 45.5073C30.6415 45.3768 30.9427 45.3638 31.1654 45.3507C31.6762 45.3246 32.2001 45.3377 32.724 45.3377C32.6848 44.2414 32.6848 43.1974 32.6848 42.1011ZM17.1115 19.7977C17.9367 19.7977 18.7094 19.7977 19.4953 19.7977C19.4953 16.9657 19.4953 14.1729 19.4953 11.3801C18.6832 11.3801 17.9105 11.3801 17.1115 11.3801C17.1115 14.199 17.1115 16.9657 17.1115 19.7977ZM34.4529 21.4682C35.265 21.4682 36.0378 21.4682 36.8236 21.4682C36.8236 18.6362 36.8236 15.8434 36.8236 13.0506C36.0116 13.0506 35.2388 13.0506 34.4529 13.0506C34.4529 15.8564 34.4529 18.6362 34.4529 21.4682Z" fill="#5F5CEC"/>
<path d="M14.8194 30.7342C13.3394 31.3606 11.9117 31.974 10.471 32.5873C8.87304 33.266 7.26202 33.9577 5.66409 34.6363C5.53311 34.6885 5.38903 34.7537 5.25806 34.7929C4.85203 34.8843 4.52458 34.7537 4.3936 34.3622C4.26263 33.9838 4.36741 33.6444 4.74724 33.4487C5.19257 33.2399 5.63789 33.0572 6.09631 32.8614C8.91233 31.6608 11.7284 30.4601 14.5444 29.2595C15.5005 28.8549 15.7363 28.9462 16.1161 29.9381C16.3257 30.4993 16.5483 31.0604 16.771 31.6608C16.9937 31.5564 17.1901 31.452 17.3866 31.3475C22.0494 28.8418 26.7122 26.3361 31.3881 23.8304C31.4929 23.7782 31.5846 23.713 31.6894 23.6738C32.1085 23.4911 32.5014 23.6086 32.6979 23.974C32.8943 24.3394 32.7765 24.7309 32.3704 24.9658C31.7024 25.3443 31.0214 25.6966 30.3534 26.0621C25.9132 28.4503 21.4862 30.8255 17.046 33.2138C16.2602 33.6314 15.9065 33.5009 15.5922 32.6787C15.3171 32.0392 15.0683 31.3997 14.8194 30.7342Z" fill="#5F5CEC"/>
<path d="M10.8246 15.3606C10.0519 15.3606 9.27908 15.3606 8.44083 15.3606C8.44083 15.7521 8.44083 16.1567 8.44083 16.5482C8.44083 17.2921 8.44083 18.049 8.44083 18.7929C8.44083 19.3671 8.16577 19.7064 7.72045 19.7195C7.26203 19.7325 6.97388 19.3802 6.97388 18.7798C6.97388 17.7097 6.97388 16.6265 6.97388 15.5564C6.97388 14.3818 7.4454 13.8989 8.6111 13.8598C8.68968 13.8598 8.76827 13.8467 8.91235 13.8337C8.91235 13.4813 8.89925 13.1159 8.91235 12.7635C8.92544 12.2546 9.2136 11.9544 9.64582 11.9674C10.078 11.9674 10.3531 12.2676 10.3793 12.7766C10.3924 13.1159 10.3793 13.4552 10.3793 13.8337C10.5496 13.8467 10.6936 13.8598 10.8377 13.8598C11.7546 13.8859 12.2916 14.4079 12.3178 15.3214C12.344 16.3133 12.3178 17.3051 12.3178 18.297C12.3178 20.0066 12.3178 21.7162 12.3178 23.4259C12.3178 24.7831 11.951 25.1746 10.5627 25.279C10.5234 25.279 10.471 25.3051 10.3793 25.3312C10.3793 26.3622 10.3793 27.3932 10.3793 28.4373C10.3793 28.6591 10.3924 28.894 10.3793 29.1159C10.34 29.6118 10.0388 29.912 9.61963 29.8859C9.2136 29.8728 8.93854 29.5857 8.92544 29.1028C8.91235 28.0327 8.92544 26.9495 8.92544 25.8794C8.92544 25.6967 8.92544 25.527 8.92544 25.3051C8.70278 25.2921 8.50632 25.279 8.32295 25.266C7.51089 25.1877 7.01317 24.6657 6.98697 23.8565C6.97388 23.2823 6.97388 22.7211 6.98697 22.1469C7.00007 21.6771 7.27513 21.39 7.69425 21.3769C8.11338 21.3769 8.41463 21.651 8.44083 22.1208C8.46702 22.6559 8.44083 23.1909 8.44083 23.7652C9.25289 23.7652 10.0257 23.7652 10.8246 23.7652C10.8246 20.9723 10.8246 18.1795 10.8246 15.3606Z" fill="#5F5CEC"/>
<path d="M43.4903 17.3181C43.2414 17.2137 43.0842 17.1615 42.9402 17.0832C42.5865 16.8874 42.4031 16.6003 42.5472 16.1958C42.6913 15.8042 43.0056 15.6085 43.3986 15.739C44.2499 16.0261 45.0882 16.3393 45.9133 16.6917C46.2408 16.8352 46.3587 17.1746 46.2277 17.5269C45.9526 18.2708 45.6776 19.0277 45.3763 19.7586C45.2192 20.1501 44.8131 20.2936 44.4333 20.137C44.0666 19.9935 43.9094 19.6281 44.0273 19.2104C44.0797 19.0408 44.1451 18.8711 44.2237 18.6232C44.0404 18.7015 43.9094 18.7537 43.7915 18.8189C42.8747 19.3149 41.9578 19.8108 41.0279 20.2936C40.5302 20.5547 40.0848 20.4764 39.8753 20.0718C39.6657 19.6672 39.8229 19.2757 40.3337 19.0016C41.3684 18.4535 42.39 17.9054 43.4903 17.3181Z" fill="#5F5CEC"/>
</svg>
