<svg width="51" height="51" viewBox="0 0 51 51" fill="none" xmlns="http://www.w3.org/2000/svg">
<path d="M21.2976 0.0853168C22.1328 0.176677 22.9812 0.228883 23.8165 0.359398C27.9407 1.01197 31.3863 2.93053 34.1793 6.02371C34.2707 6.11507 34.349 6.20643 34.4795 6.33695C34.8058 5.76269 35.1321 5.21453 35.4192 4.65331C35.6541 4.18346 35.9804 4.00074 36.5025 4.00074C39.7523 4.01379 43.0151 4.00074 46.278 4.0138C46.539 4.0138 46.8522 4.07905 47.035 4.23567C47.1916 4.37924 47.2829 4.71857 47.2307 4.9274C47.1785 5.13622 46.9175 5.31894 46.7087 5.4364C46.5521 5.51471 46.3302 5.47555 46.1344 5.47555C43.1195 5.47555 40.1047 5.48861 37.1028 5.4625C36.7635 5.4625 36.5808 5.55386 36.4242 5.8671C36.137 6.42831 35.5758 6.97647 35.5758 7.53768C35.5758 8.08584 36.124 8.62095 36.4242 9.16911C38.2905 12.6016 38.9692 16.243 38.421 20.1062C38.408 20.1845 38.408 20.2628 38.3949 20.3803C38.5254 20.4455 38.6559 20.4977 38.7734 20.563C39.5695 20.9545 40.0263 21.581 40.0655 22.4816C40.0786 22.86 40.0786 23.2255 40.0786 23.604C40.0786 29.2422 40.0786 34.8674 40.0786 40.5056C40.0786 41.2887 39.8697 41.6019 39.3607 41.6149C38.8387 41.628 38.6037 41.2756 38.6037 40.4795C38.6037 34.6455 38.6037 28.8245 38.6037 22.9906C38.6037 21.9987 38.4341 21.829 37.4422 21.829C36.0457 21.829 34.6361 21.829 33.2396 21.829C32.4957 21.829 32.2477 22.077 32.2477 22.8339C32.2477 31.2652 32.2477 39.6964 32.2477 48.1407C32.2477 48.2712 32.2607 48.4017 32.2738 48.5583C34.3751 48.5583 36.4764 48.5583 38.6168 48.5583C38.6168 48.3625 38.6168 48.1798 38.6168 48.0101C38.6168 46.6528 38.6168 45.3085 38.6168 43.9511C38.6168 43.4291 38.917 43.0898 39.3477 43.0898C39.7784 43.0898 40.0655 43.416 40.0786 43.9511C40.0786 45.7131 40.0916 47.462 40.0786 49.2239C40.0786 49.7851 39.8306 50.0462 39.2824 50.0462C36.7243 50.0592 34.1663 50.0592 31.6082 50.0462C31.047 50.0462 30.799 49.759 30.7859 49.1717C30.7729 48.3103 30.7859 47.4489 30.7859 46.5875C30.7859 42.0065 30.7859 37.4385 30.7859 32.8574C30.7859 32.6747 30.7859 32.505 30.7859 32.231C30.5771 32.3615 30.4336 32.4398 30.29 32.5312C27.5753 34.2148 24.5996 35.0631 21.415 35.1414C20.6058 35.1545 20.3709 34.9196 20.3709 34.1104C20.3709 29.0856 20.3709 24.0477 20.3709 19.0229C20.3709 18.8272 20.3709 18.6314 20.3709 18.3704C20.149 18.3704 19.9533 18.3704 19.7705 18.3704C14.7849 18.3704 9.8123 18.3704 4.82666 18.3704C3.74339 18.3704 3.59983 18.2268 3.62593 17.1696C3.71729 13.3586 4.95717 9.93914 7.28033 6.92426C7.68492 6.38915 8.32444 6.3761 8.59852 6.88511C8.8204 7.2897 8.61157 7.60294 8.37665 7.90312C7.17592 9.46929 6.24927 11.179 5.74026 13.0845C5.41397 14.2983 5.23125 15.5643 4.97023 16.9086C5.29651 16.9086 5.49228 16.9086 5.675 16.9086C10.6215 16.9086 15.568 16.9086 20.5275 16.9086C21.7283 16.9086 21.8457 17.0261 21.8457 18.2137C21.8457 23.1602 21.8457 28.1067 21.8457 33.0663C21.8457 33.262 21.8457 33.4448 21.8457 33.6666C23.4641 33.6144 24.9781 33.3142 26.4398 32.8052C27.8885 32.2962 29.2328 31.5784 30.4858 30.6909C30.7207 30.5212 30.812 30.3385 30.812 30.0514C30.799 27.663 30.799 25.2615 30.812 22.8731C30.812 21.3069 31.6995 20.4194 33.2527 20.4064C34.2968 20.4064 35.3409 20.4064 36.385 20.4064C36.5547 20.4064 36.7374 20.4064 36.9332 20.4064C37.5727 16.3343 36.8287 12.6016 34.6753 9.0908C33.8008 10.5656 32.9916 12.0013 32.1694 13.45C32.1041 13.5805 32.0389 13.711 31.9475 13.8285C31.6995 14.1547 31.3733 14.2592 31.0078 14.0503C30.6424 13.8415 30.551 13.5152 30.6946 13.1237C30.7468 12.9932 30.8251 12.8627 30.9034 12.7321C31.8301 11.0746 32.7698 9.41708 33.7095 7.73345C32.574 6.25864 31.2166 5.03181 29.6374 4.05295C23.5946 0.307191 16.1292 0.855351 10.6867 5.4364C10.6215 5.48861 10.5693 5.54081 10.504 5.59302C10.0864 5.9193 9.66874 5.90625 9.38161 5.55386C9.10753 5.21453 9.14668 4.79688 9.55128 4.48365C10.4127 3.81802 11.2741 3.1263 12.2007 2.56509C14.7196 1.03807 17.4865 0.241934 20.4362 0.137523C20.5928 0.137523 20.7494 0.0983685 20.9191 0.0722656C21.0365 0.085317 21.167 0.0853168 21.2976 0.0853168Z" fill="#5F5CEC"/>
<path d="M50.5067 49.6155C50.2456 49.9679 49.8802 50.0723 49.4495 50.0723C47.0611 50.0592 44.6727 50.0723 42.2712 50.0592C41.4098 50.0592 41.2141 49.8504 41.2141 48.989C41.2141 43.9642 41.2141 38.9394 41.2141 33.9146C41.2141 32.3615 42.1146 31.461 43.6547 31.461C44.9859 31.461 46.3302 31.5132 47.6615 31.4479C49.0449 31.3826 50.0238 31.8655 50.5067 33.2098C50.5067 38.6784 50.5067 44.1469 50.5067 49.6155ZM49.0188 48.5714C49.0319 48.4409 49.0319 48.3756 49.0319 48.3234C49.0319 43.4944 49.0319 38.6523 49.0319 33.8233C49.0319 33.2098 48.7578 32.9227 48.1313 32.9227C46.6695 32.9097 45.2078 32.9227 43.733 32.9227C42.8846 32.9227 42.6628 33.1446 42.6628 33.9929C42.6628 38.6784 42.6628 43.3638 42.6628 48.0493C42.6628 48.219 42.6758 48.3886 42.6889 48.5714C44.8293 48.5714 46.9175 48.5714 49.0188 48.5714Z" fill="#5F5CEC"/>
<path d="M12.1224 37.2558C11.6787 37.073 11.248 36.9164 10.8434 36.7207C4.9833 33.8885 1.55077 29.2683 0.611072 22.8209C0.519712 22.1814 0.50666 21.5288 0.493609 20.8762C0.480557 20.302 0.754637 20.0279 1.3289 20.0279C6.84965 20.0279 12.3704 20.0279 17.8781 20.0279C18.4785 20.0279 18.7264 20.315 18.7264 20.9545C18.7264 22.8731 18.7264 24.7917 18.7264 26.7102C18.7264 30.1819 18.7264 33.6405 18.7264 37.1122C18.7264 38.078 18.5046 38.326 17.5257 38.2346C16.3119 38.1172 15.1112 37.9475 13.9105 37.7517C13.6103 37.6995 13.4798 37.7517 13.3623 38.0258C12.6967 39.5137 11.9919 40.9754 11.3263 42.4633C11.1305 42.907 10.8434 43.1028 10.3474 43.1028C7.69799 43.0898 5.0355 43.0898 2.38607 43.1028C1.95537 43.1028 1.60298 42.9853 1.48552 42.5285C1.355 42.0326 1.73349 41.641 2.34691 41.628C3.84782 41.6149 5.33569 41.628 6.8366 41.628C7.80241 41.628 8.75516 41.641 9.72096 41.6149C9.87758 41.6149 10.1125 41.5105 10.1778 41.38C10.8564 40.0227 11.4699 38.6523 12.1224 37.2558ZM17.2386 36.812C17.2386 31.6176 17.2386 26.5667 17.2386 21.5288C12.1355 21.5288 7.05847 21.5288 1.99452 21.5288C2.29471 29.0203 7.85461 34.4367 12.775 35.8462C13.0621 35.2197 13.3623 34.5802 13.6494 33.9538C13.8974 33.4317 14.2759 33.249 14.6805 33.4187C15.0851 33.6014 15.2026 34.0321 14.9807 34.5411C14.7197 35.1284 14.4456 35.7157 14.1454 36.3813C15.2026 36.5118 16.1945 36.6554 17.2386 36.812Z" fill="#5F5CEC"/>
<path d="M20.384 45.3868C20.384 44.2252 20.384 43.0767 20.384 41.9151C20.397 40.4273 21.2584 39.5398 22.7463 39.5137C24.2733 39.5006 25.8134 39.4876 27.3404 39.5137C28.7891 39.5398 29.6766 40.4403 29.6896 41.889C29.7027 44.2774 29.6896 46.6789 29.6896 49.0673C29.6896 49.8243 29.4547 50.0592 28.6847 50.0592C26.2441 50.0592 23.8034 50.0592 21.3628 50.0592C20.6319 50.0592 20.397 49.8243 20.397 49.0934C20.3709 47.8666 20.384 46.6267 20.384 45.3868ZM21.8457 48.5583C24.0123 48.5583 26.1005 48.5583 28.2018 48.5583C28.2018 46.2743 28.2148 44.0295 28.2018 41.7846C28.2018 41.2234 27.8885 40.9885 27.2621 40.9885C25.8003 40.9754 24.3386 40.9885 22.8768 40.9885C22.0807 40.9885 21.8588 41.2104 21.8588 42.0065C21.8588 43.5988 21.8588 45.191 21.8588 46.7833C21.8457 47.3576 21.8457 47.9449 21.8457 48.5583Z" fill="#5F5CEC"/>
<path d="M42.9368 2.57813C41.7752 2.57813 40.6267 2.59118 39.4651 2.57813C38.917 2.57813 38.5515 2.25184 38.6037 1.80809C38.6559 1.3774 38.93 1.12942 39.3607 1.12942C41.7491 1.11637 44.1506 1.11637 46.539 1.12942C47.0089 1.12942 47.2829 1.4557 47.2829 1.87335C47.2699 2.27794 46.9827 2.56507 46.4998 2.57813C45.3122 2.57813 44.1245 2.56507 42.9368 2.57813Z" fill="#5F5CEC"/>
<path d="M5.27044 39.9443C4.30463 39.9443 3.35188 39.9443 2.38607 39.9443C1.82486 39.9443 1.47247 39.6572 1.47247 39.2134C1.47247 38.7697 1.81181 38.4825 2.37302 38.4825C4.29158 38.4825 6.21014 38.4825 8.1287 38.4825C8.68991 38.4825 9.0162 38.7697 9.00314 39.2265C8.99009 39.6702 8.67686 39.9313 8.1287 39.9443C7.189 39.9443 6.23624 39.9443 5.27044 39.9443Z" fill="#5F5CEC"/>
<path d="M45.6773 16.5952C46.5126 16.5952 47.3348 16.5952 48.1701 16.5952C48.7052 16.5952 49.0315 16.8693 49.0446 17.3C49.0576 17.7568 48.7183 18.057 48.1701 18.057C46.4995 18.057 44.8159 18.057 43.1453 18.057C42.5841 18.057 42.2578 17.7698 42.2709 17.3C42.2839 16.8562 42.5972 16.5952 43.1453 16.5952C43.9806 16.5952 44.829 16.5952 45.6773 16.5952Z" fill="#5F5CEC"/>
<path d="M45.6251 21.2157C44.8029 21.2157 43.9676 21.2157 43.1453 21.2157C42.5841 21.2157 42.284 20.9677 42.2709 20.524C42.2578 20.0672 42.5711 19.767 43.1323 19.7539C44.8029 19.7409 46.4735 19.7409 48.1571 19.7539C48.7183 19.7539 49.0576 20.0541 49.0446 20.5109C49.0315 20.9416 48.7053 21.2157 48.1701 21.2157C47.3218 21.2157 46.4735 21.2026 45.6251 21.2157Z" fill="#5F5CEC"/>
<path d="M45.6776 22.9122C46.4999 22.9122 47.3352 22.9122 48.1574 22.9122C48.7056 22.9122 49.0188 23.1863 49.0319 23.617C49.0449 24.0608 48.7056 24.374 48.1574 24.374C46.4868 24.387 44.8163 24.387 43.1326 24.374C42.5584 24.374 42.2451 24.0738 42.2582 23.617C42.2712 23.1733 42.5714 22.9253 43.1326 22.9122C43.981 22.9122 44.8293 22.9122 45.6776 22.9122Z" fill="#5F5CEC"/>
</svg>
