<svg width="57" height="56" viewBox="0 0 57 56" fill="none" xmlns="http://www.w3.org/2000/svg">
<path d="M42.2708 38.8901C41.6369 38.8901 41.0648 38.8901 40.4155 38.8901C40.4155 38.6892 40.4155 38.4882 40.4155 38.2872C40.4155 35.1644 40.4155 32.0416 40.4155 28.9033C40.4155 23.4152 37.0913 18.8701 31.8653 17.185C30.8913 16.8758 30.6903 16.3656 31.2005 15.4999C31.7726 14.5414 32.3446 13.5674 32.9013 12.609C32.994 12.4544 33.0713 12.2843 33.1796 12.0988C33.0713 12.0679 33.0249 12.0524 32.9786 12.0524C29.8708 12.0524 26.7631 12.0524 23.5626 12.0524C23.7018 12.2998 23.7945 12.5007 23.9028 12.6862C24.4594 13.6293 25.0314 14.5723 25.588 15.5153C26.0828 16.3656 25.8818 16.8758 24.9541 17.185C20.3157 18.7464 17.4863 21.931 16.5431 26.739C16.404 27.4501 16.3731 28.1921 16.3731 28.9187C16.3576 32.7063 16.3576 36.4785 16.3731 40.266C16.3731 40.8999 16.203 41.3637 15.7237 41.7811C15.0589 42.3685 14.4404 43.0024 13.6983 43.7135C14.9816 44.301 16.1412 44.8421 17.3162 45.3831C17.3162 44.873 17.2544 44.3937 17.3317 43.9299C17.61 42.0593 19.1252 40.7607 21.0269 40.7453C23.1451 40.7298 25.2788 40.7453 27.397 40.7298C27.6908 40.7298 28 40.6525 28.2783 40.5134C32.592 38.4418 36.8903 38.4418 41.204 40.5134C41.4668 40.6371 41.7761 40.6989 42.0853 40.7298C42.4409 40.7607 42.812 40.7453 43.1985 40.7453C43.1985 41.3637 43.1985 41.9357 43.1985 42.5695C42.9357 42.585 42.6574 42.6004 42.3327 42.6159C42.3327 46.2952 42.3327 49.9746 42.3327 53.6694C45.394 53.6694 48.4244 53.6694 51.5322 53.6694C51.5322 51.2423 51.5322 48.7997 51.5322 46.3262C52.1816 46.3262 52.7691 46.3262 53.403 46.3262C53.403 46.96 53.403 47.5629 53.403 48.1813C53.403 50.2683 53.403 52.3554 53.403 54.427C53.403 55.1845 53.0629 55.54 52.3207 55.54C47.2339 55.54 42.1317 55.54 37.0449 55.54C36.9676 55.54 36.8903 55.5246 36.7821 55.5246C36.7821 54.9371 36.7821 54.3497 36.7821 53.7158C37.9726 53.7158 39.1631 53.7158 40.4464 53.7158C40.4464 53.4839 40.4464 53.3139 40.4464 53.1284C40.4464 49.6809 40.4309 46.218 40.4619 42.7705C40.4619 42.3376 40.3227 42.1212 39.9362 41.9511C36.3491 40.3897 32.7776 40.4206 29.2678 42.1212C28.603 42.4458 27.9536 42.6004 27.2269 42.6004C25.217 42.5695 23.207 42.585 21.2125 42.585C19.991 42.585 19.1561 43.3579 19.1716 44.4556C19.187 45.5223 20.022 46.2798 21.2125 46.2798C23.7018 46.2798 26.191 46.2798 28.6803 46.2798C28.8813 46.2798 29.0978 46.2798 29.3297 46.2798C29.3297 46.8982 29.3297 47.4702 29.3297 48.1349C29.1287 48.1349 28.9277 48.1349 28.7267 48.1349C25.7117 48.1349 22.7122 48.1504 19.6973 48.1195C19.2334 48.1195 18.7387 48.0113 18.3212 47.8103C15.0589 46.3416 11.7965 44.8421 8.54963 43.3579C7.23542 42.755 6.02943 43.126 5.50375 44.2546C4.9626 45.4295 5.47282 46.7127 6.70973 47.3465C10.1731 49.078 13.6364 50.8094 17.0998 52.5409C18.6459 53.3139 20.2693 53.7004 22.001 53.7004C26.0673 53.6849 30.1491 53.7004 34.2155 53.7004C34.4319 53.7004 34.6329 53.7004 34.8958 53.7004C34.8958 54.3187 34.8958 54.8907 34.8958 55.5555C34.6948 55.5555 34.4938 55.5555 34.2773 55.5555C30.211 55.5555 26.1292 55.54 22.0629 55.5555C20.0065 55.5555 18.0584 55.1072 16.2185 54.1796C12.7397 52.4327 9.24539 50.7012 5.78205 48.9543C3.401 47.7484 2.68978 44.7184 4.29776 42.7241C5.45736 41.2864 7.35911 40.8226 9.10624 41.5956C10.1267 42.0439 11.1317 42.5231 12.0594 42.9405C12.817 42.1521 13.5436 41.441 14.2239 40.6834C14.4095 40.4825 14.5486 40.1578 14.5486 39.895C14.5641 36.3084 14.5332 32.7218 14.5641 29.1352C14.5796 22.8432 17.4863 18.3908 23.2379 15.8245C23.3152 15.7936 23.408 15.7472 23.5162 15.6854C22.7741 14.4177 22.0474 13.181 21.3052 11.9287C21.0733 11.5422 20.8414 11.1558 21.1042 10.692C21.3826 10.1973 21.8309 10.1973 22.3102 10.1973C26.3611 10.1973 30.412 10.1973 34.4629 10.1973C34.9422 10.1973 35.3905 10.1973 35.6688 10.692C35.9471 11.1867 35.6843 11.5732 35.4524 11.9751C34.7257 13.1964 33.999 14.4332 33.2569 15.6854C33.6743 15.8709 34.0609 16.0255 34.4319 16.2265C39.4414 18.8546 42.1008 23.0132 42.2554 28.6714C42.3481 31.9024 42.2708 35.1489 42.2708 38.3954C42.2708 38.5346 42.2708 38.6892 42.2708 38.8901Z" fill="#5F5CEC"/>
<path d="M46.9244 35.7365C48.0686 33.0156 48.5942 30.2792 48.5324 27.4347C48.3778 17.6334 41.1573 9.34705 31.4631 7.86294C26.2835 7.0745 21.506 8.15666 17.1304 11.0476C16.1099 11.7124 15.7853 11.6505 15.1359 10.6302C14.2391 9.23883 13.3578 7.83202 12.4611 6.44066C11.9972 5.6986 12.0745 5.28119 12.8012 4.78649C28.479 -5.97334 50.5269 2.29751 55.2426 20.7098C55.4282 21.4519 55.5828 22.1939 55.7683 22.9978C55.1189 23.106 54.5623 23.2142 54.0057 23.307C51.702 13.1037 45.7957 6.13147 35.7922 2.97773C28.2162 0.5815 20.3773 2.09653 14.3783 6.00779C14.7184 6.54888 15.074 7.08996 15.4142 7.6465C15.7543 8.18758 16.0945 8.71321 16.4037 9.19245C17.7798 8.52769 19.0785 7.81656 20.4546 7.27547C33.2411 2.25113 47.6202 10.321 50.0476 23.8635C50.8671 28.455 50.295 32.8764 48.3469 37.1278C47.8521 38.21 47.5429 38.3182 46.4296 37.7926C46.4296 39.7868 46.4296 41.7657 46.4296 43.8372C48.3469 43.2807 50.2641 42.7396 52.305 42.1676C52.0267 41.9512 51.8257 41.7966 51.6247 41.642C50.9598 41.1318 50.8825 40.8072 51.2691 40.0651C52.4132 37.8853 53.2636 35.5973 53.7583 33.1856C54.2222 31.0058 54.3922 28.7951 54.2995 26.569C54.2995 26.4144 54.2995 26.2598 54.2995 26.0433C54.887 26.0124 55.4591 25.966 56.093 25.9351C56.294 28.5014 56.093 30.9749 55.5982 33.433C55.1035 35.8756 54.2686 38.21 53.1399 40.4671C53.6965 40.8999 54.2222 41.3019 54.7788 41.7038C55.1344 41.9666 55.3972 42.3222 55.2272 42.7396C55.088 43.0488 54.7479 43.3735 54.4386 43.4662C51.5937 44.3165 48.7489 45.1204 45.8885 45.9397C45.0381 46.1871 44.5124 45.8006 44.5279 44.9194C44.5434 41.9357 44.5434 38.9366 44.6052 35.9529C44.6052 35.6437 44.8526 35.2727 45.1 35.0562C45.4247 34.778 45.8267 34.9326 46.1668 35.1954C46.3678 35.319 46.6152 35.5046 46.9244 35.7365Z" fill="#5F5CEC"/>
<path d="M10.3437 17.8344C10.3437 15.7938 10.3437 13.8149 10.3437 11.7588C8.39552 12.3154 6.49378 12.8564 4.45288 13.4439C4.79303 13.7067 5.04041 13.8768 5.27233 14.0777C5.75163 14.4642 5.8444 14.8507 5.59702 15.3918C5.07133 16.5049 4.54565 17.618 3.97358 18.8084C3.46335 18.6228 2.9222 18.4219 2.27283 18.19C2.72121 17.1542 3.13866 16.1648 3.58704 15.129C3.06136 14.727 2.53567 14.3096 1.99452 13.9232C1.63891 13.6603 1.42245 13.3512 1.49976 12.8874C1.57707 12.4236 1.90176 12.2381 2.33467 12.1144C5.1641 11.3105 7.99353 10.4911 10.823 9.67179C11.7197 9.40897 12.2145 9.78 12.2145 10.7076C12.2145 13.6758 12.199 16.644 12.1526 19.6123C12.1526 19.9369 11.9052 20.3234 11.6424 20.5553C11.3177 20.8336 10.9157 20.6635 10.591 20.4007C10.3591 20.2306 10.1272 20.0606 9.80251 19.8132C7.15861 26.7082 7.82345 33.1548 11.7816 39.3077C11.6888 39.385 11.596 39.4623 11.5033 39.5241C11.1322 39.7869 10.7456 40.0497 10.3127 40.3435C10.1736 40.1425 10.0344 39.9725 9.91073 39.7715C5.70525 32.9074 5.21048 25.7806 8.45737 18.4219C8.90575 17.4015 9.29228 17.2779 10.3437 17.8344Z" fill="#5F5CEC"/>
<path d="M33.0088 26.8472C32.3904 26.8472 31.8029 26.8472 31.2309 26.8472C30.829 25.5486 30.3961 25.1312 29.3449 25.0384C29.3449 26.2443 29.3449 27.4501 29.3449 28.6869C30.5198 28.7796 31.5247 29.2125 32.2513 30.1864C32.7924 30.913 33.0397 31.7169 32.9933 32.629C32.9006 34.5306 31.5092 35.8755 29.2985 36.1538C29.2985 36.7413 29.2985 37.3287 29.2985 37.9471C28.6647 37.9471 28.1081 37.9471 27.4743 37.9471C27.4743 37.3751 27.4743 36.7876 27.4743 36.1538C26.2839 36.061 25.2945 35.6436 24.5679 34.747C24.0423 34.0977 23.764 33.3556 23.7485 32.4744C24.3515 32.4744 24.9389 32.4744 25.5264 32.4744C25.9129 33.7421 26.3612 34.175 27.4124 34.2523C27.4124 33.0464 27.4124 31.8406 27.4124 30.6038C26.2375 30.5111 25.2326 30.0782 24.5061 29.1043C23.965 28.3777 23.7176 27.5738 23.764 26.6617C23.8568 24.7601 25.2481 23.4152 27.4588 23.1214C27.4588 22.5494 27.4588 21.9465 27.4588 21.3281C28.0927 21.3281 28.6647 21.3281 29.2985 21.3281C29.2985 21.9001 29.2985 22.4876 29.2985 23.1214C30.4889 23.2142 31.4783 23.6316 32.2049 24.5437C32.7151 25.193 32.9933 25.9351 33.0088 26.8472ZM27.4434 25.023C26.2839 25.1312 25.5573 25.9351 25.6191 26.9708C25.681 27.9293 26.454 28.6714 27.4434 28.6714C27.4434 27.4656 27.4434 26.2597 27.4434 25.023ZM29.3449 34.2368C30.427 34.175 31.1846 33.3866 31.1691 32.3662C31.1536 31.4541 30.2725 30.4802 29.3449 30.6038C29.3449 31.8251 29.3449 33.031 29.3449 34.2368Z" fill="#5F5CEC"/>
<path d="M1.5611 20.5552C2.17948 20.7252 2.73602 20.8644 3.33894 21.0344C1.73115 27.3728 2.31862 33.4793 5.19409 39.4158C4.653 39.6941 4.12738 39.9569 3.55538 40.2506C0.463473 33.9122 -0.170367 27.3883 1.5611 20.5552Z" fill="#5F5CEC"/>
<path d="M22.2022 23.1215C20.5635 24.9921 19.9142 27.1565 20.0688 29.6145C19.4349 29.6145 18.8629 29.6145 18.2291 29.6145C18.0436 26.7081 18.8784 24.1419 20.8263 21.8848C21.2901 22.3022 21.7229 22.7041 22.2022 23.1215Z" fill="#5F5CEC"/>
<path d="M47.837 49.9902C47.8525 50.9951 47.0177 51.8454 46.0283 51.8608C45.0234 51.8763 44.1731 51.0724 44.1422 50.0675C44.1113 49.0317 44.9461 48.166 45.9819 48.166C46.9867 48.166 47.8216 48.9854 47.837 49.9902Z" fill="#5F5CEC"/>
<path d="M23.3759 22.024C23.1131 21.6839 22.8658 21.3438 22.603 21.0036C22.4948 20.8645 22.4175 20.7254 22.2783 20.5244C22.8194 20.1843 23.345 19.8596 23.917 19.5195C24.1953 20.0915 24.4581 20.6172 24.7364 21.1737C24.2726 21.4674 23.8397 21.7302 23.3759 22.024Z" fill="#5F5CEC"/>
</svg>
