<svg width="50" height="50" viewBox="0 0 50 50" fill="none" xmlns="http://www.w3.org/2000/svg">
<path d="M45.1969 49.9348C43.737 49.7393 42.7072 48.8529 41.7295 47.8622C38.6792 44.7728 35.5899 41.7225 32.5396 38.6462C32.2528 38.3594 32.0442 38.2942 31.6923 38.5289C29.5545 39.8845 27.2211 40.7709 24.7444 41.2402C21.1075 41.9181 17.5228 41.6704 14.0293 40.4581C10.601 39.2719 7.68107 37.3035 5.26953 34.5791C2.84494 31.8417 1.24159 28.7002 0.498571 25.1154C0.329111 24.3072 0.250899 23.473 0.13358 22.6648C0.10751 22.4953 0.0684031 22.3128 0.0292969 22.1434C0.0292969 21.2961 0.0292969 20.4488 0.0292969 19.6015C0.159651 18.7411 0.250899 17.8678 0.420359 17.0074C1.68479 10.4897 5.26953 5.65359 11.0572 2.44688C14.3031 0.648 17.8226 -0.147159 21.5116 0.0223011C27.7556 0.30908 32.9567 2.82491 36.9716 7.67408C37.0889 7.80443 37.2062 7.94782 37.2845 8.03907C37.7537 7.56979 38.223 7.10052 38.6532 6.67035C38.5619 6.07072 38.3664 5.41895 38.3794 4.78022C38.4185 3.25508 39.6048 1.96458 41.0517 1.74297C42.6681 1.4953 44.1541 2.29046 44.7016 3.75042C44.8319 4.08934 44.9884 4.18059 45.3403 4.18059C46.8394 4.16756 48.3385 4.18059 49.8245 4.18059C49.8506 4.18059 49.8897 4.19363 49.9418 4.2197C49.9418 4.74111 49.9418 5.26253 49.9418 5.83609C48.9902 5.83609 48.0517 5.83609 47.1131 5.83609C46.4744 5.83609 45.8487 5.84912 45.21 5.83609C44.9623 5.83609 44.845 5.90126 44.7537 6.14894C43.9977 8.03907 42.1336 8.79512 40.2305 8.013C40.1131 7.96086 39.9046 7.97389 39.8133 8.0521C39.3049 8.52138 38.8096 9.01672 38.3794 9.43386C39.0312 10.8026 39.7221 12.054 40.2435 13.3836C41.4688 16.473 41.8729 19.6927 41.521 23.0037C41.1951 26.1583 40.1913 29.0782 38.5098 31.7765C38.3142 32.1024 38.4185 32.2458 38.6271 32.4674C41.9251 35.7523 45.21 39.0372 48.4949 42.3352C49.7854 43.6257 50.3068 45.1508 49.7463 46.9236C49.2249 48.5661 48.0647 49.5307 46.3832 49.9088C46.2789 49.9348 46.1746 49.9739 46.0703 50C45.7835 49.9348 45.4837 49.9348 45.1969 49.9348ZM39.9828 20.7486C39.9046 10.0204 31.2621 1.40405 20.3906 1.61262C9.98834 1.82119 1.45015 10.3333 1.65872 21.2048C1.85425 31.5288 10.2882 40.1192 21.2118 39.9236C31.6141 39.7281 39.9176 31.3203 39.9828 20.7486ZM37.0629 40.8361C39.0312 42.8045 40.9865 44.7598 42.9548 46.7281C43.2938 47.054 43.6197 47.406 43.9846 47.6927C45.1057 48.6052 46.7221 48.4488 47.6606 47.3538C48.6513 46.2067 48.547 44.6816 47.3738 43.5084C45.2491 41.3836 43.1243 39.2588 40.9995 37.1341C40.9474 37.0819 40.8822 37.0298 40.8692 37.0298C39.5917 38.3073 38.3403 39.5456 37.0629 40.8361ZM39.5656 35.7914C38.8096 35.0354 38.0666 34.2924 37.5061 33.7449C36.2807 34.9702 35.0163 36.2346 33.8301 37.4208C34.4036 37.9814 35.1597 38.7374 35.8897 39.4674C37.0889 38.2682 38.3273 37.0298 39.5656 35.7914ZM41.6513 6.63125C42.5638 6.63125 43.2938 5.9143 43.3198 5.00182C43.3329 4.10238 42.5638 3.30722 41.6513 3.30722C40.7388 3.30722 39.9828 4.06327 39.9958 5.00182C40.0089 5.9143 40.7388 6.63125 41.6513 6.63125Z" fill="#5F5CEC"/>
<path d="M3.35327 20.8007C3.44452 11.1415 11.0311 3.3463 20.8077 3.33327C30.5581 3.32023 38.2751 11.1024 38.3012 20.8137C38.3142 30.473 30.4408 38.2942 20.8337 38.2681C11.2136 38.229 3.45755 30.5772 3.35327 20.8007ZM34.6252 13.1489C34.1168 13.6703 33.6475 14.1787 33.1522 14.648C32.9306 14.8566 32.8915 15.013 33.0218 15.3128C33.5954 16.5642 33.2956 18.0502 32.3309 19.0018C31.3533 19.9534 29.9064 20.2402 28.681 19.6666C28.3552 19.5102 28.1987 19.6014 27.9902 19.823C26.4259 21.4003 24.8486 22.9776 23.2583 24.5419C22.9846 24.8026 22.8933 24.9981 23.0628 25.4022C23.6363 26.6797 23.2453 28.2178 22.1764 29.1173C21.0423 30.0819 19.5041 30.2122 18.2397 29.4432C17.0535 28.7262 16.3365 27.2141 16.8058 25.9106C17.1317 24.9981 16.8188 24.5549 16.2192 24.0074C15.3458 23.2122 14.5376 22.3389 13.6903 21.5046C13.573 21.3873 13.4557 21.283 13.3514 21.1787C11.1745 22.1173 9.51901 21.4785 8.54136 19.3668C8.50225 19.2625 8.3719 19.1452 8.28065 19.1322C7.22478 19.1191 6.18195 19.1191 5.13912 19.1191C4.40914 25.2067 7.53763 32.1545 14.4073 35.2309C20.4948 37.9553 27.9771 36.6257 32.7481 31.1638C37.4148 25.8584 37.6755 18.3891 34.6252 13.1489ZM5.4259 17.4636C6.19499 17.4636 6.92497 17.4376 7.65495 17.4767C8.17637 17.5027 8.61957 17.4897 8.72385 16.8379C8.74992 16.6685 8.89331 16.5251 8.9976 16.3817C10.0144 14.9739 11.8654 14.5958 13.3775 15.4692C14.8114 16.2905 15.398 18.1154 14.7071 19.6666C14.6028 19.9013 14.5637 20.0446 14.7723 20.2532C15.8933 21.3482 16.9753 22.4562 18.0963 23.5512C18.2006 23.6554 18.4483 23.6946 18.5786 23.6424C19.5302 23.2253 20.4557 23.2253 21.4073 23.6294C21.5376 23.6815 21.7984 23.6424 21.8896 23.5512C23.5712 21.8957 25.2397 20.2271 26.8952 18.5586C26.9864 18.4674 27.0386 18.2067 26.9734 18.0763C26.4129 16.7337 26.6345 15.3389 27.6121 14.3351C28.5768 13.3444 30.0107 13.0968 31.3924 13.6703C31.5097 13.7225 31.7052 13.7485 31.7704 13.6834C32.4352 13.0577 33.087 12.4059 33.7257 11.7672C30.3105 6.83979 24.1317 4.10236 17.8617 5.31465C11.0963 6.59212 6.54694 11.8975 5.4259 17.4636ZM10.0404 18.3109C10.0535 19.2234 10.7834 19.9534 11.6829 19.9664C12.5823 19.9795 13.3645 19.1843 13.3645 18.2849C13.3514 17.3724 12.5954 16.6294 11.6568 16.6424C10.7313 16.6685 10.0274 17.3985 10.0404 18.3109ZM20.0255 28.27C20.925 28.2569 21.668 27.527 21.668 26.6275C21.668 25.715 20.9119 24.946 19.9864 24.959C19.087 24.972 18.357 25.702 18.344 26.6145C18.357 27.54 19.1 28.283 20.0255 28.27ZM31.6531 16.6294C31.6531 15.7169 30.9362 14.9999 30.0107 14.9869C29.0851 14.9869 28.316 15.7299 28.3291 16.6424C28.3421 17.5288 29.0851 18.2849 29.9846 18.2979C30.8971 18.3109 31.6531 17.5549 31.6531 16.6294Z" fill="#5F5CEC"/>
</svg>
