<svg width="50" height="51" viewBox="0 0 50 51" fill="none" xmlns="http://www.w3.org/2000/svg">
<path d="M50.0002 22.7433C49.7394 23.6439 49.4916 24.5445 49.2308 25.4451C49.1656 25.6408 49.0482 25.8236 48.9569 26.0193C48.7613 26.45 48.4091 26.6328 47.9657 26.5153C47.4962 26.3978 47.1441 26.4892 46.8963 26.9199C46.8572 26.9852 46.792 27.0504 46.7268 27.1026C46.1399 27.5072 45.8139 28.0032 45.9834 28.7733C46.0225 28.956 45.7747 29.2953 45.5791 29.4128C44.3402 30.1437 42.9838 30.4961 41.5362 30.4961C41.1058 30.4961 40.8711 30.2612 40.7537 29.8957C40.6102 29.452 40.3885 29.1518 39.8669 29.1648C39.7234 29.1648 39.5669 29.1257 39.4495 29.0604C38.8888 28.7733 38.4062 28.8124 37.9106 29.2562C37.7411 29.3998 37.2846 29.3998 37.0629 29.2823C35.7979 28.5775 34.8198 27.5725 34.0894 26.3326C33.8677 25.9541 33.9721 25.6017 34.2459 25.3145C34.5589 24.9752 34.6502 24.6358 34.4155 24.2182C34.3503 24.1138 34.3111 23.9702 34.2981 23.8527C34.259 23.2001 33.9981 22.7564 33.32 22.5345C33.1244 22.4692 32.9287 22.0907 32.9157 21.8427C32.8766 20.394 33.2809 19.0497 33.9721 17.7836C34.2199 17.3399 34.6111 17.3138 35.0284 17.4051C35.4327 17.4965 35.7066 17.4051 35.9283 17.0527C36.0066 16.9222 36.137 16.7917 36.2674 16.7003C36.7891 16.3349 37.0499 15.9042 36.8803 15.2255C36.8282 15.0166 37.089 14.6251 37.2977 14.4946C38.4975 13.7898 39.8147 13.4504 41.1971 13.3982C41.6405 13.3852 41.9796 13.5418 42.097 13.9855C42.2405 14.5076 42.5665 14.7556 43.1012 14.7687C43.1534 14.7687 43.1925 14.7948 43.2447 14.8078C43.8837 15.0688 44.4836 15.1994 45.0444 14.612C45.1618 14.4815 45.5921 14.5207 45.8008 14.6381C47.0659 15.3429 48.044 16.3479 48.7743 17.5878C48.983 17.9272 48.9438 18.2665 48.683 18.5276C48.2787 18.9322 48.2266 19.3498 48.4874 19.8328C48.5135 19.885 48.5265 19.9633 48.5396 20.0155C48.6178 20.6811 48.8526 21.2032 49.5829 21.3859C49.7394 21.4251 49.8568 21.647 49.9872 21.7775C50.0002 22.0907 50.0002 22.417 50.0002 22.7433ZM45.6313 15.9433C45.553 15.9955 45.4748 16.0608 45.3965 16.113C45.3183 16.1652 45.227 16.2174 45.1618 16.2827C44.7053 16.7264 44.2358 16.7525 43.6489 16.4784C43.2186 16.2696 42.723 16.1521 42.2535 16.0999C41.6536 16.0347 41.2232 15.8258 41.0667 15.2255C40.9885 14.9253 40.7928 14.847 40.519 14.9122C39.9582 15.0558 39.3974 15.2124 38.8235 15.3429C38.4323 15.4343 38.3019 15.6692 38.4062 16.0608C38.5497 16.5568 38.328 16.883 37.9367 17.1832C37.5194 17.5095 37.1021 17.875 36.7891 18.3057C36.4239 18.8278 35.9935 19.0627 35.3806 18.9061C35.0936 18.8408 34.9502 18.9583 34.8719 19.2063C34.7154 19.7806 34.5589 20.3679 34.3894 20.9422C34.2981 21.2815 34.3764 21.4903 34.7415 21.5948C35.2762 21.7383 35.511 22.1038 35.5501 22.665C35.5892 23.161 35.7196 23.67 35.9283 24.1138C36.2022 24.7011 36.1891 25.184 35.7588 25.68C35.6675 25.7714 35.6544 26.0715 35.7327 26.1629C36.2413 26.7372 36.7891 27.2854 37.3238 27.8335C37.5194 27.703 37.6237 27.6508 37.702 27.5725C38.1454 27.1418 38.6149 27.1287 39.1757 27.3767C39.6321 27.5856 40.1277 27.7161 40.6233 27.7683C41.2232 27.8205 41.6145 28.0424 41.771 28.6167C41.8622 28.9299 42.0579 29.0343 42.3578 28.956C42.9317 28.7994 43.5185 28.6428 44.0924 28.4861C44.4184 28.3948 44.5358 28.2251 44.4445 27.8727C44.301 27.3376 44.5097 26.9591 44.9662 26.6197C45.3574 26.3326 45.7356 25.9932 46.0095 25.6017C46.3877 25.0666 46.805 24.7664 47.4832 24.936C47.731 25.0013 47.8875 24.8969 47.9527 24.6489C48.1092 24.0877 48.2657 23.5264 48.4222 22.9652C48.5396 22.5737 48.4352 22.3257 48.0179 22.2082C47.5614 22.0777 47.3528 21.7644 47.2876 21.2815C47.2093 20.7333 47.105 20.1852 46.8833 19.6892C46.6224 19.1149 46.6224 18.632 47.0659 18.1752C47.2745 17.9664 47.2354 17.7967 47.0659 17.5878C46.5964 17.0919 46.1138 16.5176 45.6313 15.9433Z" fill="#5F5CEC"/>
<path d="M27.4378 0.0722656C27.803 0.150577 28.1551 0.24194 28.5202 0.307199C29.0028 0.398562 29.2636 0.685702 29.2897 1.16862C29.3027 1.61238 29.4592 1.93868 29.9287 2.0692C30.0722 2.10835 30.2026 2.18666 30.3069 2.27803C30.7895 2.72179 31.2851 2.78705 31.885 2.48686C32.0806 2.39549 32.4979 2.49991 32.6675 2.66958C33.7108 3.68762 34.4151 4.92755 34.7933 6.33715C34.9106 6.78091 34.6889 7.06805 34.3499 7.27688C33.9847 7.51181 33.7891 7.7859 33.9325 8.24272C33.9586 8.33408 33.9586 8.43849 33.9456 8.52986C33.8282 9.2216 33.9064 9.80894 34.5976 10.2266C34.7541 10.318 34.8063 10.7617 34.7541 11.0097C34.4151 12.341 33.7239 13.4896 32.7849 14.4945C32.4588 14.8469 32.1067 14.9383 31.6894 14.7164C31.2459 14.4815 30.8677 14.4945 30.5026 14.8469C30.4504 14.8861 30.3982 14.9253 30.333 14.9514C29.694 15.2124 29.1854 15.5517 29.1854 16.374C29.1854 16.5567 28.8332 16.8439 28.5855 16.9091C27.2291 17.2746 25.8467 17.2485 24.4773 16.9222C23.9948 16.8047 23.8122 16.4654 23.7992 16.0216C23.7861 15.5909 23.6296 15.3168 23.2123 15.1993C23.1341 15.1863 23.0036 15.121 22.9123 15.0427C22.4037 14.6381 21.8951 14.4293 21.243 14.7947C21.0604 14.8992 20.617 14.7425 20.4344 14.5598C19.4433 13.5809 18.7782 12.3932 18.3739 11.0619C18.2434 10.6312 18.3347 10.2658 18.726 10.0439C19.1824 9.76978 19.3389 9.41738 19.2085 8.90836C19.1824 8.817 19.1824 8.71258 19.1955 8.62122C19.3129 7.98168 19.2085 7.47266 18.5956 7.09415C18.426 6.98974 18.3217 6.55903 18.3739 6.3241C18.726 4.90145 19.4563 3.68763 20.4866 2.64348C20.7474 2.38244 21.0735 2.33023 21.3865 2.51296C21.869 2.78705 22.2994 2.74789 22.7037 2.36939C22.7558 2.31718 22.8341 2.26498 22.9123 2.23887C23.5123 2.01699 23.9035 1.67764 23.9426 0.946739C23.9557 0.73791 24.2948 0.463821 24.5426 0.359407C24.9077 0.202785 25.325 0.163628 25.7163 0.0722656C26.2771 0.0722656 26.864 0.0722656 27.4378 0.0722656ZM26.551 15.7084C26.7988 15.6953 27.0335 15.6953 27.2813 15.6953C27.7117 15.6953 27.9855 15.5648 27.9855 15.0688C27.9855 14.6773 28.1812 14.3901 28.5724 14.1944C29.2115 13.8811 29.7983 13.4635 30.4374 13.1502C30.6721 13.0327 30.9982 12.9414 31.2459 13.0066C32.0676 13.2024 32.0676 13.2285 32.511 12.5237C32.7197 12.1974 32.8762 11.832 33.0718 11.4926C33.2804 11.1402 33.2413 10.8661 32.8631 10.6443C32.4458 10.3963 32.3675 10.0308 32.4067 9.56095C32.4588 8.99972 32.4849 8.42544 32.4197 7.86421C32.3414 7.27688 32.4588 6.83312 32.9805 6.53293C33.2413 6.3763 33.2804 6.18053 33.137 5.91949C32.8501 5.41047 32.5501 4.90145 32.2762 4.39242C32.0937 4.05308 31.8589 3.98782 31.5198 4.17054C31.0503 4.44463 30.646 4.31411 30.2287 3.98782C29.8244 3.67457 29.368 3.37438 28.8985 3.20471C28.2985 2.98283 27.9725 2.63043 27.9595 2.00394C27.9595 1.7429 27.8551 1.61238 27.5813 1.61238C26.9813 1.61238 26.3814 1.59933 25.7815 1.58628C25.3903 1.57323 25.1946 1.72985 25.1946 2.16056C25.1946 2.64348 24.9208 2.94367 24.4643 3.13945C23.9426 3.36133 23.434 3.63542 22.9906 3.97477C22.5341 4.34022 22.1168 4.43158 21.6082 4.15749C21.3343 4.00087 21.1256 4.04002 20.9691 4.32717C20.6822 4.83619 20.3823 5.33216 20.0823 5.84118C19.8867 6.16747 19.9649 6.40241 20.2779 6.59818C20.7083 6.87227 20.8387 7.23772 20.7605 7.7598C20.6822 8.28187 20.6561 8.8431 20.7474 9.36517C20.8518 10.0047 20.7083 10.4485 20.1606 10.7748C19.9389 10.9053 19.8997 11.075 20.0301 11.3099C20.3431 11.8581 20.6561 12.4063 20.9691 12.9544C21.1256 13.2285 21.3213 13.2807 21.6082 13.1241C22.0777 12.8631 22.495 12.9283 22.9515 13.2677C23.434 13.6331 23.9948 13.9072 24.5556 14.1813C24.9077 14.351 25.1816 14.5859 25.1816 14.9775C25.1685 15.617 25.5337 15.7345 26.0423 15.7214C26.1858 15.7084 26.3684 15.7084 26.551 15.7084Z" fill="#5F5CEC"/>
<path d="M27.0076 46.8631C26.799 46.7587 26.6033 46.6804 26.4338 46.5629C25.7817 46.1322 25.1427 45.6754 24.4906 45.2577C24.3471 45.1664 24.0993 45.1664 23.9298 45.2316C22.9908 45.5971 22.0648 45.9886 21.1519 46.3932C20.9824 46.4716 20.7998 46.6673 20.7476 46.837C20.5781 47.581 20.4477 48.338 20.3173 49.0819C20.226 49.5779 19.9912 49.8389 19.4565 49.9172C17.9306 50.1261 16.4178 50.1261 14.8919 49.9042C14.4094 49.8389 14.1747 49.5909 14.0834 49.1341C13.9399 48.3641 13.7834 47.6071 13.653 46.837C13.6008 46.576 13.4834 46.4454 13.2096 46.3541C12.2967 46.0147 11.3968 45.6362 10.51 45.2316C10.2361 45.1011 10.0535 45.1011 9.80571 45.2838C9.17971 45.7276 8.54067 46.1453 7.91467 46.576C7.51038 46.8631 7.14522 46.837 6.75397 46.5368C5.55414 45.6232 4.48473 44.579 3.58485 43.3783C3.19361 42.8562 3.19361 42.6604 3.55877 42.1122C3.9761 41.4858 4.38039 40.8593 4.82381 40.2589C4.99335 40.0239 4.96727 39.8543 4.84989 39.5932C4.45864 38.7188 4.06739 37.8443 3.74135 36.9437C3.62398 36.6174 3.46748 36.4869 3.15448 36.4216C2.42415 36.2911 1.68078 36.1345 0.950446 36.017C0.493989 35.9387 0.246198 35.7038 0.167948 35.2209C-0.0537595 33.6938 -0.0537598 32.1798 0.154906 30.6527C0.233156 30.1307 0.480947 29.8696 0.976529 29.7913C1.70686 29.6608 2.45023 29.5042 3.18056 29.3867C3.49356 29.3345 3.62398 29.1909 3.72831 28.8777C4.05435 27.9902 4.40648 27.1157 4.81077 26.2673C4.96727 25.9541 4.94118 25.7452 4.74556 25.4842C4.35431 24.9099 3.96306 24.2834 3.54573 23.683C3.24577 23.2654 3.24577 22.8999 3.55877 22.4823C4.48473 21.2815 5.5411 20.2113 6.75397 19.2846C7.1713 18.9713 7.53647 18.9713 7.9538 19.2585C8.5798 19.7022 9.21884 20.1068 9.84484 20.5637C10.0796 20.7333 10.2491 20.7072 10.4969 20.5898C11.3837 20.1852 12.2836 19.8066 13.1965 19.4673C13.4834 19.3629 13.6139 19.2193 13.653 18.9452C13.7834 18.1882 13.9399 17.4443 14.0703 16.6873C14.1616 16.2043 14.4224 15.9694 14.918 15.9042C16.4309 15.6953 17.9306 15.6953 19.4435 15.9042C19.9391 15.9694 20.2129 16.2043 20.3042 16.6873C20.4346 17.4182 20.5911 18.1491 20.7085 18.893C20.7607 19.2193 20.8911 19.3759 21.2171 19.4934C22.117 19.8197 22.9908 20.1982 23.8646 20.6028C24.1385 20.7333 24.321 20.7203 24.5558 20.5506C25.1948 20.0938 25.8469 19.6761 26.486 19.2324C26.8642 18.9713 27.1902 18.9974 27.5554 19.2585C28.8074 20.1982 29.9159 21.3076 30.8549 22.5606C31.1157 22.8999 31.1288 23.2393 30.881 23.5917C30.4245 24.2573 29.955 24.936 29.5247 25.6147C29.4334 25.7583 29.4334 26.0063 29.4986 26.1629C29.8637 27.1026 30.255 28.0293 30.6593 28.9429C30.7375 29.1126 30.9331 29.3084 31.1027 29.3475C31.833 29.5172 32.5634 29.6347 33.3067 29.7783C33.9718 29.9088 34.1023 30.0654 34.1936 30.731C34.4022 32.1928 34.4022 33.6546 34.1936 35.1034C34.1023 35.7299 33.9718 35.8996 33.3719 36.017C32.6286 36.1606 31.8721 36.3172 31.1157 36.4477C30.8419 36.4999 30.7245 36.6044 30.6201 36.8785C30.2811 37.7921 29.9029 38.6927 29.4986 39.5802C29.3682 39.8543 29.3682 40.037 29.5507 40.285C29.9942 40.9115 30.3984 41.551 30.8419 42.1775C31.1288 42.5821 31.1027 42.9345 30.8027 43.3261C29.8768 44.5399 28.8204 45.6101 27.5945 46.5238C27.438 46.6673 27.2163 46.7456 27.0076 46.8631ZM1.5634 34.6466C2.46327 34.8163 3.31098 34.999 4.17173 35.1556C4.6021 35.2339 4.87598 35.4558 4.98031 35.8865C5.28027 37.1656 5.77585 38.3533 6.46705 39.4758C6.68876 39.8412 6.68876 40.1675 6.44097 40.5199C5.99756 41.1595 5.55414 41.799 5.13681 42.4646C5.05856 42.5821 5.03247 42.8301 5.09768 42.9084C5.81497 43.6915 6.55835 44.4616 7.31476 45.2447C8.12334 44.6965 8.85367 44.2266 9.54488 43.7307C9.93613 43.4435 10.2752 43.4827 10.7186 43.6915C11.8532 44.2136 13.0009 44.6965 14.1747 45.1272C14.6442 45.2969 14.905 45.5188 14.9832 46.0278C15.1137 46.8762 15.3093 47.7115 15.4788 48.5859C16.6526 48.5859 17.7872 48.5859 18.9218 48.5859C19.1044 47.6723 19.287 46.824 19.4304 45.9756C19.5087 45.5057 19.7434 45.2577 20.1868 45.1533C21.4258 44.8662 22.5995 44.3833 23.682 43.7046C24.0993 43.4435 24.4515 43.4566 24.8427 43.7437C25.4426 44.1875 26.0686 44.5921 26.6946 44.9967C26.812 45.075 27.0467 45.1403 27.1119 45.075C27.9205 44.3311 28.703 43.574 29.4855 42.817C28.9247 41.9817 28.4422 41.2639 27.9466 40.5591C27.6727 40.1806 27.6727 39.8282 27.9205 39.4366C28.5987 38.3533 29.0812 37.1786 29.3682 35.9387C29.4855 35.4558 29.7594 35.2339 30.2289 35.1556C30.9462 35.0381 31.6635 34.8815 32.3808 34.751C32.6546 34.6988 32.8111 34.6074 32.7981 34.2811C32.7851 33.3936 32.7851 32.493 32.7981 31.6055C32.7981 31.3184 32.7198 31.1748 32.3938 31.1226C31.6244 31.0051 30.8679 30.8224 30.0985 30.6788C29.6942 30.6136 29.4725 30.3786 29.3812 30.0001C29.0812 28.7211 28.5857 27.5203 27.8944 26.4109C27.6597 26.0324 27.6597 25.693 27.9205 25.3276C28.3639 24.7011 28.7682 24.0615 29.2117 23.4351C29.3682 23.2132 29.3942 23.0566 29.1856 22.8477C28.5335 22.2082 27.8944 21.5686 27.2554 20.9161C27.0467 20.7072 26.8772 20.6942 26.6294 20.8769C26.0295 21.3207 25.3905 21.7122 24.7775 22.1429C24.3993 22.417 24.0472 22.4301 23.6559 22.1821C22.5604 21.5034 21.3736 21.0074 20.1086 20.7072C19.6652 20.6028 19.4565 20.3548 19.3783 19.9111C19.2478 19.1541 19.0783 18.4101 18.9479 17.6661C18.8957 17.379 18.7784 17.2746 18.5045 17.2746C17.5916 17.2876 16.6917 17.2876 15.7788 17.2746C15.4919 17.2746 15.3875 17.3921 15.3354 17.6661C15.2049 18.3971 15.0354 19.128 14.918 19.8719C14.8398 20.3548 14.5789 20.5637 14.1225 20.7333C12.9487 21.164 11.8011 21.647 10.6665 22.169C10.21 22.3779 9.85788 22.404 9.45359 22.1168C8.81455 21.6078 8.09726 21.1379 7.31476 20.6159C6.58443 21.3729 5.88018 22.1168 5.16289 22.8477C4.95423 23.0566 4.99335 23.2132 5.14985 23.4351C5.58022 24.0485 5.98451 24.675 6.41489 25.2884C6.68876 25.6669 6.71485 26.0063 6.45401 26.4109C5.76281 27.5072 5.28027 28.695 4.98031 29.9479C4.87598 30.3786 4.64123 30.6136 4.18477 30.6919C3.41531 30.8224 2.64586 30.979 1.88944 31.1487C1.75903 31.1748 1.57644 31.3445 1.57644 31.4619C1.5634 32.5061 1.5634 33.5633 1.5634 34.6466Z" fill="#5F5CEC"/>
<path d="M41.1706 25.7975C39.8795 25.7453 38.6797 25.0535 37.9884 23.6439C37.2842 22.2213 37.4277 20.8117 38.4058 19.5587C39.3709 18.3318 40.675 17.875 42.227 18.1491C42.7356 18.2405 43.0225 18.6059 42.9573 19.0236C42.8791 19.4804 42.5008 19.6762 41.8879 19.5848C40.036 19.3107 38.6014 20.9422 39.1622 22.6781C39.5534 23.8789 40.8185 24.5706 42.0444 24.2574C43.2442 23.9441 44.0267 22.7564 43.805 21.5295C43.7268 21.0858 43.7398 20.7073 44.1963 20.4984C44.6527 20.2765 45.1092 20.5637 45.2265 21.1249C45.7352 23.5265 43.8963 25.7975 41.1706 25.7975Z" fill="#5F5CEC"/>
<path d="M22.7168 8.59507C22.756 6.16743 24.947 4.37932 27.3205 4.84919C27.8813 4.96666 28.1552 5.29295 28.0639 5.73672C27.9726 6.19353 27.6074 6.37626 27.0336 6.28489C25.6773 6.04996 24.4122 6.91138 24.2166 8.20351C24.008 9.57396 24.9078 10.84 26.2381 11.0097C27.6335 11.1793 28.8203 10.2396 28.9638 8.84305C28.9899 8.56896 28.9246 8.29488 28.9116 8.02079C28.8725 7.52482 29.1203 7.18547 29.5376 7.13326C29.9158 7.08105 30.2549 7.35514 30.3592 7.79891C30.8939 9.95246 29.2768 12.2365 27.0597 12.4715C24.6992 12.7325 22.6908 10.9313 22.7168 8.59507Z" fill="#5F5CEC"/>
<path d="M23.3955 32.9106C23.4086 36.3171 20.6046 39.1363 17.2007 39.1494C13.7969 39.1624 10.9799 36.3563 10.9668 32.9498C10.9538 29.5302 13.7447 26.724 17.1616 26.711C20.5785 26.6979 23.3825 29.478 23.3955 32.9106ZM17.1747 28.1858C14.5533 28.1989 12.4145 30.3394 12.4275 32.9498C12.4536 35.5471 14.5794 37.6745 17.1616 37.6876C19.7699 37.7006 21.9088 35.5601 21.9218 32.9367C21.9348 30.3002 19.796 28.1728 17.1747 28.1858Z" fill="#5F5CEC"/>
<path d="M27.3342 32.7539C27.1516 36.8914 25.4562 39.9586 21.9349 41.838C18.4528 43.6914 14.9577 43.4434 11.606 41.3682C11.4625 41.2768 11.3321 41.1854 11.2278 41.068C10.98 40.7939 10.9408 40.4806 11.1495 40.1804C11.3712 39.8672 11.6842 39.7497 12.0494 39.9194C12.1928 39.9847 12.3233 40.0891 12.4667 40.1674C15.3359 41.9294 18.2963 42.1382 21.2698 40.5328C24.2303 38.9405 25.7431 36.3562 25.8474 33.0019C25.8996 31.2921 25.404 29.6998 24.4781 28.2511C24.4128 28.1466 24.3346 28.0422 24.2563 27.9248C24.0216 27.5201 24.0868 27.1286 24.4128 26.8806C24.765 26.6326 25.1823 26.7109 25.4692 27.1155C26.2256 28.1858 26.7603 29.3735 27.0342 30.6526C27.1907 31.4096 27.2559 32.1797 27.3342 32.7539Z" fill="#5F5CEC"/>
<path d="M8.5015 32.6625C8.54063 34.6203 8.98405 36.1995 9.92304 37.6222C9.98825 37.7266 10.0795 37.831 10.1317 37.9485C10.3404 38.327 10.2752 38.7186 9.94913 38.9535C9.62308 39.1884 9.14054 39.1493 8.93188 38.7577C8.4363 37.8571 7.87551 36.9435 7.54947 35.9777C6.21922 31.9185 7.64076 27.4809 11.0316 24.8836C14.3963 22.2993 19.0261 22.1036 22.6125 24.3876C22.7821 24.492 22.9516 24.5965 23.0951 24.727C23.382 24.988 23.4472 25.3143 23.2385 25.6537C23.0168 26.0061 22.6778 26.0844 22.2995 25.9277C22.143 25.8625 21.9996 25.732 21.8431 25.6406C18.9739 23.9047 16.0135 23.735 13.0791 25.3274C10.0926 26.9197 8.64496 29.5562 8.5015 32.6625Z" fill="#5F5CEC"/>
</svg>
