<svg width="50" height="49" viewBox="0 0 50 49" fill="none" xmlns="http://www.w3.org/2000/svg">
<path d="M0 10.2781C0.195649 9.87376 0.352168 9.44333 0.59999 9.07812C1.0565 8.42595 1.73476 8.0477 2.5304 7.9564C5.97382 7.59118 8.00857 5.58252 8.98681 2.37388C9.33898 1.21302 10.0042 0.391298 11.2042 0.0782594C11.4781 0.0130431 11.7781 0 12.0781 0C20.6866 0 29.2952 0 37.9038 0C39.5211 0 40.5254 0.730423 40.995 2.29562C41.5298 4.08254 42.4167 5.63469 43.995 6.73033C44.9862 7.42162 46.108 7.78683 47.3079 7.91727C48.9514 8.09987 50.0862 9.3129 49.9949 10.9433C49.421 20.7649 46.734 29.8691 40.7733 37.8385C39.4298 39.6385 37.8777 41.2689 36.1951 42.7558C35.7907 43.108 35.3734 43.108 35.0734 42.7819C34.7734 42.4559 34.8125 42.0254 35.2168 41.6733C41.1907 36.3516 44.6732 29.5691 46.7862 21.991C47.7514 18.5214 48.2992 14.9737 48.521 11.3737C48.6123 10.0042 48.2601 9.54768 46.9036 9.33898C43.108 8.73899 40.7994 6.48251 39.6516 2.89561C39.5472 2.59561 39.4429 2.26953 39.2733 2.00866C38.9733 1.56519 38.5168 1.4478 37.9951 1.4478C34.9821 1.46085 31.9691 1.4478 28.9691 1.4478C23.4257 1.4478 17.8693 1.4478 12.3259 1.4478C11.0998 1.4478 10.7607 1.69563 10.3955 2.85648C9.63898 5.25644 8.34769 7.2651 6.02599 8.38682C5.09992 8.8303 4.08254 9.09116 3.06517 9.3129C1.82606 9.57376 1.43476 9.99115 1.52606 11.2824C1.85214 16.5258 2.88256 21.6257 4.74775 26.53C6.74337 31.7865 9.54768 36.5472 13.6041 40.5124C16.6954 43.5384 20.2692 45.7949 24.3648 47.2036C24.7692 47.3471 25.317 47.334 25.7344 47.1906C28.0691 46.408 30.2604 45.2993 32.2951 43.9167C32.3995 43.8384 32.5038 43.7732 32.6212 43.708C33.0386 43.4602 33.456 43.5254 33.6908 43.8906C33.9255 44.2558 33.8343 44.6602 33.4169 44.9341C32.843 45.3254 32.2691 45.7558 31.643 46.0558C29.8691 46.9297 28.0691 47.7645 26.2691 48.5731C25.4866 48.9253 24.6648 48.8862 23.8431 48.5992C17.1649 46.2123 11.9998 41.9341 8.0477 36.1168C4.47384 30.8473 2.24344 25.017 1.04346 18.7954C0.613034 16.578 0.430428 14.3215 0.130433 12.0911C0.117389 11.9607 0.0782598 11.8433 0.0521733 11.7129C1.98247e-07 11.2563 0 10.7737 0 10.2781Z" fill="#5F5CEC"/>
<path d="M44.438 12.9911C43.2771 12.4042 42.1293 11.9216 41.0989 11.2694C39.012 9.93897 37.5511 8.03466 36.5598 5.79121C36.4294 5.49122 36.2859 5.38687 35.9599 5.38687C28.6556 5.39992 21.3514 5.39992 14.0472 5.38687C13.7472 5.38687 13.6167 5.50426 13.4733 5.76513C12.808 6.89989 12.1168 8.00857 11.3863 9.10421C11.0472 9.59985 10.5646 9.65202 10.2255 9.33898C9.88635 9.03899 9.8994 8.6216 10.2777 8.17813C11.1776 7.10858 11.882 5.93469 12.3776 4.63036C12.5733 4.10863 12.8993 3.92603 13.4472 3.92603C21.1557 3.93907 28.8774 3.93907 36.5859 3.93907C37.3294 3.93907 37.4337 4.01733 37.7077 4.69558C38.8815 7.59119 40.7989 9.7955 43.7206 11.0216C44.2423 11.2433 44.7901 11.3868 45.338 11.5563C45.8597 11.7129 46.0553 11.9607 46.0162 12.4694C45.2858 20.2432 43.1467 27.5604 38.712 34.0821C35.4251 38.9081 31.1599 42.5472 25.6687 44.6863C25.2513 44.8428 24.8861 44.8689 24.4557 44.6993C18.9514 42.5732 14.6732 38.9081 11.3602 34.0821C8.19073 29.4648 6.19511 24.3387 5.0473 18.8736C4.61687 16.7997 4.38209 14.6737 4.0821 12.5607C3.99079 11.9476 4.19949 11.752 4.78643 11.5303C5.79076 11.152 6.76901 10.7346 7.74726 10.3042C8.25594 10.0825 8.68637 10.1216 8.89506 10.5129C9.09071 10.8911 8.96028 11.3216 8.49072 11.5563C7.72117 11.9476 6.95162 12.3259 6.14293 12.6259C5.68642 12.7955 5.56903 12.9911 5.6212 13.4607C6.06467 17.3345 6.91249 21.1171 8.25594 24.7822C9.87331 29.1908 12.1168 33.2343 15.3124 36.7038C17.921 39.5342 20.9862 41.6993 24.56 43.1602C24.9122 43.3037 25.1992 43.2906 25.5252 43.1602C30.573 41.0863 34.499 37.669 37.5511 33.1821C40.7337 28.4995 42.6641 23.3083 43.7728 17.791C44.0597 16.3693 44.2293 14.9345 44.438 13.4998C44.4249 13.2911 44.4249 13.0694 44.438 12.9911Z" fill="#5F5CEC"/>
</svg>
