<svg width="100" height="101" viewBox="0 0 100 101" fill="none" xmlns="http://www.w3.org/2000/svg">
<circle cx="50" cy="50.1184" r="50" fill="#F4F7FE"/>
<path d="M22.2218 30.476C22.2653 30.3745 22.3088 30.2876 22.3378 30.1861C22.8305 28.2874 24.3958 27.041 26.3525 26.9975C27.1351 26.983 27.9033 26.9975 28.6859 26.9975C43.5418 26.9975 58.4121 26.9975 73.268 26.983C75.0072 26.983 76.3986 27.6063 77.2102 29.1571C77.5291 29.7513 77.732 30.4905 77.732 31.1717C77.7755 38.317 77.761 45.4623 77.761 52.5931C77.761 53.2453 77.4711 53.5931 76.9638 53.6076C76.4421 53.6221 76.1377 53.2453 76.1377 52.5786C76.1377 47.9117 76.1377 43.2448 76.1377 38.5778C76.1377 38.3604 76.1377 38.1575 76.1377 37.9111C58.702 37.9111 41.3098 37.9111 23.8451 37.9111C23.8451 38.3025 23.8306 38.6938 23.8451 39.0706C23.8596 39.5344 23.7726 39.9547 23.2798 40.1142C22.787 40.2736 22.4537 39.9982 22.2218 39.5924C22.2218 36.5488 22.2218 33.5051 22.2218 30.476ZM76.1377 36.2154C76.1377 34.7081 76.1377 33.2297 76.1377 31.7514C76.1377 31.4036 76.1522 31.0557 76.0942 30.7224C75.9058 29.6353 74.9782 28.5918 73.2535 28.5918C57.7454 28.6208 42.2374 28.6063 26.7293 28.6063C26.5844 28.6063 26.4394 28.6063 26.2945 28.6063C25.0335 28.6643 23.9465 29.5774 23.8886 30.8238C23.8016 32.6065 23.8741 34.3892 23.8741 36.2009C41.2953 36.2154 58.6875 36.2154 76.1377 36.2154Z" fill="#5F5CEC"/>
<path d="M22.2218 43.1722C22.5117 42.8389 22.816 42.5345 23.3233 42.7374C23.8161 42.9403 23.8451 43.3607 23.8451 43.8099C23.8451 50.8103 23.8741 57.7962 23.8161 64.7966C23.8161 66.3764 24.8161 67.7388 26.7873 67.7388C36.5269 67.6953 46.281 67.7243 56.0207 67.7243C56.2671 67.7243 56.528 67.7243 56.7744 67.7822C57.1802 67.8837 57.3686 68.2025 57.3396 68.5939C57.3106 68.9852 57.0787 69.2606 56.6584 69.3185C56.4555 69.3475 56.2671 69.333 56.0642 69.333C46.3245 69.333 36.5704 69.333 26.8307 69.333C24.3523 69.333 22.9755 68.2895 22.2943 65.9126C22.2798 65.8836 22.2508 65.8546 22.2218 65.8256C22.2218 58.289 22.2218 50.7234 22.2218 43.1722Z" fill="#5F5CEC"/>
<path d="M68.7453 60.2894C69.8903 60.7097 70.9338 61.101 71.9773 61.4923C73.2528 61.9706 73.4557 62.9127 72.4846 63.8982C71.6585 64.7244 70.8323 65.5505 69.9337 66.4491C70.3686 66.8404 70.7309 67.2173 71.1367 67.5506C71.2527 67.6376 71.4266 67.6955 71.5715 67.71C72.2527 67.7245 72.9484 67.7245 73.6296 67.71C75.0789 67.6666 76.1225 66.594 76.1225 65.1157C76.137 62.5069 76.1225 59.9125 76.137 57.3037C76.137 57.0718 76.1225 56.7529 76.2674 56.637C76.4993 56.4341 76.8327 56.2457 77.1225 56.2457C77.5139 56.2457 77.7458 56.5935 77.7603 56.9993C77.7747 57.4486 77.7603 57.8979 77.7603 58.3617C77.7603 60.5357 77.7168 62.6953 77.7747 64.8693C77.8472 67.4781 75.8036 69.4638 73.3977 69.3333C73.2818 69.3333 73.1513 69.3478 72.9629 69.3623C73.4412 70.3044 73.0064 70.9711 72.3397 71.5653C71.9194 71.9421 71.5425 72.3625 71.1512 72.7538C70.47 73.4205 69.7308 73.4205 69.0496 72.7538C68.151 71.8697 67.2669 70.9711 66.3394 70.0435C65.4552 70.9276 64.6001 71.7972 63.745 72.6378C62.8899 73.493 61.8898 73.2755 61.4695 72.1451C60.0926 68.4637 58.7158 64.7823 57.3679 61.0865C57.2084 60.6662 57.02 60.5068 56.5562 60.5213C55.7301 60.5647 54.8895 60.5502 54.0633 60.5213C51.8603 60.4778 50.1791 58.782 50.1936 56.608C50.1936 54.4485 51.8893 52.7237 54.0923 52.7092C58.0201 52.6803 61.9333 52.6947 65.8611 52.7092C66.4988 52.7092 67.1365 52.6658 67.7597 52.7527C69.5134 52.9701 70.8323 54.2311 71.1512 55.8688C71.4701 57.5936 70.6729 59.2168 69.0931 60.0864C68.9917 60.1589 68.9192 60.2024 68.7453 60.2894ZM57.9331 58.0139C59.5999 62.4779 61.2086 66.8259 62.8609 71.2609C63.745 70.3768 64.5422 69.5652 65.3393 68.7536C66.2524 67.8405 66.4263 67.8405 67.3539 68.7681C68.2525 69.6812 69.1511 70.5942 69.9917 71.4349C70.4845 70.9711 70.9193 70.5508 71.3831 70.087C70.4265 69.1304 69.4555 68.1738 68.4844 67.2028C67.8612 66.5795 67.8612 66.2317 68.4844 65.6085C69.3685 64.7244 70.2526 63.8548 71.1802 62.9272C66.7597 61.2894 62.4116 59.6806 57.9331 58.0139ZM56.5127 58.9125C56.4403 58.6951 56.3968 58.5356 56.3388 58.3907C56.0634 57.753 55.9765 57.1298 56.5272 56.579C57.078 56.0283 57.6867 56.1587 58.3389 56.4051C60.0057 57.0428 61.7159 57.5791 63.3537 58.3037C64.6871 58.898 66.035 58.956 67.4264 58.898C68.1221 58.869 68.6873 58.5646 69.0931 58.0284C69.6439 57.3037 69.7308 56.492 69.354 55.6804C68.9482 54.7963 68.1945 54.3615 67.2235 54.3615C63.832 54.347 60.426 54.3615 57.0345 54.3615C56.0345 54.3615 55.0489 54.347 54.0489 54.3615C52.7589 54.3905 51.8024 55.405 51.8024 56.666C51.8168 57.9124 52.7734 58.8835 54.0489 58.9125C54.846 58.927 55.6431 58.9125 56.5127 58.9125Z" fill="#5F5CEC"/>
<path d="M41.962 52.883C43.4693 53.4048 44.7738 54.2164 45.8608 55.3614C46.7159 56.26 47.3681 57.3036 47.8029 58.463C48.2957 59.753 47.7159 60.6081 46.3391 60.6081C42.5273 60.6081 38.7155 60.6081 34.9037 60.6081C32.6137 60.6081 30.3092 60.6081 28.0193 60.6081C26.6424 60.6081 26.0481 59.753 26.5554 58.463C27.5555 55.8832 29.3816 54.1005 31.9325 53.057C32.0774 52.999 32.2369 52.941 32.4833 52.854C31.9325 52.1729 31.9615 51.2598 31.1354 50.709C30.3672 50.1872 30.0773 49.3031 30.0628 48.3756C30.0483 47.5494 30.3962 46.8972 31.1643 46.5349C31.4687 46.3899 31.5847 46.2015 31.6281 45.8972C32.034 43.1579 34.179 41.2302 36.9907 41.0418C39.5271 40.8824 41.9475 42.6506 42.6577 45.2015C42.6722 45.2739 42.7012 45.3464 42.7157 45.4044C42.7592 45.9841 42.9476 46.4189 43.5128 46.7813C43.8897 47.0277 44.1505 47.6074 44.2375 48.0857C44.4114 49.0712 44.0491 49.9698 43.3099 50.622C42.8751 51.0134 42.5852 51.4192 42.3968 51.9699C42.3099 52.2743 42.1215 52.5497 41.962 52.883ZM37.2081 53.7961C39.0923 53.7961 40.7011 52.5062 41.1359 50.622C41.2518 50.1293 41.4113 49.7524 41.9765 49.622C42.3678 49.535 42.6722 48.8249 42.6577 48.3611C42.6432 47.8393 42.2084 47.9263 41.904 47.8538C41.4403 47.7378 41.2663 47.419 41.2373 46.9842C41.2084 46.6073 41.2229 46.216 41.1359 45.8537C40.7011 43.8681 38.8749 42.4912 36.9473 42.6796C34.8022 42.8825 33.2514 44.5203 33.1934 46.6653C33.1645 47.6509 33.121 47.6944 32.1644 47.9263C32.005 47.9697 31.7876 48.1002 31.7296 48.2451C31.5702 48.6654 31.9905 49.5495 32.4253 49.6365C33.034 49.7524 33.1789 50.1438 33.2949 50.651C33.6862 52.4627 35.3385 53.7961 37.2081 53.7961ZM46.2666 58.9558C45.1796 56.4774 43.4114 54.9411 40.8895 54.2889C40.7446 54.2454 40.5417 54.3469 40.4112 54.4338C38.2807 55.7673 36.1646 55.7672 34.0341 54.4483C33.8457 54.3324 33.5558 54.2744 33.3529 54.3324C31.0484 54.9411 29.3961 56.3325 28.3236 58.4485C28.2512 58.5935 28.2077 58.7674 28.1497 58.9558C34.208 58.9558 40.1793 58.9558 46.2666 58.9558Z" fill="#5F5CEC"/>
<path d="M60.6878 50.9844C58.4703 50.9844 56.2383 50.9989 54.0208 50.9844C52.1076 50.9699 50.4699 49.5205 50.2235 47.6798C49.9626 45.6942 51.1076 43.8536 53.0062 43.3608C53.6585 43.1869 54.3686 43.2013 55.0498 43.2013C55.5136 43.2013 55.8325 43.5927 55.8325 44.013C55.8325 44.4623 55.4846 44.7811 54.9774 44.8101C54.673 44.8246 54.3686 44.8101 54.0498 44.8246C52.7454 44.8826 51.7888 45.8682 51.8033 47.1291C51.8178 48.39 52.7888 49.3756 54.0933 49.3756C58.4703 49.3901 62.8329 49.3901 67.2099 49.3756C68.5578 49.3756 69.5434 48.419 69.5578 47.1291C69.5723 45.8537 68.5868 44.8391 67.2534 44.8391C64.717 44.8246 62.1951 44.8391 59.6588 44.8391C59.4848 44.8391 59.253 44.8971 59.1225 44.8101C58.8616 44.6217 58.5718 44.4043 58.4703 44.1289C58.3399 43.7521 58.5718 43.4332 58.9631 43.2883C59.108 43.2303 59.2819 43.2158 59.4414 43.2158C62.0647 43.2158 64.688 43.1869 67.2969 43.2158C69.3404 43.2448 70.9927 44.7666 71.1521 46.7523C71.3261 48.8103 70.0071 50.5641 67.9781 50.9554C67.6737 51.0134 67.3693 51.0134 67.065 51.0134C64.9489 50.9844 62.8184 50.9844 60.6878 50.9844Z" fill="#5F5CEC"/>
<path d="M39.9035 32.4182C39.9035 33.2443 39.2079 33.94 38.3962 33.9255C37.5846 33.9255 36.8744 33.2153 36.8889 32.3892C36.9034 31.5921 37.5846 30.9109 38.3817 30.8964C39.2079 30.9109 39.9035 31.5921 39.9035 32.4182Z" fill="#5F5CEC"/>
<path d="M30.6137 32.4326C30.6137 33.2442 29.947 33.9254 29.1354 33.9254C28.3092 33.9399 27.6281 33.2442 27.6281 32.4036C27.6281 31.592 28.2948 30.9108 29.1064 30.9108C29.9325 30.9108 30.6282 31.592 30.6137 32.4326Z" fill="#5F5CEC"/>
<path d="M33.7598 33.9399C32.9337 33.9399 32.2525 33.2297 32.267 32.3891C32.2814 31.5775 32.9626 30.9108 33.7743 30.9108C34.6004 30.9108 35.2671 31.6065 35.2526 32.4616C35.2381 33.2732 34.5569 33.9399 33.7598 33.9399Z" fill="#5F5CEC"/>
<path d="M37.2946 50.6367C37.6714 50.6367 38.0483 50.6222 38.4251 50.6512C38.5555 50.6657 38.7874 50.7817 38.7874 50.8686C38.8019 51.0136 38.715 51.2165 38.599 51.3034C37.9178 51.8252 36.6424 51.8252 35.9467 51.3034C35.8308 51.2165 35.7003 50.9846 35.7438 50.8831C35.7873 50.7672 36.0047 50.6657 36.1641 50.6512C36.5409 50.6077 36.9178 50.6367 37.2946 50.6367Z" fill="#5F5CEC"/>
<path d="M35.9765 48.1C35.9765 48.5203 35.5997 48.8971 35.1793 48.8971C34.759 48.8971 34.3822 48.5203 34.3822 48.1C34.3822 47.6797 34.7445 47.3029 35.1793 47.3029C35.5997 47.3029 35.9765 47.6652 35.9765 48.1Z" fill="#5F5CEC"/>
<path d="M40.1652 48.0856C40.1652 48.5204 39.8028 48.8827 39.3825 48.8827C38.9622 48.8827 38.5999 48.5204 38.5999 48.0856C38.5999 47.6508 38.9477 47.2885 39.3825 47.2885C39.8028 47.3029 40.1652 47.6653 40.1652 48.0856Z" fill="#5F5CEC"/>
</svg>
