<svg width="100" height="101" viewBox="0 0 100 101" fill="none" xmlns="http://www.w3.org/2000/svg">
<circle cx="50" cy="50.1184" r="50" fill="#F4F7FE"/>
<path d="M77.7783 43.2987C77.6334 44.0524 77.5319 44.8206 77.3435 45.5742C76.8797 47.4585 75.6622 48.6035 73.778 49.0238C73.3866 49.1108 73.2997 49.2412 73.2707 49.6036C73.1257 52.4154 73.0098 55.2417 72.7634 58.0536C72.4445 61.8075 69.1979 64.9962 65.4439 65.2281C62.0668 65.4455 58.6897 65.547 55.3126 65.7064C55.0952 65.7209 54.8923 65.7354 54.6604 65.7499C54.6604 66.0543 54.6604 66.3152 54.6604 66.634C55.8779 66.7065 57.0954 66.75 58.2839 66.8659C59.6463 66.9964 61.0088 67.1413 62.3567 67.4167C63.3858 67.6341 64.2699 68.2574 65.0526 68.9676C65.4729 69.3589 65.5454 69.8517 65.2265 70.2141C64.9076 70.5764 64.4148 70.5909 63.98 70.1851C62.951 69.2575 61.7479 68.7502 60.3565 68.6487C58.4143 68.5183 56.4576 68.3733 54.5009 68.2284C53.6168 70.4895 52.0514 71.7649 49.6165 71.6055C47.5438 71.4605 46.2249 70.2431 45.5002 68.2719C44.8334 68.3009 44.1522 68.3153 43.4855 68.3733C41.8767 68.5038 40.2678 68.5473 38.688 68.8226C36.2675 69.243 34.4992 71.2866 34.2528 73.7361C34.1658 74.5623 34.1368 75.3884 34.0789 76.2436C44.7175 76.2436 55.2836 76.2436 65.9802 76.2436C65.8498 75.0841 65.7628 73.968 65.5889 72.852C65.5019 72.2287 65.6468 71.8084 66.1251 71.678C66.5889 71.5475 67.0672 71.8229 67.1397 72.4461C67.3281 73.997 67.4441 75.5624 67.56 77.1277C67.589 77.5046 67.3281 77.7654 66.9513 77.8524C66.7484 77.8959 66.5165 77.8959 66.2991 77.8959C55.4286 77.8959 44.558 77.8959 33.6875 77.8959C32.557 77.8959 32.3251 77.6785 32.4121 76.548C32.5135 75.1855 32.5135 73.7796 32.8469 72.4606C33.5861 69.4169 36.1805 67.3153 39.2967 67.0544C41.2969 66.8949 43.2826 66.75 45.3117 66.6051C45.3117 66.3442 45.3117 66.0688 45.3117 65.6774C44.8624 65.6774 44.4131 65.6919 43.9783 65.6774C40.8331 65.5325 37.6879 65.431 34.5572 65.2281C30.8032 64.9817 27.5421 61.8075 27.2377 58.0536C27.0058 55.2562 26.8898 52.4589 26.7449 49.6616C26.7304 49.2557 26.6145 49.1108 26.1796 49.0093C24.3824 48.618 23.1794 47.5164 22.7011 45.7337C22.0923 43.4436 22.0633 41.1246 22.6141 38.82C23.1214 36.6604 24.4548 35.4284 26.6724 35.0951C26.7739 35.0806 26.8898 35.0661 27.0348 35.0516C27.0928 34.4138 27.1507 33.7906 27.2087 33.1674C27.6 29.1525 30.9482 25.9928 34.9775 25.8334C35.6587 25.8044 36.3399 25.7464 37.0501 25.7029C37.3835 24.3115 38.1517 23.2969 39.4417 22.7317C39.833 22.5577 40.2678 22.4853 40.6736 22.3693C40.8911 22.3693 41.1085 22.3693 41.3259 22.3693C41.4128 22.3983 41.4853 22.4418 41.5723 22.4563C43.1086 22.7027 44.1522 23.5723 44.732 25.0072C44.8479 25.2826 44.9639 25.4565 45.2682 25.3841C45.6161 25.3116 46.0654 25.587 46.2538 25.0072C46.5582 24.1086 47.1525 23.3839 48.0076 22.9491C48.5294 22.6737 49.1237 22.5432 49.6744 22.3548C49.8918 22.3548 50.1093 22.3548 50.3267 22.3548C51.9935 22.6737 53.1965 23.5143 53.8487 25.1377C53.9212 25.3261 54.5009 25.3406 54.8488 25.3551C54.9792 25.3696 55.1822 25.1812 55.2401 25.0362C55.588 24.1666 56.1098 23.4274 56.9359 22.9926C57.4867 22.7027 58.1099 22.5577 58.6897 22.3403C58.9071 22.3403 59.1245 22.3403 59.3419 22.3403C59.7333 22.4563 60.1536 22.5288 60.5304 22.6882C61.8639 23.239 62.6466 24.268 62.9799 25.674C63.6901 25.7174 64.4003 25.7754 65.0961 25.8189C68.85 26.0218 71.9807 28.7032 72.6909 32.3992C72.8649 33.2543 72.9083 34.153 73.0098 35.0371C73.1257 35.0516 73.2272 35.0661 73.3432 35.0806C75.5752 35.4429 76.9087 36.6749 77.416 38.8925C77.5609 39.5592 77.6624 40.2404 77.7783 40.9072C77.7783 41.7043 77.7783 42.5015 77.7783 43.2987ZM50.0078 26.8335C44.9349 27.0509 39.8475 27.2103 34.7601 27.4857C31.6874 27.6451 29.1074 30.1671 28.8465 33.2108C28.6146 35.8777 28.4697 38.5446 28.3682 41.226C28.1653 46.7917 28.3103 52.3574 28.832 57.9086C29.1074 60.8799 31.6439 63.4019 34.6151 63.5903C38.0357 63.8077 41.4708 63.9671 44.9059 64.0686C51.7181 64.2715 58.5303 64.1121 65.3425 63.6048C68.3572 63.3874 70.8647 60.9089 71.1546 57.8942C71.343 55.8795 71.4734 53.8648 71.5749 51.8357C71.8358 45.8496 71.7053 39.8781 71.256 33.9066C70.9661 30.2831 68.4877 27.6306 65.1106 27.4712C60.0811 27.2248 55.0662 27.0509 50.0078 26.8335ZM26.8464 36.7474C25.5999 36.8633 24.5998 37.6025 24.2954 38.7186C23.6722 40.9651 23.6722 43.2117 24.2954 45.4583C24.5853 46.5308 25.6723 47.386 26.6 47.3715C26.6869 43.8495 26.7739 40.3129 26.8464 36.7474ZM73.3866 47.4005C74.1983 47.415 75.3868 46.6033 75.7057 45.4293C76.2999 43.2262 76.2999 41.0086 75.7057 38.791C75.3868 37.6025 74.3288 36.7909 73.1402 36.7619C73.2272 40.3129 73.2997 43.8494 73.3866 47.4005ZM46.9496 65.7789C46.9785 66.3876 46.9641 66.9674 47.051 67.5327C47.2684 68.8951 48.4279 69.9242 49.7614 69.9967C51.2108 70.0836 52.5008 69.243 52.8486 67.8805C53.0225 67.2138 52.9936 66.5036 53.066 65.7789C50.9934 65.7789 49.0222 65.7789 46.9496 65.7789ZM38.8329 25.6015C40.2533 25.5435 41.6592 25.4855 43.0941 25.4276C42.6593 24.471 41.7317 23.9347 40.7896 24.0506C39.804 24.1521 39.0358 24.7463 38.8329 25.6015ZM56.9214 25.4276C58.3419 25.4855 59.7478 25.5435 61.1827 25.6015C60.8928 24.6739 60.0666 24.0651 59.081 24.0361C58.2984 23.9927 57.1823 24.4999 56.9214 25.4276ZM47.9062 25.2971C49.3266 25.2971 50.6745 25.2971 52.0804 25.2971C51.5876 24.4565 50.9064 24.0506 50.0223 24.0361C49.1237 24.0216 48.4135 24.4275 47.9062 25.2971Z" fill="#5F5CEC"/>
<path d="M50.0365 29.1234C54.5586 29.2973 59.0662 29.4567 63.5884 29.6596C66.4292 29.7901 68.067 31.5149 68.3569 34.3557C68.7482 38.2981 68.9222 42.2549 68.7627 46.2118C68.6758 48.5163 68.5018 50.8354 68.2265 53.1254C67.9801 55.2271 66.1103 56.8214 63.9942 56.9664C56.7037 57.4447 49.3987 57.5461 42.0937 57.2707C40.0356 57.1983 37.9774 57.0823 35.9193 56.9519C33.7017 56.8069 31.861 54.9372 31.7015 52.7051C31.6581 52.2123 31.9479 51.821 32.3828 51.7485C32.8611 51.676 33.2234 51.9659 33.3104 52.5022C33.6437 54.3719 34.6003 55.2126 36.4991 55.343C43.6736 55.8213 50.8481 55.8938 58.0227 55.6329C59.9939 55.5604 61.965 55.4445 63.9217 55.314C65.4146 55.2271 66.5452 54.0531 66.7046 52.4732C67.2843 47.0959 67.3423 41.7186 66.9075 36.3414C66.835 35.4572 66.7626 34.5731 66.6176 33.7035C66.4002 32.399 65.3856 31.4569 64.0812 31.3264C62.6028 31.1815 61.1244 31.109 59.646 31.0511C52.5584 30.7322 45.4709 30.7612 38.3833 31.1525C37.6296 31.196 36.8614 31.225 36.1077 31.2975C34.4844 31.4714 33.4698 32.5439 33.2959 34.1673C32.7741 39.1242 32.6871 44.0667 32.9915 49.0236C32.9915 49.1251 33.006 49.241 33.006 49.3425C32.977 49.8063 32.7161 50.0962 32.2523 50.1252C31.7885 50.1542 31.4696 49.9078 31.4262 49.444C31.3537 48.8352 31.3247 48.2265 31.2957 47.6032C31.0783 42.8927 31.1653 38.1966 31.774 33.5295C32.0204 31.5149 33.7162 29.8625 35.7309 29.7466C39.5428 29.5147 43.3547 29.3987 47.1667 29.2538C48.1233 29.2103 49.0799 29.2538 50.0365 29.2538C50.0365 29.1958 50.0365 29.1668 50.0365 29.1234Z" fill="#5F5CEC"/>
<path d="M40.5143 41.168C38.2242 41.168 36.34 39.3128 36.3255 37.0227C36.311 34.7182 38.2242 32.805 40.5288 32.8195C42.8333 32.834 44.6886 34.7037 44.6741 37.0082C44.6886 39.3128 42.8333 41.168 40.5143 41.168ZM43.0652 37.0082C43.0652 35.6023 41.9347 34.4573 40.5288 34.4428C39.1374 34.4283 37.9633 35.5878 37.9633 36.9793C37.9489 38.3852 39.0939 39.5302 40.4998 39.5302C41.9202 39.5447 43.0507 38.4142 43.0652 37.0082Z" fill="#5F5CEC"/>
<path d="M59.4878 41.168C57.1833 41.168 55.3136 39.3272 55.3136 37.0227C55.2991 34.6891 57.1833 32.8049 59.5023 32.8194C61.7924 32.8339 63.6766 34.7181 63.6766 37.0082C63.6621 39.2837 61.7924 41.1535 59.4878 41.168ZM59.4878 39.5301C60.8938 39.5301 62.0388 38.3851 62.0388 36.9792C62.0388 35.5878 60.8648 34.4283 59.4733 34.4427C58.0674 34.4572 56.9369 35.6023 56.9369 37.0082C56.9369 38.4286 58.0674 39.5446 59.4878 39.5301Z" fill="#5F5CEC"/>
</svg>
